<?xml version="1.0" encoding="UTF-8" standalone="no"?>
<!-- Created with Inkscape (http://www.inkscape.org/) -->

<svg
   version="1.1"
   id="svg1"
   width="1600"
   height="1600"
   viewBox="0 0 1600 1600"
   sodipodi:docname="c++LogoBlanco2.svg"
   inkscape:version="1.4.2 (f4327f4, 2025-05-13)"
   xmlns:inkscape="http://www.inkscape.org/namespaces/inkscape"
   xmlns:sodipodi="http://sodipodi.sourceforge.net/DTD/sodipodi-0.dtd"
   xmlns="http://www.w3.org/2000/svg"
   xmlns:svg="http://www.w3.org/2000/svg">
  <defs
     id="defs1" />
  <sodipodi:namedview
     id="namedview1"
     pagecolor="#505050"
     bordercolor="#ffffff"
     borderopacity="1"
     inkscape:showpageshadow="0"
     inkscape:pageopacity="0"
     inkscape:pagecheckerboard="1"
     inkscape:deskcolor="#505050"
     inkscape:zoom="0.509375"
     inkscape:cx="800"
     inkscape:cy="800"
     inkscape:window-width="1920"
     inkscape:window-height="1017"
     inkscape:window-x="-8"
     inkscape:window-y="-8"
     inkscape:window-maximized="1"
     inkscape:current-layer="svg1" />
  <path
     style="fill:#ffffff"
     d="m 779,1534.4623 c -11.9756,-1.8935 -24.99734,-5.8739 -35.5,-10.8512 -10.69676,-5.0694 -548.07159,-306.9228 -557.5,-313.1582 -29.84972,-19.7406 -51.223,-53.0694 -56.50486,-88.1117 -2.23897,-14.8543 -2.23897,-629.82806 0,-644.6824 C 134.777,442.61647 156.15028,409.28771 186,389.54707 193.04416,384.88852 728.97657,83.526454 740.5,77.74419 c 35.40411,-17.765183 80.9628,-18.094558 117,-0.845873 11.83397,5.664159 547.0224,306.333253 556.5,312.641943 30.0582,20.00801 51.2108,52.99517 56.5049,88.11854 2.2389,14.85434 2.2389,629.8281 0,644.6824 -5.2815,35.0394 -26.5805,68.259 -56.5049,88.1291 -9.559,6.3473 -544.7469,307.0059 -556.5,312.6314 -23.55238,11.273 -52.53065,15.4668 -78.5,11.3606 z m 63,-352.9834 c 79.65958,-9.1213 151.35323,-40.7908 211,-93.2056 17.4185,-15.3065 37.5495,-36.6903 49.3283,-52.3981 l 2.7181,-3.6248 -68.5027,-39.64872 c -37.67649,-21.80679 -69.2124,-39.92105 -70.0798,-40.25391 -1.08135,-0.41495 -4.46706,2.20635 -10.7705,8.3388 C 913.90501,1001.3413 858.18517,1024 800,1024 661.58097,1024 555.6593,898.37593 579.09109,762 c 7.94556,-46.24418 31.18343,-89.83134 65.61678,-123.07707 60.33083,-58.25001 146.65337,-77.87298 226.10121,-51.39768 31.5792,10.5235 59.81876,27.63075 83.9191,50.83737 6.86819,6.6135 10.7482,9.66855 11.77763,9.27352 0.84436,-0.32401 32.3614,-18.43103 70.03789,-40.23782 l 68.5027,-39.64872 -2.7181,-3.6248 C 1078.7151,532.63516 1041.8457,499.09857 1004.804,475.41639 990.77301,466.4458 958.32893,449.7153 944,444.06146 895.62306,424.9731 851.74917,416.61734 800,416.63671 c -28.52489,0.0107 -45.21472,1.42837 -69.33013,5.88913 C 583.46461,449.7552 465.34471,560.15868 428.01312,705.41092 419.87937,737.05824 416.64663,763.96031 416.64663,800 c 0,28.50751 1.4319,45.42425 5.89031,69.58908 23.30467,126.31283 108.96639,232.96442 228.05626,283.93752 23.227,9.9416 56.66918,19.8343 82.4068,24.3772 11.82187,2.0866 34.49361,4.7843 46,5.4734 12.53084,0.7505 49.62971,-0.3674 63,-1.8983 z M 1120,864 v -32 h 32 32 v -32 -32 h -32 -32 v -32 -32 h -32 -32 v 32 32 h -32 -32 v 32 32 h 32 32 v 32 32 h 32 32 z m 224,0 v -32 h 32 32 v -32 -32 h -32 -32 v -32 -32 h -32 -32 v 32 32 h -32 -32 v 32 32 h 32 32 v 32 32 h 32 32 z"
     id="path1" />
</svg>
