<?xml version="1.0" encoding="UTF-8" standalone="no"?>
<!-- Created with Inkscape (http://www.inkscape.org/) -->

<svg
   version="1.1"
   id="svg1"
   width="1600"
   height="1600"
   viewBox="0 0 1600 1600"
   sodipodi:docname="cLogoBlanco.svg"
   inkscape:version="1.4.2 (f4327f4, 2025-05-13)"
   xmlns:inkscape="http://www.inkscape.org/namespaces/inkscape"
   xmlns:sodipodi="http://sodipodi.sourceforge.net/DTD/sodipodi-0.dtd"
   xmlns="http://www.w3.org/2000/svg"
   xmlns:svg="http://www.w3.org/2000/svg">
  <defs
     id="defs1" />
  <sodipodi:namedview
     id="namedview1"
     pagecolor="#505050"
     bordercolor="#ffffff"
     borderopacity="1"
     inkscape:showpageshadow="0"
     inkscape:pageopacity="0"
     inkscape:pagecheckerboard="1"
     inkscape:deskcolor="#505050"
     inkscape:zoom="0.509375"
     inkscape:cx="800"
     inkscape:cy="800"
     inkscape:window-width="1920"
     inkscape:window-height="1017"
     inkscape:window-x="-8"
     inkscape:window-y="-8"
     inkscape:window-maximized="1"
     inkscape:current-layer="svg1" />
  <path
     style="fill:#ffffff"
     d="m 779,1534.4623 c -12.01138,-1.8992 -25.02094,-5.8822 -35.5,-10.8686 -10.81279,-5.1453 -548.19393,-306.985 -557.5,-313.1402 -29.85209,-19.7448 -51.22301,-53.0701 -56.50486,-88.1123 -2.23897,-14.8543 -2.23897,-629.82806 0,-644.6824 5.28185,-35.04224 26.65277,-68.36752 56.50486,-88.11229 9.30607,-6.15522 546.68721,-307.994899 557.5,-313.140172 34.57802,-16.453969 78.31216,-16.460209 113,-0.01612 10.91765,5.175613 548.2996,307.024865 557.5,313.149635 30.06,20.01113 51.2108,52.99565 56.5049,88.11895 2.2389,14.85434 2.2389,629.8281 0,644.6824 -5.2017,34.5103 -24.8558,65.7422 -54.7457,86.9952 -7.5567,5.3731 -546.44873,308.2018 -559.2592,314.2739 -22.73338,10.7756 -52.03449,14.8785 -77.5,10.852 z m 45,-351.4793 c 54.16293,-3.6881 101.75363,-16.6006 149.06321,-40.4443 36.48889,-18.3901 66.91459,-40.5103 96.99689,-70.5191 13.5713,-13.5381 31.2245,-33.4578 34.248,-38.6451 0.3984,-0.6835 -2.3804,-2.8794 -7.0761,-5.5919 -4.2526,-2.4566 -35.0327,-20.2876 -68.4002,-39.62455 -33.36757,-19.33694 -61.40554,-35.44098 -62.30664,-35.78677 -1.16101,-0.44552 -4.31699,1.97726 -10.83176,8.31529 C 913.90501,1001.3413 858.18517,1024 800,1024 661.58097,1024 555.6593,898.37593 579.09109,762 c 7.94556,-46.24418 31.18343,-89.83134 65.61678,-123.07707 60.33083,-58.25001 146.65337,-77.87298 226.10121,-51.39768 31.5792,10.5235 59.81876,27.63075 83.9191,50.83737 6.92905,6.6721 10.74378,9.67025 11.79218,9.26794 0.85236,-0.32708 28.87146,-16.42367 62.26464,-35.77019 33.3933,-19.34653 64.1944,-37.18564 68.447,-39.64248 4.6956,-2.71274 7.4745,-4.90895 7.0761,-5.59243 -3.0235,-5.18723 -20.6767,-25.10696 -34.248,-38.64507 C 1023.6051,481.63895 969.4991,449.53667 907.5,431.52985 814.43703,404.50092 714.56103,413.60828 627.95971,457.0202 537.92271,502.15437 468.26372,582.34133 436.42735,677.5 c -14.29413,42.72502 -19.78072,76.70292 -19.78072,122.5 0,28.50751 1.4319,45.42425 5.89031,69.58908 23.30467,126.31283 108.96639,232.96442 228.05626,283.93752 14.29245,6.1174 42.70986,15.5172 58.4068,19.3195 37.91779,9.1848 77.60554,12.6832 115,10.1369 z M 1184,928 v -32 h 32 32 v 32 32 h 32 32 v -32 -32 h 32 32 v -32 -32 h -32 -32 v -32 -32 h 32 32 v -32 -32 h -32 -32 v -32 -32 h -32 -32 v 32 32 h -32 -32 v -32 -32 h -32 -32 v 32 32 h -32 -32 v 32 32 h 32 32 v 32 32 h -32 -32 v 32 32 h 32 32 v 32 32 h 32 32 z m 0,-128 v -32 h 32 32 v 32 32 h -32 -32 z"
     id="path1" />
</svg>
