<?xml version="1.0" encoding="UTF-8" standalone="no"?>
<!-- Created with Inkscape (http://www.inkscape.org/) -->

<svg
   version="1.1"
   id="svg1"
   width="9333.333"
   height="9333.333"
   viewBox="0 0 9333.333 9333.333"
   sodipodi:docname="cssLogoNegro2.svg"
   inkscape:version="1.4.2 (f4327f4, 2025-05-13)"
   xmlns:inkscape="http://www.inkscape.org/namespaces/inkscape"
   xmlns:sodipodi="http://sodipodi.sourceforge.net/DTD/sodipodi-0.dtd"
   xmlns="http://www.w3.org/2000/svg"
   xmlns:svg="http://www.w3.org/2000/svg">
  <defs
     id="defs1" />
  <sodipodi:namedview
     id="namedview1"
     pagecolor="#505050"
     bordercolor="#ffffff"
     borderopacity="1"
     inkscape:showpageshadow="0"
     inkscape:pageopacity="0"
     inkscape:pagecheckerboard="1"
     inkscape:deskcolor="#505050"
     inkscape:zoom="0.087321432"
     inkscape:cx="4678.1184"
     inkscape:cy="4666.6665"
     inkscape:window-width="1920"
     inkscape:window-height="1017"
     inkscape:window-x="-8"
     inkscape:window-y="-8"
     inkscape:window-maximized="1"
     inkscape:current-layer="svg1" />
  <path
     style="fill:#000000"
     d="m 4566.2846,8869.7938 c -0.5538,-0.8962 -14.3318,-1.7444 -37.9107,-2.334 -20.3724,-0.5094 -41.5407,-1.1658 -47.0407,-1.4586 -5.5,-0.2929 -17.5,-0.8762 -26.6667,-1.2962 -19.7818,-0.9064 -28.3789,-1.4194 -68,-4.0576 -16.5,-1.0986 -35.1,-2.3151 -41.3333,-2.7032 -6.2334,-0.3881 -14.0334,-0.9615 -17.3334,-1.2742 -3.3,-0.3127 -10.5,-0.9309 -16,-1.3737 -5.5,-0.4428 -12.0999,-1.0216 -14.6666,-1.2862 -2.5667,-0.2645 -8.8667,-0.8538 -14,-1.3094 -5.1333,-0.4557 -11.7333,-1.0716 -14.6667,-1.3687 -2.9333,-0.2971 -9.5333,-0.9037 -14.6666,-1.3481 -16.1486,-1.3979 -47.9136,-4.7558 -50,-5.2855 -1.1,-0.2792 -6.2,-0.8862 -11.3334,-1.3488 -5.1333,-0.4626 -10.8333,-1.0616 -12.6666,-1.3312 -1.8334,-0.2696 -6.3334,-0.8494 -10,-1.2885 -3.6667,-0.4391 -8.7667,-1.0514 -11.3334,-1.3607 -2.5666,-0.3093 -7.3666,-0.8726 -10.6666,-1.2516 -15.9426,-1.8313 -42.2968,-5.3286 -71.4816,-9.4857 -17.6815,-2.5186 -34.7815,-4.8961 -38,-5.2833 -3.2185,-0.3871 -7.3518,-1.0022 -9.1851,-1.3669 -1.8333,-0.3646 -5.4333,-0.9523 -8,-1.306 -2.5667,-0.3537 -6.7667,-0.9682 -9.3333,-1.3657 -2.5667,-0.3975 -7.3667,-1.0208 -10.6667,-1.3853 -3.3,-0.3644 -14.1,-2.1489 -24,-3.9655 -9.9,-1.8167 -20.4,-3.6101 -23.3333,-3.9855 -2.9334,-0.3753 -6.7131,-0.9919 -8.3994,-1.3702 -1.6862,-0.3782 -8.2862,-1.5924 -14.6666,-2.6981 -6.3804,-1.1057 -13.1007,-2.2709 -14.934,-2.5894 -1.8334,-0.3184 -12.9334,-2.4213 -24.6667,-4.6731 -11.7333,-2.2518 -24.8327,-4.6888 -29.1098,-5.4155 -4.277,-0.7267 -14.477,-2.7588 -22.6666,-4.5158 -8.1897,-1.757 -24.1903,-5.0784 -35.5569,-7.381 -22.7049,-4.5994 -50.7785,-10.713 -67.3334,-14.6634 -5.8666,-1.3999 -12.7666,-2.9052 -15.3333,-3.3451 -2.5667,-0.4399 -25.9667,-6.129 -52,-12.6423 -26.0333,-6.5133 -48.9734,-12.1393 -50.978,-12.5023 -2.0046,-0.3629 -4.1046,-0.9421 -4.6667,-1.287 -0.5621,-0.3449 -3.3194,-0.9907 -6.1273,-1.4351 -2.808,-0.4444 -6.1791,-1.3826 -7.4914,-2.085 -1.3123,-0.7023 -2.7249,-0.9379 -3.1392,-0.5236 -0.4143,0.4143 -1.5432,0.26 -2.5087,-0.3428 -0.9654,-0.6028 -2.3554,-1.2278 -3.0887,-1.3889 -9.3611,-2.0562 -34.2921,-8.5492 -46,-11.9801 -6.2333,-1.8266 -29.6333,-8.6274 -52,-15.1129 -38.0132,-11.0223 -123.3339,-37.5527 -149.6666,-46.5387 -6.4167,-2.1897 -11.6667,-3.6459 -11.6667,-3.2359 0,0.41 -0.9,-0 -2,-0.9145 -1.1,-0.9129 -2,-1.2129 -2,-0.6666 0,0.5462 -0.9,0.2462 -2,-0.6667 -1.1,-0.9129 -2,-1.2129 -2,-0.6667 0,0.5463 -0.7971,0.3317 -1.7713,-0.4768 -0.9743,-0.8086 -2.9243,-1.6919 -4.3334,-1.963 -1.4091,-0.2711 -3.462,-0.8785 -4.562,-1.3498 -1.1,-0.4713 -14.9,-5.2937 -30.6666,-10.7164 -52.2787,-17.9804 -104.6892,-37.7169 -194,-73.0554 -57.8189,-22.8777 -166.8508,-70.7624 -222.7959,-97.8474 -62.6514,-30.3319 -161.8899,-80.1539 -163.2041,-81.9355 -0.3667,-0.4971 -3.6667,-2.4094 -7.3334,-4.2495 -32.3839,-16.2518 -137.3931,-75.1642 -174.6666,-97.9918 -1.4667,-0.8983 -3.8667,-2.2679 -5.3334,-3.0436 -1.4666,-0.7757 -4.2848,-2.4514 -6.2626,-3.7239 -1.9778,-1.2724 -8.8778,-5.5681 -15.3333,-9.546 -6.4556,-3.9779 -25.8374,-15.9222 -43.0707,-26.543 -51.8084,-31.9293 -159.8635,-102.7642 -181.3333,-118.872 -1.8334,-1.3755 -20.4334,-14.7267 -41.3334,-29.6693 -45.8235,-32.762 -78.3988,-56.5439 -88.6666,-64.732 -0.7334,-0.5848 -8.5334,-6.5089 -17.3334,-13.1647 -16.6031,-12.5576 -66.2076,-50.9658 -70.3819,-54.496 -1.3101,-1.1079 -8.2101,-6.664 -15.3334,-12.3469 -20.2856,-16.1837 -31.7784,-25.6115 -66.8974,-54.8775 -29.3267,-24.439 -38.3991,-32.1956 -45.3032,-38.7328 -1.1618,-1.1 -3.906,-3.403 -6.0982,-5.1178 -2.1922,-1.7148 -7.5859,-6.2925 -11.9859,-10.1728 -4.4,-3.8802 -11.3,-9.8941 -15.3333,-13.3641 -4.0333,-3.4701 -7.9431,-6.9923 -8.6885,-7.8272 -0.7453,-0.835 -4.6583,-4.5181 -8.6956,-8.1847 -24.6096,-22.3504 -31.2765,-28.2088 -34.112,-29.9755 -1.7438,-1.0865 -3.1706,-2.369 -3.1706,-2.8499 0,-0.4809 -5.85,-6.1406 -13,-12.5771 -53.1114,-47.8113 -152.2921,-145.6405 -212.2259,-209.334 -6.1743,-6.5616 -14.614,-15.5302 -18.7549,-19.9302 -4.1409,-4.4 -14.6186,-15.8 -23.2839,-25.3333 -8.6652,-9.5334 -18.3403,-20.0334 -21.5,-23.3334 -3.1598,-3.3 -10.1303,-11.0658 -15.4901,-17.2573 -5.3599,-6.1916 -10.9452,-12.5027 -12.4118,-14.0248 -1.4667,-1.5221 -5.9667,-6.5578 -10,-11.1904 -4.0334,-4.6326 -9.1334,-10.3655 -11.3334,-12.7397 -2.2,-2.3743 -5.7107,-6.3728 -7.8016,-8.8856 -2.0909,-2.5129 -6.0003,-6.9688 -8.6875,-9.9022 -2.6872,-2.9333 -9.6765,-11.0333 -15.5317,-18 -5.8552,-6.9666 -10.9541,-12.9666 -11.3308,-13.3333 -0.3768,-0.3667 -3.3685,-3.9667 -6.6484,-8 -3.2798,-4.0333 -6.3095,-7.6333 -6.7327,-8 -0.4232,-0.3667 -6.1024,-7.2667 -12.6204,-15.3333 -6.518,-8.0667 -15.0906,-18.5667 -19.0503,-23.3334 -10.5425,-12.6909 -10.2869,-12.3746 -26.9299,-33.3333 -8.4333,-10.6202 -16.3476,-20.5148 -17.5874,-21.988 -7.7598,-9.2215 -98.1555,-129.158 -107.1934,-142.2237 -14.8518,-21.4705 -41.162,-57.8442 -42.1215,-58.2327 -0.6037,-0.2445 -1.0977,-1.2945 -1.0977,-2.3334 0,-1.0388 -0.6,-1.8888 -1.3333,-1.8888 -0.7333,0 -1.3333,-0.7114 -1.3333,-1.5808 0,-0.8694 -1.1332,-2.8194 -2.5182,-4.3333 -4.7108,-5.1495 -46.8088,-68.1697 -83.7812,-125.4193 -10.5842,-16.3891 -36.5175,-58.1825 -61.0595,-98.4019 -4.3859,-7.1878 -8.8745,-14.4951 -9.9745,-16.2385 -14.5405,-23.0452 -72.57199,-125.76 -97.94422,-173.3596 -35.27523,-66.1781 -84.57894,-165.3126 -108.45065,-218.0606 -5.12901,-11.3333 -11.26531,-24.806 -13.63623,-29.9394 -7.09395,-15.3593 -38.12629,-86.4169 -46.87467,-107.3333 -2.91384,-6.9667 -7.31835,-17.4667 -9.78779,-23.3333 -17.41081,-41.363 -63.09097,-162.1736 -81.42053,-215.3333 -5.43637,-15.7667 -10.27528,-29.5667 -10.75314,-30.6667 -0.47786,-1.1 -1.032,-2.7969 -1.23142,-3.7708 -0.19942,-0.9739 -0.79942,-2.7739 -1.33333,-4 -0.53391,-1.2261 -1.13391,-3.0261 -1.33333,-4 -0.19943,-0.9739 -0.79942,-2.7739 -1.33334,-4 -0.53391,-1.2261 -1.10983,-2.862 -1.27982,-3.6354 -0.16999,-0.7734 -3.6358,-11.5734 -7.7018,-24 -13.63305,-41.6656 -30.00535,-94.3351 -38.93717,-125.2605 -4.8714,-16.8666 -9.65072,-33.0666 -10.6207,-36 -2.03287,-6.1476 -17.5207,-62.3446 -18.55701,-67.3333 -0.38084,-1.8333 -1.67836,-6.9333 -2.88339,-11.3333 -1.20503,-4.4 -2.43032,-9.05 -2.72286,-10.3334 -0.29254,-1.2833 -0.86265,-3.6833 -1.26691,-5.3333 -0.40426,-1.65 -1.0249,-4.5 -1.3792,-6.3333 -0.6476,-3.351 -11.39349,-46.2983 -17.18118,-68.6667 -3.08558,-11.9252 -9.76418,-40.9584 -10.88823,-47.3333 -0.32326,-1.8334 -0.90298,-4.3782 -1.28828,-5.6553 -0.38529,-1.277 -0.99122,-3.977 -1.34652,-6 -0.35529,-2.0229 -1.81094,-8.5371 -3.23477,-14.4759 -5.284,-22.0396 -28.04382,-135.1153 -32.58087,-161.8688 -0.31091,-1.8334 -3.24429,-18.9334 -6.51861,-38 -3.27432,-19.0667 -6.32723,-37.6667 -6.78424,-41.3334 -0.45701,-3.6666 -1.07475,-7.5666 -1.37275,-8.6666 -0.29801,-1.1 -0.8661,-5 -1.26243,-8.6667 -0.39634,-3.6667 -0.98066,-7.9406 -1.29849,-9.4977 -0.96895,-4.7469 -1.88779,-11.1046 -4.11925,-28.5023 -2.20026,-17.1544 -2.93055,-22.241 -4.01999,-28 -0.34682,-1.8333 -0.91475,-5.7333 -1.26207,-8.6666 -0.34732,-2.9334 -1.27995,-9.8334 -2.07252,-15.3334 -0.79257,-5.5 -1.7074,-12.7 -2.03295,-16 -0.70402,-7.1364 -1.7767,-16.2231 -2.6758,-22.6666 -0.35813,-2.5667 -0.94932,-7.3667 -1.31375,-10.6667 -0.36443,-3.3 -0.94062,-8.1 -1.28043,-10.6667 -0.3398,-2.5666 -0.96396,-7.6666 -1.38702,-11.3333 -0.42305,-3.6667 -1.32549,-11.1667 -2.0054,-16.6667 -0.67992,-5.5 -1.55747,-13.3 -1.9501,-17.3333 -0.39264,-4.0333 -0.98684,-9.4333 -1.32045,-12 -0.33361,-2.5667 -0.95417,-8.5667 -1.37901,-13.3333 -0.42485,-4.7667 -1.00862,-10.7667 -1.29728,-13.3334 -0.28866,-2.5666 -0.89468,-9.1666 -1.34672,-14.6666 -0.45203,-5.5 -1.05203,-12.1 -1.33333,-14.6667 -0.2813,-2.5667 -0.89661,-9.1667 -1.36735,-14.6667 -0.47074,-5.5 -1.06883,-12.1 -1.32908,-14.6666 -0.26026,-2.5667 -0.83242,-10.3667 -1.27147,-17.3334 -0.43906,-6.9666 -1.05813,-15.3666 -1.37573,-18.6666 -0.31759,-3.3 -0.91359,-12.3 -1.32445,-20 -0.41086,-7.7 -1.00728,-16.1 -1.32538,-18.6667 -0.3181,-2.5667 -0.93239,-11.5667 -1.36508,-20 -0.4327,-8.4333 -1.0185,-18.3333 -1.30178,-22 -0.28329,-3.6667 -0.86518,-14.4667 -1.29308,-24 -0.42791,-9.5333 -1.05172,-22.4333 -1.38625,-28.6667 -0.33453,-6.2333 -0.91703,-22.7333 -1.29445,-36.6666 -0.37741,-13.9334 -1.13914,-37.0334 -1.69272,-51.3334 -1.28434,-33.1766 -1.30829,-162.5379 -0.0359,-194 0.53383,-13.2 1.29657,-36.6 1.69499,-52 0.39841,-15.4 1.03031,-34.3 1.40421,-42 1.64379,-33.8518 2.70716,-52.35 4.63712,-80.6666 0.69975,-10.2667 1.59583,-23.7667 1.99131,-30 0.67275,-10.6035 1.11608,-16.73 2.65333,-36.6667 1.53017,-19.845 2.12304,-27.0961 2.69816,-33 1.03254,-10.5995 1.97159,-20.0249 2.62358,-26.3333 0.34106,-3.3 0.95994,-10.5 1.37527,-16 0.69247,-9.1698 5.33785,-52.5896 6.63324,-62 0.30284,-2.2 1.21152,-10 2.01929,-17.3333 0.80777,-7.3334 1.69165,-14.8334 1.96418,-16.6667 0.27254,-1.8333 0.87316,-6.6333 1.33473,-10.6667 0.46156,-4.0333 1.06156,-8.8333 1.33333,-10.6666 0.27177,-1.8334 0.86658,-6.6334 1.3218,-10.6667 0.45522,-4.0333 3.1448,-23.8333 5.97684,-44 2.83204,-20.1667 5.49941,-39.3667 5.92747,-42.6667 0.42807,-3.3 1.00657,-7.2 1.28556,-8.6666 1.28048,-6.7315 2.90414,-17.7309 4.13317,-28 0.55249,-4.6164 5.74509,-35.5523 10.51859,-62.6667 1.80745,-10.2667 3.64905,-20.7667 4.09244,-23.3333 0.44339,-2.5667 1.96667,-10.6667 3.38505,-18 2.33539,-12.0744 4.50269,-23.6387 6.12221,-32.6667 0.32888,-1.8333 0.94985,-4.8333 1.37993,-6.6667 0.43009,-1.8333 1.03015,-4.8333 1.33346,-6.6666 0.30332,-1.8334 1.45174,-7.5334 2.55204,-12.6667 1.10031,-5.1333 2.28389,-10.8333 2.63018,-12.6667 0.34628,-1.8333 0.94985,-4.8333 1.34126,-6.6666 0.3914,-1.8334 0.9914,-4.8334 1.33333,-6.6667 2.06676,-11.0815 7.43946,-36.3028 11.5032,-54 1.51553,-6.6 2.93645,-12.9129 3.15759,-14.0287 2.23472,-11.2751 9.60526,-42.403 19.56727,-82.638 6.62731,-26.7666 12.28716,-49.7166 12.57746,-51 0.2903,-1.2833 0.82781,-3.5333 1.19448,-5 0.36667,-1.4666 0.90378,-3.719 1.19358,-5.0052 0.28981,-1.2861 1.29087,-5.0361 2.2246,-8.3333 0.93372,-3.2971 1.83454,-6.5948 2.00182,-7.3281 2.09908,-9.2021 8.91716,-34.3855 14.80031,-54.6667 4.04177,-13.9333 10.57958,-36.5447 14.52847,-50.2475 3.94888,-13.7028 9.24217,-31.4028 11.76287,-39.3333 2.52069,-7.9306 7.68394,-24.3192 11.47387,-36.4192 3.78994,-12.1 10.21755,-32.192 14.28359,-44.6488 4.06604,-12.4569 7.57296,-23.5569 7.79316,-24.6667 0.2202,-1.1098 0.52127,-2.1678 0.66904,-2.3511 0.14778,-0.1834 0.41869,-0.9334 0.60202,-1.6667 0.18333,-0.7333 0.48333,-1.6333 0.66667,-2 0.18333,-0.3667 0.48333,-1.2667 0.66666,-2 0.18334,-0.7333 0.48334,-1.6333 0.66667,-2 0.18333,-0.3667 0.48333,-1.2667 0.66667,-2 0.18333,-0.7333 0.48333,-1.6333 0.66666,-2 0.18334,-0.3667 0.46016,-1.1167 0.61516,-1.6667 0.155,-0.55 0.6284,-1.9 1.05199,-3 2.15712,-5.6016 8.20986,-22.7312 14.13401,-40 3.64783,-10.6333 8.71324,-25.0333 11.25649,-32 2.54324,-6.9666 7.76585,-21.3666 11.60579,-32 3.83994,-10.6333 12.82873,-34.3333 19.97509,-52.6666 7.14636,-18.3334 17.04236,-43.8334 21.99111,-56.6667 4.94875,-12.8333 9.77642,-25.1333 10.72817,-27.3333 0.95174,-2.2 4.85096,-11.5 8.66492,-20.6667 57.23665,-137.5653 126.12894,-280.6988 198.30175,-412 22.39898,-40.7496 64.79798,-114.8195 73.67548,-128.7091 1.1,-1.7211 8.5066,-13.8156 16.4591,-26.8767 46.0431,-75.6207 130.4735,-205.6393 141.0221,-217.1668 1.3853,-1.5139 2.5188,-3.1571 2.5188,-3.6514 0,-0.4944 0.8783,-1.9557 1.9518,-3.2474 1.7878,-2.1512 11.8462,-16.1719 28.2911,-39.436 6.2456,-8.8355 10.4842,-14.6786 19.4238,-26.7772 2.3833,-3.2255 5.2333,-7.1706 6.3333,-8.7669 2.6672,-3.8706 35.5714,-48.3001 37.1523,-50.1655 0.6822,-0.8051 5.952,-7.747 11.7107,-15.4265 5.7587,-7.6795 15.0824,-19.9208 20.7193,-27.2029 5.6369,-7.2821 14.1946,-18.3402 19.017,-24.5736 4.8225,-6.2333 9.5494,-12.2604 10.5042,-13.3935 0.9548,-1.1332 8.8915,-11.0332 17.637,-22 8.7455,-10.9669 16.2233,-20.2398 16.6174,-20.6065 0.394,-0.3666 8.77,-10.5666 18.6133,-22.6666 31.0235,-38.1361 94.6223,-111.5707 125.2899,-144.6667 2.7181,-2.9333 11.769,-12.8333 20.1131,-22 8.3441,-9.1667 15.7983,-17.3246 16.5651,-18.1287 0.7667,-0.8041 9.494,-10.0914 19.394,-20.6385 58.7837,-62.6258 151.1537,-154.3641 207.3173,-205.8995 22.3399,-20.4989 71.9375,-65.4709 78.4643,-71.1465 4.5201,-3.9307 12.2434,-10.7566 17.1628,-15.1688 4.9193,-4.4123 10.3193,-8.9779 12,-10.1458 1.6806,-1.1679 3.9556,-3.1234 5.0556,-4.3456 2.0668,-2.2962 33.726,-29.3379 46.6667,-39.8603 4.0333,-3.2796 7.6333,-6.2732 8,-6.6523 0.9327,-0.9644 21.9563,-18.2645 30,-24.6866 9.938,-7.9346 11.4871,-9.1964 13.1488,-10.71 3.2385,-2.9501 35.8691,-28.8475 56.1845,-44.5912 11.7334,-9.0929 25.2334,-19.6048 30,-23.3597 12.02,-9.4688 62.6701,-47.2751 82,-61.2065 8.8,-6.3424 29.2,-20.9561 45.3334,-32.4751 16.1333,-11.5189 29.5333,-21.4028 29.7777,-21.9642 0.2445,-0.5614 1.0581,-1.0207 1.8082,-1.0207 0.75,0 3.6606,-1.8192 6.4679,-4.0426 2.8074,-2.2235 7.9937,-6.0205 11.5252,-8.4379 5.1383,-3.5172 64.9242,-43.5058 75.7543,-50.6692 20.0423,-13.2568 70.804,-45.3687 101.3333,-64.1037 21.2667,-13.0507 40.1667,-24.7003 42,-25.8881 4.8185,-3.1216 8.2963,-5.2147 11.3333,-6.821 1.4667,-0.7757 4.2923,-2.4515 6.2791,-3.7239 18.3509,-11.7526 90.9654,-52.9708 134.6586,-76.43641 19.2843,-10.35667 39.8623,-21.57841 45.729,-24.93721 23.5406,-13.4775 158.0591,-80.08099 206.6667,-102.32581 52.1437,-23.86314 168.9729,-74.63921 174.6657,-75.91284 0.7338,-0.16418 2.5343,-0.78908 4.0009,-1.38867 52.8596,-21.60945 141.6008,-54.95441 197.3334,-74.14896 16.8666,-5.80897 31.5666,-10.94536 32.6666,-11.41422 1.1,-0.46885 2.45,-0.97928 3,-1.13428 0.55,-0.155 1.3,-0.43182 1.6667,-0.61516 0.3667,-0.18333 1.2667,-0.48333 2,-0.66666 0.7333,-0.18334 1.6333,-0.48334 2,-0.66667 0.3667,-0.18333 1.2667,-0.48333 2,-0.66667 0.7333,-0.18333 1.4833,-0.45833 1.6667,-0.61111 0.1833,-0.15278 1.5333,-0.48607 3,-0.74066 1.4666,-0.25459 12.5666,-3.75796 24.6666,-7.78527 12.1,-4.02731 33.7,-11.01553 48,-15.52936 14.3,-4.51384 30.5,-9.63095 36,-11.37136 9.0809,-2.87352 38.1511,-11.39397 94.6667,-27.74671 18.9668,-5.48804 43.4988,-12.11162 50,-13.49987 1.4666,-0.31319 4.6277,-1.16363 7.0246,-1.88988 2.3969,-0.72624 4.6469,-1.35914 5,-1.40644 0.3531,-0.0473 0.792,-0.13191 0.9754,-0.18802 0.1833,-0.0561 1.2333,-0.32103 2.3333,-0.58872 1.1,-0.26768 3.35,-0.82178 5,-1.23131 1.65,-0.40954 4.35,-1.07969 6,-1.48923 1.65,-0.40954 3.9,-0.96363 5,-1.23132 1.1,-0.26769 2,-0.5772 2,-0.6878 0,-0.1106 1.5,-0.47468 3.3333,-0.80906 1.8334,-0.33439 15.3334,-3.63979 30,-7.34535 14.6667,-3.70555 27.8667,-6.94877 29.3334,-7.20714 1.4666,-0.25837 5.9666,-1.33154 10,-2.38482 9.5891,-2.50413 30.4263,-7.35315 34.6666,-8.06726 1.8334,-0.30875 7.2334,-1.53662 12,-2.72859 4.7667,-1.19198 9.8667,-2.4091 11.3334,-2.70471 1.4666,-0.29562 8.0747,-1.75644 14.6845,-3.24628 6.6098,-1.48983 19.8098,-4.2808 29.3333,-6.20214 9.5235,-1.92134 18.2155,-3.69403 19.3155,-3.9393 5.9214,-1.32037 63.1882,-12.80942 70,-14.04363 4.4,-0.79724 14.3,-2.63816 22,-4.09096 7.7,-1.45279 16.1,-2.97451 18.6667,-3.38161 2.5666,-0.40709 11.2666,-1.89509 19.3333,-3.30668 43.0378,-7.53116 53.5899,-9.31731 59.189,-10.01892 3.3794,-0.42345 7.3443,-0.95891 8.811,-1.1899 2.5026,-0.39414 11.3416,-1.72433 17.3333,-2.60849 1.4667,-0.21643 5.0667,-0.74864 8,-1.1827 6.8142,-1.00831 30.0285,-4.28747 44.6667,-6.30944 6.2333,-0.86101 12.5333,-1.7413 14,-1.95622 4.474,-0.65558 44.9388,-5.90367 51.3333,-6.65767 3.3,-0.38912 7.8,-0.97011 10,-1.2911 2.2,-0.321 7.6,-0.93876 12,-1.37281 4.4,-0.43405 9.8,-1.0234 12,-1.30968 3.4664,-0.45106 16.9205,-2.05559 32.6721,-3.89646 5.3778,-0.62849 29.7978,-3.19462 38.6613,-4.06264 3.3,-0.32318 10.5,-0.93069 16,-1.35002 5.5,-0.41933 12.1,-1.02353 14.6666,-1.34266 2.5667,-0.31914 8.5667,-0.92037 13.3334,-1.33607 4.7666,-0.4157 11.3666,-1.00643 14.6666,-1.31273 3.3,-0.3063 10.8,-0.90537 16.6667,-1.33127 5.8666,-0.42589 14.2666,-1.03538 18.6666,-1.35441 4.4,-0.31902 13.1,-0.92009 19.3334,-1.3357 6.2333,-0.41562 15.2333,-1.03027 20,-1.3659 146.2071,-10.29473 346.0335,-12.2116 482,-4.62367 12.4666,0.69573 29.8666,1.58974 38.6666,1.98668 14.9506,0.67438 26.652,1.40823 42.6667,2.6758 6.0084,0.47557 13.5012,0.9951 38.6667,2.68101 14.4753,0.96975 29.2446,2.11168 34.6666,2.68033 7.0443,0.73881 32.2689,3.01508 44,3.97056 23.2065,1.89015 31.9978,2.79408 65.3334,6.71763 26.6148,3.13253 29.1078,3.43797 32.3966,3.96924 1.6848,0.27216 7.0848,0.86079 12,1.30807 4.9152,0.44727 10.4367,1.07023 12.27,1.38435 1.8334,0.31413 6.3334,0.91124 10,1.32694 3.6667,0.41569 13.5667,1.67941 22,2.80827 8.4334,1.12885 16.8334,2.25316 18.6667,2.49845 1.8333,0.24529 9.6333,1.36286 17.3333,2.48348 7.7,1.12062 19.1,2.74196 25.3333,3.60296 6.2334,0.86101 12.5334,1.74369 14,1.96151 9.3738,1.39215 15.0896,2.25967 18,2.73197 3.287,0.5334 10.182,1.47222 18,2.45089 4.2023,0.52604 38.6094,6.36633 71.3334,12.10818 26.4266,4.6369 79.2486,14.67351 94.6666,17.98746 6.9667,1.49741 14.1667,3.00288 16,3.3455 8.6319,1.61314 34.3433,7.02733 54.6667,11.51141 9.9,2.18431 19.4113,4.25702 21.1362,4.60602 1.7249,0.34901 7.1249,1.56922 12,2.71158 4.8751,1.14236 10.3638,2.35607 12.1971,2.69713 6.0801,1.13109 31.2672,7.08054 35.3334,8.34611 2.2,0.68473 13,3.4297 24,6.09993 11,2.67022 21.8,5.3903 24,6.04462 2.2,0.65432 8.2,2.16854 13.3333,3.36494 13.3606,3.11388 13.7232,3.1995 16.6667,3.93537 4.222,1.05552 8.4969,2.11459 10.6666,2.6426 1.1,0.26768 2,0.58195 2,0.69836 0,0.11641 1.5,0.46952 3.3334,0.78468 10.6415,1.82938 163.925,46.09598 176,50.82688 1.1,0.43097 2.7271,0.93651 3.6158,1.12342 0.8887,0.18691 18.5887,5.86702 39.3333,12.62246 20.7446,6.75545 38.6175,12.46599 39.7175,12.6901 1.1,0.22411 2.15,0.52837 2.3334,0.67615 0.1833,0.14777 0.9333,0.41868 1.6666,0.60201 0.7334,0.18334 1.6334,0.48334 2,0.66667 0.3667,0.18333 1.1167,0.46015 1.6667,0.61515 0.55,0.15501 2.0031,0.72622 3.2292,1.26937 1.2261,0.54315 3.0261,1.1507 4,1.35012 0.9739,0.19942 2.6708,0.72652 3.7708,1.17134 1.1,0.44481 14.9,5.27774 30.6667,10.73983 50.867,17.622 143.2348,52.37591 193.9999,72.99358 2.2,0.89351 4.45,1.52767 5,1.40925 0.55,-0.11842 1,0.48469 1,1.34025 0,0.85555 0.3465,1.20911 0.7699,0.78568 1.3944,-1.39433 107.8061,44.05986 159.2301,68.01577 6.2334,2.9038 17.0334,7.81572 24,10.91538 31.9743,14.22625 194.221,94.91736 196,97.47789 0.3667,0.52772 4.2667,2.72372 8.6667,4.87999 26.8637,13.16487 150.2823,82.37039 172.4214,96.68329 1.9682,1.2724 4.7786,2.9313 6.2453,3.6864 1.4666,0.7551 4.2737,2.414 6.2379,3.6865 1.9642,1.2724 7.9642,4.97 13.3333,8.2167 72.5029,43.8427 188.3347,118.7702 219.1548,141.7635 4.6691,3.4833 9.0658,6.3333 9.7705,6.3333 0.7047,0 1.4812,0.4993 1.7257,1.1096 0.2444,0.6102 10.6444,8.3088 23.1111,17.108 12.4667,8.7991 25.6667,18.192 29.3333,20.873 3.6667,2.6811 20.7667,15.1741 38,27.7623 29.4562,21.5165 61.3382,45.4731 76.8378,57.7368 3.7607,2.9757 9.9855,7.8103 13.8327,10.7437 11.7514,8.9598 95.2936,75.9264 97.3295,78.0183 0.3667,0.3767 3.9667,3.3685 8,6.6483 4.0333,3.2799 7.6333,6.2736 8,6.6527 0.3667,0.3791 6.0667,5.1669 12.6667,10.6395 18.3991,15.2561 41.1044,34.7467 43.3333,37.198 1.1,1.2097 3.8,3.5934 6,5.2972 4.9599,3.841 17.8908,15.1608 25.1889,22.0504 3.0128,2.8441 10.8778,9.9563 17.4778,15.805 6.6,5.8486 14.1,12.5566 16.6666,14.9067 2.5667,2.3502 12.1667,11.1092 21.3334,19.4646 9.1666,8.3554 20.8666,19.1772 26,24.0485 5.1333,4.8713 14.7162,13.9 21.2953,20.0638 72.1235,67.5713 164.1849,161.8915 238.038,243.8789 20.3104,22.5474 27.2243,29.9871 28.2877,30.4391 0.5751,0.2445 1.0456,0.8968 1.0456,1.4497 0,0.5528 2.25,3.3738 5,6.2687 23.5813,24.8241 107.5356,125.9738 153.1382,184.5039 35.5337,45.6066 76.9433,100.8748 103.8618,138.621 3.6667,5.1415 9.6667,13.5263 13.3334,18.6328 3.6666,5.1065 8.7666,12.3602 11.3333,16.1193 2.5667,3.7591 6.9167,9.7704 9.6667,13.3583 2.75,3.5879 5,6.8344 5,7.2144 0,0.3801 2.6054,4.1477 5.7899,8.3726 3.1845,4.2249 14.8071,21.1816 25.8281,37.6816 18.6119,27.8646 28.3543,42.691 51.6918,78.6666 9.4844,14.6205 41.5404,66.1413 60.805,97.7265 6.1702,10.1162 12.1185,19.8288 13.2185,21.5836 13.0215,20.7726 59.672,102.7268 81.9818,144.0232 7.9234,14.6667 18.0135,33.2667 22.4224,41.3334 17.4662,31.9569 81.0025,159.9336 97.6387,196.6666 4.1515,9.1667 9.6532,21.1667 12.226,26.6667 21.5586,46.0869 72.6012,165.719 73.5343,172.3473 0.078,0.5577 0.9749,2.6577 1.9921,4.6667 5.1697,10.2107 49.6473,127.5469 63.0452,166.3193 7.6433,22.1189 15.1073,43.429 16.1119,46 0.4298,1.1 1.0033,3.1529 1.2744,4.562 0.2711,1.4091 1.1544,3.3591 1.963,4.3334 0.8085,0.9742 1.0231,1.7713 0.4768,1.7713 -0.5462,0 -0.2462,0.9 0.6667,2 0.9129,1.1 1.2129,2 0.6667,2 -0.5463,0 -0.2463,0.9 0.6666,2 0.913,1.1 1.3187,2 0.9018,2 -0.417,0 0.4417,3.45 1.9081,7.6667 3.6412,10.4701 22.0771,68.0923 30.3947,94.9999 3.7403,12.1 7.3725,23.8 8.0716,26 2.0506,6.4533 16.0625,54.9886 19.4389,67.3334 1.7048,6.2333 4.2925,15.2333 5.7504,20 2.9345,9.5942 9.0182,32.1334 10.0769,37.3333 0.3732,1.8333 1.6645,6.9333 2.8696,11.3333 1.205,4.4 2.4303,9.05 2.7228,10.3334 0.2925,1.2833 0.867,3.6833 1.2765,5.3333 0.4095,1.65 0.9636,3.9 1.2313,5 0.2677,1.1 0.574,2 0.6806,2 0.1066,0 0.4094,1.5 0.6727,3.3333 0.2634,1.8334 5.5757,23.7334 11.8052,48.6667 6.2294,24.9333 11.6827,47.1333 12.1184,49.3333 1.5285,7.7179 1.8988,9.4087 4.0888,18.6667 4.5379,19.183 15.3436,69.5482 17.3778,80.9969 0.358,2.015 1.5016,7.415 2.5414,12 1.0398,4.585 2.1951,10.1364 2.5674,12.3364 0.3722,2.2 1.879,10 3.3485,17.3334 1.4695,7.3333 3.0272,15.4333 3.4616,18 0.4344,2.5666 2.3021,12.4666 4.1504,22 1.8484,9.5333 3.6927,19.7333 4.0987,22.6666 0.4059,2.9334 1.5606,9.8334 2.566,15.3334 4.8947,26.7772 9.8491,56.0117 10.5071,62 0.4029,3.6666 1.0111,8.1666 1.3516,10 0.3404,1.8333 0.9651,5.7333 1.3881,8.6666 0.4231,2.9334 0.9633,6.5334 1.2005,8 2.9089,17.9828 14.6348,104.7391 17.3904,128.6667 0.3801,3.3 1.0339,9 1.4529,12.6667 0.419,3.6666 0.9757,8.1666 1.237,10 0.2614,1.8333 0.8615,6.9333 1.3336,11.3333 0.4721,4.4 1.0839,9.8 1.3594,12 1.0283,8.2104 4.722,42.9541 5.3865,50.6667 0.3791,4.4 0.9453,10.1 1.2582,12.6666 0.3129,2.5667 0.9159,9.4667 1.3401,15.3334 0.4242,5.8666 1.0175,12.1666 1.3185,14 0.3009,1.8333 0.9018,8.1333 1.3353,13.9999 0.4335,5.8667 1.0462,13.6667 1.3616,17.3334 0.7063,8.211 1.7429,23.0067 2.6624,38 0.3822,6.2333 0.9655,14.6333 1.2962,18.6666 0.3306,4.0334 0.9515,13.6334 1.3795,21.3334 0.4281,7.7 1.0282,17.9 1.3336,22.6666 1.6243,25.3546 3.105,58.7381 3.9624,89.3334 0.3802,13.5666 1.1413,36.3666 1.6915,50.6666 1.1121,28.9086 1.2717,178.0117 0.2023,189 -0.3797,3.9009 -0.134,7 0.5549,7 0.711,0 0.6724,0.7081 -0.091,1.6667 -0.7623,0.9575 -1.7333,18.6857 -2.2821,41.6667 -0.5254,22 -1.1306,42.1 -1.3449,44.6666 -0.2143,2.5667 -0.8143,14.5667 -1.3333,26.6667 -0.5191,12.1 -1.1396,23.8 -1.379,26 -0.2393,2.2 -0.8487,12.4 -1.3541,22.6667 -0.5053,10.2666 -1.0896,18.9666 -1.2983,19.3333 -0.2087,0.3667 -0.776,8.4667 -1.2607,18 -0.4847,9.5333 -1.1231,19.7333 -1.4186,22.6667 -0.2955,2.9333 -0.8922,10.1333 -1.326,16 -0.4338,5.8666 -1.0432,13.6666 -1.3542,17.3333 -1.8358,21.6414 -2.1991,25.7749 -2.6362,30 -1.0551,10.1959 -2.0578,21.0845 -2.7013,29.3333 -0.3718,4.7667 -0.9499,11.3667 -1.2845,14.6667 -0.3347,3.3 -0.9438,9.3 -1.3537,13.3333 -0.4098,4.0334 -1.0295,9.4334 -1.3769,12 -0.3475,2.5667 -0.9346,7.3667 -1.3047,10.6667 -0.3701,3.3 -0.9919,8.4 -1.3817,11.3333 -0.8797,6.6185 -1.5898,12.5432 -2.6368,22 -0.4465,4.0334 -1.0342,8.8334 -1.306,10.6667 -0.2717,1.8333 -0.8609,6.6333 -1.3092,10.6667 -1.233,11.0929 -7.257,57.5354 -7.9554,61.3333 -0.3372,1.8333 -1.5645,10.8333 -2.7274,20 -1.1628,9.1666 -2.3642,17.5666 -2.6697,18.6666 -0.3056,1.1 -0.8841,5 -1.2857,8.6667 -0.4016,3.6667 -0.9612,7.8667 -1.2436,9.3333 -0.2823,1.4667 -0.948,5.6667 -1.4793,9.3334 -0.5313,3.6666 -1.1605,7.8666 -1.3982,9.3333 -0.2376,1.4667 -0.7889,5.6667 -1.2251,9.3333 -0.4362,3.6667 -1.3866,9.6667 -2.112,13.3334 -0.7254,3.6666 -4.0311,22.5666 -7.346,42 -3.3149,19.4333 -6.2504,36.5333 -6.5234,38 -5.6089,30.1324 -9.6132,50.7599 -13.3296,68.6666 -2.5113,12.1 -4.8462,23.5 -5.1886,25.3334 -1.8534,9.9244 -9.3431,44.7491 -13.6223,63.3392 -2.7,11.7301 -5.1073,22.5274 -5.3495,23.9941 -0.965,5.8442 -2.2235,11.3397 -6.1068,26.6667 -2.2297,8.8 -4.2519,17.2 -4.494,18.6666 -0.242,1.4667 -1.3856,5.9667 -2.5412,10 -1.1557,4.0334 -2.4021,8.9499 -2.7697,10.9256 -0.3676,1.9758 -3.0776,13.0758 -6.0221,24.6667 -2.9446,11.5909 -5.6112,22.2744 -5.9258,23.7411 -0.3146,1.4666 -0.9378,4.1666 -1.385,6 -0.4471,1.8333 -1.0319,4.2333 -1.2996,5.3333 -0.2677,1.1 -0.6019,2.3 -0.7426,2.6667 -0.1407,0.3666 -0.3952,1.2666 -0.5656,2 -0.1703,0.7333 -0.447,1.6333 -0.6148,2 -0.3519,0.7688 -0.9754,3.2639 -1.999,8 -1.4498,6.7074 -7.8301,30.413 -12.3807,46 -2.5691,8.8 -5.1521,17.8 -5.7398,20 -0.5878,2.2 -4.6731,16.3304 -9.0784,31.4009 -7.2201,24.6998 -11.0939,37.554 -20.874,69.2657 -4.9768,16.1371 -21.5859,67.6672 -25.8929,80.3334 -2.182,6.4166 -3.6318,11.6666 -3.2218,11.6666 0.4099,0 0.084,0.7971 -0.7247,1.7713 -0.8085,0.9743 -1.6919,2.9243 -1.963,4.3334 -0.271,1.4091 -0.8805,3.462 -1.3543,4.562 -0.4738,1.1 -5.3032,14.9 -10.7319,30.6667 -21.4894,62.4108 -40.9426,114.2435 -74.311,197.9999 -0.8764,2.2 -1.4967,4.45 -1.3782,5 0.1184,0.55 -0.4847,1 -1.3403,1 -0.8555,0 -1.2054,0.3502 -0.7775,0.7781 1.6817,1.6817 -47.9055,116.2965 -83.3077,192.5553 -24.5019,52.7788 -77.1247,157.6751 -104.3464,208 -30.5956,56.5623 -79.9589,143.7335 -94.0128,166.0184 -1.1,1.7442 -6.855,11.1536 -12.7888,20.9098 -17.9165,29.4576 -44.9799,73.0417 -54.1053,87.1338 -4.7267,7.2992 -11.2591,17.4617 -14.5166,22.5832 -3.2575,5.1216 -10.8727,16.7367 -16.9227,25.8114 -6.05,9.0747 -11,16.7549 -11,17.0671 0,0.3122 -5.6127,8.7971 -12.4726,18.8553 -6.86,10.0582 -16.4783,24.2244 -21.3741,31.4805 -4.8958,7.2561 -10.6831,15.4425 -12.8607,18.1919 -2.1776,2.7494 -3.9592,5.6126 -3.9592,6.3626 0,0.7501 -0.4796,1.5637 -1.0658,1.8082 -0.5862,0.2444 -8.5114,10.9444 -17.6115,23.7778 -45.792,64.5776 -96.0009,132.0273 -127.0458,170.671 -0.8856,1.1024 -3.7102,4.7004 -6.2769,7.9956 -2.5667,3.2951 -5.6739,7.1932 -6.9049,8.6623 -1.2311,1.4691 -8.4061,10.471 -15.9446,20.0044 -7.5385,9.5333 -14.053,17.6333 -14.4765,18 -0.4236,0.3666 -4.6316,5.4666 -9.3512,11.3333 -4.7195,5.8667 -17.5885,21.4667 -28.5977,34.6667 -25.0478,30.0321 -24.7446,29.6754 -36.943,43.4642 -4.1532,4.6947 -11.8646,13.6358 -17.1364,19.8691 -5.2718,6.2333 -10.8738,12.5941 -12.4488,14.135 -1.5749,1.541 -4.9188,5.141 -7.4307,8 -4.6155,5.2533 -6.7325,7.6113 -26.2392,29.2248 -14.0421,15.5589 -40.678,44.8934 -42.4663,46.7689 -0.7667,0.8041 -9.494,10.0924 -19.394,20.6406 -49.1243,52.3406 -125.3448,128.7374 -176.1566,176.564 -22.4126,21.0958 -46.0042,43.0192 -54.5101,50.6555 -4.7667,4.2794 -11.0667,10.0174 -14,12.7512 -2.9333,2.7338 -10.7957,9.7942 -17.472,15.6898 -6.6763,5.8956 -13.9046,12.4108 -16.0629,14.4781 -5.4963,5.2646 -22.0446,19.8531 -26.4572,23.3241 -2.0241,1.5922 -4.9911,4.1413 -6.5933,5.6647 -8.4565,8.041 -67.1567,57.5078 -90.0813,75.9118 -9.1666,7.359 -16.9666,13.7177 -17.3333,14.1304 -0.3667,0.4127 -8.1667,6.7219 -17.3333,14.0205 -9.1667,7.2985 -17.2667,13.7588 -18,14.3562 -11.436,9.3154 -51.0515,39.6821 -82.0281,62.8773 -50.2815,37.6507 -58.0314,43.3155 -107.9719,78.9218 -7.7,5.4899 -15.0569,10.86 -16.3486,11.9335 -1.2917,1.0735 -2.9417,1.9518 -3.6667,1.9518 -0.7249,0 -1.318,0.4577 -1.318,1.0171 0,0.5595 -1.1547,1.6095 -2.566,2.3334 -1.4112,0.7239 -8.1612,5.2783 -15,10.1209 -19.9119,14.0998 -77.5611,52.2668 -118.7483,78.6179 -17.4755,11.1807 -25.0716,15.9135 -57.6857,35.9418 -14.6667,9.0068 -32.0522,19.7344 -38.6346,23.8391 -14.3876,8.972 -16.7666,10.4037 -19.3654,11.6541 -1.1,0.5292 -3.5,1.9857 -5.3334,3.2366 -5.2444,3.5782 -38.9397,23.0459 -75.3333,43.5243 -31.5027,17.7263 -48.967,27.2376 -84.6667,46.1106 -8.4333,4.4584 -15.6333,8.4941 -16,8.9682 -1.3561,1.7536 -96.4554,49.4759 -164,82.2977 -43.7109,21.2404 -155.1573,70.5654 -204,90.2882 -24.7953,10.0125 -25.6369,10.3463 -27.3333,10.8439 -0.7333,0.2151 -20.5333,7.9566 -44,17.2033 -45.5248,17.9384 -117.9558,44.5998 -157.3333,57.9135 -13.2,4.463 -24.9,8.4995 -26,8.97 -1.1,0.4705 -2.6636,0.9991 -3.4746,1.1746 -0.811,0.1755 -13.411,4.2421 -28,9.0368 -34.7241,11.4122 -89.2505,28.4694 -115.1921,36.0349 -70.5989,20.5891 -100.2158,28.9163 -115,32.3337 -1.2833,0.2966 -3.6833,0.8744 -5.3333,1.284 -1.65,0.4095 -3.6,0.8764 -4.3333,1.0375 -0.7334,0.1611 -2.0834,0.7614 -3,1.334 -0.9167,0.5727 -1.6667,0.7477 -1.6667,0.389 0,-0.3588 -1.95,-0.061 -4.3333,0.661 -4.8352,1.4655 -8.2109,2.3344 -12.6816,3.2643 -1.6582,0.3449 -22.0582,5.3802 -45.3333,11.1895 -61.429,15.3321 -178.6064,40.973 -216.6662,47.411 -2.3754,0.4018 -11.8189,2.174 -20.9856,3.9383 -9.1667,1.7642 -22.6667,4.1792 -30,5.3667 -7.3333,1.1875 -14.8333,2.4265 -16.6667,2.7532 -1.8333,0.3268 -11.9265,2.0637 -22.4294,3.8598 -10.5028,1.7961 -20.1028,3.5787 -21.3333,3.9613 -1.2305,0.3826 -5.5373,1.0278 -9.5706,1.4339 -8.9332,0.8995 -12.9419,1.4813 -28,4.0643 -1.8333,0.3144 -6.0333,0.9133 -9.3333,1.3308 -3.3,0.4175 -20.4,2.791 -38,5.2744 -17.6,2.4834 -39.5,5.4627 -48.6667,6.6207 -9.1666,1.158 -18.7666,2.3736 -21.3333,2.7015 -2.5667,0.3278 -7.6667,0.9429 -11.3333,1.367 -3.6667,0.424 -8.7667,1.024 -11.3334,1.3333 -2.5666,0.3093 -7.6666,0.9093 -11.3333,1.3333 -3.6667,0.4241 -8.7667,1.0244 -11.3333,1.334 -23.8158,2.8734 -39.7019,4.6119 -48.6667,5.3259 -5.8667,0.4672 -12.1667,1.0642 -14,1.3265 -1.8333,0.2624 -8.1333,0.84 -14,1.2835 -5.8667,0.4435 -12.7667,1.0648 -15.3333,1.3806 -6.137,0.7552 -15.9615,1.6954 -26.6667,2.5519 -4.7667,0.3814 -12.5667,1.0056 -17.3333,1.3871 -12.564,1.0056 -24.1945,1.8004 -39.3334,2.688 -7.3333,0.43 -16.0333,1.0603 -19.3333,1.4006 -11.0312,1.1377 -78.9024,4.5402 -117.3333,5.8823 -20.9,0.7298 -50,1.7942 -64.6667,2.3652 -30.1097,1.1723 -172.2021,1.3762 -186.9734,0.2683 -5.9585,-0.4469 -9.8116,-0.2085 -10.0892,0.6245 -0.2937,0.8811 -0.7503,0.8602 -1.3193,-0.06 z m 113.7152,-1676.4445 c 4.7667,-1.386 17.0667,-4.7054 27.3334,-7.3765 10.2666,-2.671 20.4666,-5.3505 22.6666,-5.9544 2.2,-0.6039 15.7,-4.1164 30,-7.8054 43.2494,-11.1574 62.8897,-16.4283 110.6667,-29.7001 16.0309,-4.4532 24.6542,-6.7801 26.6667,-7.1959 1.9863,-0.4103 23.2279,-6.2691 51.3333,-14.1585 8.0667,-2.2643 15.8667,-4.2976 17.3333,-4.5183 1.4667,-0.2208 9.8667,-2.5205 18.6667,-5.1106 8.8,-2.5902 22.9,-6.5454 31.3333,-8.7896 8.4334,-2.2441 23.4334,-6.232 33.3334,-8.8619 9.9,-2.63 19.5,-4.9872 21.3333,-5.2382 1.8333,-0.251 3.4833,-0.5728 3.6667,-0.7149 0.1833,-0.1422 0.9333,-0.4086 1.6666,-0.5919 0.7334,-0.1833 1.4834,-0.4849 1.6667,-0.6702 0.1833,-0.1852 1.5333,-0.5261 3,-0.7575 1.4667,-0.2314 11.6667,-2.884 22.6667,-5.8947 11,-3.0108 24.5,-6.6522 30,-8.0922 18.656,-4.8843 55.2723,-14.8861 69.3333,-18.9385 7.7,-2.2191 14.9,-4.1642 16,-4.3224 1.1,-0.1582 2.9,-0.6413 4,-1.0736 1.9713,-0.7747 12.0871,-3.4764 15.9948,-4.272 1.1028,-0.2245 9.8052,-2.6207 19.3385,-5.3249 9.5333,-2.7043 18.2333,-5.0974 19.3333,-5.3181 3.3646,-0.6751 42.6694,-11.3284 54,-14.6364 18.9464,-5.5313 51.1908,-14.0248 56.332,-14.8384 2.7507,-0.4353 5.4613,-1.0737 6.0234,-1.4186 0.5621,-0.3449 2.4045,-0.8778 4.0942,-1.1842 5.2349,-0.9493 27.454,-6.8134 44.2171,-11.67 15.0723,-4.3667 64.3644,-17.7594 69.5959,-18.9092 1.3223,-0.2906 6.9041,-1.788 12.4041,-3.3274 36.0096,-10.0789 53.2913,-14.8416 56.1054,-15.4623 3.8899,-0.858 4.4417,-1.0044 11.2279,-2.9788 11.6833,-3.3991 34.1984,-9.5086 50,-13.5675 9.1667,-2.3546 18.4667,-4.8265 20.6667,-5.4931 9.4523,-2.8639 46.1416,-12.4813 52.9063,-13.8683 1.2318,-0.2525 8.1318,-2.0584 15.3333,-4.013 16.4591,-4.4672 37.7461,-10.0442 40.594,-10.6352 1.1919,-0.2473 8.3919,-2.3846 16,-4.7495 7.6082,-2.3648 15.0331,-4.4928 16.4997,-4.7288 1.4667,-0.2359 4.7667,-1.0098 7.3334,-1.7197 2.5666,-0.7099 8.2666,-2.2914 12.6666,-3.5145 7.7459,-2.1532 9.4267,-2.577 15.5287,-3.9154 1.5741,-0.3452 4.7862,-1.2628 7.138,-2.0389 2.3518,-0.7762 5.4139,-1.6721 6.8047,-1.9909 1.3907,-0.3188 6.7286,-1.7379 11.862,-3.1535 20.7892,-5.733 45.6815,-12.6322 51.3333,-14.2277 3.3,-0.9315 10.5,-2.8973 16,-4.3682 5.5,-1.471 22.6,-6.0705 38,-10.2212 15.4,-4.1507 40.6,-10.8069 56,-14.7916 48.2419,-12.4825 62.295,-16.2058 74.8034,-19.8187 6.6752,-1.9281 13.2752,-3.753 14.6667,-4.0554 4.9873,-1.0837 18.4269,-4.8254 18.8493,-5.2478 0.7294,-0.7294 1.3456,-5.0361 2.2118,-15.4584 0.4571,-5.5 1.1286,-13.6 1.4923,-18 0.788,-9.5357 7.0983,-74.926 8.0038,-82.9409 0.3485,-3.0842 0.9136,-11.0569 1.2558,-17.7173 0.3422,-6.6604 0.9558,-12.6497 1.3637,-13.3096 0.4078,-0.6599 0.6972,-2.8871 0.6431,-4.9493 -0.1342,-5.11 0.8897,-18.7216 1.8366,-24.4162 0.4268,-2.5667 1.099,-9.7667 1.4938,-16 1.0133,-16.0006 1.7661,-26 1.9574,-26 0.09,0 0.4416,-5.1 0.7812,-11.3333 0.3396,-6.2334 0.9244,-13.4334 1.2997,-16 0.5952,-4.0707 3.418,-32.6005 5.4088,-54.6667 0.3639,-4.0333 1.2297,-13.3333 1.924,-20.6667 0.6943,-7.3333 1.6026,-17.5333 2.0185,-22.6666 0.4159,-5.1334 1.319,-14.7334 2.0068,-21.3334 0.6879,-6.6 1.8675,-19.2 2.6214,-28 1.5139,-17.6716 2.4838,-27.9326 3.4028,-36 0.3342,-2.9333 0.9149,-9.8333 1.2905,-15.3333 0.3756,-5.5 0.969,-12.4 1.3186,-15.3333 0.3496,-2.9334 0.939,-8.6334 1.3097,-12.6667 0.6029,-6.5593 2.143,-23.0193 4.117,-44 0.3795,-4.0333 0.9566,-9.7333 1.2823,-12.6667 0.3258,-2.9333 0.9536,-9.5333 1.3952,-14.6666 0.4415,-5.1334 1.0313,-11.1334 1.3107,-13.3334 0.2793,-2.2 0.8477,-8.8 1.2631,-14.6666 0.4154,-5.8667 1.0072,-12.4667 1.3152,-14.6667 0.308,-2.2 0.9358,-8.8 1.3952,-14.6666 0.4594,-5.8667 1.0515,-12.0309 1.3159,-13.6983 0.2643,-1.6674 0.8473,-8.2674 1.2955,-14.6667 0.4482,-6.3993 1.07,-13.135 1.3817,-14.9684 0.3117,-1.8333 0.9486,-8.1333 1.4155,-14 0.4668,-5.8666 1.0558,-11.7581 1.3087,-13.0921 0.253,-1.3339 0.8069,-7.3339 1.2309,-13.3333 0.6568,-9.2927 2.0001,-24.1476 5.3269,-58.9079 0.558,-5.8306 3.1349,-32.9221 5.4534,-57.3333 0.4179,-4.4 1.0179,-10.1 1.3332,-12.6667 0.3154,-2.5667 0.8761,-9.1667 1.246,-14.6667 0.3699,-5.5 0.9249,-11.3032 1.2333,-12.8961 0.3084,-1.5928 0.92,-7.8928 1.359,-14 0.439,-6.1071 1.0529,-13.5039 1.3642,-16.4372 1.1979,-11.2854 1.983,-19.5621 4.1105,-43.3333 0.4923,-5.5 1.0685,-11.5 1.2805,-13.3334 0.212,-1.8333 0.7509,-7.5333 1.1976,-12.6666 2.1548,-24.7622 7.6107,-83.0469 8.0502,-86 0.8786,-5.9042 3.2006,-34.3866 3.9675,-48.6667 0.1969,-3.6667 0.7267,-8.4667 1.1774,-10.6667 0.4508,-2.2 1.149,-9.1 1.5516,-15.3333 1.5227,-23.5719 2.1965,-31.4533 3.0205,-35.3333 0.4673,-2.2 0.6892,-4.5882 0.4932,-5.3071 -0.196,-0.7189 0.2965,-8.2189 1.0943,-16.6667 0.7979,-8.4478 1.7233,-18.3596 2.0564,-22.0262 0.3331,-3.6667 0.8899,-9.3667 1.2373,-12.6667 0.3473,-3.3 0.9961,-10.8 1.4417,-16.6667 0.4456,-5.8666 1.9624,-22.6666 3.3706,-37.3333 1.4082,-14.6667 3.2311,-33.8667 4.051,-42.6667 0.8198,-8.8 1.7232,-17.8 2.0075,-20 0.2843,-2.2 0.855,-8.2 1.2682,-13.3333 1.6723,-20.7756 5.5781,-62.6042 6.7212,-71.9795 0.2668,-2.1887 0.8263,-8.4887 1.2432,-14 0.4168,-5.5113 1.0476,-12.7205 1.4015,-16.0205 0.354,-3.3 0.9004,-8.4 1.2141,-11.3333 0.3138,-2.9334 0.9315,-10.1334 1.3727,-16 0.4413,-5.8667 2.2829,-26.2667 4.0924,-45.3334 3.8041,-40.0841 3.9608,-41.6766 6.6592,-67.7072 0.2448,-2.361 0.7968,-8.7927 1.2267,-14.2927 0.43,-5.5 1.0385,-11.8 1.3523,-14 0.3138,-2.2 0.9331,-9.1 1.3764,-15.3334 0.4432,-6.2333 1.049,-12.8333 1.3462,-14.6666 0.2972,-1.8334 0.8693,-7.8334 1.2712,-13.3334 0.4019,-5.5 1.0092,-12.1 1.3494,-14.6666 0.3403,-2.5667 0.9586,-8.8667 1.374,-14 0.4155,-5.1334 1.0375,-12.1828 1.3822,-15.6655 0.7209,-7.282 1.4818,-15.345 2.611,-27.6679 0.4368,-4.7666 1.0436,-11.0666 1.3485,-14 0.3048,-2.9333 0.8783,-9.5333 1.2745,-14.6666 0.6419,-8.3178 2.371,-26.2703 3.9812,-41.3334 0.3135,-2.9333 0.9562,-10.1333 1.428,-16 0.4719,-5.8666 1.0689,-12.1666 1.3266,-14 0.2576,-1.8333 0.8314,-8.1333 1.2749,-14 0.4435,-5.8666 1.1515,-13.021 1.5733,-15.8986 0.4217,-2.8777 0.9362,-7.6777 1.1433,-10.6667 0.207,-2.9891 0.7389,-9.3347 1.1819,-14.1013 0.443,-4.7667 1.1246,-12.2667 1.5147,-16.6667 0.3901,-4.4 0.9792,-10.7 1.3091,-14 4.0088,-40.1005 9.9257,-110.1967 9.4143,-111.5293 -0.3627,-0.9452 -0.044,-2.0988 0.7073,-2.5633 0.7517,-0.4646 1.2722,-3.6338 1.1566,-7.0427 -0.1156,-3.4089 -0.1068,-6.498 0.019,-6.8647 0.4618,-1.3407 1.0884,-7.6055 1.9339,-19.3333 0.4758,-6.6 1.1228,-15 1.4377,-18.6667 0.315,-3.6667 0.9002,-10.5667 1.3004,-15.3333 0.4002,-4.7667 1.6384,-18.2667 2.7514,-30 1.8747,-19.7611 6.2388,-66.6832 7.9368,-85.3334 0.4006,-4.4 0.9763,-10.7 1.2794,-14 0.3031,-3.3 0.942,-10.5 1.4199,-16 0.4779,-5.5 1.1019,-11.8 1.3867,-14 0.2849,-2.2 0.8409,-8.2 1.2357,-13.3333 0.3947,-5.1333 1.9292,-21.9333 3.4099,-37.3333 1.4807,-15.4 2.9742,-31 3.319,-34.6667 0.7889,-8.3909 1.6944,-17.3481 2.6622,-26.3346 0.8096,-7.518 1.2795,-12.9535 2.5645,-29.6654 0.4511,-5.8667 1.0589,-12.7667 1.3508,-15.3333 0.2918,-2.5667 0.9273,-9.1667 1.4121,-14.6667 0.4848,-5.5 1.0995,-11.8 1.3658,-14 0.2664,-2.2 0.8225,-7.9 1.2359,-12.6667 2.3245,-26.8023 3.5044,-39.8416 3.9816,-44 0.2945,-2.5666 0.8861,-8.8666 1.3147,-14 0.4286,-5.1333 1.0652,-12.0333 1.4147,-15.3333 0.3495,-3.3 2.1347,-22.2 3.9672,-42 1.8325,-19.8 3.6147,-38.7 3.9605,-42 0.3458,-3.3 0.9828,-9.6 1.4156,-14 0.4327,-4.4 1.0078,-10.1 1.2778,-12.6666 0.2701,-2.5667 0.8394,-9.1667 1.2652,-14.6667 1.0312,-13.3213 1.9559,-23.5327 3.4408,-38 0.6774,-6.6 1.5213,-15.3 1.8754,-19.3333 1.8098,-20.6134 3.5916,-39.8382 4.078,-44 0.3,-2.5667 0.9119,-9.1667 1.3597,-14.6667 0.8002,-9.8276 4.2005,-46.2023 5.2972,-56.6667 1.6522,-15.7641 2.1358,-20.7155 2.7349,-28 0.3619,-4.4 1.2121,-14.6 1.8894,-22.6666 0.6772,-8.0667 1.2429,-15.5667 1.2571,-16.6667 0.014,-1.1 0.9355,-9.9831 2.0474,-19.7402 1.9504,-17.1151 3.4658,-34.999 4.1456,-48.9265 0.179,-3.6666 0.4395,-6.6666 0.5788,-6.6666 0.1394,0 0.456,-3.3 0.7037,-7.3334 0.2477,-4.0333 0.5468,-7.3333 0.6647,-7.3333 0.118,0 0.4301,-3.5158 0.6937,-7.8129 0.6595,-10.7517 5.5216,-65.1187 8.781,-98.1871 1.4817,-15.0333 2.9273,-29.7333 3.2123,-32.6667 0.285,-2.9333 1.459,-16.1333 2.6089,-29.3333 1.1499,-13.2 2.3681,-26.7 2.707,-30 2.2526,-21.9316 2.2252,-21.6405 4.6349,-49.3333 0.7976,-9.1667 1.696,-18.7667 1.9963,-21.3334 0.3003,-2.5666 0.962,-9.1666 1.4704,-14.6666 0.5085,-5.5 1.1243,-11.8 1.3686,-14 0.2443,-2.2 0.7683,-7.9 1.1644,-12.6667 0.8217,-9.886 3.0769,-34.7604 4.0496,-44.6667 0.3601,-3.6666 1.2791,-13.2666 2.0424,-21.3333 0.7632,-8.0667 1.642,-17.0667 1.953,-20 1.6563,-15.6264 2.0181,-19.4472 2.6511,-28 0.3799,-5.1333 0.9784,-11.7333 1.33,-14.6667 0.3517,-2.9333 0.9453,-9.5333 1.3193,-14.6666 0.6036,-8.2843 1.35,-16.3571 2.7124,-29.3334 0.231,-2.2 0.8044,-8.5 1.2743,-13.9999 0.4698,-5.5 1.0904,-12.1 1.3791,-14.6667 0.2886,-2.5667 0.8681,-8.5667 1.2876,-13.3333 0.4196,-4.7667 1.0341,-11.3667 1.3657,-14.6667 0.3315,-3.3 0.9285,-9.9 1.3265,-14.6667 0.8435,-10.1007 2.0176,-22.6938 2.7348,-29.3333 0.7146,-6.6154 1.6983,-16.6878 2.5393,-26 0.3974,-4.4 1.3245,-14.3 2.0603,-22 1.5237,-15.9449 2.3822,-25.2031 3.4001,-36.6667 0.3907,-4.4 0.9519,-10.1 1.2472,-12.6666 0.2953,-2.5667 0.9342,-9.6167 1.4198,-15.6667 l 0.8829,-11 H 4666.6711 l -1806.9395,0 0.8666,11 c 1.492,18.9394 1.9558,23.9884 3.338,36.3333 0.739,6.6 2.2682,22.5 3.3982,35.3334 1.13,12.8333 2.3414,26.0333 2.6919,29.3333 0.3504,3.3 0.9172,9.6 1.2595,14 0.3423,4.4 0.9525,11 1.3559,14.6667 0.8543,7.7643 1.5923,15.2592 2.6915,27.3333 0.434,4.7667 1.0546,11.3667 1.3791,14.6667 2.7832,28.3019 5.94,62.5604 6.5731,71.3333 0.4234,5.8666 1.0253,12.1666 1.3377,14 0.3124,1.8333 0.9253,8.1333 1.362,14 0.4368,5.8666 1.0603,12.7666 1.3855,15.3333 0.5047,3.9821 2.2614,22.6418 5.3351,56.6667 0.3975,4.4 0.9941,10.7 1.3257,14 0.6266,6.234 2.8463,29.9277 3.9973,42.6666 0.7439,8.233 1.8254,19.3481 2.6596,27.3334 0.3064,2.9333 1.5098,16.1333 2.6741,29.3333 3.2477,36.8204 3.2671,37.0299 3.894,42 0.3237,2.5667 0.9377,8.8667 1.3644,14 0.4267,5.1333 1.0562,12.3333 1.3988,16 0.3426,3.6667 0.9518,10.8667 1.3536,16 0.4019,5.1333 1.2842,14.1333 1.9608,20 1.1144,9.6643 4.8249,49.78 5.9812,64.6667 0.7353,9.4666 2.0218,22.9039 2.6807,28 0.7766,6.0068 2.3031,24.0913 2.7575,32.6666 0.1943,3.6667 0.4453,6.6667 0.5578,6.6667 0.1125,0 0.4031,3.3 0.6458,7.3333 0.2427,4.0334 0.5657,7.6334 0.7177,8 0.1521,0.3667 0.2144,3.7825 0.1384,7.5906 -0.076,3.8082 0.4698,7.2997 1.2128,7.7588 0.743,0.4592 1.0143,1.3794 0.603,2.0449 -0.5956,0.9637 8.1366,102.7996 10.6847,124.6057 0.8273,7.0804 4.3335,44.073 5.3709,56.6667 1.7039,20.6859 2.0247,24.0995 4.0102,42.6667 0.3528,3.3 0.9596,10.2 1.3483,15.3333 0.3886,5.1333 0.953,11.4333 1.2542,14 0.3011,2.5667 0.9296,9.1667 1.3967,14.6667 0.467,5.5 1.061,11.5 1.3199,13.3333 0.2589,1.8333 0.8534,8.4333 1.3211,14.6667 0.4677,6.2333 1.0388,13.1333 1.2692,15.3333 0.2304,2.2 0.801,7.9 1.2679,12.6667 0.4669,4.7666 1.1277,11.3666 1.4684,14.6666 0.3407,3.3 0.9276,9.9 1.3042,14.6667 0.3767,4.7667 0.961,10.7667 1.2985,13.3333 0.3376,2.5667 0.9579,8.8667 1.3785,14 0.4206,5.1334 1.0488,11.7334 1.396,14.6667 0.3472,2.9333 0.9154,9.5333 1.2627,14.6667 0.3473,5.1333 0.8752,10.5333 1.1731,12 0.298,1.4666 0.964,8.6607 1.4801,15.9869 0.516,7.3262 1.1178,13.6262 1.3373,14 0.2195,0.3738 0.8195,6.6738 1.3333,14 0.5139,7.3262 1.1116,13.6262 1.3283,14 0.2167,0.3738 0.8131,6.968 1.3254,14.6538 0.5122,7.6857 1.1123,14.2857 1.3334,14.6667 0.2211,0.3809 0.809,6.0925 1.3065,12.6925 0.4975,6.6 1.148,14.4 1.4455,17.3334 0.9003,8.8773 1.9317,20.8137 2.6498,30.6666 0.3741,5.1334 0.9716,11.7334 1.3278,14.6667 0.8315,6.8477 1.5943,13.9897 2.5632,24 0.4259,4.4 1.0495,10.7 1.3858,14 0.875,8.5858 1.8028,18.4764 3.377,36 0.7576,8.4333 1.6424,18.0333 1.9663,21.3333 0.3238,3.3 0.9228,9.6 1.3309,14 1.5663,16.885 2.1421,22.8449 2.7051,28 0.3203,2.9334 1.2044,13.4334 1.9646,23.3334 0.7602,9.9 1.6715,20.4 2.0251,23.3333 0.3536,2.9333 0.9638,8.7602 1.3559,12.9487 0.3922,4.1884 0.9639,10.1884 1.2705,13.3333 2.6686,27.3698 6.7691,74.0641 8.1128,92.3847 0.8724,11.8935 1.4865,18.0477 1.9293,19.3333 0.1262,0.3667 0.135,3.4558 0.019,6.8647 -0.1156,3.4089 0.4409,6.6003 1.2366,7.0921 0.7957,0.4918 1.0845,1.4803 0.6417,2.1968 -0.7986,1.292 -0.095,10.4376 4.7612,61.8464 1.3853,14.6667 2.8325,30.2667 3.216,34.6667 0.3835,4.4 1.6409,17.9 2.7943,30 1.1534,12.1 2.3622,25.3 2.6863,29.3333 0.3241,4.0333 0.8783,9.4333 1.2317,12 0.3534,2.5667 0.9882,9.4667 1.4107,15.3333 0.4225,5.8667 1.0417,13.0667 1.376,16 0.3343,2.9334 1.8235,18.2334 3.3093,34 1.4859,15.7667 2.9887,31.3667 3.3396,34.6667 0.3509,3.3 0.952,10.2 1.3358,15.3333 0.3838,5.1334 0.9609,11.7334 1.2825,14.6667 0.7372,6.7238 1.7555,17.5041 2.7079,28.6667 0.7682,9.0049 0.8514,9.8841 3.2158,34 0.7909,8.0666 1.7572,18.2666 2.1472,22.6666 0.39,4.4 0.9663,10.7 1.2806,14 1.4101,14.805 2.0996,22.5236 2.6338,29.4809 0.3158,4.1145 0.9051,10.1145 1.3096,13.3334 0.4044,3.2188 2.2308,22.0524 4.0587,41.8524 1.8279,19.8 3.6061,38.7 3.9516,42 0.3454,3.3 0.9829,10.5 1.4165,16 0.4337,5.5 1.0051,11.5 1.2698,13.3333 0.2646,1.8333 0.8463,8.1333 1.2925,14 0.4462,5.8667 1.3826,16.0667 2.0807,22.6667 0.6982,6.6 1.5609,15.6 1.9171,20 0.3563,4.4 1.2345,13.7 1.9515,20.6666 0.7171,6.9667 1.668,17.7667 2.1132,24 0.4452,6.2334 1.363,16.7334 2.0395,23.3334 0.6764,6.6 1.5649,15.6 1.9744,20 0.4095,4.4 1.0267,10.4 1.3716,13.3333 0.7665,6.5187 5.524,57.7807 6.5583,70.6667 0.4121,5.1333 1.0355,12.0333 1.3853,15.3333 0.3498,3.3 0.9225,9.3 1.2727,13.3333 0.3502,4.0334 1.5917,17.286 2.7587,29.4504 1.1671,12.1643 2.0185,22.6643 1.892,23.3333 -0.1265,0.669 -0.082,1.5163 0.1,1.883 0.3524,0.7123 0.3544,0.7345 1.8197,20 0.5299,6.9667 1.2676,16.5667 1.6392,21.3333 0.7659,9.8224 6.8774,77.5087 7.8254,86.6667 1.5607,15.0785 3.4111,34.8679 4.1141,44 0.4233,5.5 1.0033,12.4 1.2887,15.3333 1.5029,15.4435 2.0068,20.7547 2.7117,28.5822 0.4251,4.7202 0.995,10.4202 1.2665,12.6667 0.2714,2.2465 0.8544,8.5845 1.2956,14.0845 0.4411,5.5 1.0376,12.1 1.3257,14.6666 0.658,5.8628 3.158,32.716 4.0343,43.3334 0.3631,4.4 0.9117,10.1 1.219,12.6666 0.7256,6.06 1.9038,18.4331 2.7932,29.3334 0.6755,8.2778 1.2908,14.7563 2.6594,28 0.341,3.3 0.9578,9.9 1.3707,14.6666 0.4128,4.7667 0.9776,10.7667 1.255,13.3334 1.2508,11.572 4.4508,46.5549 5.3665,58.6666 0.4158,5.5 1.0011,12.1 1.3007,14.6667 0.2997,2.5667 0.9159,8.5667 1.3695,13.3333 0.4536,4.7667 1.0688,11.0667 1.3672,14 0.9635,9.4725 4.6121,49.0734 5.3438,58 0.3907,4.7667 0.9909,11.3667 1.3337,14.6667 0.8383,8.0672 1.5534,15.466 3.9308,40.6666 2.1688,22.9891 2.5807,27.2822 4.6697,48.6667 0.7522,7.7 1.6831,17.9 2.0686,22.6667 0.3855,4.7666 0.9398,11.0666 1.2317,14 0.2919,2.9333 0.9116,10.1333 1.3769,16 0.4654,5.8666 1.0745,12.7666 1.3535,15.3333 0.2791,2.5667 1.1794,11.8667 2.0008,20.6667 0.8213,8.8 1.7464,18.1 2.0557,20.6666 0.3093,2.5667 2.0857,21.7667 3.9477,42.6667 3.7175,41.7281 3.7052,41.5991 6.6157,69.3333 1.1158,10.6334 2.3651,24.4334 2.7762,30.6667 1.4728,22.3343 1.8528,27.4186 2.491,33.3333 0.356,3.3 1.3236,15.6 2.1501,27.3334 0.8266,11.7333 1.7967,22.2333 2.1559,23.3333 0.3591,1.1 0.9114,6.5 1.2273,12 0.3158,5.5 0.856,12.7 1.2004,16 1.1037,10.5766 6.0116,61.6982 6.7842,70.6667 0.4107,4.7666 0.9631,10.4666 1.2275,12.6666 0.2644,2.2 0.9013,9.4 1.4152,16 0.9394,12.0661 1.5381,16.7271 2.2323,17.3808 0.2063,0.1942 10.8751,3.1646 23.7085,6.6007 12.8333,3.4362 26.0333,7.0809 29.3333,8.0993 6.3168,1.9495 25.977,7.1374 56,14.777 9.9,2.5191 22.5,5.7775 28,7.2408 5.5,1.4633 13.3,3.4985 17.3333,4.5228 4.0333,1.0243 13.9333,3.7421 22,6.0396 8.0667,2.2975 15.5667,4.3831 16.6667,4.6347 1.1,0.2516 6.8,1.7667 12.6666,3.3669 5.8667,1.6002 12.4667,3.3807 14.6667,3.9565 2.2,0.5759 15.3344,4.1728 29.1874,7.9933 13.8531,3.8204 26.391,7.178 27.862,7.4613 1.471,0.2833 4.5367,1.1152 6.8126,1.8485 4.3569,1.404 10.4397,3.0509 35.4713,9.6034 8.4334,2.2076 21.3334,5.8122 28.6667,8.0103 7.3333,2.198 14.8333,4.281 16.6667,4.6288 1.8333,0.3479 9.6333,2.4525 17.3333,4.677 13.1155,3.7889 36.5761,9.8782 53.3333,13.8429 4.0334,0.9542 13.0334,3.3354 20,5.2916 6.9667,1.9561 16.8667,4.6477 22,5.9813 21.4981,5.5849 40.8937,10.7673 50.1379,13.3964 5.4242,1.5427 16.1621,4.4828 23.8621,6.5335 7.7,2.0508 25.3502,6.8701 39.2226,10.7096 26.2394,7.2623 42.688,11.7806 46.1108,12.666 22.1959,5.7422 34.3871,9.0195 36,9.6776 1.1,0.4489 2.4292,0.7278 2.9537,0.6199 0.5246,-0.108 2.6246,0.464 4.6667,1.2709 2.0421,0.807 4.6129,1.5792 5.7129,1.7159 1.1,0.1368 6.2,1.5027 11.3333,3.0354 11.0041,3.2856 34.7138,9.5967 39.005,10.3825 1.6528,0.3027 3.4655,0.8349 4.0282,1.1827 0.5627,0.3477 3.4105,0.9939 6.3283,1.4358 2.9179,0.442 18.2052,4.3842 33.9719,8.7605 15.7666,4.3764 46.6666,12.8303 68.6666,18.7864 60.0475,16.257 69.8157,18.91 96.6667,26.2542 13.5667,3.7107 37.2667,10.153 52.6667,14.3161 15.4,4.1631 33.4,9.0571 40,10.8757 6.6,1.8185 13.0381,3.2959 14.307,3.2831 1.2689,-0.013 2.6604,0.5483 3.0922,1.2469 0.4317,0.6986 1.3698,0.9088 2.0846,0.467 0.7148,-0.4417 2.0233,-0.2348 2.9079,0.46 0.8845,0.6947 3.7083,1.6286 6.2749,2.0755 2.5667,0.4468 13.6667,3.2403 24.6667,6.2077 11,2.9674 21.2743,5.6831 22.8318,6.0348 1.5574,0.3518 13.5574,3.6388 26.6666,7.3044 13.1092,3.6657 25.9349,7.2518 28.5016,7.969 2.5666,0.7173 13.6666,3.7174 24.6666,6.6669 35.844,9.611 49.0578,13.1985 66.6667,18.0998 9.5333,2.6536 21.8333,6.0347 27.3333,7.5137 5.5,1.4789 15.4,4.1422 22,5.9183 19.5995,5.2744 52.8081,14.0196 55.1537,14.5242 2.3282,0.5008 26.181,6.7948 32.8463,8.667 2.2,0.618 8.5,2.3023 14,3.7428 5.5,1.4406 18.1,4.7392 28,7.3303 9.9,2.591 19.5,5.2824 21.3334,5.9809 3.8385,1.4625 6.6804,1.0992 18.6666,-2.386 z m -43,-783.311 c -13.0166,-3.8671 -23.6666,-6.7343 -23.6666,-6.3716 0,0.3628 -0.8052,-0.01 -1.7894,-0.8254 -0.9841,-0.8168 -2.0585,-1.2158 -2.3876,-0.8868 -0.329,0.329 -9.5738,-2.0783 -20.544,-5.3496 -10.9701,-3.2713 -35.5457,-10.5185 -54.6124,-16.1049 -19.0666,-5.5865 -46.6666,-13.7095 -61.3333,-18.0513 -60.0288,-17.7703 -136.2405,-40.0254 -148.384,-43.3305 -7.1221,-1.9385 -15.6493,-4.2795 -18.9493,-5.2023 -7.3486,-2.0549 -66.5811,-19.4273 -84,-24.6364 -6.9667,-2.0834 -20.7667,-6.1683 -30.6667,-9.0775 -44.2116,-12.9919 -106.5706,-31.3757 -127.3333,-37.5384 -12.4667,-3.7004 -24.1667,-7.045 -26,-7.4326 -4.8597,-1.0274 -7.3333,-1.6665 -7.3333,-1.8949 0,-0.1107 -1.5,-0.4739 -3.3334,-0.8073 -3.6538,-0.6644 -51.9716,-14.6424 -57.3333,-16.5861 -1.8333,-0.6646 -15.9333,-4.8836 -31.3333,-9.3755 -49.2271,-14.3586 -89.6068,-26.1973 -130.6667,-38.3096 -22,-6.4898 -44.0237,-12.9377 -48.9415,-14.3286 l -8.9416,-2.5291 -0.699,-6.7001 c -1.1235,-10.7685 -2.617,-28.2405 -4.1059,-48.0333 -0.3861,-5.1334 -0.9701,-12.3334 -1.2977,-16 -1.44,-16.1167 -1.9809,-22.316 -3.3156,-38 -0.7801,-9.1667 -1.6944,-19.3667 -2.0318,-22.6667 -0.3374,-3.3 -0.9824,-11.1 -1.4334,-17.3333 -0.8921,-12.3303 -1.1572,-15.6178 -2.4726,-30.6667 -0.4808,-5.5 -1.1244,-13.3 -1.4303,-17.3333 -0.3059,-4.0334 -0.8437,-10.3334 -1.1951,-14 -0.3513,-3.6667 -0.9954,-11.1667 -1.4312,-16.6667 -0.4358,-5.5 -1.0338,-12.1 -1.3289,-14.6667 -0.295,-2.5666 -0.9401,-10.0666 -1.4334,-16.6666 -0.4933,-6.6 -1.059,-12.9 -1.257,-14 -0.198,-1.1 -0.7985,-8 -1.3343,-15.3334 -0.5359,-7.3333 -1.1457,-14.2334 -1.3552,-15.3336 -0.2094,-1.1002 -0.788,-8.9002 -1.2858,-17.3334 -0.4978,-8.4331 -1.1383,-17.433 -1.4234,-19.9996 -1.5883,-14.2991 -3.2871,-33.4957 -5.9586,-67.3334 -0.7527,-9.5333 -1.7135,-21.2333 -2.1351,-26 -0.4216,-4.7666 -0.9732,-11.3666 -1.2257,-14.6666 -0.2526,-3.3 -0.762,-9 -1.1322,-12.6667 -0.3701,-3.6667 -1.0421,-11.4667 -1.4932,-17.3333 -0.4512,-5.8667 -1.9819,-23.8667 -3.4017,-40 -6.8433,-77.7633 -10.8216,-126.3789 -11.2,-136.8655 -0.2289,-6.3427 -0.7114,-12.0427 -1.0722,-12.6667 -0.3608,-0.624 -0.6413,-3.6922 -0.6233,-6.8183 0.018,-3.126 -0.3597,-6.076 -0.8392,-6.5555 -0.4795,-0.4795 -0.8718,-1.3718 -0.8718,-1.9829 0,-0.6111 100.8,-1.1111 224,-1.1111 178.3038,0 224.0028,0.34 224.0138,1.6666 0.014,1.6613 2.1306,27.6689 3.2829,40.3334 0.9582,10.5301 3.2558,39.0351 4.0302,50 0.3885,5.5 0.9658,12.1 1.2829,14.6666 0.3172,2.5667 0.9428,10.0667 1.3904,16.6667 0.4475,6.6 1.058,14.4 1.3566,17.3333 0.2985,2.9334 0.8924,9.8334 1.3196,15.3334 0.4272,5.5 1.0184,12.4 1.3137,15.3333 0.2953,2.9333 0.8912,9.8333 1.3243,15.3333 0.4331,5.5 1.0371,12.7 1.3424,16 1.0973,11.8634 2.0252,23.5198 2.7065,34 0.3813,5.8667 0.9546,12.7667 1.2739,15.3334 0.3193,2.5666 0.9473,9.7666 1.3956,16 0.4483,6.2333 1.03,12.8333 1.2927,14.6666 0.2628,1.8334 0.8663,9.0334 1.3412,16 0.4749,6.9667 1.0749,14.1667 1.3333,16 0.3987,2.8284 2.002,22.8029 2.5102,31.2744 0.1246,2.0761 2.0592,3.094 9.4898,4.9933 5.1334,1.3121 12.3334,3.2801 16,4.3733 8.6652,2.5834 31.4023,8.8288 34.0847,9.3622 3.8279,0.7613 37.8866,10.1231 39.9153,10.9717 1.1,0.4601 2.9,0.9825 4,1.1608 1.1,0.1783 6.2,1.605 11.3334,3.1704 5.1333,1.5654 16.2333,4.6341 24.6666,6.8192 13.6591,3.5392 19.7005,5.227 42.6667,11.9198 3.3,0.9617 7.063,1.9432 8.3622,2.1811 1.2993,0.2379 8.4993,2.2816 16,4.5416 7.5008,2.26 19.3212,5.5761 26.2677,7.3692 6.9464,1.793 16.5464,4.4185 21.3333,5.8344 9.2412,2.7334 39.1118,10.6614 43.0418,11.4238 1.2861,0.2495 2.8366,0.7616 3.4455,1.1379 0.609,0.3764 2.9585,1.0105 5.2212,1.4091 7.7677,1.3685 38.4791,9.6996 69.5093,18.8559 3.9496,1.1655 14.1496,3.9007 22.6667,6.0783 16.1895,4.1393 42.0506,11.4151 45.4856,12.7971 1.1,0.4425 2.9314,0.9094 4.0698,1.0376 1.1384,0.1281 5.0384,1.2037 8.6667,2.3902 6.7125,2.1952 10.7819,3.3109 37.9302,10.3999 l 15.3333,4.0038 10,-2.9029 c 5.5,-1.5966 17.2,-5.1915 26,-7.9886 14.7866,-4.7001 48.4221,-14.905 70.6667,-21.4399 14.4364,-4.2411 15.8564,-4.683 40,-12.4459 12.4666,-4.0084 25.6666,-7.9938 29.3333,-8.8565 3.6667,-0.8626 7.5667,-1.8772 8.6667,-2.2545 2.6692,-0.9157 4.1544,-1.3394 7.3333,-2.0924 1.4667,-0.3474 7.4667,-2.1164 13.3333,-3.9312 5.8667,-1.8147 19.0667,-5.8077 29.3334,-8.8733 10.2666,-3.0656 25.8666,-7.8663 34.6666,-10.6682 8.8,-2.8019 25.3,-7.8927 36.6667,-11.3129 20.1813,-6.0724 37.5852,-11.3904 70,-21.3895 8.8,-2.7145 22.6,-6.9298 30.6667,-9.3673 8.0666,-2.4374 22.1666,-6.8222 31.3333,-9.7439 9.1667,-2.9217 18.4667,-5.6066 20.6667,-5.9665 2.2,-0.3599 12.4998,-3.1938 22.8885,-6.2977 l 18.8886,-5.6433 0.7372,-7.4986 c 0.4054,-4.1242 1.0791,-13.4985 1.4971,-20.8319 0.418,-7.3333 1.0236,-16.6333 1.3458,-20.6666 0.3222,-4.0334 0.9039,-13.0334 1.2926,-20 0.3887,-6.9667 1.0036,-15.9667 1.3663,-20 0.3627,-4.0334 0.9594,-13.0334 1.3259,-20 0.3665,-6.9667 0.9678,-17.1667 1.3361,-22.6667 1.0239,-15.2902 1.8628,-28.7902 2.61,-42 0.862,-15.2411 1.9861,-32.583 2.7224,-42 0.3154,-4.0333 0.9311,-13.9333 1.3682,-22 0.4372,-8.0667 1.0136,-17.0667 1.281,-20 0.2674,-2.9333 0.8552,-11.9333 1.3062,-20 0.451,-8.0667 1.08,-17.0667 1.3978,-20 0.3177,-2.9333 0.9132,-12.5333 1.3232,-21.3333 0.41,-8.8 1.0044,-18.4 1.3209,-21.3334 0.3165,-2.9333 0.902,-11.0333 1.3013,-18 0.918,-16.0206 4.6173,-74.2759 5.3341,-84 0.5543,-7.5192 0.9398,-13.7603 3.4179,-55.3333 0.7869,-13.2 1.6708,-26.1 1.9643,-28.6667 0.7025,-6.143 2.5667,-42.8289 2.6085,-51.3333 l 0.033,-6.6666 -779.6666,-0.3345 -779.6667,-0.3345 -0.102,-2.9988 c -0.056,-1.6494 -0.2762,-3.8989 -0.4891,-4.9989 -0.2128,-1.1 -0.8108,-9.8 -1.3287,-19.3333 -0.5179,-9.5334 -1.1612,-19.7334 -1.4296,-22.6667 -0.2684,-2.9333 -0.8376,-12.5333 -1.265,-21.3333 -0.4273,-8.8 -1.0075,-17.8 -1.2892,-20 -0.2818,-2.2 -0.9217,-11.5 -1.4221,-20.6667 -0.5004,-9.1667 -1.1059,-18.7667 -1.3456,-21.3333 -0.2397,-2.5667 -0.8307,-11.7192 -1.3134,-20.3389 -0.4826,-8.6197 -1.08,-17.3197 -1.3274,-19.3334 -0.2474,-2.0136 -0.8381,-10.8611 -1.3127,-19.6611 -0.4746,-8.8 -1.1041,-18.1 -1.3988,-20.6666 -0.2948,-2.5667 -0.8996,-12.7667 -1.3442,-22.6667 -0.4445,-9.9 -1.0182,-19.8 -1.2749,-22 -0.2566,-2.2 -0.8426,-10 -1.3022,-17.3333 -0.4596,-7.3334 -1.0875,-16.6334 -1.3954,-20.6667 -0.3079,-4.0333 -0.8961,-12.7333 -1.3072,-19.3333 -0.4111,-6.6 -1.0169,-15 -1.3464,-18.6667 -0.3294,-3.6667 -0.9622,-13.2667 -1.4062,-21.3333 -0.4439,-8.0667 -1.0226,-16.1667 -1.2859,-18 -0.2634,-1.8334 -0.8675,-11.1334 -1.3425,-20.6667 -0.475,-9.5333 -1.3127,-23.9333 -1.8616,-32 -0.5489,-8.0667 -0.6482,-15.0447 -0.2206,-15.5068 0.4276,-0.4621 13.9774,-6.3754 30.1107,-13.1406 16.1334,-6.7653 35.3334,-14.9985 42.6667,-18.2961 17.343,-7.7986 17.8755,-8.0263 41.3333,-17.6749 11,-4.5245 23.1664,-9.6863 27.0365,-11.4706 3.87,-1.7844 7.5935,-3.2443 8.2743,-3.2443 1.2878,0 57.0171,-23.2109 68.6892,-28.6086 7.6088,-3.5187 37.3408,-16.1909 80,-34.0973 16.1334,-6.7721 35.3334,-14.8542 42.6667,-17.9602 7.3333,-3.1061 21.7333,-9.1117 32,-13.346 10.2667,-4.2342 28.8667,-12.0441 41.3333,-17.3552 12.4667,-5.3112 37.9667,-16.1034 56.6667,-23.9826 18.7,-7.8792 37.3,-15.838 41.3333,-17.6861 11.8163,-5.4143 37.8075,-16.2974 38.9217,-16.2974 1.2094,0 101.5434,-42.1535 104.8301,-44.0424 1.2365,-0.7107 10.9482,-4.939 21.5815,-9.3963 10.6334,-4.4572 31.9334,-13.4004 47.3334,-19.8736 28.08,-11.8031 32.192,-13.4741 34.6666,-14.0877 1.9881,-0.4929 34.8457,-14.4626 45.4448,-19.3212 5.072,-2.3251 14.3219,-6.305 20.5552,-8.8442 6.2334,-2.5393 14.0144,-5.8406 17.2913,-7.3361 3.2768,-1.4956 7.4718,-3.2948 9.3221,-3.9983 1.8503,-0.7035 18.6692,-7.7762 37.3754,-15.7171 18.7062,-7.941 48.7112,-20.5499 66.6779,-28.0199 35.6974,-14.8418 83.9137,-35.1874 108,-45.5722 8.4333,-3.636 18.7833,-7.8961 23,-9.4668 4.2167,-1.5707 7.6667,-3.5203 7.6667,-4.3323 0,-1.0573 -13.7215,-1.403 -48.3334,-1.2179 -76.7259,0.4105 -309.0778,1.9737 -376.9999,2.5364 -34.1,0.2825 -113,0.865 -175.3334,1.2946 -62.3333,0.4295 -137.9333,1.0535 -168,1.3867 -30.0666,0.3332 -121.2666,1.0107 -202.6666,1.5056 -81.4,0.4949 -151.75,0.9982 -156.3334,1.1185 -4.5833,0.1203 -8.3368,0.1809 -8.341,0.1348 -0,-0.046 -0.6242,-3.6839 -1.3777,-8.0839 -0.7534,-4.4 -1.6815,-10.1 -2.0623,-12.6666 -0.3808,-2.5667 -0.927,-6.1667 -1.2137,-8 -0.2868,-1.8334 -1.4264,-9.9334 -2.5326,-18 -1.7473,-12.7424 -5.1082,-35.6105 -6.7606,-46 -0.8159,-5.1297 -3.6969,-24.3397 -4.0994,-27.3334 -0.1971,-1.4666 -2.5378,-17.3666 -5.2013,-35.3333 -2.6636,-17.9667 -5.124,-34.7667 -5.4674,-37.3333 -0.3435,-2.5667 -0.9207,-6.1667 -1.2828,-8 -0.3621,-1.8334 -0.929,-5.5636 -1.2598,-8.2894 -0.3308,-2.7258 -1.1936,-8.4258 -1.9174,-12.6667 -0.7238,-4.2408 -1.6229,-10.1106 -1.998,-13.0439 -0.3751,-2.9334 -1.5763,-11.3334 -2.6692,-18.6667 -1.093,-7.3333 -2.3581,-16.0333 -2.8113,-19.3333 -1.3241,-9.6401 -7.2425,-48.4173 -7.8348,-51.3334 -0.2979,-1.4666 -0.9331,-5.6666 -1.4115,-9.3333 -0.4785,-3.6667 -3.553,-25.2667 -6.8323,-48 -3.2794,-22.7333 -6.3281,-45.2333 -6.7749,-50 -0.4468,-4.7667 -1.3159,-9.9954 -1.9312,-11.6195 -0.6154,-1.624 -0.6385,-3.2497 -0.051,-3.6125 0.5872,-0.3629 225.4142,-0.9986 499.6157,-1.4128 274.2015,-0.4142 577.1482,-1.0081 673.2149,-1.3198 436.3657,-1.4158 1085.9413,-2.3392 1089.0927,-1.5483 1.9183,0.4815 3.24,1.6152 2.9453,2.5265 -0.294,0.9092 -0.8845,7.3531 -1.3122,14.3197 -0.7941,12.9324 -1.4681,21.9617 -2.7866,37.3334 -0.9534,11.114 -1.5886,20.0954 -2.5933,36.6666 -0.4447,7.3334 -1.0508,15.4334 -1.3471,18 -0.2962,2.5667 -0.9091,10.9667 -1.3619,18.6667 -0.4528,7.7 -1.0458,15.8 -1.3177,18 -0.2719,2.2 -0.8575,9.4 -1.3012,16 -0.4437,6.6 -1.0728,15 -1.398,18.6667 -0.6667,7.5183 -1.4619,18.4052 -2.6295,36 -0.4379,6.6 -1.059,14.1 -1.3802,16.6666 -0.3212,2.5667 -0.8922,9.4667 -1.2689,15.3334 -0.3767,5.8666 -0.9513,14.2666 -1.2768,18.6666 -0.5645,7.6304 -1.3245,18.1047 -2.8055,38.6667 -0.3697,5.1333 -0.937,12.6333 -1.2605,16.6667 -0.3236,4.0333 -0.952,12.1333 -1.3964,18 -0.4444,5.8666 -1.0392,13.0666 -1.3217,16 -0.2826,2.9333 -0.8367,10.1333 -1.2315,16 -0.3947,5.8666 -1.0198,15.1666 -1.389,20.6666 -0.3692,5.5 -1.0322,14.2 -1.4734,19.3334 -0.9024,10.4998 -1.3754,17.6382 -1.6597,25.0473 -0.1774,4.6239 -0.6814,5.2565 -6.0063,7.539 -3.1969,1.3704 -9.0469,4 -13,5.8437 -10.6222,4.9541 -105.5213,45.0648 -107.854,45.5863 -2.3879,0.5339 -28.5632,11.5017 -38,15.9225 -3.6666,1.7177 -20.4666,8.9438 -37.3333,16.0581 -16.8667,7.1142 -34.5667,14.6081 -39.3333,16.6532 -13.6529,5.8574 -85.2865,36.1444 -107.1075,45.2856 -19.6026,8.2118 -79.3227,33.577 -142.2259,60.4082 -35.6771,15.218 -37.3571,15.9163 -39.3691,16.3624 -1.8467,0.4096 -70.2326,29.4194 -78.6308,33.3559 -9.8725,4.6274 -99.7531,42.5067 -127.3334,53.6634 -5.5,2.2249 -19.6,8.2206 -31.3333,13.3239 -20.9053,9.0925 -41.1086,17.6865 -102.6319,43.6573 -16.8475,7.1118 -34.5475,14.7317 -39.3333,16.9331 -4.7858,2.2014 -13.8015,5.9964 -20.0348,8.4333 -13.0632,5.1072 -15.4936,6.121 -72.6667,30.3122 -23.4666,9.9293 -47.1666,20.1138 -52.6666,22.6322 -5.5,2.5185 -16.15,7.1357 -23.6667,10.2605 -7.5167,3.1248 -13.6667,6.2155 -13.6667,6.8683 0,0.6916 219.291,1.1869 525.5056,1.1869 h 525.5056 l -0.8647,9 c -0.4756,4.95 -1.1565,12.9 -1.5131,17.6666 -0.3566,4.7667 -0.9672,12.8667 -1.357,18 -0.3898,5.1334 -0.9945,13.2334 -1.3439,18 -0.3494,4.7667 -0.9181,11.3667 -1.2638,14.6667 -0.3457,3.3 -0.9398,9.9 -1.3201,14.6667 -0.3803,4.7666 -0.9834,11.9666 -1.3401,16 -0.3567,4.0333 -0.9667,11.2333 -1.3557,16 -0.389,4.7666 -0.9676,11.3666 -1.2859,14.6666 -0.3182,3.3 -0.9309,10.2 -1.3614,15.3334 -1.5385,18.3451 -2.0545,24.0837 -2.6971,30 -0.3585,3.3 -0.9743,10.5 -1.3684,16 -0.3941,5.5 -0.9755,13.6 -1.292,18 -0.8912,12.3893 -2.0614,26.1919 -2.6565,31.3333 -0.297,2.5667 -0.8887,9.1667 -1.3148,14.6667 -0.426,5.5 -1.0267,12.7 -1.3348,16 -0.3081,3.3 -0.9248,10.8 -1.3705,16.6666 -0.4457,5.8667 -1.0366,12.7667 -1.3132,15.3334 -0.2765,2.5666 -0.8923,10.0666 -1.3684,16.6666 -0.4762,6.6 -1.0732,14.1 -1.3268,16.6667 -0.2535,2.5667 -0.8125,9.1667 -1.2422,14.6667 -0.4296,5.5 -1.0508,13 -1.3805,16.6666 -0.3296,3.6667 -1.2193,14.1667 -1.977,23.3334 -0.7578,9.1666 -1.6621,19.6666 -2.0097,23.3333 -0.3475,3.6667 -0.9828,10.8667 -1.4117,16 -0.4289,5.1333 -1.0471,12.0333 -1.3738,15.3333 -0.3267,3.3 -0.8703,9.9 -1.2081,14.6667 -0.3377,4.7667 -0.916,12.2666 -1.2851,16.6666 -0.3691,4.4 -1.0004,12.5 -1.403,18 -0.4026,5.5 -1.0137,13 -1.3581,16.6667 -1.6097,17.1361 -1.9191,20.6474 -2.6436,30 -0.426,5.5 -1.0153,12.1 -1.3095,14.6667 -0.2942,2.5666 -0.9021,10.0666 -1.3509,16.6666 -0.4488,6.6 -1.3935,18.6 -2.0993,26.6667 -0.7058,8.0667 -1.6027,18.5667 -1.9932,23.3333 -0.3905,4.7667 -0.9658,11.3667 -1.2785,14.6667 -0.3127,3.3 -1.5008,17.7 -2.6403,32 -1.1395,14.3 -2.6543,31.7 -3.3662,38.6667 -1.5693,15.3576 -2.3484,24.8801 -3.3271,40.6666 -0.4092,6.6 -1.5861,21 -2.6154,32 -1.9901,21.2685 -3.1518,38.0324 -3.4649,50 -0.1055,4.0334 -0.5172,7.8765 -0.9149,8.5402 -0.3977,0.6638 -0.8637,4.8638 -1.0356,9.3334 -0.1719,4.4695 -0.6813,11.4264 -1.1321,15.4598 -0.4508,4.0333 -0.8,8.8333 -0.7761,10.6666 0.024,1.8334 -0.8677,14.1334 -1.9814,27.3334 -1.1137,13.2 -3.243,38.7 -4.7318,56.6666 -1.4888,17.9667 -3.0071,35.3667 -3.374,38.6667 -0.7062,6.3507 -3.0644,34.3365 -3.9325,46.6667 -0.2839,4.0333 -0.8221,10.9333 -1.196,15.3333 -0.3738,4.4 -1.0688,13.1 -1.5444,19.3333 -0.4755,6.2334 -1.0806,13.1241 -1.3445,15.3128 -0.264,2.1888 -0.8231,8.4888 -1.2426,14 -0.7433,9.7667 -1.5865,19.8431 -2.6793,32.0206 -0.2962,3.3 -0.9393,11.4 -1.4292,18 -0.4899,6.6 -1.0801,13.0207 -1.3115,14.2682 -0.2315,1.2476 -0.7845,8.1476 -1.2291,15.3334 -0.4446,7.1857 -1.0497,15.165 -1.3448,17.7317 -0.2951,2.5667 -0.8989,9.1667 -1.3418,14.6667 -0.4429,5.5 -1.0503,12.7 -1.35,16 -0.2996,3.3 -0.9161,10.5 -1.37,16 -0.454,5.5 -1.0376,12.1 -1.2969,14.6666 -0.2594,2.5667 -0.8537,9.7667 -1.3207,16 -0.467,6.2334 -1.0832,12.8334 -1.3693,14.6667 -0.2862,1.8333 -0.9098,9.0333 -1.3858,16 -0.476,6.9667 -1.0452,14.7667 -1.2648,17.3333 -0.2197,2.5667 -0.78,9.7667 -1.2451,16 -1.438,19.269 -2.0772,24.5318 -3.0971,25.4994 -1.218,1.1557 -14.9582,5.2165 -53.6503,15.8561 -16.5,4.5372 -48.6,13.5255 -71.3333,19.9739 -22.7333,6.4484 -52.7333,14.8409 -66.6667,18.65 -13.9333,3.8092 -34.6333,9.6146 -46,12.901 -11.3666,3.2864 -23.3666,6.546 -26.6666,7.2435 -6.8332,1.4444 -10,2.2487 -10,2.5398 0,0.1106 -1.3569,0.4538 -3.0153,0.7627 -3.0455,0.5672 -36.8598,9.9776 -140.318,39.0502 -127.2132,35.748 -148.813,41.7445 -152,42.1984 -1.8334,0.261 -3.3334,0.5619 -3.3334,0.6685 0,0.1066 -0.9,0.3859 -2,0.6207 -1.1,0.2347 -21.8,5.9516 -46,12.7042 -24.2,6.7525 -53.3,14.8339 -64.6666,17.9586 -11.3667,3.1246 -23.6011,6.6834 -27.1877,7.9083 -3.5865,1.2249 -8.0865,2.4701 -10,2.7671 -1.9134,0.297 -11.579,2.9003 -21.479,5.7852 -9.9,2.8849 -29.4,8.3785 -43.3333,12.2079 -13.9334,3.8295 -31.0334,8.6709 -38,10.7588 -13.8692,4.1566 -40.341,11.4248 -45.4455,12.4778 -6.7143,1.3851 -9.1933,2.0284 -33.3752,8.6606 -13.6514,3.744 -25.9514,6.748 -27.3333,6.6755 -1.382,-0.072 -13.1627,-3.2958 -26.1794,-7.163 z M 4152.2162,2811.9999 c 0.119,-0.3667 0.3186,-49.7167 0.4435,-109.6667 l 0.2273,-109 h -159.1103 -159.1102 v -108.6774 -108.6774 l 158.725,0.3441 c 157.8023,0.3421 158.728,0.3286 159.2378,-2.3226 0.282,-1.4666 0.4058,-55.4666 0.275,-120 l -0.2378,-117.3333 -279,-0.3365 -279,-0.3364 v 337.7809 c 0,185.7795 0.25,338.0309 0.5556,338.3364 0.799,0.799 556.7347,0.6881 556.9941,-0.1111 z m 796.7914,-108.378 0.3412,-108.9729 -27.5447,-26.9912 c -50.2054,-49.1967 -57.0837,-55.9406 -111.3064,-109.1302 -29.6072,-29.0431 -60.2812,-59.051 -68.1645,-66.6843 -7.8834,-7.6332 -14.3334,-14.3275 -14.3334,-14.8761 0,-0.5487 48.45,-0.9839 107.6667,-0.9671 59.2167,0.017 109.0199,0.024 110.6738,0.015 l 3.0071,-0.015 -0.3404,-119.6666 -0.3405,-119.6667 h -279.3104 -279.3105 l -0.1804,119.3333 -0.1804,119.3334 46.1575,45.6716 c 25.3867,25.1194 55.7575,55.0145 67.4909,66.4336 31.3779,30.5376 106,104.6855 106,105.3265 0,0.304 -49.35,0.7062 -109.6667,0.8938 l -109.6667,0.3411 -0.079,108 c -0.043,59.4 0.1131,108.6 0.3481,109.3333 0.283,0.8835 94.5644,1.3213 279.4124,1.2975 l 278.9853,-0.036 z m 789.3333,-0.9229 c 0.2002,-64.4703 -0.1571,-110.1754 -0.8647,-110.6156 -0.6632,-0.4126 -18.2656,-17.5502 -39.1164,-38.0835 -43.4111,-42.7501 -144.0764,-141.5528 -165.36,-162.3003 -7.8833,-7.6847 -14.3333,-14.3678 -14.3333,-14.8513 0,-0.4835 49.1934,-0.7222 109.3187,-0.5304 90.0483,0.2872 109.4388,0.036 110,-1.427 0.3747,-0.9767 0.6813,-55.1281 0.6813,-120.3365 v -118.5607 l -279,0.3364 -279,0.3365 -0.1309,119.3333 -0.1309,119.3334 11.4642,11.8324 c 6.3053,6.5079 17.1061,17.3079 24.0017,24 48.7212,47.2839 130.0697,127.1515 170.267,167.1675 l 15.068,15 H 5290.821 5180.4365 l 0.2361,109.6667 c 0.1299,60.3167 0.3316,109.6667 0.4483,109.6667 0.1168,0 125.4622,-0.023 278.5456,-0.051 l 278.3333,-0.051 z"
     id="path1" />
</svg>
