<?xml version="1.0" encoding="UTF-8" standalone="no"?>
<!-- Created with Inkscape (http://www.inkscape.org/) -->

<svg
   version="1.1"
   id="svg1"
   width="2000"
   height="2000"
   viewBox="0 0 2000 2000"
   sodipodi:docname="flechaDescargaBlanco.svg"
   inkscape:version="1.4.2 (f4327f4, 2025-05-13)"
   xmlns:inkscape="http://www.inkscape.org/namespaces/inkscape"
   xmlns:sodipodi="http://sodipodi.sourceforge.net/DTD/sodipodi-0.dtd"
   xmlns="http://www.w3.org/2000/svg"
   xmlns:svg="http://www.w3.org/2000/svg">
  <defs
     id="defs1" />
  <sodipodi:namedview
     id="namedview1"
     pagecolor="#505050"
     bordercolor="#ffffff"
     borderopacity="1"
     inkscape:showpageshadow="0"
     inkscape:pageopacity="0"
     inkscape:pagecheckerboard="1"
     inkscape:deskcolor="#505050"
     inkscape:zoom="0.4075"
     inkscape:cx="1000"
     inkscape:cy="1000"
     inkscape:window-width="1920"
     inkscape:window-height="1017"
     inkscape:window-x="-8"
     inkscape:window-y="-8"
     inkscape:window-maximized="1"
     inkscape:current-layer="svg1" />
  <path
     style="fill:#ffffff"
     d="m 291,1868.4817 c -8.57264,-2.5574 -14.5245,-4.7739 -19.79495,-7.3717 -9.65299,-4.7581 -8.70505,6.737 -8.70505,-105.5613 0,-82.6452 0.22951,-99.5179 1.37244,-100.895 1.27196,-1.5326 27.5332,-1.6537 358.66822,-1.6537 196.51267,0 358.00757,-0.2731 358.87755,-0.607 0.86999,-0.3338 1.58179,-1.2533 1.58179,-2.0433 0,-0.7899 -4.50317,-6.3948 -10.00704,-12.4552 -5.50387,-6.0604 -12.40885,-14.0284 -15.34439,-17.7067 -2.93555,-3.6783 -6.1509,-7.3623 -7.14523,-8.1866 -0.99433,-0.8244 -3.49179,-3.7494 -5.54991,-6.5 -2.05812,-2.7507 -5.58771,-6.8943 -7.84352,-9.2082 -2.25581,-2.3138 -7.40455,-8.1638 -11.44164,-13 -4.03709,-4.8361 -11.12648,-12.9029 -15.75421,-17.926 -4.62773,-5.0232 -11.11406,-12.4139 -14.41406,-16.4238 -3.3,-4.0099 -9.375,-10.9949 -13.5,-15.5224 -12.44873,-13.6632 -21.20316,-23.7072 -27,-30.9774 -3.025,-3.7938 -9.55,-11.2581 -14.5,-16.5871 -11.56121,-12.4467 -20.83133,-23.0265 -26.5,-30.2442 -2.475,-3.1513 -8.6934,-10.1472 -13.81866,-15.5464 -5.12526,-5.3992 -10.04226,-10.8852 -10.92667,-12.1912 -2.25958,-3.3366 -4.76744,-6.2867 -33.54046,-39.4542 -18.3695,-21.175 -22.0565,-25.5359 -23.89041,-28.257 -0.92191,-1.3679 -6.32191,-7.4297 -12,-13.4705 -5.67809,-6.0409 -10.9988,-11.9945 -11.8238,-13.2303 -1.95331,-2.9259 -23.51208,-27.8158 -32.5,-37.5217 -3.85,-4.1575 -9.7,-10.8863 -13,-14.9527 -3.3,-4.0664 -8.50514,-10.1148 -11.56699,-13.4408 -3.06184,-3.326 -6.66184,-7.4456 -8,-9.1547 -1.33815,-1.709 -9.63301,-11.0669 -18.43301,-20.7951 -8.8,-9.7283 -17.8,-19.843 -20,-22.477 -11.028,-13.2038 -15.39812,-18.2819 -22.04876,-25.6205 -10.47094,-11.5541 -21.43379,-24.2394 -25.92644,-30 -2.14473,-2.75 -6.90018,-8.15 -10.56768,-12 -7.57044,-7.9472 -27.3013,-30.673 -33.77053,-38.8966 -2.37238,-3.0158 -8.67238,-10.2277 -14,-16.0265 -9.47725,-10.3154 -11.37374,-12.5005 -25.68659,-29.5949 -3.85,-4.5982 -11.05,-12.6898 -16,-17.9815 -4.95,-5.2916 -11.23247,-12.519 -13.96105,-16.0608 -5.56347,-7.2217 -13.6986,-16.454 -27.10676,-30.76281 C 410.4449,992.8546 403.94695,985.35 400.99232,981.5 c -2.95463,-3.85 -8.09912,-9.99383 -11.43219,-13.65297 -7.37781,-8.09954 -21.68845,-24.31546 -28.24034,-32.00017 -10.40816,-12.20773 -21.19294,-24.46985 -29.12119,-33.11032 -4.56577,-4.97592 -11.54077,-12.88022 -15.5,-17.56511 -3.95923,-4.68488 -9.49473,-11.0275 -12.30112,-14.0947 -2.80638,-3.0672 -5.54782,-6.40632 -6.09209,-7.42026 -0.54426,-1.01393 -4.17633,-5.28893 -8.07126,-9.5 C 278.62301,841.60294 270.44321,832.26654 252.99036,811.64654 244.50457,801.62084 241,797.06827 241,796.07059 241,795.31373 294.31208,795 422.92857,795 c 164.05628,0 182.08295,-0.15437 183.5,-1.57143 C 607.85063,792.00651 608,761.27495 608,470.1197 c 0,-276.28818 0.2005,-322.01165 1.41938,-323.67857 1.40023,-1.91495 6.63195,-1.94455 387.88449,-2.19495 379.48753,-0.24924 386.50783,-0.21924 388.83063,1.66163 l 2.3655,1.91545 0.2487,322.33837 c 0.2325,301.48447 0.3581,322.41924 1.9411,323.58837 1.3391,0.98903 39.0235,1.25 180.5013,1.25 190.8244,0 182.059,-0.22796 176.6871,4.59501 -1.1671,1.04775 -4.193,4.60499 -6.7243,7.90499 -5.7619,7.51156 -30.4865,36.23736 -33.7501,39.21199 -1.3348,1.21659 -4.7483,5.04159 -7.5855,8.5 -2.8372,3.4584 -7.4445,8.82227 -10.2384,11.9197 -2.794,3.09743 -8.6799,9.76958 -13.0799,14.827 -4.4,5.05743 -10.925,12.48591 -14.5,16.50775 -3.575,4.02183 -9.425,10.81121 -13,15.08751 -3.575,4.2763 -8.9921,10.51355 -12.0381,13.86057 -3.0459,3.34701 -7.3128,8.33548 -9.4819,11.08548 -2.1691,2.75 -8.4651,9.95 -13.9912,16 -5.526,6.05 -11.1591,12.39586 -12.518,14.10192 -3.6686,4.60569 -20.6278,24.44172 -23.852,27.89808 -4.7322,5.0728 -23.4129,26.7122 -27.6249,32 -5.8105,7.2946 -8.0732,9.8887 -17.3929,19.9409 -4.6195,4.9825 -10.912,12.2091 -13.9835,16.0591 -7.2419,9.0777 -24.5245,28.9455 -33.5346,38.551 -3.8956,4.153 -9.323,10.453 -12.0609,14 -6.5714,8.5131 -13.9466,17.0029 -25.522,29.3787 -5.225,5.5864 -11.525,12.8287 -14,16.0941 -2.475,3.2653 -7.425,9.1241 -11,13.0194 -7.9898,8.7058 -24.9191,27.868 -31.7669,35.9568 -2.7937,3.3 -10.4015,12.1198 -16.9063,19.5995 -20.3437,23.393 -38.1663,44.107 -44.6188,51.8573 -3.4144,4.1013 -9.583,11.1539 -13.708,15.6725 -8.874,9.7209 -19.2627,21.6262 -29.1195,33.3707 -3.9236,4.675 -9.8893,11.5542 -13.2571,15.287 -14.9899,16.6144 -19.376,21.6814 -23.1234,26.713 -2.2,2.9539 -6.925,8.6462 -10.5,12.6495 -7.5031,8.4019 -18.0326,20.5747 -24.2144,27.9936 -11.5013,13.8024 -18.0268,21.3363 -26.1517,30.1927 -4.8763,5.3153 -11.1763,12.5566 -14,16.0919 -2.8236,3.5352 -8.1072,9.6102 -11.7412,13.5 -3.634,3.8897 -7.0503,7.9016 -7.5917,8.9151 -0.5414,1.0136 -3.9267,5.0636 -7.5229,9 -6.3451,6.9455 -8.3646,9.243 -24.6151,28.004 -4.2147,4.8657 -10.813,12.3859 -14.663,16.7116 -3.85,4.3256 -9.7,11.0645 -13,14.9753 -3.3,3.9108 -8.925,10.3717 -12.5,14.3575 -3.575,3.9857 -9.425,10.8058 -13,15.1556 -3.575,4.3498 -9.875,11.5941 -14,16.0985 -9.7969,10.698 -18.1926,20.3825 -25,28.8379 -3.025,3.7573 -8.0875,9.7808 -11.25,13.3855 -6.0536,6.9001 -7.1327,10.3209 -3.8157,12.0961 1.3229,0.708 114.0944,1.0352 356.8,1.0352 274.6733,0 355.1369,0.2712 356.0657,1.2 0.9174,0.9174 1.2,24.8011 1.2,101.405 v 100.205 l -4.25,2.482 c -2.3375,1.3651 -8.975,3.9306 -14.75,5.7013 -5.775,1.7706 -11.1317,3.734 -11.9037,4.363 -2.2414,1.8263 -1401.9767,1.9509 -1408.0963,0.1254 z"
     id="path1" />
</svg>
