<?xml version="1.0" encoding="UTF-8" standalone="no"?>
<!-- Created with Inkscape (http://www.inkscape.org/) -->

<svg
   version="1.1"
   id="svg1"
   width="2000"
   height="2000"
   viewBox="0 0 2000 2000"
   sodipodi:docname="genexusLogoNegro.svg"
   inkscape:version="1.4.2 (f4327f4, 2025-05-13)"
   xmlns:inkscape="http://www.inkscape.org/namespaces/inkscape"
   xmlns:sodipodi="http://sodipodi.sourceforge.net/DTD/sodipodi-0.dtd"
   xmlns="http://www.w3.org/2000/svg"
   xmlns:svg="http://www.w3.org/2000/svg">
  <defs
     id="defs1" />
  <sodipodi:namedview
     id="namedview1"
     pagecolor="#505050"
     bordercolor="#ffffff"
     borderopacity="1"
     inkscape:showpageshadow="0"
     inkscape:pageopacity="0"
     inkscape:pagecheckerboard="1"
     inkscape:deskcolor="#505050"
     inkscape:zoom="0.4075"
     inkscape:cx="1000"
     inkscape:cy="1000"
     inkscape:window-width="1920"
     inkscape:window-height="1017"
     inkscape:window-x="-8"
     inkscape:window-y="-8"
     inkscape:window-maximized="1"
     inkscape:current-layer="svg1" />
  <path
     style="fill:#000000"
     d="m 922.43261,1977.75 c -1.14473,-3.6681 -1.6177,-3.7187 -34.87789,-3.7347 -31.94528,-0.015 -31.94528,-0.015 -34.74059,-2.6934 -3.16025,-3.0277 -8.21487,-4.1544 -22.31413,-4.9738 -8.04247,-0.4674 -9.31918,-0.8153 -12,-3.2697 -4.19607,-3.8417 -9.54683,-5.0784 -21.97166,-5.0784 -9.99665,0 -10.94517,-0.173 -13.71071,-2.5 -2.75,-2.314 -3.7406,-2.5 -13.31257,-2.5 -11.98561,0 -13.08839,-0.2936 -15.00178,-3.9937 -1.35399,-2.6183 -1.84317,-2.7733 -10.12082,-3.2078 -7.85335,-0.4122 -8.90124,-0.7061 -10.79026,-3.0266 -1.86348,-2.289 -2.95289,-2.6112 -9.96529,-2.9466 -7.68128,-0.3674 -7.94927,-0.4673 -11,-4.101 C 709.5,1931.9999 709.5,1931.9999 699.2848,1932 c -9.9243,0 -10.31251,-0.085 -13.63202,-3 -2.15529,-1.8924 -4.51291,-3 -6.38557,-3 -1.63282,0 -4.27341,-0.4128 -5.86799,-0.9173 -1.59457,-0.5046 -4.07975,-1.1738 -5.52263,-1.4873 -1.65997,-0.3606 -3.06722,-1.6414 -3.83188,-3.4875 -1.24412,-3.0035 -3.43322,-4.0705 -8.40035,-4.0942 -1.57072,-0.01 -4.19252,-1.1386 -5.82673,-2.5137 -2.49906,-2.1028 -3.99879,-2.5 -9.43981,-2.5 -6.48593,0 -10.17061,-1.8784 -11.49836,-5.8616 -0.2288,-0.6864 -3.00544,-1.5994 -6.17032,-2.0289 -3.89395,-0.5284 -6.40621,-1.4806 -7.77069,-2.9452 -1.62343,-1.7425 -3.2267,-2.1837 -8.22741,-2.264 -8.40308,-0.1348 -10.97617,-0.9974 -12.51722,-4.196 -0.7184,-1.4911 -2.51947,-3.3385 -4.00236,-4.1053 -1.4829,-0.7668 -3.55236,-2.3403 -4.59881,-3.4966 -1.52471,-1.6848 -3.07667,-2.1024 -7.81338,-2.1024 -6.64555,0 -9.05108,-0.9811 -12.52358,-5.108 -1.36301,-1.6198 -4.19637,-3.3375 -6.55142,-3.9716 -2.28235,-0.6146 -5.43402,-2.1981 -7.00372,-3.5189 -1.79671,-1.5118 -4.12219,-2.4015 -6.27728,-2.4015 -3.30382,0 -3.96017,-0.4597 -8.92327,-6.25 -0.95571,-1.115 -2.92512,-1.75 -5.42742,-1.75 -2.92714,0 -4.39645,-0.5963 -5.769,-2.3412 -1.01287,-1.2876 -2.84087,-2.876 -4.06223,-3.5296 -1.22136,-0.6537 -2.91186,-2.5251 -3.75668,-4.1588 -1.35347,-2.6174 -2.06385,-2.9704 -5.97702,-2.9704 -3.72645,0 -4.9939,-0.5529 -7.87751,-3.4365 -1.9968,-1.9968 -4.90357,-3.7118 -6.93824,-4.0935 -2.45515,-0.4606 -5.47383,-2.5716 -10.10019,-7.0635 -5.8957,-5.7242 -7.02773,-6.4065 -10.62882,-6.4065 -3.53624,0 -4.2803,-0.4236 -6.06923,-3.4557 -1.12139,-1.9006 -3.00967,-3.7637 -4.19618,-4.1403 -1.1865,-0.3766 -3.35937,-1.9716 -4.82859,-3.5444 -2.19545,-2.3502 -3.49654,-2.8596 -7.30383,-2.8596 -4.23429,0 -4.81003,-0.3009 -6.69756,-3.5 -1.13578,-1.925 -2.45494,-3.5 -2.93148,-3.5 -0.47653,0 -2.34459,-1.2858 -4.15122,-2.8574 -1.80664,-1.5716 -4.97118,-3.1668 -7.03231,-3.5449 -2.7899,-0.5117 -4.14374,-1.4536 -5.2981,-3.6859 -0.85282,-1.6492 -2.64529,-3.4973 -3.98327,-4.1069 -1.33797,-0.6096 -2.70046,-1.9521 -3.02774,-2.9833 -0.32729,-1.0312 -1.79844,-2.6306 -3.26922,-3.5543 -1.47079,-0.9237 -4.12704,-2.9145 -5.90278,-4.424 -1.77574,-1.5096 -4.70313,-3.0213 -6.50531,-3.3594 -2.05175,-0.3849 -5.14386,-2.4482 -8.27138,-5.5194 -2.74708,-2.6976 -7.00084,-6.8307 -9.45281,-9.1846 -2.45197,-2.354 -8.13865,-7.8799 -12.63708,-12.2799 -12.95125,-12.6679 -14.05593,-13.5 -17.92208,-13.5 -2.17187,0 -4.09121,-0.7089 -5.09939,-1.8833 -0.88916,-1.0359 -3.13916,-3.5259 -5,-5.5334 -1.86083,-2.0075 -3.38333,-4.2984 -3.38333,-5.091 0,-0.7925 -1.36951,-2.1491 -3.04335,-3.0147 -1.67385,-0.8656 -3.54214,-2.6685 -4.15176,-4.0065 -0.60962,-1.338 -1.96747,-2.7053 -3.01744,-3.0386 -1.79468,-0.5696 -7.61394,-5.3105 -10.14551,-8.2654 -0.93825,-1.0952 -6.49884,-6.6642 -13.40764,-13.428 -0.69614,-0.6815 -3.45259,-3.6016 -6.12544,-6.4891 -2.67286,-2.8875 -5.36015,-5.25 -5.97175,-5.25 -0.61161,0 -2.27472,-1.8418 -3.6958,-4.093 -1.42109,-2.2511 -5.02673,-6.5359 -8.01255,-9.5217 -2.98582,-2.9858 -5.42876,-5.8387 -5.42876,-6.3397 0,-0.5009 -0.92245,-1.2036 -2.04989,-1.5614 -1.12744,-0.3579 -3.65494,-2.1357 -5.61666,-3.9508 -1.96173,-1.815 -4.41428,-4.0276 -5.45012,-4.9167 -1.17447,-1.0082 -1.88333,-2.9276 -1.88333,-5.0994 0,-2.3819 -0.86924,-4.4617 -2.75,-6.5798 -2.32958,-2.6235 -26.77452,-28.0325 -34.57399,-35.9375 -1.35664,-1.375 -2.77456,-3.9628 -3.15092,-5.7507 -0.66604,-3.1639 -5.00275,-9.4294 -9.70213,-14.017 -4.41897,-4.314 -5.08057,-4.991 -6.83512,-6.9945 -0.96919,-1.1067 -2.52052,-2.4365 -3.44739,-2.9552 -1.004,-0.5619 -1.9211,-2.7297 -2.26873,-5.3629 -0.59004,-4.4693 -5.71714,-10.8764 -10.759,-13.4451 -1.49781,-0.7631 -2.14676,-2.3516 -2.53664,-6.2093 -0.38691,-3.8282 -1.23686,-5.9281 -3.25,-8.0293 -1.49935,-1.565 -2.72608,-3.3777 -2.72608,-4.0282 0,-0.6505 -1.8,-2.319 -4,-3.7078 -3.6162,-2.2828 -4,-2.9224 -4,-6.6662 0,-3.5491 -0.57179,-4.6689 -4,-7.8338 -2.82347,-2.6066 -4,-4.5112 -4,-6.4752 0,-1.7753 -1.26683,-4.1846 -3.5,-6.6565 -2.30627,-2.5527 -3.5,-4.864 -3.5,-6.7766 0,-2.9664 -4.35925,-9.1388 -9.95221,-14.0917 -1.84009,-1.6295 -3.02323,-3.8601 -3.39789,-6.4061 -0.32485,-2.2075 -1.67831,-5.0579 -3.11236,-6.5547 -1.39565,-1.4568 -2.53754,-3.426 -2.53754,-4.376 0,-3.6113 -3.25195,-9.2465 -8.52785,-14.7778 -3.13756,-3.2894 -5.47215,-6.6499 -5.47215,-7.8769 0,-2.6605 -1.55577,-5.755 -4.52902,-9.0085 -2.6134,-2.8597 -4.45728,-8.7636 -4.4654,-14.2977 -0.004,-2.7412 -0.68726,-4.4296 -2.45585,-6.0686 -1.34765,-1.249 -3.19176,-4.49 -4.09802,-7.2023 -0.90626,-2.7123 -2.76798,-6.1221 -4.13716,-7.5774 -2.09397,-2.2256 -2.5774,-3.9297 -3.04334,-10.7276 -0.48421,-7.0645 -0.85077,-8.2761 -2.91257,-9.6271 C 99.528453,1378.3001 99,1377.054 99,1373.9373 c 0,-3.3658 -0.648028,-4.6517 -4,-7.9373 -3.908283,-3.8309 -4,-4.0805 -4,-10.8837 0,-5.9771 -0.355656,-7.3855 -2.512202,-9.9484 -1.381711,-1.6421 -3.194206,-4.9186 -4.027768,-7.2812 -0.833561,-2.3626 -3.078071,-5.7268 -4.987798,-7.476 C 76.167958,1327.3841 76,1326.9046 76,1320.4971 c 0,-6.0552 -0.302015,-7.077 -3,-10.1499 -2.740449,-3.1212 -2.999996,-4.041 -2.999956,-10.632 4.4e-5,-7.1024 -0.05819,-7.2641 -3.724351,-10.3421 -3.63434,-3.0513 -3.733432,-3.3173 -4.09811,-11 -0.309578,-6.5219 -0.769782,-8.3021 -2.681542,-10.3731 -2.0874,-2.2612 -2.341605,-3.6295 -2.66147,-14.3257 -0.273834,-9.1569 -0.690004,-12.0188 -1.844106,-12.6815 C 49.569869,1237.8802 49.5248,1237.7611 49,1225.173 c -0.484791,-11.6286 -0.583648,-12.0591 -3.25,-14.1558 -2.709293,-2.1304 -2.751249,-2.3352 -2.834383,-13.8398 -0.121207,-16.7734 -1.018278,-22.5939 -3.96526,-25.7276 -2.109707,-2.2434 -2.551177,-3.9503 -3.175573,-12.2777 -1.332289,-17.7685 -2.099114,-21.5804 -5.04568,-25.0822 C 28,1130.8465 28,1130.8465 28,1096.1233 28,1060.0295 27.88353,1059 23.8,1059 c -3.76689,0 -2.581695,-114.26647 1.2,-115.6939 3,-1.13237 3,-1.13237 3,-36.14251 0,-35.01014 0,-35.01014 2.729104,-38.2535 3.007407,-3.5741 3.969806,-8.4618 4.904847,-24.91009 0.474903,-8.35402 0.841206,-9.81869 3.03659,-12.14192 3.00957,-3.18482 4.247818,-11.01067 4.29674,-27.15583 0.03174,-10.47605 0.114651,-10.87366 2.782719,-13.34579 2.524056,-2.3387 2.777947,-3.25909 3.090153,-11.20225 0.313599,-7.97865 0.568603,-8.89346 3.266702,-11.71905 C 55.795127,764.5726 57,760.38553 57,751.43092 c 0,-6.26148 0.289742,-7.35449 2.5,-9.43092 2.150354,-2.02015 2.5,-3.22422 2.5,-8.60921 0,-7.93368 1.140752,-10.8951 4.957039,-12.86857 C 70,718.94864 70,718.94864 70,707.61182 c 0,-11.0909 0.06507,-11.4187 3,-15.11182 1.927703,-2.4257 3,-4.92354 3,-6.98828 0,-4.48453 1.857243,-9.56168 4.576839,-12.51172 1.26759,-1.375 2.875411,-4.64018 3.572935,-7.25596 0.697524,-2.61579 2.524176,-6.13106 4.059226,-7.81172 2.530643,-2.7707 2.791,-3.74963 2.791,-10.49404 0,-7.63755 0.694002,-9.18006 5.371247,-11.93828 1.039841,-0.6132 2.015345,-3.05296 2.522016,-6.30762 0.569769,-3.65999 1.490657,-5.77299 2.966497,-6.80671 1.73078,-1.21228 2.14024,-2.51654 2.14024,-6.81737 0,-8.73522 0.87646,-11.29786 4.61933,-13.5062 2.94477,-1.73746 3.38067,-2.51027 3.38067,-5.99358 0,-3.01729 0.73642,-4.83767 3,-7.41574 2.3156,-2.63732 3,-4.37573 3,-7.62013 0,-3.5469 0.54658,-4.68722 3.5,-7.30198 2.59947,-2.3014 3.5,-3.90684 3.5,-6.2397 0,-1.72757 0.7875,-3.87389 1.75,-4.76959 0.9625,-0.8957 2.7625,-2.54943 4,-3.67496 1.47473,-1.34129 2.25,-3.19588 2.25,-5.38238 0,-2.6268 0.85031,-4.09929 4,-6.92683 3.32379,-2.98382 4,-4.22794 4,-7.35932 0,-2.71129 0.74125,-4.54215 2.6423,-6.52642 1.93571,-2.02045 2.77494,-4.13838 3.13831,-7.92005 0.43908,-4.56955 0.88189,-5.38975 3.8577,-7.14553 C 152.48724,516.695 154,515.41256 154,514.93602 c 0,-0.47653 1.35,-2.40399 3,-4.28324 2.05005,-2.33487 3.00485,-4.48329 3.01531,-6.7848 0.0179,-3.93626 0.53383,-4.8091 4.23469,-7.16413 2.14832,-1.36708 2.75,-2.52064 2.75,-5.27236 0,-2.45692 0.73422,-4.18924 2.42727,-5.72694 1.335,-1.2125 2.9094,-2.65455 3.49867,-3.20455 3.63127,-3.3893 8.20827,-10.24486 9.22844,-13.8226 0.65513,-2.29757 2.46341,-5.38953 4.01839,-6.87103 2.19635,-2.09256 2.82723,-3.59951 2.82723,-6.75328 0,-3.82155 0.60497,-4.66063 10.31478,-14.30637 5.67313,-5.6357 10.73563,-10.93252 11.25,-11.77073 0.51437,-0.8382 2.17272,-2.31107 3.68522,-3.27305 2.12864,-1.35385 2.75,-2.5268 2.75,-5.1912 0,-2.39865 0.90946,-4.47796 3,-6.85896 1.65,-1.87924 3,-3.93508 3,-4.56852 0,-0.63344 1.51799,-2.04735 3.37332,-3.14202 2.25824,-1.33239 3.92813,-3.44306 5.05173,-6.38516 0.92312,-2.41717 2.746,-5.09436 4.05084,-5.94932 1.30483,-0.85496 2.69471,-2.56992 3.08862,-3.81102 0.70355,-2.21668 2.063,-3.81082 10.91276,-12.79674 2.3015,-2.3369 6.32055,-6.34733 8.01719,-8 4.88,-4.75349 7.50657,-8.99047 7.52085,-12.13202 0.019,-4.18908 0.65536,-5.16399 4.73469,-7.25413 1.7875,-0.91586 3.25,-2.0921 3.25,-2.61385 0,-0.52175 1.29585,-1.61875 2.87966,-2.43777 1.58381,-0.81902 3.81863,-3.08058 4.96627,-5.02568 1.14764,-1.9451 2.60474,-3.53655 3.23799,-3.53655 1.48765,0 8.91608,-7.41307 8.91608,-8.89765 0,-0.62312 6.525,-7.59106 14.5,-15.48431 7.975,-7.89326 14.5,-14.81735 14.5,-15.38688 0,-0.56953 1.34719,-1.50514 2.99377,-2.07914 3.24646,-1.13172 8.562,-6.01531 11.32207,-10.40202 0.95164,-1.5125 2.36425,-2.75 3.13912,-2.75 0.77487,0 2.44591,-1.45642 3.71344,-3.23649 1.26752,-1.78007 2.98566,-3.9872 3.81809,-4.90473 0.83243,-0.91754 2.27466,-2.77333 3.20495,-4.12399 1.16596,-1.69281 2.95586,-2.62534 5.76134,-3.00163 2.56943,-0.34463 5.36891,-1.68644 7.59336,-3.63952 1.9379,-1.7015 3.91335,-3.09364 4.38988,-3.09364 0.47654,0 1.7957,-1.575 2.93148,-3.5 1.13578,-1.925 2.71078,-3.5 3.5,-3.5 0.78922,0 2.36422,-1.575 3.5,-3.5 1.13578,-1.925 2.68084,-3.5 3.43348,-3.5 0.75263,0 2.57128,-1.35 4.04144,-3 1.47015,-1.65 3.33416,-3 4.14224,-3 0.80808,0 2.15656,-1.04899 2.99663,-2.33109 0.84006,-1.28211 3.76849,-3.38078 6.50762,-4.66372 2.73913,-1.28294 5.24631,-3.17093 5.57151,-4.19554 0.32519,-1.02461 1.79464,-2.60791 3.26542,-3.51843 1.47079,-0.91053 3.79916,-2.64007 5.17416,-3.84343 1.375,-1.20336 4.13095,-2.43392 6.12432,-2.73459 3.0176,-0.45516 6.00776,-2.90425 17.86206,-14.62993 C 450.92303,189.29782 451.31642,189 455.58901,189 c 3.56046,0 4.66888,-0.46395 6.01437,-2.51744 1.05369,-1.60812 3.2538,-2.92141 6.09102,-3.63583 5.16765,-1.30123 11.30795,-5.78272 17.4306,-12.72173 1.14914,-1.30236 3.06941,-2.125 4.96033,-2.125 2.26921,0 3.90499,-0.92581 6.184,-3.5 2.33233,-2.63441 3.89536,-3.5 6.32006,-3.5 3.79125,0 9.97789,-4.44292 16.53561,-11.875 1.37107,-1.55388 3.04457,-2.125 6.22669,-2.125 3.47093,0 4.98704,-0.60718 7.49089,-3 2.34875,-2.24459 4.08577,-2.99999 6.89832,-2.99996 3.08155,4e-5 4.29982,-0.64253 6.7591,-3.56505 2.31641,-2.75274 3.97707,-3.69536 7.28801,-4.13681 2.66105,-0.35479 4.65053,-1.24908 5.24345,-2.35697 1.77625,-3.31895 4.0985,-4.94121 7.0733,-4.94121 2.0517,0 4.03747,-1.07556 6.46191,-3.5 2.81311,-2.81312 4.27163,-3.5 7.43187,-3.5 2.94278,0 4.79139,-0.75467 7.34868,-3 2.44979,-2.15094 4.44077,-3 7.0348,-3 3.52414,0 4.098,-0.39336 9.11798,-6.25 1.17537,-1.37127 3.08737,-1.75 8.8347,-1.75 6.889,0 7.49713,-0.1823 10.00772,-3 2.22547,-2.497717 3.43079,-3 7.19902,-3 4.08529,0 4.72093,-0.330357 6.52771,-3.392633 2.31331,-3.920766 4.11366,-4.574963 12.64189,-4.593712 4.90172,-0.01078 6.60194,-0.433227 8.06531,-2.003973 1.01985,-1.094675 4.44407,-2.881342 7.60939,-3.970371 3.16532,-1.089029 7.08668,-3.10048 8.71413,-4.469891 1.62745,-1.369411 4.52076,-2.732744 6.42957,-3.029629 1.90881,-0.296885 4.97359,-0.77168 6.81063,-1.055101 1.83704,-0.28342 4.39048,-1.63342 5.67431,-3 C 694.2233,71.133405 694.9334,71 705.24006,71 716.0948,71 720,70.105664 720,67.619804 720,64.5364 723.55557,63 730.69124,63 c 6.30972,0 7.42234,-0.308809 10.80876,-3 3.54873,-2.820173 4.3026,-3 12.57669,-3 8.80167,0 8.80167,0 13.42331,-4 4.59966,-3.980979 4.6615,-4 13.00412,-4 7.18157,0 8.57844,-0.279789 9.75039,-1.952974 2.20045,-3.141585 6.16585,-4.043243 18.06059,-4.106637 13.96711,-0.07444 20.09914,-1.055746 22.95493,-3.673469 1.74781,-1.602105 4.06783,-2.162025 10.72997,-2.589601 16.04305,-1.029641 23.14639,-2.443391 25.99652,-5.173983 C 870.60944,29 870.60944,29 904.87046,29 940.19732,29 943,28.703397 943,24.964816 943,23.034508 944.00988,23 1000.5,23 c 37.6667,0 57.5,0.344928 57.5,1 0,4.739356 2.003,5 38.4233,5 34.4232,0 34.4232,0 37.5278,2.612286 3.4173,2.87553 8.7953,3.949836 25.0489,5.003807 8.293,0.537765 9.8409,0.934562 12.1833,3.123185 2.582,2.412408 3.3321,2.531441 19.8513,3.149861 16.7181,0.62587 17.2205,0.707788 19.1762,3.126784 1.8875,2.334612 2.7291,2.514162 13.9875,2.984077 11.3197,0.472477 12.0843,0.637615 13.8901,3 1.051,1.375 2.3788,3.0625 2.9507,3.75 0.7156,0.860283 4.4461,1.25 11.9655,1.25 10.7138,0 10.9921,0.05821 14.3426,3 3.1508,2.766382 4.0044,3 10.9622,3 7.0649,0 7.6767,0.175133 9.6071,2.75 1.134,1.5125 2.5344,3.3125 3.112,4 0.6643,0.790588 3.7418,1.25 8.3734,1.25 6.6312,0 7.6798,0.28344 11.0981,3 3.3083,2.629086 4.568,3 10.1885,3 5.9948,0 6.6223,0.22135 9.6125,3.391004 1.7594,1.865051 4.999,3.944333 7.199,4.620625 2.2,0.676292 5.125,2.256211 6.5,3.510931 2.0572,1.877255 3.8919,2.347369 10.3585,2.654288 6.9572,0.330198 8.0755,0.656872 9.7497,2.848065 1.0401,1.361298 2.359,3.037587 2.9309,3.725087 0.5719,0.6875 2.8065,1.25 4.9658,1.25 3.0137,0 4.6394,0.6972 6.9951,3 2.8128,2.74956 3.6475,3 9.9997,3 6.2137,0 7.2707,0.29852 10.217,2.88541 1.8075,1.58697 5.3106,3.4811 7.7848,4.20917 2.4742,0.72807 5.6915,2.57963 7.1497,4.11459 2.1066,2.21749 3.5446,2.79198 7,2.79641 6.2515,0.008 11.1594,1.61639 13.6408,4.47018 1.2219,1.40538 4.2137,3.00049 6.8931,3.67516 3.4829,0.87702 6.3843,2.7273 10.9787,7.00142 4.849,4.51108 7.1871,5.96009 10.4619,6.48376 2.608,0.41703 5.3534,1.75996 7.1942,3.51914 2.0759,1.98391 4.0047,2.84476 6.3739,2.84476 2.3243,0 4.0933,0.76654 5.6017,2.42727 1.2125,1.335 2.6545,2.9094 3.2045,3.49867 4.1086,4.40191 10.0237,8.07406 13.0057,8.07406 2.472,0 3.9723,0.77938 5.8919,3.06068 1.7515,2.08154 3.7794,3.23203 6.3389,3.59632 2.5434,0.36198 4.6648,1.55751 6.5436,3.6876 2.0572,2.33236 4.1358,3.41244 7.9936,4.15368 4.211,0.8091 5.4659,1.53117 6.5261,3.75509 0.7219,1.51436 2.5258,3.38079 4.0087,4.14762 1.4829,0.76684 3.5524,2.34032 4.5988,3.49663 1.3774,1.52201 3.1021,2.10238 6.2477,2.10238 3.0216,0 4.8363,0.57471 5.9581,1.8869 7.7537,9.06984 11.4136,12.1131 14.5674,12.1131 2.4587,0 4.2016,0.93533 6.9879,3.75 2.0416,2.0625 4.4037,4.425 5.2491,5.25 0.8454,0.825 2.6297,2.625 3.9652,4 4.5673,4.70245 8.6797,7.50007 12.8583,8.74728 2.2983,0.68601 5.3218,2.37172 6.7189,3.74603 1.3971,1.37431 3.5929,3.51303 4.8796,4.75271 1.2867,1.23969 4.3629,4.27898 6.8359,6.75398 20.4503,20.46639 25.5689,24.95353 29.1533,25.55677 6.0702,1.02159 7.042,1.46052 7.6793,3.4684 0.3357,1.05758 1.8836,2.82957 3.44,3.93777 1.5563,1.1082 3.1112,3.1367 3.4553,4.50779 0.3441,1.37109 1.8726,3.13769 3.3965,3.92577 1.524,0.78808 3.3537,2.48376 4.0659,3.76819 0.7123,1.28442 3.5674,3.91031 6.3447,5.83531 2.7772,1.925 5.7786,4.30235 6.6696,5.283 0.891,0.98065 4.095,4.24061 7.12,7.24435 7.0245,6.97518 6.1341,6.08123 12.4234,12.47265 2.9767,3.025 5.894,5.95 6.4828,6.5 3.6969,3.45278 7.0413,7.49774 8.4473,10.21665 0.8935,1.72789 2.5344,3.43039 3.6465,3.78335 1.1121,0.35296 2.6871,1.92796 3.5,3.5 0.8129,1.57204 2.4955,3.17077 3.739,3.55273 1.2436,0.38195 3.665,2.10134 5.3809,3.82087 1.716,1.71952 3.7971,3.65403 4.6248,4.29891 0.8278,0.64487 1.8061,3.18061 2.1742,5.63496 0.6279,4.18727 0.9667,4.58611 5.4936,6.46743 4.2753,1.77673 5.0088,2.54594 6.4438,6.75738 0.9052,2.65653 3.2785,6.38026 5.3815,8.44352 2.0692,2.03011 5.6894,5.67855 8.0448,8.10765 2.3554,2.4291 5.3947,5.54155 6.7539,6.91655 1.3593,1.375 3.5959,3.64305 4.9702,5.04011 1.3743,1.39706 3.06,4.42056 3.746,6.7189 1.553,5.20292 10.997,16.44605 20.1852,24.03042 0.8592,0.70918 1.5621,2.38102 1.5621,3.7152 0,1.33418 1.35,3.96334 3,5.84259 1.65,1.87924 3,3.90953 3,4.51174 0,0.60221 1.2375,1.86132 2.75,2.79802 4.2149,2.61029 5.25,4.36095 5.25,8.87916 0,2.95132 0.6086,4.7047 2.1024,6.05651 1.1563,1.04645 2.7298,3.11591 3.4966,4.59881 0.7668,1.48289 2.6333,3.28683 4.1476,4.00874 2.1865,1.0423 2.9593,2.34078 3.7534,6.30618 0.8172,4.08101 2.0224,6.02764 6.5943,10.65161 4.0047,4.05036 5.962,6.97141 6.8885,10.28053 0.8444,3.01607 2.2887,5.33066 4.1557,6.66011 2.3317,1.66029 2.8615,2.77775 2.8615,6.03521 0,4.62727 1.4461,7.86616 3.5121,7.86616 0.793,0 2.2316,1.2375 3.1969,2.75 0.9653,1.5125 3.0007,3.94304 4.5231,5.40121 2.1523,2.06161 2.7679,3.57307 2.7679,6.79651 0,3.55402 0.4257,4.38829 2.9847,5.84879 2.9983,1.71123 5.0153,5.61136 5.0153,9.69773 0,1.20768 0.9144,3.02326 2.0319,4.03463 1.1175,1.01136 2.5079,3.72917 3.0897,6.03958 0.671,2.66492 2.4874,5.59677 4.9681,8.0191 3.6896,3.6028 3.9112,4.1597 3.9256,9.8654 0.01,3.32588 0.4367,6.72205 0.9516,7.54705 2.496,3.99872 6.3569,8.28901 11.1467,12.38636 1.5374,1.31511 1.8864,3.00119 1.8864,9.11364 0,6.06833 0.3673,7.86733 1.9243,9.42431 2.9301,2.93006 4.0757,5.59212 4.0757,9.47052 0,1.93948 0.5625,3.99422 1.25,4.56609 0.6875,0.57188 2.3572,1.88548 3.7105,2.9191 2.1394,1.63403 2.5119,2.84132 2.8539,9.24965 0.2896,5.42669 0.8893,7.91043 2.2741,9.4184 1.0344,1.12645 2.1423,3.60145 2.462,5.5 0.3197,1.89856 0.7709,4.40746 1.0027,5.57534 0.2317,1.16788 1.6779,2.64389 3.2137,3.28003 2.8672,1.18766 5.2331,7.67113 5.2331,14.34104 0,1.55841 1.2594,4.12027 3,6.10274 2.9289,3.33588 3,3.66737 3,13.99537 0,7.23601 0.395,10.91043 1.25,11.62887 0.6875,0.57767 2.4875,1.97807 4,3.112 2.5661,1.92383 2.75,2.55609 2.75,9.45464 0,6.86572 0.2139,7.6118 3,10.4619 2.8283,2.89336 3,3.52739 3,11.08099 0,7.82167 0.07,8.05223 2.9482,9.70404 4.2445,2.43601 5.0518,5.0645 5.0518,16.44757 0,9.13793 0.2221,10.37478 2.25,12.53271 2.0238,2.15351 2.3078,3.71836 2.825,15.56446 0.593,13.5823 1.6759,18.10706 4.8688,20.3434 1.467,1.02754 1.9484,3.00572 2.327,9.56121 0.7527,13.03346 2.4995,20.90237 5.2879,23.82034 2.4413,2.55472 2.4413,2.55472 2.4413,31.31574 0,29.67953 0.3648,32.62954 4.0352,32.62954 1.9377,0 1.9648,1.17403 1.9648,85 0,73.4047 -0.1969,85 -1.4433,85 -4.1107,0 -4.5567,3.1732 -4.5567,32.4178 0,27.9728 0,27.9728 -2.4119,30.5275 -2.7715,2.9356 -5.5881,15.8277 -5.5881,25.5779 0,4.7813 -0.4376,6.3402 -2.3639,8.4221 -3.606,3.897 -4.6361,8.3562 -4.6361,20.0691 0,9.6002 -0.2343,11.0131 -2.25,13.5709 -1.9635,2.4915 -2.3137,4.368 -2.75,14.7368 -0.5,11.8817 -0.5,11.8817 -4.25,15.0298 -3.7501,3.1481 -3.7501,3.1481 -3.75,13.6754 0,10.4454 -0.023,10.5478 -3,13.1598 -2.8202,2.4747 -3,3.0709 -3,9.9508 0,7.262 -0.031,7.3465 -4,10.9747 -4,3.6564 -4,3.6564 -4,11.4843 0,7.2062 -0.2039,7.9906 -2.5671,9.8749 -2.0564,1.6397 -2.7332,3.3383 -3.4018,8.5376 -1.0313,8.0188 -1.6441,9.6499 -5.1577,13.7275 -1.5341,1.7802 -3.2984,5.1552 -3.9207,7.5 -0.6224,2.3447 -1.943,5.1631 -2.9347,6.2631 -1.2534,1.3902 -1.9295,4.1036 -2.2175,8.8993 -0.3914,6.5173 -0.6188,7.0711 -4.1074,10 -3.1831,2.6724 -3.6932,3.6829 -3.6931,7.3159 0,3.2576 -0.6815,4.9914 -3,7.632 -2.7362,3.1163 -3,4.0469 -3,10.5803 0,7.4721 -0.1773,7.8281 -6.4048,12.8619 -0.8816,0.7126 -1.5952,2.7761 -1.5952,4.6125 0,2.1868 -1.0259,4.614 -3,7.0981 -2.2858,2.8763 -3,4.8015 -3,8.0866 0,3.7407 -0.4569,4.6601 -3.4509,6.9438 -2.7026,2.0613 -3.5951,3.5934 -4.1157,7.0651 -0.4887,3.2587 -1.3982,4.9553 -3.4334,6.4045 -2.0352,1.4492 -2.9447,3.1458 -3.4334,6.4045 -0.5206,3.4717 -1.4131,5.0038 -4.1157,7.0651 -2.8661,2.1862 -3.4509,3.2754 -3.4509,6.4279 0,2.9706 -0.7461,4.564 -3.4323,7.3298 -1.969,2.0275 -3.7154,5.0433 -4.0964,7.074 -0.3841,2.0472 -1.8885,4.6308 -3.5677,6.127 -1.597,1.4229 -2.9036,3.1413 -2.9036,3.8186 0,1.2264 -1.9934,3.5078 -9.3869,10.7433 -3.276,3.206 -3.9646,4.6125 -4.3813,8.949 -0.4187,4.3572 -0.9155,5.363 -3.2442,6.5672 -2.1699,1.1221 -2.8931,2.3775 -3.4292,5.953 -0.7728,5.1534 -4.0224,9.5459 -9.7255,13.1461 -3.5938,2.2686 -3.8329,2.7255 -3.8329,7.323 0,4.526 -0.3079,5.1473 -4,8.0715 -3.4022,2.6946 -4,3.7329 -4,6.9472 0,3.3009 -0.6644,4.3685 -5.25,8.4364 -5.3279,4.7264 -6.1878,5.543 -10.2684,9.7528 -1.2602,1.3 -2.9922,2.9282 -3.8491,3.6182 -0.8568,0.69 -2.068,3.1491 -2.6916,5.4648 -0.6235,2.3156 -1.9903,5.2992 -3.0373,6.6303 -1.047,1.331 -1.9036,3.0228 -1.9036,3.7595 0,0.7367 -1.3424,2.0336 -2.9831,2.882 -1.6407,0.8485 -3.6607,2.8531 -4.489,4.4549 -0.8283,1.6017 -2.4278,3.2047 -3.5544,3.5623 -1.1267,0.3576 -3.1384,2.3767 -4.4705,4.4868 -1.3321,2.1102 -2.878,4.1185 -3.4353,4.463 -0.5573,0.3444 -1.4868,2.3846 -2.0655,4.5337 -0.6524,2.4228 -2.1826,4.7124 -4.0272,6.0259 -1.6363,1.1651 -2.975,2.7447 -2.975,3.5102 0,0.7656 -7.7625,9.1147 -17.25,18.5536 -14.0176,13.9458 -17.5434,18.0175 -18.8158,21.7287 -1.4629,4.2669 -1.9361,4.6903 -7.2042,6.4464 -3.3724,1.1241 -5.8644,2.5915 -6.2008,3.6513 -0.3093,0.9745 -1.6799,2.3699 -3.0458,3.1009 -1.3659,0.731 -2.4834,1.7301 -2.4834,2.2203 0,0.4902 -3.3287,4.1267 -7.3971,8.081 -5.5557,5.4 -7.6753,8.2256 -8.5146,11.3508 -1.006,3.7461 -1.5895,4.3217 -5.8529,5.7743 -2.6336,0.8972 -6.3521,3.2669 -8.3778,5.339 -2.0033,2.0491 -4.1858,4.2432 -4.85,4.8757 -0.6642,0.6325 -2.1076,2.05 -3.2076,3.15 -1.1,1.1 -2.5175,2.5174 -3.15,3.1499 -0.6325,0.6324 -5.3473,5.4024 -10.4774,10.6 -5.13,5.1975 -9.9369,9.4501 -10.6819,9.4501 -0.745,0 -2.3038,1.3331 -3.464,2.9624 -1.3429,1.8861 -3.3424,3.1938 -5.5027,3.5991 -1.8663,0.3501 -4.2102,1.5436 -5.2086,2.6523 -0.9985,1.1086 -2.8465,2.41 -4.1067,2.8919 -1.2602,0.4819 -3.0551,2.207 -3.9885,3.8334 -0.9335,1.6265 -2.7358,3.4304 -4.005,4.0087 -1.2693,0.5784 -3.0623,2.3662 -3.9845,3.973 -0.9222,1.6068 -3.0389,3.6292 -4.7037,4.4942 -1.6649,0.865 -3.702,1.9986 -4.527,2.5193 -0.825,0.5206 -2.8016,1.223 -4.3925,1.5609 -1.5908,0.338 -4.8226,2.5023 -7.1818,4.8096 -5.6861,5.5613 -5.5337,5.4032 -11.0993,11.508 -4.036,4.4268 -5.5602,5.4089 -9.1402,5.8891 -3.3429,0.4483 -4.8655,1.3222 -6.8601,3.9372 -2.2293,2.9228 -3.1408,3.3609 -6.9924,3.3609 -4.5072,0 -6.6552,1.6508 -15.5837,11.9762 -1.1282,1.3047 -2.9796,2.0238 -5.2106,2.0238 -1.9326,0 -4.0299,0.694 -4.75,1.5717 -4.0195,4.8994 -4.8982,5.4283 -9.0175,5.4283 -3.5831,0 -4.774,0.5721 -7.8063,3.75 -3.4476,3.6133 -5.5787,5.4547 -14.6658,12.6725 -2.3102,1.835 -5.7782,3.6323 -7.7067,3.9941 -2.0322,0.3812 -4.371,1.7569 -5.5628,3.272 -1.5134,1.924 -3.4371,2.8325 -7.286,3.4409 -2.8763,0.4547 -5.412,1.3735 -5.6347,2.0418 -0.9416,2.8248 -5.1415,5.8287 -8.1495,5.8287 -2.3211,0 -3.9321,0.9051 -6.2294,3.5 -2.4064,2.718 -3.8654,3.5 -6.5302,3.5 -2.7274,0 -4.1818,0.8208 -7.0879,4 -3.211,3.5127 -4.1952,4 -8.0798,4 -3.352,0 -5.0534,0.6036 -7.0247,2.4922 -1.5483,1.4834 -4.5944,2.8646 -7.5254,3.4121 -2.7083,0.506 -5.0853,1.4035 -5.2823,1.9944 -1.3767,4.1301 -3.8934,5.3818 -11.7719,5.8549 -6.4174,0.3854 -8.405,0.9075 -10.4285,2.7396 -1.6119,1.4594 -4.2618,2.4491 -7.4596,2.7859 -4.1913,0.4415 -5.4069,1.0801 -7.847,4.1217 -2.7616,3.4424 -3.1605,3.5992 -9.1555,3.5992 -4.8662,0 -6.8692,0.4727 -8.9551,2.1135 -1.4778,1.1625 -4.7884,2.746 -7.3568,3.519 -2.5685,0.773 -6.0325,2.6723 -7.698,4.2206 -3.3208,3.0873 -9.2669,5.1469 -14.8595,5.1469 -2.6508,0 -4.4084,0.7907 -6.6685,3 -2.8667,2.8023 -3.571,3 -10.6881,3 -7.6068,0 -7.6251,0.01 -11.3119,4 -3.6655,3.9704 -3.7472,4 -11.0588,4 -6.8246,0 -7.5261,0.2007 -9.5432,2.7303 -2.0954,2.628 -2.5925,2.7446 -13.2523,3.1095 -11.0752,0.379 -11.0752,0.379 -13.6614,3.7696 -2.5861,3.3906 -2.5861,3.3906 -13.4585,3.3906 -10.1382,0 -11.073,0.1688 -13.8434,2.5 -2.7744,2.3345 -3.6981,2.5 -13.951,2.5 -12.0559,0 -17.9845,1.4548 -22.2172,5.4518 -2.1707,2.0498 -3.8123,2.4487 -12.0142,2.9195 -14.8677,0.8533 -18.1482,1.569 -21.7848,4.7529 -3.2848,2.8758 -3.2848,2.8758 -32.55,2.8758 -30.3814,0 -31.6652,0.1703 -31.6652,4.2 0,3.183 -161.5732,2.7358 -162.56739,-0.45 z m 196.58239,-78.5 c 2.1601,-2.75 2.1601,-2.75 19.4277,-3.25 17.2676,-0.5 17.2676,-0.5 21.4153,-4.25 4.1478,-3.75 4.1478,-3.75 18.7629,-3.75 14.6151,0 14.6151,0 18.0319,-3 3.3915,-2.9778 3.506,-3 15.4477,-3 12.5397,0 14.7588,-0.555 18.6018,-4.6521 1.5497,-1.6522 3.3275,-2.355 6,-2.3718 6.1608,-0.039 11.3369,-1.6395 14.2141,-4.396 2.418,-2.3166 3.4788,-2.5801 10.3883,-2.5801 6.0908,0 8.0081,-0.3649 9.1953,-1.75 5.5092,-6.4274 5.1541,-6.25 12.5091,-6.25 6.4236,0 7.2713,-0.2506 10.1483,-3 2.6723,-2.5538 3.9201,-3 8.3894,-3 3.86,0 6.7108,-0.7684 10.7667,-2.9019 3.0341,-1.596 7.0027,-3.2283 8.8192,-3.6272 1.8164,-0.399 4.5736,-2.086 6.1271,-3.749 2.2883,-2.4496 3.8131,-3.1004 8.0323,-3.4281 7.8243,-0.6077 9.2723,-1.0564 12.6895,-3.9318 2.2352,-1.8808 4.7476,-2.8142 8.7487,-3.2502 4.9095,-0.5351 5.8208,-0.9876 7.2722,-3.611 1.3734,-2.4824 2.5028,-3.1199 6.5538,-3.6994 3.6073,-0.516 5.3831,-1.3709 6.7525,-3.2507 1.6998,-2.3335 2.4825,-2.5507 9.1928,-2.5507 9.1317,0 10.2308,-0.4238 11.9846,-4.6213 1.3142,-3.1451 1.7303,-3.3787 6.0191,-3.3787 3.755,0 5.1058,-0.5231 7.3011,-2.8272 1.4815,-1.555 4.5547,-3.3577 6.8294,-4.006 2.7173,-0.7744 5.05,-2.3772 6.8009,-4.6727 1.4658,-1.9218 3.2827,-3.4941 4.0375,-3.4941 0.7548,0 2.6482,-1.0735 4.2076,-2.3857 1.5593,-1.3121 4.4544,-3.0622 6.4334,-3.8891 1.979,-0.8268 4.6752,-2.6223 5.9915,-3.9898 1.7612,-1.8297 3.8458,-2.6439 7.8933,-3.0827 4.1152,-0.4462 6.0036,-1.1978 7.5,-2.9853 1.1,-1.3139 4.189,-3.1168 6.8643,-4.0064 2.9308,-0.9746 7.3644,-3.8124 11.1537,-7.1393 3.4592,-3.0369 6.7771,-5.5217 7.3731,-5.5217 0.5961,0 2.2201,-1.8 3.6089,-4 2.3202,-3.6755 2.8812,-4 6.9138,-4 3.9556,0 4.5924,-0.3454 6.4537,-3.5 1.1358,-1.925 2.655,-3.5 3.3761,-3.5 0.7211,0 2.4631,-1.313 3.8713,-2.9177 1.5221,-1.7346 4.3495,-3.3803 6.9727,-4.0584 2.4268,-0.6274 5.3124,-2.1817 6.4124,-3.454 1.1,-1.2723 4.3266,-3.0702 7.1703,-3.9955 3.1176,-1.0143 5.8066,-2.6533 6.7731,-4.1283 0.8815,-1.3454 2.2703,-2.4461 3.0863,-2.4461 0.8159,0 2.4931,-1.173 3.7269,-2.6067 1.2339,-1.4337 3.2193,-2.9837 4.4122,-3.4444 1.1928,-0.4607 2.7678,-2.0874 3.5,-3.6149 0.8342,-1.7404 2.828,-3.3478 5.3407,-4.3056 4.0476,-1.5429 13.2505,-9.7934 26.2463,-23.53 2.3407,-2.4741 4.9132,-4.4984 5.7167,-4.4984 2.5303,0 17.5934,-14.5832 18.8661,-18.265 0.3356,-0.9708 1.6342,-2.1566 2.8858,-2.6352 1.2516,-0.4787 3.1756,-1.8802 4.2756,-3.1146 1.1,-1.2344 3.887,-3.0592 6.1934,-4.055 2.6048,-1.1247 4.7928,-2.9697 5.7757,-4.8704 0.8702,-1.6829 1.9781,-3.0598 2.462,-3.0598 0.7732,0 8.3812,-5.7403 10.2733,-7.7513 3.917,-4.1633 7.7956,-9.2151 7.7956,-10.1536 0,-0.6394 1.5499,-2.077 3.4442,-3.1947 2.1228,-1.2524 3.8637,-3.3032 4.5376,-5.3453 0.6014,-1.8223 2.0349,-4.1552 3.1856,-5.1842 1.1506,-1.029 3.1643,-3.5584 4.4749,-5.6209 1.3105,-2.0625 2.9227,-3.75 3.5826,-3.75 1.1298,0 2.2725,-0.9792 9.0342,-7.7409 6.2177,-6.2176 7.551,-7.8734 8.2608,-10.2591 0.8033,-2.6999 5.284,-7.424 9.7838,-10.3151 1.5421,-0.9908 3.0764,-2.5627 3.4097,-3.4932 0.3332,-0.9304 3.6342,-4.6653 7.3356,-8.2997 4.4315,-4.3513 6.9723,-7.7125 7.4401,-9.8426 0.4846,-2.2063 1.7914,-3.8724 4.1107,-5.2408 1.8701,-1.1034 3.4002,-2.4158 3.4002,-2.9165 0,-0.5007 1.35,-2.3229 3,-4.0495 1.65,-1.7266 3,-3.6731 3,-4.3256 0,-0.6525 1.3268,-2.3686 2.9484,-3.8134 1.6216,-1.4449 3.4994,-4.5568 4.1728,-6.9153 0.6734,-2.3586 2.4966,-5.5004 4.0516,-6.9819 1.9824,-1.8887 2.8272,-3.6751 2.8272,-5.9781 0,-2.4689 0.9313,-4.2064 3.75,-6.9967 2.0625,-2.0416 4.4645,-4.5265 5.3377,-5.5218 0.8733,-0.9954 2.3601,-2.2598 3.304,-2.8098 1.0632,-0.6195 1.9852,-2.8993 2.4234,-5.9919 0.5816,-4.1051 1.1924,-5.2244 3.4381,-6.3007 1.5019,-0.7199 3.2506,-2.2985 3.886,-3.5081 0.6354,-1.2096 3.3812,-4.7841 6.1019,-7.9434 2.7206,-3.1593 5.8372,-8.0881 6.9258,-10.9531 1.0886,-2.8649 3.0714,-6.2211 4.4062,-7.4581 1.8905,-1.7521 2.4269,-3.2644 2.4269,-6.8424 0,-3.6297 0.5532,-5.1464 2.6369,-7.2301 1.4503,-1.4503 3.4589,-4.4953 4.4637,-6.7667 1.0047,-2.2714 2.7431,-4.9591 3.8631,-5.9727 1.12,-1.0135 2.0363,-2.6352 2.0363,-3.6038 0,-0.9685 1.7452,-3.1431 3.8781,-4.8325 2.8413,-2.2503 4.1809,-4.2736 5.0103,-7.5677 0.7223,-2.8685 2.0335,-5.0867 3.6219,-6.1275 1.9575,-1.2826 2.4897,-2.4758 2.4897,-5.5821 0,-4.8145 1.4737,-7.8192 3.8352,-7.8192 3.275,0 4.1648,-2.1717 4.1648,-10.1655 0,-7.2797 0.1877,-7.9575 3,-10.8345 2.3071,-2.3601 3,-3.9796 3,-7.0114 0,-3.2214 0.503,-4.254 2.75,-5.6456 4.2886,-2.6559 5.25,-4.3699 5.25,-9.3598 0,-3.6513 0.5307,-5.1331 2.5015,-6.9846 2.85,-2.6775 4.4848,-7.626 4.4929,-13.6003 0,-3.1692 0.6734,-4.8005 2.9432,-7.1755 1.6156,-1.6907 3.506,-5.0199 4.2008,-7.3984 0.6948,-2.3784 2.1163,-5.5061 3.1589,-6.9505 1.193,-1.6527 2.2204,-5.5227 2.772,-10.4408 0.7246,-6.4612 1.3016,-8.1713 3.3313,-9.8739 2.1527,-1.8057 2.4977,-3.0268 2.8021,-9.9177 0.308,-6.9735 0.6259,-8.0715 2.8222,-9.7497 1.3613,-1.0401 3.0376,-2.359 3.7251,-2.9309 0.8008,-0.6661 1.25,-3.7936 1.25,-8.7027 0,-7.2284 0.1773,-7.8459 3.1257,-10.8879 2.7409,-2.8279 3.2184,-4.1715 3.8785,-10.9132 0.6324,-6.459 1.154,-8.0294 3.2623,-9.8226 3.6809,-3.1308 4.7335,-7.6085 4.7335,-20.1354 0,-11.0829 0.032,-11.236 3,-14.3417 3,-3.1392 3,-3.1392 3,-17.9612 0,-14.822 0,-14.822 3.0063,-17.7023 4.2003,-4.0241 4.9817,-7.8823 4.9881,-24.6289 0.01,-14.5044 0.028,-14.6496 2.5056,-16.273 3.953,-2.5902 3.953,-231.8783 0,-235.592 -2.445,-2.29696 -2.5,-2.66944 -2.5,-16.93092 0,-16.53774 -0.6472,-19.76428 -4.9466,-24.66102 C 1888,838.93041 1888,838.93041 1888,824.5 c 0,-14.43041 0,-14.43041 -3,-17.84722 -2.963,-3.37472 -3,-3.55911 -3,-14.9697 0,-12.73094 -0.657,-15.38943 -5.0355,-20.37625 -2.4173,-2.75325 -2.9645,-4.2746 -2.9645,-8.24285 0,-4.50162 -0.2624,-5.02123 -3.5,-6.93148 -3.5,-2.06505 -3.5,-2.06505 -3.5,-13.02619 0,-10.64812 -0.075,-11.02029 -2.6327,-13.032 -2.2664,-1.78277 -2.7458,-3.14925 -3.446,-9.82258 -0.4474,-4.26345 -0.8377,-7.8896 -0.8674,-8.0581 -0.03,-0.1685 -1.467,-1.59701 -3.1941,-3.17446 -2.7544,-2.51577 -3.2172,-3.70953 -3.768,-9.71785 -0.395,-4.31029 -1.4395,-8.22547 -2.8172,-10.56051 -1.2042,-2.04092 -2.6802,-5.53329 -3.28,-7.76082 -0.5998,-2.22753 -2.3642,-5.18485 -3.9208,-6.57182 -2.2113,-1.97025 -2.9377,-3.63986 -3.3215,-7.63419 -0.4041,-4.20577 -1.048,-5.57012 -3.6308,-7.69321 -2.9812,-2.45066 -3.1391,-2.93665 -3.1305,-9.63964 0.01,-7.53181 -0.9274,-9.73157 -5.008,-11.75661 -2.0186,-1.00176 -2.5389,-2.08989 -2.7821,-5.81828 -0.2312,-3.54522 -0.9688,-5.22774 -3.25,-7.41325 -2.4728,-2.36914 -2.9509,-3.61211 -2.9509,-7.6722 0,-5.56607 -1.7311,-10.3134 -5.1297,-14.06759 -6.2548,-6.90917 -8.0616,-9.89121 -8.7009,-14.36091 -0.5458,-3.81562 -1.2224,-4.99606 -3.6278,-6.32926 -2.2896,-1.26897 -3.3544,-2.97781 -4.7181,-7.57158 -0.9687,-3.263 -2.4343,-6.42488 -3.2569,-7.02638 -0.8226,-0.60151 -2.3573,-3.08072 -3.4106,-5.50936 -1.0532,-2.42864 -3.0942,-5.50665 -4.5355,-6.84002 -1.8398,-1.70208 -2.6205,-3.43892 -2.6205,-5.83 0,-2.83471 -1.0209,-4.42655 -6.089,-9.4947 -6.697,-6.69699 -7.911,-8.96709 -7.911,-14.79304 0,-3.07403 -0.538,-4.26432 -2.5117,-5.5576 -1.3815,-0.90517 -2.7843,-2.73157 -3.1174,-4.05867 -0.3689,-1.46985 -1.8764,-2.94388 -3.8571,-3.77147 -2.5085,-1.04812 -3.3992,-2.14597 -3.898,-4.80446 -0.3555,-1.89524 -1.8038,-4.53036 -3.2184,-5.85582 -1.4146,-1.32546 -3.1723,-3.84254 -3.9059,-5.59351 -0.7337,-1.75097 -2.7194,-3.90003 -4.4127,-4.77568 -2.731,-1.41223 -3.0788,-2.0894 -3.0788,-5.99384 0,-3.51383 -0.5085,-4.80173 -2.5208,-6.38463 -1.3865,-1.09059 -3.1552,-4.09045 -3.9304,-6.66635 -1.4028,-4.66108 -7.515,-11.82863 -12.2175,-14.32706 -1.1928,-0.63373 -2.4588,-2.47288 -2.8133,-4.08701 -0.3545,-1.61413 -1.707,-3.63089 -3.0055,-4.48168 -1.2984,-0.85079 -2.6518,-2.46381 -3.0075,-3.5845 -0.3557,-1.12068 -1.9274,-2.69985 -3.4926,-3.50926 -1.784,-0.92256 -3.0893,-2.57994 -3.4983,-4.44207 -0.9786,-4.45586 -4.158,-7.87736 -8.5397,-9.19014 -3.2014,-0.95918 -4.1321,-1.83256 -5.0872,-4.77407 -0.6429,-1.98007 -2.6806,-5.28893 -4.5281,-7.35301 -1.8475,-2.06409 -3.3591,-4.37364 -3.3591,-5.13235 0,-1.78837 -7.8185,-9.61477 -9.6051,-9.61477 -0.7534,0 -2.5061,-1.8 -3.8949,-4 -1.3888,-2.2 -3.1689,-4 -3.9558,-4 -0.787,0 -2.0975,-0.95183 -2.9123,-2.11517 -0.8149,-1.16335 -2.8654,-2.95674 -4.5567,-3.98531 -2.5054,-1.52362 -3.0752,-2.52825 -3.0752,-5.42213 0,-2.86986 -0.8822,-4.45705 -4.5935,-8.26469 -2.5264,-2.59199 -5.3052,-5.5002 -6.175,-6.4627 -0.8698,-0.9625 -2.4798,-1.75 -3.5777,-1.75 -2.7026,0 -5.6538,-2.83566 -5.6538,-5.43248 0,-3.58036 -2.6892,-6.22301 -7.7073,-7.57391 -4.558,-1.22702 -6.1574,-2.34001 -12.5518,-8.73447 -6.1461,-6.14604 -7.547,-7.8586 -8.2017,-10.02613 -0.3878,-1.2838 -2.1711,-2.88803 -4.112,-3.69897 -1.885,-0.78759 -3.4272,-2.03626 -3.4272,-2.77481 0,-1.65833 -8.1223,-9.75923 -9.785,-9.75923 -0.6651,0 -2.898,-1.5116 -4.9621,-3.35911 -2.0641,-1.84751 -5.373,-3.88515 -7.353,-4.52809 -2.9415,-0.95512 -3.8149,-1.88579 -4.7741,-5.08724 -1.3712,-4.5766 -4.9257,-7.7098 -9.7797,-8.6204 -2.6025,-0.48824 -5.9209,-3.08306 -13.4971,-10.55405 -5.5254,-5.44866 -11.621,-10.56466 -13.5458,-11.36889 -1.9248,-0.80424 -4.3881,-2.59174 -5.474,-3.97223 -1.1362,-1.44448 -3.0015,-2.50999 -4.3941,-2.50999 -1.4181,0 -3.5064,-1.21966 -5.0452,-2.94666 -1.8133,-2.03512 -3.7419,-3.04049 -6.2347,-3.25 -2.5021,-0.21029 -3.935,-0.96079 -4.6712,-2.44669 -1.729,-3.48936 -3.6182,-5.35665 -5.4194,-5.35665 -0.9297,0 -2.922,-1.28547 -4.4272,-2.85661 -1.5053,-1.57113 -4.5101,-3.38788 -6.6774,-4.03723 -2.8747,-0.86127 -4.1102,-1.85644 -4.5676,-3.679 -0.3942,-1.57031 -1.8537,-3.01091 -3.9293,-3.87811 -1.8161,-0.75885 -3.8042,-2.31783 -4.4178,-3.46439 -0.8573,-1.60196 -2.0916,-2.08821 -5.3305,-2.09997 -2.3181,-0.008 -4.8898,-0.43664 -5.7148,-0.9516 -3.3477,-2.08961 -6.5087,-4.74902 -10.4396,-8.78309 -3.2393,-3.32424 -4.8685,-4.25 -7.4797,-4.25 -2.4081,0 -4.4135,-0.97141 -7.1971,-3.4862 -2.4493,-2.21283 -5.3116,-3.71852 -7.8363,-4.12222 -2.5276,-0.40419 -4.5092,-1.44763 -5.4363,-2.86255 -0.8417,-1.28459 -3.4507,-2.7842 -6.1672,-3.54476 -3.5075,-0.98204 -5.191,-2.13628 -6.6007,-4.5257 -1.5878,-2.69102 -2.6675,-3.31026 -6.7056,-3.84595 -3.2711,-0.43392 -5.5617,-1.43529 -7.1496,-3.12555 -1.3947,-1.48457 -3.4493,-2.48707 -5.0971,-2.48707 -4.2978,0 -7.6511,-1.66579 -8.44,-4.19272 -0.9855,-3.15642 -2.2095,-3.77417 -7.5137,-3.79197 -3.7536,-0.0126 -5.0727,-0.54739 -7.4371,-3.01531 -2.3847,-2.48909 -3.6642,-3 -7.5128,-3 -3.727,0 -5.115,-0.51663 -7.0629,-2.62888 -3.4336,-3.72334 -7.9505,-5.37112 -14.7232,-5.37112 -5.1583,0 -6.0169,-0.28727 -7.142,-2.38954 -1.4418,-2.69411 -4.9888,-4.61046 -8.5336,-4.61046 -1.3092,0 -3.2091,-1.05353 -4.2219,-2.34119 -2.7522,-3.4988 -5.6041,-4.66928 -13.0591,-5.35975 -4.2544,-0.39403 -7.703,-1.33038 -9.3406,-2.53617 -1.5631,-1.15082 -5.5194,-2.27856 -9.9418,-2.83386 -5.6196,-0.70562 -7.9468,-1.49564 -9.9039,-3.36208 -3.2479,-3.09751 -7.1375,-4.56695 -12.0885,-4.56695 -2.9075,0 -4.7697,-0.76353 -7.3169,-3 -3.197,-2.80696 -3.9398,-3 -11.5439,-3 -7.7336,0 -8.284,-0.15063 -11.368,-3.11133 -4.1444,-3.97871 -6.6116,-4.88867 -13.2551,-4.88867 -4.978,0 -5.5853,-0.26394 -8.0536,-3.5 -2.6696,-3.5 -2.6696,-3.5 -17.0164,-3.5 -14.3468,0 -14.3468,0 -17.4158,-3 -3.069,-3 -3.069,-3 -20.9375,-3 -17.8685,0 -17.8685,0 -20.8757,-3.75 -3.0072,-3.75 -3.0072,-3.75 -21.3508,-4.25 -17.3491,-0.47289 -18.4653,-0.62198 -20.5898,-2.75 -3.743,-3.749294 -203.71568,-3.508068 -207.2462,0.25 -2.29051,2.43813 -2.69865,2.5 -16.49281,2.5 -15.91524,0 -22.78198,1.43064 -26.30288,5.48003 -2.18984,2.51854 -2.20129,2.51997 -20.16322,2.51997 -17.97213,0 -17.97213,0 -21.04109,3 -3.0467,2.97824 -3.1516,3 -14.46305,3 C 786.89867,120 784,120.89021 784,124.46444 784,126.45932 781.6229,127 772.85247,127 c -8.50193,0 -10.45083,0.64144 -15.63727,5.14665 -3.04467,2.64477 -3.89151,2.85335 -11.5847,2.85335 -7.96145,0 -8.40891,0.12234 -10.97292,3 -2.21194,2.48253 -3.43976,3 -7.11824,3 -5.20392,0 -8.99927,1.43383 -12.71333,4.80292 -1.80765,1.63974 -4.23757,2.56963 -7.5,2.8701 -7.66494,0.70596 -9.08984,1.18237 -12.55767,4.19859 -2.27444,1.97825 -4.73593,3.00346 -8.09435,3.37129 -3.26078,0.35713 -5.69327,1.34118 -7.5,3.03408 -2.11228,1.97919 -3.98924,2.59445 -8.93511,2.92888 -5.38818,0.36434 -6.71934,0.86748 -9.54761,3.60875 -1.80757,1.75197 -4.06701,3.18539 -5.021,3.18539 -2.69005,0 -8.53717,2.71021 -11.83638,5.48632 -2.16198,1.81919 -4.15774,2.51368 -7.22352,2.51368 -3.4015,0 -4.80251,0.59111 -7.11037,3 -2.33352,2.43567 -3.69483,3 -7.23675,3 -4.64472,0 -8.99526,1.80575 -13.58998,5.64069 -2.02883,1.69336 -4.06876,2.35931 -7.22694,2.35931 -3.53737,0 -4.70763,0.46915 -5.96786,2.39251 -0.97958,1.49504 -3.2728,2.82188 -6.11334,3.53713 -2.64318,0.66556 -5.65888,2.33973 -7.20542,4.00009 -1.46284,1.5705 -4.15564,3.17189 -5.98399,3.55864 -1.82835,0.38674 -4.75483,1.89757 -6.50329,3.3574 -1.74846,1.45983 -4.06303,3.14412 -5.14349,3.74288 -1.08046,0.59876 -2.68839,2.39876 -3.57318,4 -1.36861,2.47682 -2.3698,2.98907 -6.708,3.43211 -3.94581,0.40297 -5.56451,1.1122 -7.15597,3.13542 -1.19963,1.52508 -3.53142,2.89131 -5.59562,3.27856 -1.94641,0.36515 -4.99924,1.94607 -6.78406,3.51317 -1.78482,1.56709 -5.22201,3.38158 -7.63821,4.03219 -5.01906,1.35149 -15.0739,6.76281 -15.0739,8.11248 0,0.49591 -1.49996,2.59045 -3.33325,4.65454 -1.83328,2.06408 -3.58134,4.44183 -3.88457,5.28387 -0.30323,0.84205 -2.96577,2.30062 -5.91675,3.24126 -3.71869,1.18536 -7.20067,3.40099 -11.34505,7.21901 -5.30237,4.88483 -6.46327,5.50874 -10.25,5.50874 -2.82783,0 -4.77806,0.59116 -5.77328,1.75 -7.43371,8.65596 -10.80102,11.44805 -15.48358,12.83862 -3.74828,1.11312 -5.38383,2.22681 -6.53253,4.44814 -0.84279,1.62978 -1.92213,2.96324 -2.39853,2.96324 -2.74835,0 -23.76273,19.67709 -26.08632,24.42626 -1.32761,2.71349 -2.06947,3.10984 -6.32983,3.38179 -4.10123,0.26179 -5.07207,0.73687 -6.4648,3.16356 -0.90136,1.57053 -2.89274,3.59621 -4.42529,4.50151 -1.53255,0.9053 -3.48097,2.8567 -4.32982,4.33644 -0.84885,1.47974 -3.11356,4.04044 -5.0327,5.69044 -3.17336,2.72832 -8.8024,7.7731 -14.5056,13 -1.20024,1.1 -3.35807,2.70691 -4.79518,3.57092 -1.4371,0.864 -3.21197,2.80154 -3.94415,4.30563 -0.73218,1.5041 -2.30718,3.11609 -3.5,3.5822 -2.40986,0.9417 -7.3948,6.06581 -10.01173,10.29125 -0.93673,1.5125 -2.3574,2.75 -3.15704,2.75 -0.79964,0 -2.22301,1.2375 -3.16303,2.75 -0.94003,1.5125 -2.74822,3.875 -4.0182,5.25 -1.26999,1.375 -4.22375,4.57724 -6.56392,7.11608 -4.34277,4.71147 -10.81081,11.40238 -15.35483,15.88392 -1.39418,1.375 -2.98725,2.95 -3.54017,3.5 -0.55292,0.55 -2.09758,1.99205 -3.43258,3.20455 -1.81042,1.6443 -2.42727,3.23807 -2.42727,6.27143 0,3.47212 -0.40219,4.24657 -2.75,5.29546 -3.4345,1.53436 -17.56868,15.84306 -22.25,22.52474 -1.925,2.74756 -4.70788,5.72537 -6.18417,6.61735 -1.8442,1.11426 -3.18014,3.25917 -4.26905,6.85412 -1.52233,5.02583 -3.90832,7.85668 -11.42566,13.55594 -1.81719,1.3777 -2.49932,3.05699 -2.88896,7.11212 -0.44963,4.67937 -1.09035,5.91636 -5.40576,10.43643 -3.1629,3.31291 -5.63508,7.15306 -6.98477,10.84975 -1.2008,3.28887 -2.83739,5.95938 -3.84888,6.28041 -0.96788,0.30719 -3.1581,1.89485 -4.86716,3.52812 -1.70906,1.63327 -3.52275,2.96958 -4.03042,2.96958 -1.28803,0 -7.66159,11.67941 -8.95298,16.40615 -0.58696,2.14838 -2.15479,5.07338 -3.48407,6.5 -1.32928,1.42662 -2.96398,4.39385 -3.63267,6.59385 -0.6687,2.2 -2.30889,4.9256 -3.64487,6.0569 -1.77597,1.50386 -2.59601,3.46643 -3.04996,7.29937 -0.52649,4.44533 -1.05242,5.46563 -3.45883,6.71003 -1.56087,0.80715 -3.47448,2.6985 -4.25248,4.20299 -0.77801,1.50449 -2.37498,3.6046 -3.54883,4.66692 -1.17385,1.06233 -2.61829,3.8537 -3.20987,6.20306 -0.64449,2.55951 -2.01865,4.88949 -3.4285,5.81326 -1.43414,0.93968 -2.94671,3.54122 -3.87359,6.66237 -0.83638,2.81638 -2.6542,6.1712 -4.0396,7.45515 -1.95532,1.81213 -2.51892,3.31732 -2.51892,6.72721 0,3.22956 -0.567,4.8972 -2.14123,6.29775 -3.04144,2.70588 -5.81108,9.24133 -5.83681,13.77297 -0.0162,2.85202 -0.80994,4.76545 -3.02196,7.2848 -2.28565,2.60322 -3,4.38908 -3,7.5 0,3.0797 -0.71276,4.89498 -2.90023,7.38637 -1.73241,1.97311 -3.34468,5.37559 -4.00401,8.44995 -0.77169,3.59825 -1.96996,5.87561 -3.98266,7.56919 -2.51406,2.11544 -2.93127,3.24514 -3.29228,8.91471 -0.34212,5.37289 -0.87958,6.97889 -3.11711,9.31437 C 156.65087,681.93008 156,683.611 156,686.76992 c 0,3.18575 -0.69455,4.95153 -2.96454,7.53691 -3.7348,4.25371 -5.03546,7.65849 -5.03546,13.18154 0,3.19609 -0.67026,5.15474 -2.51368,7.34552 -3.42351,4.06861 -5.48632,9.3271 -5.48632,13.98568 0,2.95107 -0.72048,4.63772 -3,7.02301 -2.83491,2.96646 -3,3.5911 -3,11.35071 0,7.81549 -0.14843,8.36463 -3.07776,11.38694 -3.61205,3.72669 -4.86322,8.29796 -4.90471,17.91977 -0.0287,6.66904 -0.16765,7.07821 -2.93791,8.65417 -2.90774,1.65417 -2.90774,1.65417 -3.24368,13.74306 -0.32538,11.70871 -0.42242,12.16901 -3.08594,14.6363 -2.75,2.54741 -2.75,2.54741 -2.75,19.57268 0,16.89942 -0.57298,20.37892 -3.65557,22.19884 -3.26828,1.92956 -4.34443,7.67131 -4.34443,23.17957 0,15.24037 0,15.24037 -3,19.01538 -4.736845,5.96054 -4.736845,202.4523 0,207.8472 3,3.4168 3,3.4168 3,20.6499 0,17.2332 0,17.2332 3.75,20.6657 3.75,3.4326 3.75,3.4326 4.03292,21.6349 0.25851,16.6318 0.45147,18.3446 2.23648,19.8516 3.24784,2.7421 3.9806,6.3958 3.9806,19.8477 0,12.8668 0,12.8668 3,15.003 2.51224,1.7889 3.00091,2.8161 3.00558,6.3181 0.008,6.2674 1.7554,11.3684 5.04666,14.7353 2.7624,2.8259 2.94776,3.5143 2.94776,10.9463 0,7.3859 0.20607,8.1654 3,11.3475 2.10008,2.3919 3,4.4574 3,6.8856 0,4.88 1.84164,9.7184 5.1582,13.552 2.28262,2.6384 2.8418,4.2418 2.8418,8.1485 0,3.47 0.85961,6.4978 3,10.5667 2.13291,4.0547 3,7.1001 3,10.5364 0,6.1634 1.28903,9.497 5.01986,12.9822 2.08895,1.9513 2.98014,3.7273 2.98014,5.939 0,2.258 0.88831,3.9665 3.12399,6.0085 2.79041,2.5486 3.20411,3.6716 3.87429,10.5163 0.64683,6.6063 1.16478,8.1011 3.75623,10.8403 2.21921,2.3457 3.13823,4.4404 3.51144,8.0033 0.35388,3.3784 1.28968,5.6445 3.11978,7.5547 2.04868,2.1384 2.61427,3.7291 2.61427,7.3526 0,4.3382 1.76576,7.7667 4,7.7667 2.02739,0 4,3.4142 4,6.9231 0,2.836 0.74935,4.5644 3,6.9195 2.32097,2.4287 3,4.0543 3,7.182 0,3.5573 0.41869,4.2899 3.4858,6.0995 2.54918,1.5041 3.77671,3.1371 4.56849,6.0775 0.59549,2.2115 2.13191,4.9932 3.41428,6.1817 1.28238,1.1885 2.84549,4.0693 3.47359,6.4019 0.6281,2.3326 2.40509,5.6977 3.94887,7.4779 1.55473,1.7929 3.08377,4.9992 3.42757,7.1873 0.43226,2.7511 1.76834,5.0778 4.40104,7.6641 7.2036,7.0766 9.28036,10.3747 9.28036,14.7383 0,3.1568 0.65897,4.7524 2.91642,7.0617 1.60403,1.6409 3.19399,3.858 3.53325,4.9269 0.33926,1.0689 1.9489,2.4953 3.57697,3.1696 2.14467,0.8884 3.23434,2.2445 3.95551,4.9227 0.54746,2.0331 2.11237,4.7459 3.47759,6.0285 1.36522,1.2825 2.96577,3.7971 3.55679,5.5879 0.71541,2.1677 1.90673,3.4648 3.56439,3.8809 2.58692,0.6492 4.41908,3.974 4.41908,8.0191 0,1.3348 1.00277,2.9769 2.36145,3.8672 1.29881,0.851 2.64678,2.9739 2.99551,4.7175 0.34873,1.7437 1.70885,4.0157 3.02248,5.049 1.31363,1.0333 3.12179,3.7116 4.01814,5.9518 0.97011,2.4246 2.83584,4.7594 4.60974,5.7687 1.63902,0.9327 2.98288,2.085 2.98636,2.5608 0.003,0.4759 1.53317,2.2759 3.39933,4 5.88373,5.4361 10.60699,11.7383 10.60699,14.1528 0,3.4731 4.58844,8.2942 9.03289,9.491 3.31904,0.8937 3.9791,1.5381 4.51805,4.4109 0.36135,1.9262 2.08839,4.7768 4.0401,6.6684 1.87493,1.8173 3.40896,4.0442 3.40896,4.9488 0,1.9348 7.22484,9.5822 9.83547,10.4108 0.99208,0.3149 2.55266,2.1429 3.46797,4.0623 0.91531,1.9195 2.33148,3.4899 3.14705,3.4899 0.81556,0 3.06534,1.4625 4.99951,3.25 3.5393,3.2709 4.72679,4.4463 9.83399,9.7337 1.5312,1.5852 3.44512,5.1085 4.25316,7.8294 1.67806,5.6507 2.62294,6.6607 7.3805,7.889 3.53545,0.9128 4.08017,1.5422 6.14062,7.0951 0.67779,1.8266 2.48539,3.9497 4.05294,4.7603 1.55623,0.8048 3.36021,2.471 4.00885,3.7029 1.59335,3.0258 2.80468,3.7063 6.62994,3.7243 2.02699,0.01 3.90855,0.787 5,2.066 0.9625,1.1279 2.91266,3.2654 4.33368,4.75 1.42103,1.4846 3.12187,3.7071 3.77965,4.9389 0.65778,1.2319 2.50073,2.9144 4.09545,3.7391 1.59471,0.8246 3.21611,2.497 3.60311,3.7163 0.93679,2.9516 8.15267,9.805 10.32354,9.805 0.94723,0 3.20908,1.534 5.02633,3.409 1.89167,1.9517 4.74225,3.6787 6.66842,4.0401 2.8764,0.5396 3.51688,1.1976 4.41618,4.5374 1.15121,4.2753 4.32717,7.3051 9.41879,8.9855 1.8276,0.6032 3.78093,2.1629 4.39416,3.5088 0.60719,1.3327 2.41896,3.103 4.02615,3.9341 1.6072,0.8311 3.1702,2.1575 3.47335,2.9475 0.30314,0.7899 2.15767,1.9665 4.12118,2.6145 1.96351,0.648 3.57001,1.6018 3.57001,2.1196 0,2.4072 10.3279,11.6841 14.31289,12.8564 2.30291,0.6775 5.31211,2.2627 6.68711,3.5227 1.47455,1.3512 4.43722,2.5674 7.22285,2.9649 3.79948,0.5421 4.97433,1.1986 6.00911,3.3576 0.70744,1.476 2.63216,3.3073 4.27715,4.0695 1.64499,0.7622 4.15812,2.4707 5.58474,3.7966 1.42662,1.3259 4.27318,2.8745 6.32569,3.4412 2.76592,0.7637 3.99272,1.7787 4.73973,3.9216 0.55434,1.5902 1.89324,3.1723 2.97534,3.5157 1.08209,0.3435 3.30999,1.9369 4.95089,3.5409 2.36432,2.3112 3.87974,2.9164 7.3024,2.9164 4.55658,0 6.52662,1.2638 14.46697,9.2804 2.59799,2.6229 4.95386,3.9703 7.69476,4.401 2.1727,0.3414 5.3833,1.863 7.13466,3.3814 1.75137,1.5184 4.22637,3.076 5.5,3.4613 1.27364,0.3853 3.44071,1.7376 4.81571,3.005 1.375,1.2675 5.05659,3.0399 8.18131,3.9387 4.59533,1.3218 6.07029,2.2935 7.71627,5.0832 1.82616,3.0951 2.48322,3.449 6.4034,3.449 3.59314,0 4.84282,0.5324 7.04144,3 1.47015,1.65 3.307,3 4.08189,3 0.77488,0 2.24048,1.1416 3.25689,2.5369 2.2407,3.076 8.25211,5.3598 14.26408,5.4192 3.39363,0.034 5.09083,0.6624 7.17399,2.6582 1.85529,1.7774 4.21825,2.7821 7.38224,3.1388 3.56769,0.4021 4.84447,1.0267 5.47183,2.6768 1.35942,3.5755 3.1805,4.3369 11.32266,4.7337 7.40375,0.3608 7.92311,0.5423 10.32247,3.6082 2.17015,2.7729 3.15223,3.2282 6.96311,3.2282 3.52931,0 5.05599,0.5919 7.46523,2.8943 1.66573,1.5919 4.47414,3.4408 6.2409,4.1088 1.76676,0.668 5.96751,2.5156 9.335,4.1057 4.46262,2.1073 7.63003,2.8912 11.68191,2.8912 4.95885,0 5.7764,0.305 7.57057,2.8247 2.27687,3.1976 7.69804,5.1753 14.18611,5.1753 3.36147,0 4.96986,0.6148 7.19487,2.75 2.6929,2.5843 3.53838,2.7801 14.02913,3.25 10.64436,0.4767 11.22061,0.6149 12.39103,2.97 1.45018,2.9182 3.49026,3.8642 8.53887,3.9597 2.70298,0.051 4.7233,0.9558 7.41523,3.3203 3.70003,3.25 3.70003,3.25 17.62377,3.75 13.3622,0.4798 14.00523,0.6008 15.94423,3 1.96763,2.4346 2.43873,2.5131 18.00782,3 15.76706,0.4931 16.017,0.5361 18.14054,3.1216 3.67019,4.4687 5.56587,4.8784 22.57169,4.8784 16.04997,0 16.04997,0 19.31574,2.9707 4.97514,4.5256 232.23378,4.7948 235.78078,0.2793 z M 534.66284,1433.7427 c -0.96036,-0.7022 -2.30196,-2.3941 -2.98132,-3.7597 -1.21816,-2.4488 -1.44896,-2.4899 -16.73757,-2.983 -14.14867,-0.4563 -15.75174,-0.6965 -18.35802,-2.75 -2.52858,-1.9923 -3.99878,-2.25 -12.83631,-2.25 -9.98067,0 -9.98067,0 -13.63703,-4 -3.15309,-3.4494 -4.23353,-4 -7.84968,-4 -3.17011,0 -4.99484,-0.6934 -7.47811,-2.8418 -3.91858,-3.3901 -8.68687,-5.1582 -13.91097,-5.1582 -2.94793,0 -4.19296,-0.5574 -5.41676,-2.4252 -0.87397,-1.3338 -2.89351,-2.8799 -4.48787,-3.4357 -1.79902,-0.6271 -3.13488,-1.9511 -3.52102,-3.4895 -0.36938,-1.4718 -1.82197,-2.976 -3.57501,-3.7021 -1.62405,-0.6727 -3.55216,-2.0788 -4.28469,-3.1246 -0.73252,-1.0459 -3.73125,-2.7785 -6.66383,-3.8504 -2.93258,-1.0719 -5.71637,-2.6358 -6.18619,-3.4754 -0.46983,-0.8395 -1.54441,-2.0823 -2.38796,-2.7617 -0.84354,-0.6795 -3.27848,-2.8104 -5.41096,-4.7354 -2.13249,-1.925 -5.70281,-5.075 -7.93405,-7 -2.23124,-1.925 -4.70659,-4.6887 -5.50076,-6.1416 -0.79418,-1.4529 -2.7918,-3.1114 -4.43916,-3.6857 -1.90468,-0.664 -3.22471,-1.9586 -3.62558,-3.5558 -0.34671,-1.3814 -1.71255,-3.2207 -3.03519,-4.0873 -1.32264,-0.8666 -2.4048,-2.2555 -2.4048,-3.0864 0,-0.8308 -1.54514,-2.4223 -3.43364,-3.5365 -2.25696,-1.3317 -3.66055,-3.059 -4.09577,-5.0406 -0.36417,-1.6581 -1.87631,-4.4437 -3.3603,-6.1904 -1.484,-1.7466 -3.47627,-4.4132 -4.42729,-5.9257 -0.95101,-1.5125 -2.36822,-2.75 -3.14935,-2.75 -2.14585,0 -4.53365,-4.0402 -4.53365,-7.671 0,-2.0632 -0.90976,-4.2076 -2.52413,-5.9495 -1.38828,-1.498 -2.75955,-3.8837 -3.04728,-5.3016 -0.28772,-1.4178 -1.79951,-5.2779 -3.35953,-8.5779 -1.56001,-3.3 -3.11746,-7.2182 -3.461,-8.707 -0.34353,-1.4889 -1.91207,-3.9639 -3.48565,-5.5 -2.28274,-2.2285 -3.19004,-4.4955 -4.48862,-11.2158 -1.07837,-5.5806 -2.30351,-9.0525 -3.63068,-10.2889 C 323.17346,1259.0837 323,1257.642 323,1244.1392 c 0,-16.2743 -1.24343,-22.1404 -5.5509,-26.187 -4.24493,-3.9879 -3.76655,-53.3158 0.55723,-57.4583 4.55317,-4.3622 4.98206,-7.6665 4.98809,-38.4294 0.005,-27.763 0.0567,-28.49 2.16693,-30.7362 2.32399,-2.4738 3.35271,-9.3616 4.50018,-30.1308 0.51551,-9.3309 0.7867,-10.4451 2.87529,-11.8136 2.24802,-1.4729 2.31437,-1.9737 2.63464,-19.8839 0.32854,-18.373 0.32854,-18.373 3.01492,-21.1865 3.90252,-4.0872 4.81362,-7.3699 4.81362,-17.3438 0,-8.43939 0.15346,-9.07489 2.96454,-12.27653 4.52772,-5.15679 5.03546,-7.60204 5.03546,-24.25056 0,-15.42718 0,-15.42718 3,-18.10019 2.83962,-2.53012 3,-3.08253 3,-10.3334 0,-6.98977 0.23014,-7.87263 2.62888,-10.08471 C 363.67923,912.18914 365,907.9422 365,898.65344 c 0,-8.34125 0.024,-8.42075 2.90478,-9.614 3.35758,-1.39076 4.0627,-3.34222 4.08157,-11.29605 0.0116,-4.88374 0.3925,-6.08602 2.51214,-7.92903 1.50384,-1.30757 3.15737,-4.52063 4.15354,-8.07093 1.04948,-3.74034 2.46935,-6.43208 3.88064,-7.3568 1.73498,-1.13679 2.32683,-2.6788 2.68475,-6.99483 0.36184,-4.36341 1.02312,-6.05952 3.12085,-8.00465 1.46395,-1.35745 2.66173,-2.80612 2.66173,-3.21928 0,-0.41316 1.55112,-2.39567 3.44693,-4.40559 1.89581,-2.00991 3.91891,-5.4072 4.49578,-7.54953 0.57687,-2.14233 1.94934,-4.71007 3.04993,-5.70609 1.10059,-0.99602 2.77811,-4.27597 3.72781,-7.28877 1.3726,-4.3544 2.29737,-5.67674 4.50917,-6.44778 1.6612,-0.5791 3.02678,-1.94349 3.38879,-3.38585 0.33349,-1.32874 1.73553,-3.30411 3.11564,-4.3897 1.82322,-1.43415 2.65193,-3.23933 3.03101,-6.60251 0.44412,-3.94026 1.02096,-4.92326 3.87833,-6.60915 1.84614,-1.08925 3.35661,-2.37034 3.35661,-2.84688 0,-0.47653 1.36507,-2.42116 3.0335,-4.32139 1.66842,-1.90023 3.72662,-5.48917 4.57377,-7.97544 C 436.04611,764.41643 443.55187,756 445.87888,756 c 0.50796,0 1.85284,-1.575 2.98862,-3.5 1.13578,-1.925 2.56717,-3.5 3.18087,-3.5 1.56403,0 9.91504,-8.22376 9.93511,-9.78373 0.009,-0.70604 1.57157,-2.20122 3.47218,-3.32261 1.90061,-1.12139 3.74397,-2.94729 4.09636,-4.05756 0.35239,-1.11027 2.28484,-2.70416 4.29434,-3.54198 2.0095,-0.83781 5.34244,-3.04673 7.40652,-4.90871 2.06409,-1.86197 4.16488,-3.38541 4.66844,-3.38541 0.50356,0 1.88896,-1.575 3.07868,-3.5 1.18972,-1.925 2.62951,-3.5 3.19954,-3.5 0.57004,0 2.574,-1.35 4.45324,-3 2.37423,-2.0846 4.46213,-3 6.84259,-3 1.93046,0 3.9886,-0.69629 4.7152,-1.5952 1.80928,-2.23834 5.43011,-5.72396 9.2702,-8.92403 6.37197,-5.30998 8.22868,-7.10911 8.65429,-8.38594 0.23678,-0.71035 2.54366,-1.52972 5.1264,-1.82083 3.80825,-0.42925 5.16663,-1.14647 7.18627,-3.79436 2.39721,-3.14291 2.79475,-3.27888 10.62581,-3.63451 7.32825,-0.33279 8.34831,-0.62836 10.28095,-2.97894 1.18003,-1.43523 4.44338,-3.35695 7.25188,-4.2705 2.8085,-0.91356 6.14944,-2.77131 7.42431,-4.12835 2.05475,-2.18718 3.14888,-2.46734 9.63592,-2.46734 6.87041,0 7.48145,-0.18348 9.99098,-3 2.34213,-2.62863 3.33737,-3 8.03984,-3 6.06671,0 10.90437,-1.71589 13.70757,-4.86198 1.73147,-1.94328 2.92475,-2.13802 13.10077,-2.13802 12.38322,0 16.61776,-0.99425 20.80987,-4.88606 4.81726,-4.47218 521.97167,-4.55664 527.06327,-0.0861 1.9038,1.67152 5.4708,3.72379 7.9267,4.5606 3.9983,1.36236 4.5929,1.97735 5.6858,5.88098 0.6714,2.39774 2.5229,5.60719 4.1146,7.13213 2.2129,2.12007 2.894,3.68069 2.894,6.63098 0,2.82771 0.6987,4.55703 2.6156,6.47392 1.4385,1.43856 3.3081,4.68061 4.1547,7.20455 0.8465,2.52394 2.8195,6.06714 4.3844,7.87378 2.1746,2.51054 2.8453,4.29619 2.8453,7.57568 0,3.2891 0.5863,4.84169 2.5112,6.65008 1.3812,1.29755 2.9681,4.05553 3.5263,6.12884 0.5583,2.07331 2.1538,5.12288 3.5455,6.77682 1.3916,1.65393 2.7541,4.71189 3.0277,6.79546 1.1991,9.13355 1.6474,10.51267 4.4574,13.71307 1.6332,1.86009 3.6023,5.48481 4.3757,8.05493 0.7735,2.57012 2.3348,5.6511 3.4694,6.84663 9.5008,10.01041 9.0868,9.13261 9.0868,19.26627 0,9.28578 0,9.28578 4,13.90742 2.2,2.5419 4,5.45674 4,6.47741 0,1.02068 1.2082,2.73589 2.6849,3.81158 2.2768,1.65854 2.7886,2.95816 3.3674,8.55044 0.5611,5.42062 1.2403,7.22978 3.8152,10.1624 1.7229,1.96227 3.1325,4.57698 3.1325,5.81046 0,2.45067 2.4355,6.48611 5.073,8.4056 0.9203,0.66984 2.1953,3.29038 2.8331,5.82342 1.6777,6.66281 6.8464,15.27933 10.2082,17.01781 2.6735,1.38251 2.8857,1.91521 2.8857,7.24405 0,5.86926 0.8042,7.72452 5.5844,12.88242 4.3581,4.70242 3.6362,25.22096 -1.0706,30.43082 -2.2505,2.49101 -3.7175,5.30506 -4.1386,7.93899 -0.4286,2.68024 -1.4442,4.59893 -2.96,5.59209 -1.33,0.87148 -3.0178,3.70198 -3.9844,6.68221 -0.9224,2.84366 -2.5651,6.64383 -3.6506,8.44481 -1.0855,1.80098 -2.3818,6.52533 -2.8807,10.49856 -0.6609,5.26318 -1.4383,7.63159 -2.8641,8.72549 -1.0764,0.82579 -2.6838,3.30144 -3.5721,5.50144 -0.8883,2.2 -2.5792,6.025 -3.7575,8.5 -1.1782,2.475 -2.5021,6.975 -2.9419,10 -1.5535,10.68496 -1.9947,17 -1.1878,17 4.2629,0 20.4239,-17.3637 20.4239,-21.94385 0,-2.37842 0.7104,-3.5176 3.1,-4.9708 1.7051,-1.03689 3.9485,-3.28027 4.9854,-4.9853 1.0368,-1.70503 2.3648,-3.10005 2.9509,-3.10005 0.5862,0 1.732,-1.59458 2.5463,-3.54351 0.8143,-1.94893 2.158,-3.80346 2.986,-4.12118 0.8279,-0.31772 2.1854,-1.89265 3.0165,-3.49985 0.8311,-1.60719 2.5648,-3.40228 3.8527,-3.98909 1.2879,-0.5868 2.8218,-2.12065 3.4086,-3.40854 0.5868,-1.2879 2.4191,-3.0409 4.0718,-3.89555 2.0936,-1.08262 3.3731,-2.78258 4.2187,-5.60482 0.6909,-2.3061 2.3824,-4.88313 3.9272,-5.9831 1.4924,-1.06271 2.9753,-2.97529 3.2953,-4.25017 0.3384,-1.34844 1.9531,-2.92158 3.8604,-3.76108 1.8032,-0.79371 3.4389,-2.30556 3.6348,-3.35967 0.1959,-1.0541 1.7713,-3.36047 3.5008,-5.12526 4.9996,-5.10153 7.6279,-9.05295 9.315,-14.00427 0.8638,-2.53501 2.3038,-4.86358 3.2,-5.17459 2.7282,-0.94669 9.2003,-7.58987 10.5853,-10.86502 0.7177,-1.69713 4.0739,-5.52213 7.4583,-8.5 4.4889,-3.94982 6.4614,-6.49623 7.2924,-9.4143 0.6265,-2.2 2.4114,-5.21213 3.9664,-6.69363 1.5549,-1.4815 2.8272,-3.4174 2.8272,-4.30202 0,-0.88461 1.3203,-2.06865 2.934,-2.63119 1.6137,-0.56254 3.6491,-2.11414 4.5231,-3.44798 0.8739,-1.33385 2.2433,-2.42518 3.0429,-2.42518 0.7996,0 2.2281,-1.2375 3.1743,-2.75 0.9462,-1.5125 2.7422,-3.875 3.9911,-5.25 4.4932,-4.94691 9.3346,-11.20647 9.3346,-12.06893 0,-0.48384 1.3091,-1.55668 2.9092,-2.38409 1.9919,-1.03009 3.4619,-3.00869 4.6625,-6.27568 0.9644,-2.62422 3.0303,-6.14272 4.5909,-7.81891 1.5605,-1.67618 2.8425,-3.47618 2.8487,-4 0.01,-0.52381 2.0593,-2.75239 4.5625,-4.95239 2.5032,-2.2 5.5356,-5.05216 6.7387,-6.33813 1.2031,-1.28598 3.4215,-3.66045 4.9298,-5.27661 1.5083,-1.61615 3.2538,-4.96997 3.8791,-7.45292 0.8407,-3.33876 1.88,-4.89881 3.9907,-5.99032 1.5697,-0.81173 3.5227,-2.70576 4.3399,-4.20895 1.7909,-3.29429 6.6639,-8.10798 9.7803,-9.66129 1.2472,-0.62167 2.8121,-2.26574 3.4776,-3.65349 0.6654,-1.38775 3.9775,-5.36044 7.3603,-8.8282 3.8815,-3.97913 6.5124,-7.64875 7.1319,-9.94756 0.5398,-2.00339 2.0796,-4.76753 3.4216,-6.14253 5.5049,-5.64003 8.6402,-10.22635 9.9374,-14.53677 1.3726,-4.5608 8.4167,-12.46323 11.1095,-12.46323 0.6925,0 1.7901,-1.0125 2.4392,-2.25 0.6491,-1.2375 2.8024,-3.85756 4.7852,-5.82236 1.9827,-1.9648 5.0881,-5.3398 6.9008,-7.5 1.8127,-2.1602 4.0282,-4.60264 4.9234,-5.42764 0.8951,-0.825 2.4693,-2.4 3.498,-3.5 1.0288,-1.1 3.9413,-4.07204 6.4721,-6.60453 7.7222,-7.7271 8.2163,-8.24819 12.2282,-12.89547 3.142,-3.63955 4.8964,-4.73837 9.1754,-5.74661 3.149,-0.74199 6.4535,-2.36117 8.1634,-4 4.6781,-4.48366 73.8597,-4.84343 78.9186,-0.41041 1.8288,1.60256 5.0904,3.75598 7.2481,4.78538 6.2334,2.97396 10.3426,37.24007 4.9865,41.58221 -5.1361,4.16376 -12.9772,13.93073 -13.7928,17.18049 -0.3619,1.44201 -1.9577,3.25104 -3.6312,4.11643 -1.642,0.84913 -2.9855,1.96226 -2.9855,2.47362 0,1.27975 -16.1221,20.01889 -17.2231,20.01889 -0.4878,0 -1.9706,2.45028 -3.295,5.44507 -1.3245,2.99478 -3.2774,5.91028 -4.3398,6.47889 -1.0625,0.5686 -2.3848,2.33342 -2.9385,3.92182 -0.6411,1.83906 -1.9483,3.12431 -3.5991,3.53863 -1.7069,0.42841 -3.0893,1.84005 -4.0474,4.13311 -0.8003,1.91536 -2.1192,3.48248 -2.9309,3.48248 -1.7214,0 -9.5996,7.93859 -9.6154,9.68918 -0.01,0.65405 -1.8108,3.26892 -4.0108,5.81082 -2.2,2.5419 -4,5.61348 -4,6.82573 0,2.55173 -2.7071,5.98742 -12.6653,16.07395 -5.2537,5.32138 -7.4682,8.38225 -8.3004,11.47289 -0.7918,2.94074 -1.8612,4.49132 -3.5368,5.12837 -1.3209,0.50223 -3.1096,2.28205 -3.9748,3.95516 -0.8652,1.67311 -6.5555,8.10494 -12.6452,14.29296 -6.0896,6.18802 -11.6768,12.4148 -12.4158,13.83729 -0.7391,1.42249 -2.8791,3.75739 -4.7556,5.18867 -2.3393,1.78426 -3.8108,4.02718 -4.6809,7.13496 -0.7635,2.72707 -1.9879,4.76078 -3.0735,5.10535 -2.3613,0.74946 -9.6979,8.10965 -10.452,10.48568 -0.3236,1.01957 -2.1434,2.77126 -4.044,3.89265 -3.0434,1.79565 -3.4557,2.52581 -3.4557,6.12036 0,2.99108 -0.6273,4.66983 -2.3479,6.28373 -1.2913,1.21124 -2.8797,3.21009 -3.5296,4.4419 -0.65,1.23181 -2.4551,2.89809 -4.0113,3.70284 -1.5562,0.80476 -3.3975,2.83441 -4.0917,4.51035 -0.6942,1.67594 -1.6727,3.04716 -2.1745,3.04716 -0.5019,0 -1.83,1.55505 -2.9513,3.45566 -1.1214,1.90061 -2.897,3.728 -3.9457,4.06085 -1.0488,0.33286 -2.6463,1.85712 -3.5502,3.38724 -0.9039,1.53012 -2.8045,3.48655 -4.2236,4.34762 -1.7231,1.04549 -2.928,3.00523 -3.6272,5.89926 -0.7779,3.21984 -1.7681,4.67784 -3.8526,5.67275 -1.5431,0.7365 -3.1826,2.31503 -3.6433,3.50785 -0.4607,1.19282 -2.0107,3.17829 -3.4444,4.41216 -1.4337,1.23386 -2.6067,2.804 -2.6067,3.4892 0,0.68521 -1.0842,2.37568 -2.4094,3.75662 -5.4735,5.70381 -8.6118,8.74209 -13.4393,13.01079 -2.9227,2.5844 -5.5889,5.98991 -6.2632,8 -0.6458,1.925 -2.4598,4.97816 -4.0312,6.7848 -1.5713,1.80663 -2.8569,3.85994 -2.8569,4.56291 0,0.70296 -1.3572,2.57837 -3.0159,4.16757 -1.6588,1.5892 -3.4675,4.56638 -4.0194,6.61594 -0.8292,3.07941 -1.6513,3.93438 -4.7341,4.92408 -5.0202,1.6115 -6.8511,3.3842 -8.82,8.5395 -0.9173,2.4021 -2.5126,4.6202 -3.5626,4.9534 -1.0457,0.3319 -2.6755,1.7851 -3.6218,3.2294 -0.9463,1.4442 -2.7344,3.6396 -3.9734,4.8787 -1.239,1.239 -2.2528,2.9162 -2.2528,3.727 0,0.8109 -1.5272,3.0936 -3.3938,5.0728 -5.3396,5.6616 -5.9831,14.7565 -1.263,17.8492 1.4073,0.9221 2.7136,3.4133 3.5779,6.8235 0.7488,2.9542 2.6478,6.8494 4.2201,8.656 2.0858,2.3965 2.8588,4.3303 2.8588,7.1512 0,3.3588 0.4596,4.1376 3.5,5.9315 3.0449,1.7965 3.5,2.5701 3.5,5.9496 0,5.5096 1.8224,10.2526 5.1397,13.3765 1.5732,1.4815 2.8603,3.4471 2.8603,4.368 0,0.9209 1.35,3.2119 3,5.0912 2.2631,2.5776 3,4.3986 3,7.4141 0,4.6369 1.9856,9.9187 4.7788,12.7119 1.0747,1.0747 2.2621,4.0082 2.6386,6.5189 0.5714,3.8105 1.2546,4.9012 4.1336,6.5999 3.1004,1.8293 3.449,2.4793 3.449,6.4312 0,3.3707 0.6938,5.2693 2.9745,8.1391 1.6359,2.0585 3.2625,5.2783 3.6145,7.155 0.3521,1.8767 1.7287,4.2684 3.0591,5.315 1.3305,1.0465 3.1485,4.0761 4.0402,6.7324 0.8916,2.6563 2.9015,6.3079 4.4664,8.1145 2.1766,2.5128 2.8453,4.2953 2.8453,7.5847 0,3.517 0.5462,4.7866 3,6.9729 2.4914,2.2199 3,3.4346 3,7.1653 0,4.5161 1.2754,6.6032 5.5456,9.0747 1.4954,0.8655 1.9489,2.5685 2.2636,8.5 0.3172,5.9781 0.8356,7.9028 2.6715,9.9176 1.2529,1.375 2.8366,4.3 3.5193,6.5 0.6827,2.2 2.2558,5.125 3.4959,6.5 1.24,1.375 2.6792,3.8306 3.1983,5.4568 0.519,1.6263 2.2627,3.6862 3.8747,4.5775 2.4051,1.3298 3.0274,2.4441 3.4679,6.2102 0.3743,3.2012 1.257,5.1728 2.9176,6.5175 2.555,2.0689 5.0057,8.803 5.0304,13.8227 0.011,2.1548 0.9196,3.8905 3.0152,5.7577 2.6365,2.3491 3,3.3307 3,8.1002 0,6.3681 1.235,10.1081 4.4769,13.5574 1.2923,1.375 2.8368,4.341 3.4322,6.5912 0.5953,2.2502 1.9646,4.8895 3.0427,5.8652 1.0781,0.9756 2.2591,3.7669 2.6243,6.2027 0.4678,3.1191 1.3961,4.9333 3.1393,6.1348 6.9296,4.7765 11.2846,11.4822 11.2846,17.3757 0,5.8541 1.7987,10.4603 5.3711,13.7547 1.8603,1.7155 2.6289,3.4312 2.6289,5.868 0,2.4003 0.9089,4.4789 3,6.8605 10.2123,11.6311 1.4279,50.3472 -11.4234,50.3472 -4.6417,0 -10.2016,2.3149 -12.5602,5.2295 -3.3051,4.0843 -59.5261,4.0179 -64.1885,-0.076 -1.8359,-1.612 -5.7572,-3.6493 -8.714,-4.5273 -2.9568,-0.8781 -6.3296,-2.4759 -7.495,-3.5506 -12.9133,-11.9082 -12.6189,-11.5251 -12.6189,-16.4253 0,-3.8553 -0.4885,-5.0704 -2.9036,-7.2223 -1.6439,-1.4647 -3.1838,-4.0804 -3.5493,-6.0291 -0.3552,-1.8931 -1.9977,-4.9817 -3.6501,-6.8637 -1.7184,-1.9572 -3.2509,-5.0511 -3.5806,-7.2286 -0.3169,-2.0938 -1.6691,-4.9839 -3.0047,-6.4226 -1.737,-1.8708 -2.5936,-4.2151 -3.0082,-8.2327 -0.5214,-5.0521 -0.9178,-5.8165 -3.9416,-7.6006 -2.9431,-1.7365 -3.3619,-2.4922 -3.3619,-6.0668 0,-3.3135 -0.6598,-4.7627 -3.5,-7.6872 -2.797,-2.88 -3.5,-4.3945 -3.5,-7.5406 0,-3.1226 -0.6205,-4.4813 -3,-6.5693 -2.4296,-2.1319 -3,-3.4225 -3,-6.7873 0,-4.2085 -1.0436,-5.7448 -5.3567,-7.8856 -1.7061,-0.8468 -2.2475,-2.2292 -2.6543,-6.7774 -0.3907,-4.3691 -1.0217,-6.0714 -2.6814,-7.2339 -1.1937,-0.8361 -3.1139,-4.0419 -4.267,-7.1239 -1.1531,-3.0821 -3.0057,-6.3407 -4.1167,-7.2414 -1.2792,-1.037 -2.2816,-3.4683 -2.7332,-6.6295 -0.5866,-4.1064 -1.1989,-5.2247 -3.4519,-6.3046 -2.0525,-0.9837 -2.7388,-2.0384 -2.7388,-4.2088 0,-6.2353 -2.2262,-13.3138 -5.0033,-15.9089 -1.522,-1.4222 -3.0614,-3.558 -3.4209,-4.7463 -0.3596,-1.1883 -1.7612,-2.8862 -3.1148,-3.7731 -2.2659,-1.4847 -2.461,-2.2298 -2.461,-9.3983 0,-8.2415 -0.5774,-9.6173 -5.25,-12.5111 -2.2458,-1.3909 -2.75,-2.4248 -2.75,-5.6396 0,-2.9918 -0.6479,-4.5373 -2.6999,-6.44 -1.9389,-1.7978 -2.855,-3.831 -3.25,-7.213 -0.4587,-3.9268 -1.0487,-4.9834 -3.5501,-6.3575 -2.33,-1.2799 -3.4504,-3.0488 -5.0169,-7.9204 -1.1092,-3.4498 -2.7594,-6.8154 -3.6671,-7.4791 -0.9076,-0.6636 -1.9356,-2.9843 -2.2844,-5.157 -1.3301,-8.2844 -2.8249,-12.4125 -5.0137,-13.8467 -1.6171,-1.0596 -2.3895,-2.7722 -2.7691,-6.1396 -1.3503,-11.9805 -8.7366,-11.62 -19.2488,0.9394 -4.4,5.2569 -8.3429,9.5666 -8.7621,9.5772 -3.0484,0.077 -12.6305,12.0424 -12.924,16.1384 -0.276,3.8518 -0.705,4.553 -3.5522,5.8063 -1.7811,0.784 -3.5202,2.359 -3.8647,3.5 -0.3446,1.141 -1.8928,3.2575 -3.4405,4.7032 -1.5477,1.4457 -3.3319,4.5517 -3.9648,6.9024 -1.163,4.3188 -7.4337,11.3397 -11.1941,12.5332 -0.9887,0.3138 -1.7976,1.007 -1.7976,1.5405 0,0.857 -2.3136,3.4515 -11.5326,12.933 -1.3571,1.3957 -2.4674,3.0682 -2.4674,3.7166 0,0.6485 -1.575,2.754 -3.5,4.679 -1.925,1.925 -3.5,3.9206 -3.5,4.4346 0,0.514 -1.483,1.8095 -3.2954,2.8789 -2.3161,1.3665 -3.664,3.1742 -4.5353,6.0825 -0.6819,2.2759 -2.1193,4.6087 -3.1942,5.184 -1.0749,0.5753 -2.6291,2.3508 -3.4538,3.9455 -0.8246,1.5947 -2.4092,3.1882 -3.5213,3.5412 -1.1121,0.353 -2.6531,1.8473 -3.4245,3.3209 -0.7714,1.4735 -4.391,5.8291 -8.0435,9.6791 -10.271,10.8264 -10.4407,11.0394 -12.4949,15.6833 -1.0634,2.4038 -3.0817,5.4494 -4.4852,6.768 -1.4036,1.3185 -2.5519,3.1404 -2.5519,4.0487 0,0.9083 -1.0764,2.6626 -2.3919,3.8985 -1.3156,1.2359 -3.1143,4.1268 -3.9971,6.4243 -0.9996,2.6013 -2.7446,4.8236 -4.6255,5.8907 -1.6611,0.9424 -3.304,2.5174 -3.6509,3.5 -0.8403,2.3802 -7.6077,9.6327 -13.8154,14.8057 -7.5492,6.2911 -13.0094,12.2993 -13.9926,15.397 -0.3638,1.1461 -1.0962,2.0838 -1.6277,2.0838 -0.5315,0 -1.9053,1.5914 -3.053,3.5366 -1.1476,1.9451 -3.3783,4.2045 -4.9571,5.0209 -2.1156,1.094 -3.1644,2.6513 -3.9878,5.9214 -0.6145,2.4403 -2.5311,5.987 -4.2591,7.8815 -1.7281,1.8945 -4.2669,4.9462 -5.6419,6.7814 -1.375,1.8352 -4.1779,4.9511 -6.2286,6.9241 -2.0507,1.973 -4.4067,5.2103 -5.2355,7.1938 -0.8288,1.9836 -2.3922,4.2267 -3.4744,4.9846 -1.0821,0.758 -2.4305,2.5961 -2.9965,4.0848 -0.566,1.4887 -2.2178,3.1587 -3.6706,3.7111 -1.4529,0.5523 -3.478,2.0677 -4.5004,3.3674 -1.0224,1.2998 -3.4514,2.662 -5.3978,3.0271 -1.9464,0.3652 -4.9918,1.9274 -6.7676,3.4716 -1.7757,1.5442 -4.9936,3.3824 -7.1509,4.0851 -2.1573,0.7026 -5.0128,2.4545 -6.3455,3.893 -4.882,5.2698 -84.0159,4.4662 -86.22855,-0.8756 -0.67031,-1.6183 -2.07052,-3.2126 -3.11157,-3.5431 -10.97842,-3.4844 -17.04464,-45.7434 -7.02299,-48.9242 2.56825,-0.8151 10.13091,-8.3729 10.13091,-10.1244 0,-0.7411 1.40715,-2.9502 3.12701,-4.909 1.71985,-1.9588 3.68724,-5.2369 4.37198,-7.2848 0.86254,-2.5796 2.21488,-4.1666 4.40241,-5.1664 1.73659,-0.7937 3.41203,-2.4575 3.72321,-3.6974 0.31118,-1.2398 1.61382,-2.9409 2.89474,-3.7802 1.28093,-0.8393 2.65125,-2.5415 3.04516,-3.7826 0.39391,-1.2411 1.89054,-3.4802 3.32585,-4.9759 1.4353,-1.4956 3.36704,-3.5297 4.29276,-4.5201 0.92571,-0.9904 3.54331,-3.1507 5.81688,-4.8007 7.03611,-5.1063 12.14293,-11.2797 14.0628,-17 0.7384,-2.2 2.2944,-5.125 3.4578,-6.5 1.1633,-1.375 2.8825,-3.7375 3.8203,-5.25 0.9379,-1.5125 2.2768,-2.75 2.9754,-2.75 1.0795,0 3.6627,-2.5772 12.0276,-12 0.7324,-0.825 2.0985,-1.95 3.0359,-2.5 0.9373,-0.55 2.3868,-2.9957 3.221,-5.435 0.8343,-2.4392 2.8403,-5.9423 4.458,-7.7848 1.6177,-1.8424 2.9412,-3.7596 2.9412,-4.2604 0,-0.5009 1.2243,-1.4977 2.7207,-2.2152 1.4964,-0.7175 3.2294,-2.3251 3.8511,-3.5723 1.3643,-2.7373 6.879,-8.1806 10.7319,-10.5932 1.5421,-0.9656 3.0699,-2.5169 3.3952,-3.4474 0.6559,-1.8763 2.7753,-4.3806 8.9301,-10.5518 2.2709,-2.2769 4.7051,-5.9388 5.4092,-8.1375 0.7042,-2.1986 2.4461,-5.1818 3.8711,-6.6293 1.4249,-1.4475 3.9407,-4.5162 5.5907,-6.8194 1.65,-2.3031 3.675,-4.8337 4.5,-5.6235 0.825,-0.7898 3.6652,-3.4609 6.3116,-5.9359 3.0999,-2.899 5.3629,-6.1175 6.361,-9.0467 0.9217,-2.7051 2.6182,-5.2262 4.1883,-6.2241 1.4515,-0.9225 2.9253,-2.1377 3.2751,-2.7004 2.9699,-4.7774 16.3777,-19.2208 25.5743,-27.5496 4.7074,-4.2632 8.1014,-9.2293 9.3463,-13.6757 0.8695,-3.1053 2.0952,-4.7798 4.566,-6.2376 1.8575,-1.096 3.3774,-2.6319 3.3774,-3.413 0,-0.7811 4.5033,-6.048 10.0074,-11.7042 7.3541,-7.5574 10.2844,-11.313 11.0524,-14.165 0.5748,-2.1346 1.7131,-4.1374 2.5296,-4.4507 0.8165,-0.3133 2.2061,-1.9776 3.088,-3.6985 0.8819,-1.7208 2.4357,-4.0288 3.453,-5.1288 4.8269,-5.2193 6.993,-7.2241 10.8047,-10 6.5966,-4.8042 7.0649,-5.4339 7.0649,-9.5 0,-3.8933 1.985,-7 4.4727,-7 0.7313,0 2.2774,-1.4625 3.4356,-3.25 4.4542,-6.8744 7.2259,-10.1534 10.0173,-11.8509 1.5927,-0.9686 3.1782,-2.6507 3.5232,-3.7379 0.5221,-1.6448 6.0745,-7.1786 11.3012,-11.2632 1.3607,-1.0634 1.7563,-13.6503 0.4847,-15.4211 -0.4041,-0.5627 -1.9567,-1.8004 -3.4503,-2.7505 -2.1434,-1.3634 -2.8542,-2.7718 -3.3731,-6.6833 -0.3852,-2.9039 -1.4363,-5.6607 -2.5386,-6.6583 -1.0346,-0.9363 -2.3605,-3.48268 -2.9464,-5.65856 -0.5859,-2.17588 -2.1895,-5.08039 -3.5636,-6.45446 -3.0302,-3.03021 -4.3627,-6.30494 -4.3627,-10.72187 0,-2.40297 -0.6644,-3.75521 -2.4055,-4.89606 -1.6127,-1.05667 -2.6369,-2.94563 -3.1076,-5.73114 -0.4457,-2.63829 -1.9403,-5.52567 -4.0944,-7.91004 -3.1935,-3.53478 -3.3925,-4.17658 -3.3925,-10.94024 0,-6.6164 -0.2269,-7.3984 -2.867,-9.8788 -1.8454,-1.73388 -3.0836,-4.11884 -3.475,-6.69363 -0.4153,-2.73202 -1.5464,-4.79249 -3.5684,-6.5 -1.7677,-1.49283 -3.4018,-4.20104 -4.0561,-6.72232 -0.6026,-2.32228 -2.4317,-5.68507 -4.0646,-7.47286 -1.6329,-1.7878 -2.9689,-3.91633 -2.9689,-4.73007 0,-0.81375 -1.2898,-2.85096 -2.8663,-4.52714 -2.9613,-3.1486 -5.1337,-9.86643 -5.1337,-15.87542 0,-2.53741 -0.6358,-3.85877 -2.4189,-5.02712 -1.7882,-1.17164 -2.6357,-2.94082 -3.25,-6.78434 -0.6918,-4.32769 -1.3341,-5.47713 -3.8311,-6.85603 -2.6618,-1.46987 -3.0579,-2.29911 -3.5139,-7.35483 -0.4136,-4.58595 -1.0324,-6.13265 -3.1705,-7.92403 -1.4612,-1.22421 -2.9575,-3.70799 -3.3252,-5.51951 -0.4809,-2.36958 -1.7658,-3.98634 -4.5794,-5.76254 -2.1511,-1.35788 -3.911,-2.96633 -3.911,-3.57432 0,-0.60799 -1.35,-2.64301 -3,-4.52225 -2.3643,-2.69277 -3,-4.35227 -3,-7.83133 0,-3.52819 -0.5711,-4.97683 -2.8443,-7.2152 -1.5643,-1.54038 -3.3845,-4.72029 -4.0448,-7.06647 -0.8814,-3.13139 -2.1859,-4.90984 -4.9058,-6.68772 -2.0378,-1.33207 -5.0551,-4.04061 -6.7051,-6.01897 -1.65,-1.97837 -4.2027,-4.85439 -5.6726,-6.39117 -1.4699,-1.53679 -2.9827,-4.44733 -3.3618,-6.46788 -0.379,-2.02056 -1.8095,-4.68505 -3.1787,-5.92111 -4.4128,-3.9835 -5.7398,-5.47443 -8.2869,-9.31083 -1.375,-2.07101 -3.9625,-5.18591 -5.75,-6.92201 -1.7875,-1.7361 -3.25,-3.93505 -3.25,-4.88656 0,-1.02852 -1.4046,-2.3169 -3.4639,-3.17735 -1.9052,-0.79603 -3.9183,-2.2963 -4.4737,-3.33394 -0.5553,-1.03764 -2.1408,-2.17053 -3.5234,-2.51753 -1.3825,-0.347 -3.2303,-1.72451 -4.106,-3.06113 -0.9247,-1.41123 -3.6635,-3.11815 -6.5319,-4.07086 -3.5467,-1.17804 -5.3642,-2.46204 -6.446,-4.55389 -0.8285,-1.6023 -1.9023,-2.91327 -2.3862,-2.91327 -1.3802,0 -9.7553,-7.01089 -14.0364,-11.75 -1.3504,-1.49495 -3.1753,-2.25 -5.4379,-2.25 -2.4121,0 -4.5994,-0.99761 -7.4993,-3.4204 -2.2517,-1.88122 -5.5568,-3.71697 -7.3446,-4.07944 -1.7879,-0.36248 -4.2167,-1.80989 -5.3974,-3.21647 -1.6676,-1.98664 -3.3415,-2.66704 -7.5,-3.04856 -4.4681,-0.40993 -5.8717,-1.04872 -8.48817,-3.86314 C 996.11432,701.95093 994.36158,701 992.14993,701 c -2.01783,0 -4.29656,-1.06786 -6.60632,-3.09585 -2.78669,-2.44675 -4.85918,-3.26119 -9.88458,-3.88443 -6.69586,-0.8304 -9.48813,-1.90394 -11.61372,-4.46512 -1.33056,-1.60323 -7.65043,-2.12025 -9.64791,-0.78929 -0.60644,0.40408 -1.42111,3.18523 -1.8104,6.18034 -0.54942,4.22717 -1.47741,6.29753 -4.1474,9.25288 -2.01024,2.2251 -3.4396,4.85879 -3.4396,6.33768 0,1.54013 -1.31917,3.84963 -3.37071,5.90116 -1.93066,1.93067 -3.64973,4.85804 -4.02382,6.85211 C 936.97638,726.64283 928.52135,736 926.12039,736 c -0.53091,0 -1.45685,1.4625 -2.05765,3.25 -1.78559,5.31247 -7.79797,10.39078 -13.22972,11.17438 -3.39991,0.49048 -5.10303,1.33875 -6.27305,3.12444 -1.5868,2.42176 -1.78661,2.45118 -16.64876,2.45118 -16.37486,0 -18.17667,0.45414 -19.75401,4.97889 -1.5879,4.55506 -32.01437,4.792 -34.81418,0.27111 C 829.94097,755.75664 832.83669,756 770.87397,756 713.83951,756 708,756.30786 708,759.31473 c 0,2.9798 -5.35446,4.07282 -22.68817,4.63139 -17.05804,0.54969 -17.20987,0.5747 -20.05472,3.30388 -2.70255,2.59267 -3.39246,2.75 -12.05895,2.75 -9.10101,0 -9.23091,0.0348 -13.06648,3.5 -3.23353,2.9213 -4.62762,3.5 -8.43145,3.5 -4.27251,0 -7.70023,1.78058 -7.70023,4 0,2.34785 -3.4334,4 -8.31257,4 -7.06746,0 -19.07267,5.79775 -20.50336,9.90181 -0.78113,2.24075 -1.92886,3.0483 -5.67196,3.99082 -2.77357,0.6984 -5.7804,2.3464 -7.3524,4.02975 -1.46284,1.56647 -3.67269,3.15524 -4.91077,3.5306 -1.23809,0.37536 -2.6963,1.51441 -3.24048,2.53122 -0.54418,1.01681 -3.27955,2.6094 -6.0786,3.5391 -3.3654,1.1178 -5.65496,2.61673 -6.75952,4.42531 -0.91869,1.50423 -3.92034,4.61397 -6.67034,6.91054 -2.75,2.29657 -5.30477,4.50527 -5.67727,4.90822 -1.13223,1.22477 -6.17075,6.11079 -8.82273,8.55568 -1.375,1.26763 -3.7375,3.07389 -5.25,4.01392 -1.5125,0.94002 -2.75,2.31202 -2.75,3.04887 0,0.73685 -2.925,4.3376 -6.5,8.00166 -5.82068,5.96569 -6.5,7.08273 -6.5,10.68825 0,3.62874 -0.33362,4.1657 -3.37871,5.43802 -3.93078,1.64238 -4.62129,3.01209 -4.62129,9.16681 0,3.72946 -0.52305,5.0056 -3,7.31942 -2.20374,2.0586 -3,3.71135 -3,6.2269 0,2.37109 -0.77863,4.15596 -2.53128,5.80249 -1.40134,1.31648 -3.23542,4.85385 -4.10867,7.92431 -0.86757,3.05047 -2.8215,6.8963 -4.34209,8.5463 -2.20051,2.38779 -2.89374,4.3165 -3.39703,9.45123 -0.47349,4.83073 -1.22819,7.09146 -3.00444,9 -3.59833,3.86631 -4.61647,6.45381 -4.61672,11.73303 -1.6e-4,3.43071 -0.85156,6.39756 -2.96032,10.31574 -2.82799,5.25454 -2.96186,6.06746 -2.99977,18.2152 -0.0391,12.52346 -0.0827,12.76474 -2.89303,16 -4.77508,5.49711 -5.14665,6.95435 -5.14665,20.1846 0,12.5312 0,12.5312 -3,15.6002 -3,3.069 -3,3.069 -3,24.0253 0,20.9563 0,20.9563 -3.44818,23.2155 -4.47755,2.9336 -4.52214,3.17 -4.53817,24.0569 -0.0136,17.7708 -0.0175,17.8014 -2.55586,20.1538 -6.77872,6.2823 -6.80156,82.4723 -0.0261,86.9118 2.25995,1.4808 2.41343,2.2179 2.73138,13.1188 0.33689,11.5498 0.33689,11.5498 4.08689,14.9829 3.65081,3.3422 3.75,3.6186 3.75,10.4492 0,6.2914 0.29599,7.3556 2.86508,10.301 1.57579,1.8066 3.16918,4.2597 3.54086,5.4512 0.37168,1.1915 2.00997,2.6315 3.64065,3.2 1.63068,0.5685 3.36455,2.0686 3.85304,3.3336 0.4885,1.265 2.06092,3.3909 3.49427,4.7243 1.43336,1.3334 2.6061,2.9764 2.6061,3.6512 0,0.6748 1.4625,2.1746 3.25,3.3328 6.91574,4.481 10.15799,7.2335 11.90523,10.1066 0.99845,1.6418 2.27608,2.9851 2.83917,2.9851 0.56309,0 2.43645,1.35 4.16302,3 2.35509,2.2507 4.08345,3 6.91947,3 3.50895,0 6.92311,1.9726 6.92311,4 0,2.7451 3.41866,4 10.89711,4 6.87525,0 8.00787,0.27 9.99146,2.3814 2.26708,2.4132 2.76077,2.5251 19.4407,4.4069 5.58605,0.6302 7.1685,1.2202 8.69269,3.2411 1.86341,2.4706 1.86341,2.4706 89.35953,2.7367 105.77338,0.3217 98.61851,2.5844 98.61851,-31.1886 0,-20.5957 0,-20.5957 3,-23.7349 3,-3.1392 3,-3.1392 3,-20.9515 0,-13.023 0.33609,-18.0946 1.25,-18.8626 0.6875,-0.5776 2.4875,-1.978 4,-3.112 2.75,-2.0617 2.75,-2.0617 2.75,-17.1746 0,-14.1001 0.14446,-15.2668 2.1555,-17.4074 2.86135,-3.0458 3.96415,-9.1361 4.52835,-25.0084 0.51797,-14.5718 1.0421,-13.0819 -6.79825,-19.3261 -1.72647,-1.375 -4.21724,-3.625 -5.53504,-5 -1.31781,-1.375 -2.94829,-3.0702 -3.62329,-3.7672 -7.36749,-7.6071 -11.82545,-9.5151 -23.44727,-10.035 -9.39604,-0.4204 -10.34522,-0.6484 -11.77306,-2.8275 -1.38828,-2.1188 -2.29324,-2.3703 -8.52999,-2.3703 -7.71348,0 -7.02156,0.4373 -14.93265,-9.438 -2.45064,-3.0591 -5.02248,-5.562 -5.71521,-5.562 -0.69272,0 -2.73766,-1.2973 -4.54429,-2.8829 -1.80664,-1.5856 -4.97979,-3.5908 -7.05145,-4.4559 -2.96048,-1.2364 -4.20489,-2.5991 -5.81429,-6.3671 -1.12621,-2.6368 -3.08249,-5.9191 -4.34729,-7.2941 -1.2648,-1.375 -2.82223,-4.0622 -3.46094,-5.9716 -0.63872,-1.9094 -2.38745,-4.7502 -3.88607,-6.3128 -2.60784,-2.7192 -2.73911,-3.3547 -3.05925,-14.8107 -0.3179,-11.3761 -0.45423,-12.048 -2.75,-13.5522 -3.09151,-2.0257 -3.06429,-4.3946 0.0845,-7.3527 1.98677,-1.8665 2.5,-3.3246 2.5,-7.1029 0,-8.6609 -11.947,-7.8971 123.5307,-7.8971 120.38784,0 120.38784,0 123.4754,2.75 13.68578,12.1895 13.06742,10.2572 12.76097,39.8778 -0.26707,25.8142 -0.26707,25.8142 -2.75004,27.0516 -4.84103,2.4124 -5.01703,3.3291 -5.01703,26.1297 0,21.4269 0,21.4269 -3,24.8437 -2.96091,3.3723 -3,3.5665 -3,14.9034 0,11.4867 0,11.4867 -2.75,12.6949 -4.18204,1.8374 -4.21831,2.0169 -4.23469,20.9641 -0.0153,17.7152 -0.0153,17.7152 -3.26531,21.4123 -3.25,3.6971 -3.25,3.6971 -3.75,20.4719 -0.49594,16.6388 -0.52231,16.7982 -3.25,19.6425 -2.67883,2.7933 -2.75,3.1693 -2.75,14.528 0,11.4161 -0.0603,11.7294 -2.87583,14.9453 -3.41735,3.9033 -4.06921,7.3925 -4.76827,25.523 -0.48939,12.6928 -0.61484,13.3203 -3.04469,15.2316 -3.68658,2.8999 -5.21762,8.3231 -5.26732,18.6578 -0.0329,6.844 -0.41836,9.4383 -1.54073,10.3698 -2.99674,2.4871 -4.50316,10.8658 -4.50316,25.0466 0,13.6694 -0.003,13.6842 -2.97445,17.4239 -1.63595,2.0585 -3.18744,5.1579 -3.44776,6.8875 -0.26032,1.7295 -0.73949,5.1344 -1.06483,7.5663 -0.37919,2.8346 -1.45022,5.2176 -2.98374,6.6388 -1.31573,1.2194 -2.92041,4.1796 -3.56596,6.5783 -1.48842,5.5305 -6.26989,10.2259 -13.02858,12.794 -2.8679,1.0897 -6.31265,3.0131 -7.65499,4.2743 -2.94573,2.7674 -294.8791,4.2687 -298.61685,1.5356 z"
     id="path1" />
</svg>
