<?xml version="1.0" encoding="UTF-8" standalone="no"?>
<!-- Created with Inkscape (http://www.inkscape.org/) -->

<svg
   version="1.1"
   id="svg1"
   width="1600"
   height="1600"
   viewBox="0 0 1600 1600"
   sodipodi:docname="githubLogoNegro.svg"
   inkscape:version="1.4.2 (f4327f4, 2025-05-13)"
   xmlns:inkscape="http://www.inkscape.org/namespaces/inkscape"
   xmlns:sodipodi="http://sodipodi.sourceforge.net/DTD/sodipodi-0.dtd"
   xmlns="http://www.w3.org/2000/svg"
   xmlns:svg="http://www.w3.org/2000/svg">
  <defs
     id="defs1" />
  <sodipodi:namedview
     id="namedview1"
     pagecolor="#505050"
     bordercolor="#ffffff"
     borderopacity="1"
     inkscape:showpageshadow="0"
     inkscape:pageopacity="0"
     inkscape:pagecheckerboard="1"
     inkscape:deskcolor="#505050"
     inkscape:zoom="0.509375"
     inkscape:cx="800"
     inkscape:cy="800"
     inkscape:window-width="1920"
     inkscape:window-height="1017"
     inkscape:window-x="-8"
     inkscape:window-y="-8"
     inkscape:window-maximized="1"
     inkscape:current-layer="svg1" />
  <path
     style="fill:#000000"
     d="m 572,1526.5027 c -10.93575,-3.485 -24.72869,-8.2965 -28.35096,-9.8898 -1.73197,-0.7619 -5.84904,-2.3757 -9.14904,-3.5864 -3.3,-1.2107 -7.83332,-3.0539 -10.07405,-4.0961 -2.24073,-1.0422 -5.84073,-2.5252 -8,-3.2954 -2.15927,-0.7703 -6.40095,-2.5325 -9.42595,-3.916 -3.025,-1.3836 -7.3,-3.2545 -9.5,-4.1576 -7.82743,-3.213 -9.5,-4.0591 -9.5,-4.8055 0,-0.4158 -0.5625,-0.747 -1.25,-0.7362 -1.23348,0.019 -37.78067,-17.9849 -38.75,-19.0895 -0.46413,-0.5289 -3.78613,-2.4093 -18,-10.1888 -3.025,-1.6556 -7.38108,-4.2997 -9.68018,-5.8758 -2.29909,-1.5761 -4.57007,-2.8656 -5.0466,-2.8656 -0.47654,0 -1.74546,-0.6772 -2.81983,-1.505 -3.22359,-2.4836 -18.54024,-12.495 -19.11632,-12.495 -0.29422,0 -5.24372,-3.375 -10.99891,-7.5 -5.75518,-4.125 -10.6928,-7.5 -10.97249,-7.5 -0.27969,0 -1.09625,-0.5625 -1.81457,-1.25 -0.71832,-0.6875 -2.32157,-1.925 -3.56277,-2.75 -4.41591,-2.9352 -25.49403,-19.4318 -25.82166,-20.2091 -0.18334,-0.435 -0.77905,-0.7909 -1.32382,-0.7909 -3.84122,0 -74.31464,-65.3648 -85.84285,-79.6202 -1.375,-1.7002 -7.27448,-8.4438 -13.10995,-14.9856 -12.7584,-14.3027 -23.69126,-27.3997 -26.39005,-31.6137 -0.55,-0.8589 -4.73045,-6.4483 -9.28989,-12.421 -9.34558,-12.2424 -22.00055,-29.8414 -23.62995,-32.8617 -0.59409,-1.1012 -3.69823,-6.0512 -6.8981,-11 C 164.29682,1202.983 155,1187.979 155,1187.3472 c 0,-0.3221 -1.6859,-3.3444 -3.74644,-6.7164 C 144.27643,1169.2132 117,1114.927 117,1112.4586 c 0,-0.3203 -1.09039,-2.9171 -2.42309,-5.7705 -3.21913,-6.8925 -9.1025,-21.5106 -12.1498,-30.1881 -1.35203,-3.85 -3.082135,-8.35 -3.844687,-10 -0.762551,-1.65 -2.64493,-7.275 -4.183064,-12.5 -1.538134,-5.225 -3.056986,-9.725 -3.375226,-10 -0.608312,-0.5257 -2.922142,-8.0638 -5.064644,-16.5 -0.698407,-2.75 -1.597682,-5.45 -1.998387,-6 -0.400706,-0.55 -1.915173,-5.95 -3.365484,-12 -1.45031,-6.05 -3.065857,-11.9 -3.590103,-13 -0.888941,-1.86522 -4.737316,-19.05708 -8.953945,-40 -0.996629,-4.95 -2.358637,-13.05 -3.026683,-18 -0.668047,-4.95 -1.610195,-9.9 -2.093662,-11 -1.332096,-3.03083 -4.77665,-34.71943 -5.978505,-55 -0.586687,-9.9 -1.491058,-19.38195 -2.009712,-21.071 -1.170613,-3.81222 -1.265072,-83.11192 -0.09986,-83.83206 0.463732,-0.2866 1.134237,-6.59059 1.490011,-14.00885 0.355774,-7.41827 1.102832,-17.89783 1.660129,-23.28792 2.499512,-24.1749 4.362926,-38.8776 5.044254,-39.80017 0.406183,-0.55 1.04295,-3.475 1.415039,-6.5 1.261786,-10.25803 4.655074,-29.49009 5.557835,-31.5 0.49407,-1.1 2.085942,-8.03601 3.537493,-15.41336 1.451552,-7.37735 3.021456,-14.12735 3.488676,-15 0.467219,-0.87265 2.019833,-6.53664 3.450253,-12.58664 1.430419,-6.05 2.98279,-11.70411 3.449712,-12.5647 0.466923,-0.86058 2.050161,-5.97394 3.518308,-11.36302 1.468147,-5.38908 3.098304,-10.53496 3.622572,-11.4353 0.524267,-0.90034 2.277653,-6.01919 3.896412,-11.37522 1.618759,-5.35603 3.372062,-10.53957 3.896229,-11.51899 0.524168,-0.97942 1.933247,-4.69721 3.131287,-8.26176 2.4031,-7.14999 7.93741,-20.71865 11.62252,-28.49536 1.30686,-2.7579 2.37612,-5.38128 2.37612,-5.82973 0,-0.44846 1.96823,-4.97118 4.37384,-10.05048 2.40562,-5.07931 4.71627,-10.33093 5.13478,-11.67027 0.41852,-1.33934 1.05077,-2.66017 1.405,-2.93517 0.35424,-0.275 2.16966,-3.875 4.03427,-8 1.86462,-4.125 3.65164,-7.725 3.97116,-8 0.31952,-0.275 1.93095,-3.38795 3.58095,-6.91767 1.65,-3.52972 3.45,-6.90472 4,-7.5 0.55,-0.59528 2.01803,-3.10733 3.26228,-5.58233 4.02373,-8.00379 11.99555,-21.79227 19.94619,-34.5 2.40877,-3.85 4.92227,-7.89607 5.58555,-8.99126 4.09318,-6.75848 20.01628,-30.29482 25.13113,-37.14695 3.34117,-4.47601 6.74985,-9.14889 7.57485,-10.38417 0.825,-1.23529 2.19778,-2.97309 3.05062,-3.8618 0.85284,-0.8887 2.25589,-2.74082 3.1179,-4.11582 2.28051,-3.63768 25.65729,-31.99056 35.81839,-43.44291 10.94822,-12.33947 45.20659,-46.60086 59.06061,-59.0658 10.77103,-9.69107 39.92162,-33.8057 43.78984,-36.22486 1.46445,-0.91586 3.38976,-2.36297 4.27846,-3.21581 0.88871,-0.85284 2.62651,-2.22562 3.8618,-3.05062 1.23528,-0.825 5.90816,-4.23419 10.38417,-7.57598 6.82172,-5.09309 31.11733,-21.50138 36.90478,-24.92402 0.93001,-0.55 4.96299,-3.06398 8.96218,-5.58663 12.40992,-7.82805 26.48927,-15.9875 34.77125,-20.15109 2.475,-1.24425 4.725,-2.50908 5,-2.81073 0.275,-0.30165 3.65,-2.10165 7.5,-4 3.85,-1.89835 7.225,-3.71298 7.5,-4.0325 0.275,-0.31952 3.875,-2.10654 8,-3.97116 4.125,-1.86461 7.725,-3.68003 8,-4.03427 0.275,-0.35423 1.625,-0.98795 3,-1.40826 1.375,-0.42031 5.425,-2.19171 9,-3.93643 3.575,-1.74473 9.2,-4.23507 12.5,-5.53408 3.3,-1.29902 6.46103,-2.70916 7.02452,-3.13366 0.56348,-0.4245 3.26348,-1.52618 6,-2.44817 2.73651,-0.922 6.77548,-2.55425 8.97548,-3.62723 2.2,-1.07297 7.24852,-3.02441 11.21894,-4.33652 3.97042,-1.31211 8.13821,-2.877636 9.26176,-3.478943 1.12356,-0.601307 6.42503,-2.434907 11.78106,-4.074667 5.35603,-1.63976 11.08824,-3.595885 12.73824,-4.346943 1.65,-0.751059 6.15,-2.132117 10,-3.069018 3.85,-0.936902 8.35,-2.301935 10,-3.033406 1.65,-0.731472 7.95,-2.523647 14,-3.982611 6.05,-1.458965 11.9,-3.034605 13,-3.501423 2.42512,-1.029174 13.63085,-3.553025 22.5,-5.067641 3.575,-0.610516 6.95,-1.460206 7.5,-1.8882 0.89631,-0.69748 18.89502,-3.861702 32,-5.625687 2.75,-0.370161 5.45,-1.011709 6,-1.425663 1.9328,-1.45471 57.41223,-6.979693 70.19098,-6.99005 C 764.09602,56.002258 767.16008,55.55 767.5,55 c 0.79161,-1.280856 81.8235,-1.36835 84.26357,-0.09098 0.95504,0.499959 9.83643,1.392601 19.73643,1.983649 20.96822,1.25184 53.10796,4.727513 56,6.055982 1.1,0.50529 4.7,1.214544 8,1.57612 10.63403,1.165155 57.2638,10.703097 61,12.477318 1.1,0.522361 6.725,2.084591 12.5,3.471624 5.775,1.387032 11.4,2.942026 12.5,3.455543 1.1,0.513516 6.5,2.162226 12,3.6638 5.5,1.501574 10.225,3.018037 10.5,3.369917 0.275,0.351879 4.775,1.901842 10,3.44436 5.225,1.542518 11.3,3.599429 13.5,4.570913 2.2,0.971484 6.475,2.564687 9.5,3.540457 3.025,0.97577 7.75,2.78573 10.5,4.02213 2.75,1.2364 7.239,2.99962 9.9755,3.91827 2.7365,0.91865 5.4376,2.05383 6.0025,2.52262 0.5648,0.46879 3.5009,1.80719 6.5245,2.97422 3.0236,1.16703 8.6475,3.63393 12.4975,5.48201 15.4226,7.40313 40.3955,19.89512 47,23.51036 3.85,2.10746 9.475,5.16004 12.5,6.78352 3.025,1.62347 9.819,5.72296 15.0978,9.10997 5.2787,3.38701 9.8963,6.1582 10.2613,6.1582 0.3649,0 3.3005,1.8 6.5235,4 3.223,2.2 6.1751,4 6.5601,4 0.3851,0 1.3274,0.5625 2.094,1.25 3.0635,2.74727 4.4085,3.75 5.0301,3.75 0.3582,0 4.6363,2.925 9.507,6.5 4.8707,3.575 9.1157,6.5 9.4332,6.5 0.3176,0 1.1209,0.4515 1.7852,1.00333 1,0.83068 16.0782,12.24414 28.1363,21.29783 24.2052,18.17406 74.6236,65.82098 98.3918,92.9832 11.0829,12.66556 25.8798,30.33109 28.6797,34.2397 1.1,1.5356 5.2625,6.96095 9.25,12.05634 3.9875,5.09539 7.25,9.71178 7.25,10.25864 0,0.54686 0.3855,1.14429 0.8566,1.32763 0.4711,0.18333 2.8577,3.25833 5.3036,6.83333 2.4459,3.575 6.3502,9.2 8.6762,12.5 4.1317,5.86171 17.6922,26.92305 21.6534,33.63064 10.4858,17.75603 15.5102,26.7682 15.5102,27.82045 0,0.48523 0.3375,1.03224 0.75,1.21558 1.4538,0.64615 27.25,52.25905 27.25,54.52175 0,0.27697 1.575,3.82258 3.5,7.87913 1.925,4.05655 3.5,7.96322 3.5,8.68149 0,0.71827 0.5944,2.19358 1.321,3.27845 0.7265,1.08488 2.5937,5.57251 4.1494,9.97251 1.5557,4.4 3.1511,8.45 3.5455,9 0.3944,0.55 1.9623,4.825 3.4841,9.5 1.5218,4.675 3.1015,8.95 3.5104,9.5 0.4089,0.55 1.9792,5.275 3.4896,10.5 1.5104,5.225 3.0719,9.95 3.4701,10.5 0.3981,0.55 1.993,5.95 3.5442,12 1.5512,6.05 3.1431,11.45 3.5374,12 0.3944,0.55 2.1542,7.3 3.9108,15 1.7566,7.7 3.5871,14.9 4.0678,16 0.4807,1.1 1.8153,7.175 2.9657,13.5 1.1504,6.325 2.5678,13.525 3.1496,16 1.5167,6.45123 6.7546,40.88733 6.8088,44.76357 0.025,1.79496 0.4813,4.04496 1.0139,5 3.6305,6.5102 6.4702,104.50611 4.1284,142.46681 -1.6898,27.3929 -3.2575,44.15708 -4.2285,45.21962 -0.4775,0.5225 -0.8682,2.27744 -0.8682,3.89986 0,4.58923 -4.987,38.90852 -5.9796,41.15014 -0.4871,1.1 -1.6092,6.275 -2.4936,11.5 -2.2598,13.3513 -3.7418,20.33606 -4.5616,21.5 -0.3874,0.55 -1.0217,2.8 -1.4095,5 -1.2564,7.12714 -5.5582,24.9578 -6.3934,26.5 -0.4467,0.825 -2.1021,6.45 -3.6785,12.5 -1.5764,6.05 -3.1344,11.225 -3.4622,11.5 -0.3277,0.275 -1.9905,5 -3.6949,10.5 -3.8989,12.581 -8.9636,27.0846 -10.8254,31 -1.3884,2.9199 -7.9527,19.2784 -11.5014,28.6619 -0.9697,2.564 -2.4913,5.7016 -3.3815,6.9725 -0.8901,1.2708 -1.6184,2.86 -1.6184,3.5314 0,1.7617 -14.808,32.2528 -22.1112,45.5291 -3.4203,6.2178 -7.0475,12.977 -8.0603,15.0203 -1.0129,2.0434 -2.9296,5.3186 -4.2595,7.2783 -1.3299,1.9596 -3.3921,5.5753 -4.5827,8.0347 -1.1906,2.4595 -2.5746,4.4718 -3.0755,4.4718 -0.5009,0 -0.9108,0.5311 -0.9108,1.1803 0,1.9211 -18.0643,29.8767 -31.4331,48.6445 -12.4108,17.423 -35.7354,46.7326 -49.4792,62.1752 -19.3468,21.7382 -61.9538,63.1966 -78.6194,76.5 -2.067,1.65 -5.3805,4.3889 -7.3633,6.0865 -7.0738,6.0563 -28.9898,23.4135 -29.5629,23.4135 -0.3209,0 -5.6759,3.825 -11.8999,8.5 -6.2241,4.675 -11.8398,8.5 -12.4793,8.5 -0.6396,0 -1.1629,0.3975 -1.1629,0.8834 0,0.4858 -0.7875,1.1451 -1.75,1.465 -0.9625,0.3199 -5.8728,3.4099 -10.9119,6.8666 -11.5045,7.8921 -21.0083,13.785 -22.2316,13.785 -0.5169,0 -1.0898,0.3412 -1.2732,0.7582 -0.3059,0.6958 -8.6571,5.7717 -19.8333,12.0547 -11.5715,6.5052 -38.3165,20.0665 -53,26.874 -4.125,1.9125 -8.8189,4.1411 -10.431,4.9525 -1.612,0.8114 -6.562,2.8487 -11,4.5273 -4.4379,1.6786 -10.4036,4.1278 -13.2571,5.4426 -2.8534,1.3149 -5.6708,2.3907 -6.2609,2.3907 -0.59,0 -2.9804,0.8856 -5.3119,1.9681 -8.1196,3.7696 -38.4088,14.0319 -41.4153,14.0319 -1.0913,0 -1.3238,-21.771 -1.3238,-123.941 0,-68.1675 -0.3811,-124.1765 -0.8468,-124.4643 -0.4658,-0.2879 -1.1167,-7.1769 -1.4465,-15.309 -0.5673,-13.9851 -3.992,-38.6149 -5.6712,-40.7857 -0.4255,-0.55 -1.3365,-3.475 -2.0246,-6.5 -2.3642,-10.3942 -15.9239,-43.8847 -19.4342,-48 -0.7038,-0.825 -2.3589,-3.525 -3.6781,-6 -2.3894,-4.4827 -10.30552,-16.1606 -14.29892,-21.0938 -1.15482,-1.4266 -3.44968,-4.3395 -5.09968,-6.4731 -1.65,-2.1336 -7.6125,-8.641 -13.25,-14.4609 -5.6375,-5.82 -10.25,-10.8309 -10.25,-11.1355 0,-0.3046 3.4875,-1.1334 7.75,-1.8419 4.2625,-0.7085 8.2,-1.6129 8.75,-2.01 0.55,-0.397 6.625,-1.9538 13.5,-3.4597 6.875,-1.5058 12.95,-3.0702 13.5,-3.4763 0.55,-0.4062 3.25,-1.3045 6,-1.9964 7.7752,-1.9561 14.8527,-4.0811 16.5,-4.954 0.825,-0.4371 5.1,-1.8491 9.5,-3.1377 4.4,-1.2886 8.225,-2.6401 8.5,-3.0034 0.275,-0.3632 3.65,-1.687 7.5,-2.9417 3.85,-1.2547 8.8,-3.1439 11,-4.1982 2.2,-1.0542 6.925,-3.0733 10.5,-4.4868 6.324,-2.5003 27.4943,-12.7459 29.5,-14.2768 0.55,-0.4198 4.15,-2.4593 8,-4.5323 3.85,-2.073 9.9855,-5.7384 13.6345,-8.1453 3.6489,-2.4069 6.9348,-4.3762 7.302,-4.3762 0.9863,0 21.6863,-15.2734 30.4493,-22.4669 22.8011,-18.7172 35.7269,-33.38929 60.8686,-69.09188 2.8605,-4.06198 15.6681,-29.94477 19.5168,-39.44122 3.4689,-8.55939 7.7288,-21.78969 7.7288,-24.00411 0,-0.6565 0.6456,-2.61164 1.4347,-4.34476 2.0907,-4.59203 5.5685,-22.86638 8.6878,-45.65113 1.2935,-9.44777 0.6475,-66.88408 -0.7629,-67.83084 -0.5482,-0.36804 -1.5682,-5.16916 -2.2667,-10.66916 -1.4952,-11.77432 -3.8348,-24.18242 -5.091,-27 -0.4904,-1.1 -2.0761,-6.725 -3.5238,-12.5 -1.4476,-5.775 -3.23,-11.85 -3.9607,-13.5 -0.7308,-1.65 -2.0985,-5.25 -3.0394,-8 -0.9409,-2.75 -3.0083,-7.83271 -4.5943,-11.2949 -1.5861,-3.4622 -2.8837,-6.63059 -2.8837,-7.04088 0,-2.95102 -24.1175,-47.08674 -26.2277,-47.99755 -0.4248,-0.18334 -0.7723,-0.80707 -0.7723,-1.38607 0,-1.16925 -8.9668,-14.10144 -13.234,-19.08661 -1.5037,-1.7567 -2.7412,-3.55839 -2.75,-4.00377 -0.01,-0.44537 -3.8715,-5.39537 -8.5839,-11 -7.9314,-9.43326 -8.5275,-10.45021 -8.0253,-13.69022 0.9117,-5.88116 4.2209,-20.58863 4.8682,-21.63588 0.8927,-1.44452 3.4843,-22.74107 4.7237,-38.81741 1.3936,-18.07595 1.3912,-70.57913 -0,-87.70403 -1.4584,-17.90271 -3.9365,-36.12492 -5.0715,-37.29268 -0.5078,-0.5225 -0.9233,-1.8113 -0.9233,-2.864 0,-2.51392 -4.9943,-22.89609 -5.9264,-24.186 -0.3974,-0.55 -1.5478,-3.8125 -2.5564,-7.25 l -1.8339,-6.25 -6.0916,0.005 c -7.0878,0.006 -32.9416,3.63717 -35.4098,4.9729 -0.9251,0.5006 -6.1819,1.91946 -11.6819,3.15303 -5.5,1.23357 -10.225,2.51118 -10.5,2.83913 -0.275,0.32796 -4.775,1.85919 -10,3.40273 -5.225,1.54355 -11.3,3.60832 -13.5,4.58838 -2.2,0.98006 -6.475,2.69671 -9.5,3.81478 -8.1711,3.02012 -26.1448,11.87308 -39.7877,19.59745 -20.1301,11.39732 -48.43173,31.94283 -64.0348,46.48592 -8.01704,7.47242 -7.62861,7.35717 -17.21596,5.10806 -4.65385,-1.09175 -9.36154,-2.42099 -10.46154,-2.95387 -1.1,-0.53287 -8.075,-2.13034 -15.5,-3.54991 -7.425,-1.41958 -15.525,-3.03493 -18,-3.58966 -10.20647,-2.28765 -27.43045,-4.6736 -57,-7.89594 -17.3484,-1.89054 -85.64189,-1.1053 -88.5,1.01757 -0.55,0.40851 -5.05,1.05226 -10,1.43054 -11.00829,0.84127 -28.75634,3.26205 -33.5,4.5693 -1.925,0.53048 -10.88656,2.36588 -19.91458,4.07865 -9.02801,1.71277 -17.12801,3.50568 -18,3.98423 -0.87198,0.47856 -5.54696,1.82127 -10.38885,2.9838 -9.8852,2.37343 -8.87566,2.67243 -17.19657,-5.0932 -4.50492,-4.20429 -8.98179,-7.97823 -22.4788,-18.94931 -2.36821,-1.925 -5.36679,-4.07687 -6.66351,-4.78194 C 621.06096,422.513 620,421.5005 620,420.96806 620,420.43563 619.56739,420 619.03863,420 c -0.52875,0 -4.47493,-2.3625 -8.7693,-5.25 C 599.14957,407.27316 593.90986,404.04825 582,397.35093 c -11.60803,-6.52758 -12.71721,-7.06609 -28.5,-13.83667 -6.05,-2.59537 -12.8,-5.50916 -15,-6.47511 -2.2,-0.96594 -8.275,-3.0003 -13.5,-4.5208 -5.225,-1.5205 -9.95,-3.1085 -10.5,-3.52888 -0.55,-0.42038 -5.5,-1.77986 -11,-3.02106 -5.5,-1.2412 -10.45,-2.57586 -11,-2.96591 -0.92362,-0.65501 -5.28045,-1.43209 -22.5,-4.01311 -3.575,-0.53586 -9.20779,-0.97768 -12.51731,-0.98184 l -6.01731,-0.008 -2.17434,5.75 c -2.96985,7.85368 -4.94158,14.62345 -6.33481,21.75 -0.64514,3.3 -1.51128,6.45 -1.92474,7 -0.9531,1.26785 -3.78859,18.65082 -4.64889,28.5 -0.3603,4.125 -1.12698,8.09635 -1.70373,8.82523 -1.46494,1.85135 -2.13573,69.84028 -0.81567,82.67477 0.56568,5.5 1.49435,12.925 2.0637,16.5 0.56935,3.575 1.77902,11.225 2.68814,17 0.90913,5.775 1.99389,10.95 2.41058,11.5 0.41669,0.55 1.30879,3.7 1.98243,7 0.67365,3.3 2.09137,8.81531 3.15049,12.25624 l 1.92568,6.25624 -3.29211,4.24376 C 442.98145,589.59031 441.26721,591.725 440.98269,592 438.08581,594.79994 418,620.52419 418,621.43433 c 0,0.32244 -2.66775,4.51912 -5.92833,9.32596 C 404.58251,641.80102 400.47048,648.97652 391.59048,666.5 384.60805,680.2789 378,695.82871 378,698.48062 c 0,0.74399 -0.39452,1.50271 -0.87671,1.68605 C 376.25757,700.49582 371,716.66088 371,718.99349 c 0,0.66234 -0.64263,2.62226 -1.42807,4.35538 -0.78543,1.73312 -2.37863,7.65113 -3.54044,13.15113 -1.1618,5.5 -2.52473,11.35 -3.02871,13 -4.42896,14.49989 -6.65109,65.20152 -4.03904,92.15713 1.26908,13.09651 2.93731,24.12923 4.05884,26.84287 0.45462,1.1 1.84512,6.725 3.09,12.5 1.24488,5.775 2.54281,10.725 2.88429,11 0.34148,0.275 1.67046,4.1 2.95328,8.5 1.28282,4.4 3.61883,10.82377 5.19113,14.27504 1.5723,3.45128 2.85872,6.49058 2.85872,6.754 0,0.62272 10.18807,21.2339 12.062,24.40228 0.7909,1.33723 3.8005,5.96711 6.688,10.28863 2.8875,4.32153 5.25,8.10665 5.25,8.41138 0,0.95288 10.75325,14.4526 19.30847,24.24001 24.05568,27.52036 54.52703,51.26986 92.19153,71.85446 6.76103,3.6951 24.19033,12.2742 24.93623,12.2742 0.2681,0 3.76713,1.5115 7.77561,3.3589 8.6463,3.9849 17.70534,7.6411 18.93241,7.6411 0.48265,0 2.78514,0.8736 5.11665,1.9412 2.3315,1.0677 7.6141,2.9301 11.7391,4.1387 4.125,1.2086 7.9837,2.5747 8.57489,3.0359 0.59119,0.4611 5.54119,1.9874 11,3.3917 5.45881,1.4043 10.61504,2.9324 11.45829,3.3959 0.84325,0.4635 6.91825,2.0563 13.5,3.5395 6.58175,1.4832 12.86682,3.1001 13.96682,3.5931 1.1,0.4929 4.91866,1.4005 8.48591,2.0169 3.56725,0.6164 6.86729,1.3564 7.33342,1.6445 0.46614,0.288 -3.82132,5.3115 -9.52767,11.1632 C 637.276,1133.6695 630,1142.1987 630,1143.8888 c 0,0.6112 -0.40005,1.1112 -0.88899,1.1112 -2.44329,0 -21.08781,33.049 -25.66875,45.5 -1.01177,2.75 -2.10925,5.225 -2.43884,5.5 -0.53284,0.4446 -5.45798,16.3383 -6.66244,21.5 -0.25667,1.1 -0.8726,2.9 -1.36871,4 -1.13669,2.5203 -3.69408,15.2817 -4.58989,22.9036 -0.6602,5.6173 -0.80726,5.8494 -4.78176,7.546 -2.25534,0.9628 -6.57562,2.3657 -9.60062,3.1177 -3.025,0.752 -5.725,1.6682 -6,2.036 -1.40901,1.8847 -21.13684,4.1326 -40.56446,4.6222 -24.90179,0.6275 -32.46937,-0.4927 -47.43554,-7.0221 -8.95103,-3.9051 -21.13099,-11.3468 -28.59956,-17.4739 -4.77098,-3.914 -22.53349,-21.26 -24.90044,-24.3165 -1.59803,-2.0636 -15.11615,-20.1324 -18.2645,-24.413 -0.40453,-0.55 -1.31605,-2.125 -2.02562,-3.5 -0.70956,-1.375 -4.61339,-7 -8.67518,-12.5 -4.06178,-5.5 -8.65623,-11.723 -10.20988,-13.8289 -4.94819,-6.707 -25.57055,-26.0866 -32.82482,-30.8466 C 339.99641,1118.3077 326.20675,1113 315.985,1113 c -2.13999,0 -5.07041,-0.5374 -6.51204,-1.1943 -2.03169,-0.9257 -3.0512,-0.9257 -4.53348,0 -1.05179,0.6569 -3.83095,1.1968 -6.17591,1.1999 -10.02763,0.013 -17.19418,4.8017 -16.58587,11.0824 0.34458,3.5576 2.25824,5.2764 14.85386,13.3407 15.63431,10.0099 32.43403,27.6618 42.67969,44.8446 9.65392,16.1904 14.08154,27.3407 19.73138,49.6904 1.44953,5.734 3.00838,10.9004 3.46412,11.4809 0.45574,0.5805 1.62705,3.5304 2.60292,6.5554 1.71893,5.3283 10.38359,24.9882 11.45892,26 0.29227,0.275 1.37605,2.075 2.40839,4 2.93239,5.468 10.03178,16.4638 10.86841,16.8333 0.41503,0.1834 0.75461,0.7924 0.75461,1.3535 0,1.789 12.43415,15.984 22.81557,26.0465 11.10348,10.7624 24.30722,19.8532 39.36755,27.1044 5.32572,2.5643 10.05072,4.6649 10.5,4.6681 0.44929,0 5.08718,1.3699 10.30644,3.0373 10.60979,3.3894 29.38589,5.9588 43.50431,5.9535 14.95466,-0.01 43.21958,-2.9278 48.00613,-4.963 1.96012,-0.8335 15.27278,-4.0414 16.75,-4.0362 0.4125,0 0.75,38.9276 0.75,86.5026 0,81.7347 -0.0964,86.497 -1.75,86.4464 -0.9625,-0.03 -5.125,-1.1291 -9.25,-2.4437 z"
     id="path1" />
</svg>
