<?xml version="1.0" encoding="UTF-8" standalone="no"?>
<!-- Created with Inkscape (http://www.inkscape.org/) -->

<svg
   version="1.1"
   id="svg1"
   width="512"
   height="512"
   viewBox="0 0 512 512"
   sodipodi:docname="gmailLogoBlanco.svg"
   inkscape:version="1.4.2 (f4327f4, 2025-05-13)"
   xmlns:inkscape="http://www.inkscape.org/namespaces/inkscape"
   xmlns:sodipodi="http://sodipodi.sourceforge.net/DTD/sodipodi-0.dtd"
   xmlns="http://www.w3.org/2000/svg"
   xmlns:svg="http://www.w3.org/2000/svg">
  <defs
     id="defs1" />
  <sodipodi:namedview
     id="namedview1"
     pagecolor="#505050"
     bordercolor="#ffffff"
     borderopacity="1"
     inkscape:showpageshadow="0"
     inkscape:pageopacity="0"
     inkscape:pagecheckerboard="1"
     inkscape:deskcolor="#505050"
     inkscape:zoom="1.5917969"
     inkscape:cx="256.62822"
     inkscape:cy="256"
     inkscape:window-width="1920"
     inkscape:window-height="1017"
     inkscape:window-x="-8"
     inkscape:window-y="-8"
     inkscape:window-maximized="1"
     inkscape:current-layer="svg1" />
  <path
     style="fill:#ffffff"
     d="M 19.909124,439.44649 C 13.963728,437.61502 6.6177048,431.09711 3.202667,424.62335 L 0.5,419.5 V 256 92.5 L 3.202667,87.376651 C 6.7548103,80.64298 13.952037,74.388693 20.327554,72.495367 24.733007,71.187088 54.218465,71 256,71 c 201.78154,0 231.26699,0.187088 235.67245,1.495367 6.37551,1.893326 13.57274,8.147613 17.12488,14.881284 L 511.5,92.5 V 256 419.5 l -3.2349,6.19157 c -3.61744,6.92375 -9.37951,11.63573 -17.05276,13.94504 -6.89157,2.07406 -464.552446,1.88944 -471.303216,-0.19012 z M 474.83333,418.18286 C 474.29225,416.85643 319.68886,255 318.96296,255 c -0.36474,0 -12.31811,9.94078 -26.56306,22.09062 -14.24494,12.14983 -27.0249,22.53621 -28.3999,23.08083 -5.59231,2.21503 -8.11082,0.67237 -35.76948,-21.90985 -14.72986,-12.02635 -27.38505,-22.23907 -28.12266,-22.69494 -0.96148,-0.59423 -24.37759,22.20636 -82.72448,80.54995 C 72.622523,380.87494 36,417.83393 36,418.2477 36,418.66146 134.8125,419 255.58333,419 c 120.77084,0 219.43334,-0.36772 219.25,-0.81714 z M 490,255 c 0,-79.75 -0.3375,-144.99993 -0.75,-144.99985 -1.63509,3.4e-4 -152.33677,129.23993 -151.97482,130.33142 0.50007,1.508 150.98143,159.56204 151.97482,159.62266 C 489.6625,399.9794 490,334.75 490,255 Z M 180.95584,240.00236 C 180.90399,239.41258 24.139693,111.65836 22.86449,111.16667 22.380957,110.98022 22,174.43603 22,255.16431 L 22,399.49528 101.5,320 c 43.725,-43.72241 79.48013,-79.72134 79.45584,-79.99764 z M 366.94465,184.14788 C 425.27509,134.45422 473,93.616721 473,93.397885 473,93.179048 375.0875,93 255.41667,93 128.87472,93 37.972807,93.372009 38.166667,93.88908 c 0.501054,1.336432 221.224303,181.12116 222.027983,180.84748 0.38207,-0.13011 48.41957,-40.89501 106.75,-90.58868 z"
     id="path1" />
</svg>
