<?xml version="1.0" encoding="UTF-8" standalone="no"?>
<!-- Created with Inkscape (http://www.inkscape.org/) -->

<svg
   version="1.1"
   id="svg1"
   width="9333.333"
   height="9333.333"
   viewBox="0 0 9333.333 9333.333"
   sodipodi:docname="htmlLogoNegro.svg"
   inkscape:version="1.4.2 (f4327f4, 2025-05-13)"
   xmlns:inkscape="http://www.inkscape.org/namespaces/inkscape"
   xmlns:sodipodi="http://sodipodi.sourceforge.net/DTD/sodipodi-0.dtd"
   xmlns="http://www.w3.org/2000/svg"
   xmlns:svg="http://www.w3.org/2000/svg">
  <defs
     id="defs1" />
  <sodipodi:namedview
     id="namedview1"
     pagecolor="#505050"
     bordercolor="#ffffff"
     borderopacity="1"
     inkscape:showpageshadow="0"
     inkscape:pageopacity="0"
     inkscape:pagecheckerboard="1"
     inkscape:deskcolor="#505050"
     inkscape:zoom="0.087321432"
     inkscape:cx="4678.1184"
     inkscape:cy="4666.6665"
     inkscape:window-width="1920"
     inkscape:window-height="1017"
     inkscape:window-x="-8"
     inkscape:window-y="-8"
     inkscape:window-maximized="1"
     inkscape:current-layer="svg1" />
  <path
     style="fill:#000000"
     d="m 4566.2846,8869.7939 c -0.5538,-0.8962 -14.3318,-1.7444 -37.9107,-2.334 -20.3724,-0.5094 -41.5407,-1.1658 -47.0407,-1.4586 -5.5,-0.2929 -17.5,-0.8762 -26.6667,-1.2962 -19.7818,-0.9064 -28.3789,-1.4194 -68,-4.0576 -16.5,-1.0986 -35.1,-2.3151 -41.3333,-2.7032 -6.2334,-0.3881 -14.0334,-0.9615 -17.3334,-1.2742 -3.3,-0.3127 -10.5,-0.9309 -16,-1.3737 -5.5,-0.4428 -12.0999,-1.0216 -14.6666,-1.2862 -2.5667,-0.2645 -8.8667,-0.8538 -14,-1.3094 -5.1333,-0.4557 -11.7333,-1.0716 -14.6667,-1.3687 -2.9333,-0.2971 -9.5333,-0.9037 -14.6666,-1.3481 -16.1486,-1.3979 -47.9136,-4.7558 -50,-5.2855 -1.1,-0.2792 -6.2,-0.8862 -11.3334,-1.3488 -5.1333,-0.4626 -10.8333,-1.0616 -12.6666,-1.3312 -1.8334,-0.2696 -6.3334,-0.8494 -10,-1.2885 -3.6667,-0.4391 -8.7667,-1.0514 -11.3334,-1.3607 -2.5666,-0.3093 -7.3666,-0.8726 -10.6666,-1.2516 -15.9426,-1.8313 -42.2968,-5.3286 -71.4816,-9.4857 -17.6815,-2.5186 -34.7815,-4.8961 -38,-5.2833 -3.2185,-0.3871 -7.3518,-1.0022 -9.1851,-1.3669 -1.8333,-0.3646 -5.4333,-0.9523 -8,-1.306 -2.5667,-0.3537 -6.7667,-0.9682 -9.3333,-1.3657 -2.5667,-0.3975 -7.3667,-1.0208 -10.6667,-1.3853 -3.3,-0.3644 -14.1,-2.1489 -24,-3.9655 -9.9,-1.8167 -20.4,-3.6101 -23.3333,-3.9855 -2.9334,-0.3753 -6.7131,-0.9919 -8.3994,-1.3702 -1.6862,-0.3782 -8.2862,-1.5924 -14.6666,-2.6981 -6.3804,-1.1057 -13.1007,-2.2709 -14.934,-2.5894 -1.8334,-0.3184 -12.9334,-2.4213 -24.6667,-4.6731 -11.7333,-2.2518 -24.8327,-4.6888 -29.1098,-5.4155 -4.277,-0.7267 -14.477,-2.7588 -22.6666,-4.5158 -8.1897,-1.757 -24.1903,-5.0784 -35.5569,-7.381 -22.7049,-4.5994 -50.7785,-10.713 -67.3334,-14.6634 -5.8666,-1.3999 -12.7666,-2.9052 -15.3333,-3.3451 -2.5667,-0.4399 -25.9667,-6.129 -52,-12.6423 -26.0333,-6.5133 -48.9734,-12.1393 -50.978,-12.5023 -2.0046,-0.3629 -4.1046,-0.9421 -4.6667,-1.287 -0.5621,-0.3449 -3.3194,-0.9907 -6.1273,-1.4351 -2.808,-0.4444 -6.1791,-1.3826 -7.4914,-2.085 -1.3123,-0.7023 -2.7249,-0.9379 -3.1392,-0.5236 -0.4143,0.4143 -1.5432,0.26 -2.5087,-0.3428 -0.9654,-0.6028 -2.3554,-1.2278 -3.0887,-1.3889 -9.3611,-2.0562 -34.2921,-8.5492 -46,-11.9801 -6.2333,-1.8266 -29.6333,-8.6274 -52,-15.1129 -38.0132,-11.0223 -123.3339,-37.5527 -149.6666,-46.5387 -6.4167,-2.1897 -11.6667,-3.6459 -11.6667,-3.2359 0,0.41 -0.9,0 -2,-0.9145 -1.1,-0.9129 -2,-1.2129 -2,-0.6666 0,0.5462 -0.9,0.2462 -2,-0.6667 -1.1,-0.9129 -2,-1.2129 -2,-0.6667 0,0.5463 -0.7971,0.3317 -1.7713,-0.4768 -0.9743,-0.8086 -2.9243,-1.6919 -4.3334,-1.963 -1.4091,-0.2711 -3.462,-0.8785 -4.562,-1.3498 -1.1,-0.4713 -14.9,-5.2937 -30.6666,-10.7164 -52.2787,-17.9804 -104.6892,-37.7169 -194,-73.0554 -57.8189,-22.8777 -166.8508,-70.7624 -222.7959,-97.8474 -62.6514,-30.3319 -161.8899,-80.1539 -163.2041,-81.9355 -0.3667,-0.4971 -3.6667,-2.4094 -7.3334,-4.2495 -32.3839,-16.2518 -137.3931,-75.1642 -174.6666,-97.9918 -1.4667,-0.8983 -3.8667,-2.2679 -5.3334,-3.0436 -1.4666,-0.7757 -4.2848,-2.4514 -6.2626,-3.7239 -1.9778,-1.2724 -8.8778,-5.5681 -15.3333,-9.546 -6.4556,-3.9779 -25.8374,-15.9222 -43.0707,-26.543 -51.8084,-31.9293 -159.8635,-102.7642 -181.3333,-118.872 -1.8334,-1.3755 -20.4334,-14.7267 -41.3334,-29.6693 -45.8235,-32.762 -78.3988,-56.5439 -88.6666,-64.732 -0.7334,-0.5848 -8.5334,-6.5089 -17.3334,-13.1647 -16.6031,-12.5576 -66.2076,-50.9658 -70.3819,-54.496 -1.3101,-1.1079 -8.2101,-6.664 -15.3334,-12.3469 -20.2856,-16.1837 -31.7784,-25.6115 -66.8974,-54.8775 -29.3267,-24.439 -38.3991,-32.1956 -45.3032,-38.7328 -1.1618,-1.1 -3.906,-3.403 -6.0982,-5.1178 -2.1922,-1.7148 -7.5859,-6.2925 -11.9859,-10.1728 -4.4,-3.8802 -11.3,-9.8941 -15.3333,-13.3641 -4.0333,-3.4701 -7.9431,-6.9923 -8.6885,-7.8272 -0.7453,-0.835 -4.6583,-4.5181 -8.6956,-8.1847 -24.6096,-22.3504 -31.2765,-28.2088 -34.112,-29.9755 -1.7438,-1.0865 -3.1706,-2.369 -3.1706,-2.8499 0,-0.4809 -5.85,-6.1406 -13,-12.5771 -53.1114,-47.8113 -152.2921,-145.6405 -212.2259,-209.334 -6.1743,-6.5616 -14.614,-15.5302 -18.7549,-19.9302 -4.1409,-4.4 -14.6186,-15.8 -23.2839,-25.3333 -8.6652,-9.5334 -18.3403,-20.0334 -21.5,-23.3334 -3.1598,-3.3 -10.1303,-11.0658 -15.4901,-17.2573 -5.3599,-6.1916 -10.9452,-12.5027 -12.4118,-14.0248 -1.4667,-1.5221 -5.9667,-6.5578 -10,-11.1904 -4.0334,-4.6326 -9.1334,-10.3655 -11.3334,-12.7397 -2.2,-2.3743 -5.7107,-6.3728 -7.8016,-8.8856 -2.0909,-2.5129 -6.0003,-6.9688 -8.6875,-9.9022 -2.6872,-2.9333 -9.6765,-11.0333 -15.5317,-18 -5.8552,-6.9666 -10.9541,-12.9666 -11.3308,-13.3333 -0.3768,-0.3667 -3.3685,-3.9667 -6.6484,-8 -3.2798,-4.0333 -6.3095,-7.6333 -6.7327,-8 -0.4232,-0.3667 -6.1024,-7.2667 -12.6204,-15.3333 -6.518,-8.0667 -15.0906,-18.5667 -19.0503,-23.3334 -10.5425,-12.6909 -10.2869,-12.3746 -26.9299,-33.3333 -8.4333,-10.6202 -16.3476,-20.5148 -17.5874,-21.988 -7.7598,-9.2215 -98.1555,-129.158 -107.1934,-142.2237 -14.8518,-21.4705 -41.162,-57.8442 -42.1215,-58.2327 -0.6037,-0.2445 -1.0977,-1.2945 -1.0977,-2.3334 0,-1.0388 -0.6,-1.8888 -1.3333,-1.8888 -0.7333,0 -1.3333,-0.7114 -1.3333,-1.5808 0,-0.8694 -1.1332,-2.8194 -2.5182,-4.3333 -4.7108,-5.1495 -46.8088,-68.1697 -83.7812,-125.4193 -10.5842,-16.3891 -36.5175,-58.1825 -61.0595,-98.4019 -4.3859,-7.1878 -8.8745,-14.4951 -9.9745,-16.2385 -14.5405,-23.0452 -72.57195,-125.76 -97.94418,-173.3596 -35.27523,-66.1781 -84.57894,-165.3126 -108.45065,-218.0606 -5.12901,-11.3333 -11.26531,-24.806 -13.63623,-29.9394 -7.09395,-15.3593 -38.12629,-86.4169 -46.87467,-107.3333 -2.91384,-6.9667 -7.31835,-17.4667 -9.78779,-23.3333 -17.41081,-41.363 -63.09097,-162.1736 -81.42053,-215.3333 -5.43637,-15.7667 -10.27528,-29.5667 -10.75314,-30.6667 -0.47786,-1.1 -1.032,-2.7969 -1.23142,-3.7708 -0.19942,-0.9739 -0.79942,-2.7739 -1.33333,-4 -0.53391,-1.2261 -1.13391,-3.0261 -1.33333,-4 -0.19943,-0.9739 -0.79942,-2.7739 -1.33334,-4 -0.53391,-1.2261 -1.10983,-2.862 -1.27982,-3.6354 -0.16999,-0.7734 -3.6358,-11.5734 -7.7018,-24 -13.63305,-41.6656 -30.00535,-94.3351 -38.93717,-125.2605 -4.8714,-16.8666 -9.65072,-33.0666 -10.6207,-36 -2.03287,-6.1476 -17.5207,-62.3446 -18.55701,-67.3333 -0.38084,-1.8333 -1.67836,-6.9333 -2.88339,-11.3333 -1.20503,-4.4 -2.43032,-9.05 -2.72286,-10.3334 -0.29254,-1.2833 -0.86265,-3.6833 -1.26691,-5.3333 -0.40426,-1.65 -1.0249,-4.5 -1.3792,-6.3333 -0.6476,-3.351 -11.39351,-46.2983 -17.18121,-68.6667 -3.0856,-11.9252 -9.7642,-40.9584 -10.8882,-47.3333 -0.3233,-1.8334 -0.903,-4.3782 -1.2883,-5.6553 -0.3853,-1.277 -0.9912,-3.977 -1.3465,-6 -0.3553,-2.0229 -1.8109,-8.5371 -3.2348,-14.4759 -5.284,-22.0396 -28.0438,-135.1153 -32.5808,-161.8688 -0.311,-1.8334 -3.2443,-18.9334 -6.5187,-38 -3.2743,-19.0667 -6.3272,-37.6667 -6.7842,-41.3334 -0.457,-3.6666 -1.0747,-7.5666 -1.3727,-8.6666 -0.2981,-1.1 -0.8661,-5 -1.2625,-8.6667 -0.3963,-3.6667 -0.9806,-7.9406 -1.2985,-9.4977 -0.9689,-4.7469 -1.8878,-11.1046 -4.1192,-28.5023 -2.2003,-17.1544 -2.9306,-22.241 -4.02,-28 -0.3468,-1.8333 -0.9148,-5.7333 -1.2621,-8.6666 -0.3473,-2.9334 -1.2799,-9.8334 -2.0725,-15.3334 -0.7926,-5.5 -1.7074,-12.7 -2.0329,-16 -0.7041,-7.1364 -1.7767,-16.2231 -2.6758,-22.6666 -0.3582,-2.5667 -0.9494,-7.3667 -1.3138,-10.6667 -0.3644,-3.3 -0.9406,-8.1 -1.2804,-10.6667 -0.3398,-2.5666 -0.964,-7.6666 -1.387,-11.3333 -0.4231,-3.6667 -1.3255,-11.1667 -2.0054,-16.6667 -0.68,-5.5 -1.5575,-13.3 -1.9501,-17.3333 -0.3927,-4.0333 -0.9869,-9.4333 -1.3205,-12 -0.3336,-2.5667 -0.9542,-8.5667 -1.379,-13.3333 -0.4249,-4.7667 -1.0086,-10.7667 -1.2973,-13.3334 -0.2886,-2.5666 -0.8947,-9.1666 -1.3467,-14.6666 -0.452,-5.5 -1.052,-12.1 -1.3333,-14.6667 -0.2813,-2.5667 -0.8966,-9.1667 -1.3674,-14.6667 -0.4707,-5.5 -1.0688,-12.1 -1.3291,-14.6666 -0.2602,-2.5667 -0.8324,-10.3667 -1.2714,-17.3334 -0.4391,-6.9666 -1.0582,-15.3666 -1.3758,-18.6666 -0.3176,-3.3 -0.9136,-12.3 -1.3244,-20 -0.4109,-7.7 -1.0073,-16.1 -1.3254,-18.6667 -0.3181,-2.5667 -0.9324,-11.5667 -1.3651,-20 -0.4327,-8.4333 -1.0185,-18.3333 -1.3018,-22 -0.2832,-3.6667 -0.8651,-14.4667 -1.293,-24 -0.4279,-9.5333 -1.0518,-22.4333 -1.3863,-28.6667 -0.3345,-6.2333 -0.917,-22.7333 -1.2944,-36.6666 -0.3774,-13.9334 -1.1392,-37.0334 -1.6928,-51.3334 -1.2843,-33.1766 -1.3082,-162.5379 -0.036,-194 0.5339,-13.2 1.2966,-36.6 1.695,-52 0.3984,-15.4 1.0303,-34.3 1.4042,-42 1.6438,-33.8518 2.7072,-52.35 4.6372,-80.6666 0.6997,-10.2667 1.5958,-23.7667 1.9913,-30 0.6727,-10.6035 1.1161,-16.73 2.6533,-36.6667 1.5302,-19.845 2.123,-27.0961 2.6982,-33 1.0325,-10.5995 1.9716,-20.0249 2.6235,-26.3333 0.3411,-3.3 0.96,-10.5 1.3753,-16 0.6925,-9.1698 5.3379,-52.5896 6.6333,-62 0.3028,-2.2 1.2115,-10 2.0192,-17.3333 0.8078,-7.3334 1.6917,-14.8334 1.9642,-16.6667 0.2726,-1.8333 0.8732,-6.6333 1.3348,-10.6667 0.4615,-4.0333 1.0615,-8.8333 1.3333,-10.6666 0.2718,-1.8334 0.8666,-6.6334 1.3218,-10.6667 0.4552,-4.0333 3.1448,-23.8333 5.9768,-44 2.8321,-20.1667 5.4994,-39.3667 5.9275,-42.6667 0.4281,-3.3 1.0066,-7.2 1.2856,-8.6666 1.2804,-6.7315 2.9041,-17.7309 4.1331,-28 0.5525,-4.6164 5.7451,-35.5523 10.5186,-62.6667 1.8075,-10.2667 3.6491,-20.7667 4.0925,-23.3333 0.4433,-2.5667 1.9666,-10.6667 3.385,-18 2.3354,-12.0744 4.5027,-23.6387 6.1222,-32.6667 0.3289,-1.8333 0.9499,-4.8333 1.3799,-6.6667 0.4301,-1.8333 1.0302,-4.8333 1.3335,-6.6666 0.3033,-1.8334 1.4517,-7.5334 2.552,-12.6667 1.1004,-5.1333 2.2839,-10.8333 2.6302,-12.6667 0.3463,-1.8333 0.9499,-4.8333 1.3413,-6.6666 0.3914,-1.8334 0.9914,-4.8334 1.3333,-6.6667 2.0668,-11.0815 7.4395,-36.3028 11.5032,-54 1.5155,-6.6 2.9365,-12.9129 3.1576,-14.0287 2.2347,-11.2751 9.6053,-42.403 19.5673,-82.638 6.6273,-26.7666 12.28714,-49.7166 12.57744,-51 0.2903,-1.2833 0.82781,-3.5333 1.19448,-5 0.36667,-1.4666 0.90378,-3.719 1.19358,-5.0052 0.28981,-1.2861 1.29087,-5.0361 2.2246,-8.3333 0.93372,-3.2971 1.83454,-6.5948 2.00182,-7.3281 2.09908,-9.2021 8.91716,-34.3855 14.80031,-54.6667 4.04177,-13.9333 10.57958,-36.5447 14.52847,-50.2475 3.94888,-13.7028 9.24217,-31.4028 11.76287,-39.3333 2.52069,-7.9306 7.68394,-24.3192 11.47387,-36.4192 3.78994,-12.1 10.21755,-32.192 14.28359,-44.6488 4.06604,-12.4569 7.57296,-23.5569 7.79316,-24.6667 0.2202,-1.1098 0.52127,-2.1678 0.66904,-2.3511 0.14778,-0.1834 0.41869,-0.9334 0.60202,-1.6667 0.18333,-0.7333 0.48333,-1.6333 0.66667,-2 0.18333,-0.3667 0.48333,-1.2667 0.66666,-2 0.18334,-0.7333 0.48334,-1.6333 0.66667,-2 0.18333,-0.3667 0.48333,-1.2667 0.66667,-2 0.18333,-0.7333 0.48333,-1.6333 0.66666,-2 0.18334,-0.3667 0.46016,-1.1167 0.61516,-1.6667 0.155,-0.55 0.6284,-1.9 1.05199,-3 2.15712,-5.6016 8.20986,-22.7312 14.13401,-40 3.64783,-10.6333 8.71324,-25.0333 11.25649,-32 2.54324,-6.9666 7.76585,-21.3666 11.60579,-32 3.83994,-10.6333 12.82873,-34.3333 19.97509,-52.6666 7.14636,-18.3334 17.04236,-43.8334 21.99111,-56.6667 4.94875,-12.8333 9.77642,-25.1333 10.72817,-27.3333 0.95174,-2.2 4.85096,-11.5 8.66492,-20.6667 57.23665,-137.5653 126.12894,-280.6988 198.30175,-412 22.39902,-40.7496 64.79802,-114.8195 73.67552,-128.7091 1.1,-1.7211 8.5066,-13.8156 16.4591,-26.8767 46.0431,-75.6207 130.4735,-205.6393 141.0221,-217.1668 1.3853,-1.5139 2.5188,-3.1571 2.5188,-3.6514 0,-0.4944 0.8783,-1.9557 1.9518,-3.2474 1.7878,-2.1512 11.8462,-16.1719 28.2911,-39.436 6.2456,-8.8355 10.4842,-14.6786 19.4238,-26.7772 2.3833,-3.2255 5.2333,-7.1706 6.3333,-8.7669 2.6672,-3.8706 35.5714,-48.3001 37.1523,-50.1655 0.6822,-0.8051 5.952,-7.747 11.7107,-15.4265 5.7587,-7.6795 15.0824,-19.9208 20.7193,-27.2029 5.6369,-7.2821 14.1946,-18.3402 19.017,-24.5736 4.8225,-6.2333 9.5494,-12.2604 10.5042,-13.3935 0.9548,-1.1332 8.8915,-11.0332 17.637,-22 8.7455,-10.9669 16.2233,-20.2398 16.6174,-20.6065 0.394,-0.3666 8.77,-10.5666 18.6133,-22.6666 31.0235,-38.1361 94.6223,-111.5707 125.2899,-144.6667 2.7181,-2.9333 11.769,-12.8333 20.1131,-22 8.3441,-9.1667 15.7983,-17.3246 16.5651,-18.1287 0.7667,-0.8041 9.494,-10.0914 19.394,-20.6385 58.7837,-62.6258 151.1537,-154.3641 207.3173,-205.8995 22.3399,-20.4989 71.9375,-65.4709 78.4643,-71.1465 4.5201,-3.9307 12.2434,-10.7566 17.1628,-15.1688 4.9193,-4.4123 10.3193,-8.9779 12,-10.1458 1.6806,-1.1679 3.9556,-3.1234 5.0556,-4.3456 2.0668,-2.2962 33.726,-29.3379 46.6667,-39.8603 4.0333,-3.2796 7.6333,-6.2732 8,-6.6523 0.9327,-0.9644 21.9563,-18.2645 30,-24.6866 9.938,-7.9346 11.4871,-9.1964 13.1488,-10.71 3.2385,-2.9501 35.8691,-28.8475 56.1845,-44.5912 11.7334,-9.0929 25.2334,-19.6048 30,-23.3597 12.02,-9.4688 62.6701,-47.2751 82,-61.2065 8.8,-6.3424 29.2,-20.9561 45.3334,-32.4751 16.1333,-11.5189 29.5333,-21.4028 29.7777,-21.9642 0.2445,-0.5614 1.0581,-1.0207 1.8082,-1.0207 0.75,0 3.6606,-1.8192 6.4679,-4.0426 2.8074,-2.2235 7.9937,-6.0205 11.5252,-8.4379 5.1383,-3.5172 64.9242,-43.5058 75.7543,-50.6692 20.0423,-13.2568 70.804,-45.3687 101.3333,-64.1037 21.2667,-13.0507 40.1667,-24.7003 42,-25.8881 4.8185,-3.1216 8.2963,-5.2147 11.3333,-6.821 1.4667,-0.7757 4.2923,-2.4515 6.2791,-3.7239 18.3509,-11.7526 90.9654,-52.97094 134.6586,-76.43654 19.2843,-10.3567 39.8623,-21.5784 45.729,-24.9372 23.5406,-13.4775 158.0591,-80.08098 206.6667,-102.3258 52.1437,-23.86314 168.9729,-74.63921 174.6657,-75.91284 0.7338,-0.16418 2.5343,-0.78908 4.0009,-1.38867 52.8596,-21.60945 141.6008,-54.95441 197.3334,-74.14896 16.8666,-5.80897 31.5666,-10.94536 32.6666,-11.41422 1.1,-0.46885 2.45,-0.97928 3,-1.13428 0.55,-0.155 1.3,-0.43182 1.6667,-0.61516 0.3667,-0.18333 1.2667,-0.48333 2,-0.66666 0.7333,-0.18334 1.6333,-0.48334 2,-0.66667 0.3667,-0.18333 1.2667,-0.48333 2,-0.66667 0.7333,-0.18333 1.4833,-0.45833 1.6667,-0.61111 0.1833,-0.15278 1.5333,-0.48607 3,-0.74066 1.4666,-0.25459 12.5666,-3.75796 24.6666,-7.78527 12.1,-4.02731 33.7,-11.01553 48,-15.52936 14.3,-4.51384 30.5,-9.63095 36,-11.37136 9.0809,-2.87352 38.1511,-11.39397 94.6667,-27.74671 18.9668,-5.48804 43.4988,-12.11162 50,-13.49987 1.4666,-0.31319 4.6277,-1.16363 7.0246,-1.88988 2.3969,-0.72624 4.6469,-1.35914 5,-1.40644 0.3531,-0.0473 0.792,-0.13191 0.9754,-0.18802 0.1833,-0.0561 1.2333,-0.32103 2.3333,-0.58872 1.1,-0.26768 3.35,-0.82178 5,-1.23131 1.65,-0.40954 4.35,-1.07969 6,-1.48923 1.65,-0.40954 3.9,-0.96363 5,-1.23132 1.1,-0.26769 2,-0.5772 2,-0.6878 0,-0.1106 1.5,-0.47468 3.3333,-0.80906 1.8334,-0.33439 15.3334,-3.63979 30,-7.34535 14.6667,-3.70555 27.8667,-6.94877 29.3334,-7.20714 1.4666,-0.25837 5.9666,-1.33154 10,-2.38482 9.5891,-2.50413 30.4263,-7.35315 34.6666,-8.06726 1.8334,-0.30875 7.2334,-1.53662 12,-2.72859 4.7667,-1.19198 9.8667,-2.4091 11.3334,-2.70471 1.4666,-0.29562 8.0747,-1.75644 14.6845,-3.24628 6.6098,-1.48983 19.8098,-4.2808 29.3333,-6.20214 9.5235,-1.92134 18.2155,-3.69403 19.3155,-3.9393 5.9214,-1.32037 63.1882,-12.80942 70,-14.04363 4.4,-0.79724 14.3,-2.63816 22,-4.09096 7.7,-1.45279 16.1,-2.97451 18.6667,-3.38161 2.5666,-0.40709 11.2666,-1.89509 19.3333,-3.30668 43.0378,-7.53116 53.5899,-9.31731 59.189,-10.01892 3.3794,-0.42345 7.3443,-0.95891 8.811,-1.1899 2.5026,-0.39414 11.3416,-1.72433 17.3333,-2.60849 1.4667,-0.21643 5.0667,-0.74864 8,-1.1827 6.8142,-1.00831 30.0285,-4.28747 44.6667,-6.30944 6.2333,-0.86101 12.5333,-1.7413 14,-1.95622 4.474,-0.65558 44.9388,-5.90367 51.3333,-6.65767 3.3,-0.38912 7.8,-0.97011 10,-1.2911 2.2,-0.321 7.6,-0.93876 12,-1.37281 4.4,-0.43405 9.8,-1.0234 12,-1.30968 3.4664,-0.45106 16.9205,-2.05559 32.6721,-3.89646 5.3778,-0.62849 29.7978,-3.19462 38.6613,-4.06264 3.3,-0.32318 10.5,-0.93069 16,-1.35002 5.5,-0.41933 12.1,-1.02353 14.6666,-1.34266 2.5667,-0.31914 8.5667,-0.92037 13.3334,-1.33607 4.7666,-0.4157 11.3666,-1.00643 14.6666,-1.31273 3.3,-0.3063 10.8,-0.90537 16.6667,-1.33127 5.8666,-0.42589 14.2666,-1.03538 18.6666,-1.35441 4.4,-0.31902 13.1,-0.92009 19.3334,-1.3357 6.2333,-0.41562 15.2333,-1.03027 20,-1.3659 146.2071,-10.29473 346.0335,-12.2116 482,-4.62367 12.4666,0.69573 29.8666,1.58974 38.6666,1.98668 14.9506,0.67438 26.652,1.40823 42.6667,2.6758 6.0084,0.47557 13.5012,0.9951 38.6667,2.68101 14.4753,0.96975 29.2446,2.11168 34.6666,2.68033 7.0443,0.73881 32.2689,3.01508 44,3.97056 23.2065,1.89015 31.9978,2.79408 65.3334,6.71763 26.6148,3.13253 29.1078,3.43797 32.3966,3.96924 1.6848,0.27216 7.0848,0.86079 12,1.30807 4.9152,0.44727 10.4367,1.07023 12.27,1.38435 1.8334,0.31413 6.3334,0.91124 10,1.32694 3.6667,0.41569 13.5667,1.67941 22,2.80827 8.4334,1.12885 16.8334,2.25316 18.6667,2.49845 1.8333,0.24529 9.6333,1.36286 17.3333,2.48348 7.7,1.12062 19.1,2.74196 25.3333,3.60296 6.2334,0.86101 12.5334,1.74369 14,1.96151 9.3738,1.39215 15.0896,2.25967 18,2.73197 3.287,0.5334 10.182,1.47222 18,2.45089 4.2023,0.52604 38.6094,6.36633 71.3334,12.10818 26.4266,4.6369 79.2486,14.67351 94.6666,17.98746 6.9667,1.49741 14.1667,3.00288 16,3.3455 8.6319,1.61314 34.3433,7.02733 54.6667,11.51141 9.9,2.18431 19.4113,4.25702 21.1362,4.60602 1.7249,0.34901 7.1249,1.56922 12,2.71158 4.8751,1.14236 10.3638,2.35607 12.1971,2.69713 6.0801,1.13109 31.2672,7.08054 35.3334,8.34611 2.2,0.68473 13,3.4297 24,6.09993 11,2.67022 21.8,5.3903 24,6.04462 2.2,0.65432 8.2,2.16854 13.3333,3.36494 13.3606,3.11388 13.7232,3.1995 16.6667,3.93537 4.222,1.05552 8.4969,2.11459 10.6666,2.6426 1.1,0.26768 2,0.58195 2,0.69836 0,0.11641 1.5,0.46952 3.3334,0.78468 10.6415,1.82938 163.925,46.09598 176,50.82688 1.1,0.43097 2.7271,0.93651 3.6158,1.12342 0.8887,0.18691 18.5887,5.86702 39.3333,12.62246 20.7446,6.75545 38.6175,12.46599 39.7175,12.6901 1.1,0.22411 2.15,0.52837 2.3334,0.67615 0.1833,0.14777 0.9333,0.41868 1.6666,0.60201 0.7334,0.18334 1.6334,0.48334 2,0.66667 0.3667,0.18333 1.1167,0.46015 1.6667,0.61515 0.55,0.15501 2.0031,0.72622 3.2292,1.26937 1.2261,0.54315 3.0261,1.1507 4,1.35012 0.9739,0.19942 2.6708,0.72652 3.7708,1.17134 1.1,0.44481 14.9,5.27774 30.6667,10.73983 50.867,17.622 143.2348,52.37591 193.9999,72.99358 2.2,0.89351 4.45,1.52767 5,1.40925 0.55,-0.11842 1,0.48469 1,1.34025 0,0.85555 0.3465,1.20911 0.7699,0.78568 1.3944,-1.39433 107.8061,44.05986 159.2301,68.01577 6.2334,2.9038 17.0334,7.81572 24,10.91538 31.9743,14.22625 194.221,94.91734 196,97.47784 0.3667,0.5278 4.2667,2.7238 8.6667,4.88 26.8637,13.1649 150.2823,82.37054 172.4214,96.68344 1.9682,1.2724 4.7786,2.9313 6.2453,3.6864 1.4666,0.7551 4.2737,2.414 6.2379,3.6865 1.9642,1.2724 7.9642,4.97 13.3333,8.2167 72.5029,43.8427 188.3347,118.7702 219.1548,141.7635 4.6691,3.4833 9.0658,6.3333 9.7705,6.3333 0.7047,0 1.4812,0.4993 1.7257,1.1096 0.2444,0.6102 10.6444,8.3088 23.1111,17.108 12.4667,8.7991 25.6667,18.192 29.3333,20.873 3.6667,2.6811 20.7667,15.1741 38,27.7623 29.4562,21.5165 61.3382,45.4731 76.8378,57.7368 3.7607,2.9757 9.9855,7.8103 13.8327,10.7437 11.7514,8.9598 95.2936,75.9264 97.3295,78.0183 0.3667,0.3767 3.9667,3.3685 8,6.6483 4.0333,3.2799 7.6333,6.2736 8,6.6527 0.3667,0.3791 6.0667,5.1669 12.6667,10.6395 18.3991,15.2561 41.1044,34.7467 43.3333,37.198 1.1,1.2097 3.8,3.5934 6,5.2972 4.9599,3.841 17.8908,15.1608 25.1889,22.0504 3.0128,2.8441 10.8778,9.9563 17.4778,15.805 6.6,5.8486 14.1,12.5566 16.6666,14.9067 2.5667,2.3502 12.1667,11.1092 21.3334,19.4646 9.1666,8.3554 20.8666,19.1772 26,24.0485 5.1333,4.8713 14.7162,13.9 21.2953,20.0638 72.1235,67.5713 164.1849,161.8915 238.038,243.8789 20.3104,22.5474 27.2243,29.9871 28.2877,30.4391 0.5751,0.2445 1.0456,0.8968 1.0456,1.4497 0,0.5528 2.25,3.3738 5,6.2687 23.5813,24.8241 107.5356,125.9738 153.1382,184.5039 35.5337,45.6066 76.9433,100.8748 103.8618,138.621 3.6667,5.1415 9.6667,13.5263 13.3334,18.6328 3.6666,5.1065 8.7666,12.3602 11.3333,16.1193 2.5667,3.7591 6.9167,9.7704 9.6667,13.3583 2.75,3.5879 5,6.8344 5,7.2144 0,0.3801 2.6054,4.1477 5.7899,8.3726 3.1845,4.2249 14.8071,21.1816 25.8281,37.6816 18.6119,27.8646 28.3543,42.691 51.6918,78.6666 9.4844,14.6205 41.5404,66.1413 60.805,97.7265 6.1702,10.1162 12.1185,19.8288 13.2185,21.5836 13.0215,20.7726 59.672,102.7268 81.9818,144.0232 7.9234,14.6667 18.0135,33.2667 22.4224,41.3334 17.4662,31.9569 81.0025,159.9336 97.6387,196.6666 4.1515,9.1667 9.6532,21.1667 12.226,26.6667 21.5586,46.0869 72.6012,165.719 73.5343,172.3473 0.078,0.5577 0.9749,2.6577 1.9921,4.6667 5.1697,10.2107 49.6473,127.5469 63.0452,166.3193 7.6433,22.1189 15.1073,43.429 16.1119,46 0.4298,1.1 1.0033,3.1529 1.2744,4.562 0.2711,1.4091 1.1544,3.3591 1.963,4.3334 0.8085,0.9742 1.0231,1.7713 0.4768,1.7713 -0.5462,0 -0.2462,0.9 0.6667,2 0.9129,1.1 1.2129,2 0.6667,2 -0.5463,0 -0.2463,0.9 0.6666,2 0.913,1.1 1.3187,2 0.9018,2 -0.417,0 0.4417,3.45 1.9081,7.6667 3.6412,10.4701 22.0771,68.0923 30.3947,94.9999 3.7403,12.1 7.3725,23.8 8.0716,26 2.0506,6.4533 16.0625,54.9886 19.4389,67.3334 1.7048,6.2333 4.2925,15.2333 5.7504,20 2.9345,9.5942 9.0182,32.1334 10.0769,37.3333 0.3732,1.8333 1.6645,6.9333 2.8696,11.3333 1.205,4.4 2.4303,9.05 2.7228,10.3334 0.2925,1.2833 0.867,3.6833 1.2765,5.3333 0.4095,1.65 0.9636,3.9 1.2313,5 0.2677,1.1 0.574,2 0.6806,2 0.1066,0 0.4094,1.5 0.6727,3.3333 0.2634,1.8334 5.5757,23.7334 11.8052,48.6667 6.2294,24.9333 11.6827,47.1333 12.1184,49.3333 1.5285,7.7179 1.8988,9.4087 4.0888,18.6667 4.5379,19.183 15.3436,69.5482 17.3778,80.9969 0.358,2.015 1.5016,7.415 2.5414,12 1.0398,4.585 2.1951,10.1364 2.5674,12.3364 0.3722,2.2 1.879,10 3.3485,17.3334 1.4695,7.3333 3.0272,15.4333 3.4616,18 0.4344,2.5666 2.3021,12.4666 4.1504,22 1.8484,9.5333 3.6927,19.7333 4.0987,22.6666 0.4059,2.9334 1.5606,9.8334 2.566,15.3334 4.8947,26.7772 9.8491,56.0117 10.5071,62 0.4029,3.6666 1.0111,8.1666 1.3516,10 0.3404,1.8333 0.9651,5.7333 1.3881,8.6666 0.4231,2.9334 0.9633,6.5334 1.2005,8 2.9089,17.9828 14.6348,104.7391 17.3904,128.6667 0.3801,3.3 1.0339,9 1.4529,12.6667 0.419,3.6666 0.9757,8.1666 1.237,10 0.2614,1.8333 0.8615,6.9333 1.3336,11.3333 0.4721,4.4 1.0839,9.8 1.3594,12 1.0283,8.2104 4.722,42.9541 5.3865,50.6667 0.3791,4.4 0.9453,10.1 1.2582,12.6666 0.3129,2.5667 0.9159,9.4667 1.3401,15.3334 0.4242,5.8666 1.0175,12.1666 1.3185,14 0.3009,1.8333 0.9018,8.1333 1.3353,13.9999 0.4335,5.8667 1.0462,13.6667 1.3616,17.3334 0.7063,8.211 1.7429,23.0067 2.6624,38 0.3822,6.2333 0.9655,14.6333 1.2962,18.6666 0.3306,4.0334 0.9515,13.6334 1.3795,21.3334 0.4281,7.7 1.0282,17.9 1.3336,22.6666 1.6243,25.3546 3.105,58.7381 3.9624,89.3334 0.3802,13.5666 1.1413,36.3666 1.6915,50.6666 1.1121,28.9086 1.2717,178.0117 0.2023,189 -0.3797,3.9009 -0.134,7 0.5549,7 0.711,0 0.6724,0.7081 -0.091,1.6667 -0.7623,0.9575 -1.7333,18.6857 -2.2821,41.6667 -0.5254,22 -1.1306,42.1 -1.3449,44.6666 -0.2143,2.5667 -0.8143,14.5667 -1.3333,26.6667 -0.5191,12.1 -1.1396,23.8 -1.379,26 -0.2393,2.2 -0.8487,12.4 -1.3541,22.6667 -0.5053,10.2666 -1.0896,18.9666 -1.2983,19.3333 -0.2087,0.3667 -0.776,8.4667 -1.2607,18 -0.4847,9.5333 -1.1231,19.7333 -1.4186,22.6667 -0.2955,2.9333 -0.8922,10.1333 -1.326,16 -0.4338,5.8666 -1.0432,13.6666 -1.3542,17.3333 -1.8358,21.6414 -2.1991,25.7749 -2.6362,30 -1.0551,10.1959 -2.0578,21.0845 -2.7013,29.3333 -0.3718,4.7667 -0.9499,11.3667 -1.2845,14.6667 -0.3347,3.3 -0.9438,9.3 -1.3537,13.3333 -0.4098,4.0334 -1.0295,9.4334 -1.3769,12 -0.3475,2.5667 -0.9346,7.3667 -1.3047,10.6667 -0.3701,3.3 -0.9919,8.4 -1.3817,11.3333 -0.8797,6.6185 -1.5898,12.5432 -2.6368,22 -0.4465,4.0334 -1.0342,8.8334 -1.306,10.6667 -0.2717,1.8333 -0.8609,6.6333 -1.3092,10.6667 -1.233,11.0929 -7.257,57.5354 -7.9554,61.3333 -0.3372,1.8333 -1.5645,10.8333 -2.7274,20 -1.1628,9.1666 -2.3642,17.5666 -2.6697,18.6666 -0.3056,1.1 -0.8841,5 -1.2857,8.6667 -0.4016,3.6667 -0.9612,7.8667 -1.2436,9.3333 -0.2823,1.4667 -0.948,5.6667 -1.4793,9.3334 -0.5313,3.6666 -1.1605,7.8666 -1.3982,9.3333 -0.2376,1.4667 -0.7889,5.6667 -1.2251,9.3333 -0.4362,3.6667 -1.3866,9.6667 -2.112,13.3334 -0.7254,3.6666 -4.0311,22.5666 -7.346,42 -3.3149,19.4333 -6.2504,36.5333 -6.5234,38 -5.6089,30.1324 -9.6132,50.7599 -13.3296,68.6666 -2.5113,12.1 -4.8462,23.5 -5.1886,25.3334 -1.8534,9.9244 -9.3431,44.7491 -13.6223,63.3392 -2.7,11.7301 -5.1073,22.5274 -5.3495,23.9941 -0.965,5.8442 -2.2235,11.3397 -6.1068,26.6667 -2.2297,8.8 -4.2519,17.2 -4.494,18.6666 -0.242,1.4667 -1.3856,5.9667 -2.5412,10 -1.1557,4.0334 -2.4021,8.9499 -2.7697,10.9256 -0.3676,1.9758 -3.0776,13.0758 -6.0221,24.6667 -2.9446,11.5909 -5.6112,22.2744 -5.9258,23.7411 -0.3146,1.4666 -0.9378,4.1666 -1.385,6 -0.4471,1.8333 -1.0319,4.2333 -1.2996,5.3333 -0.2677,1.1 -0.6019,2.3 -0.7426,2.6667 -0.1407,0.3666 -0.3952,1.2666 -0.5656,2 -0.1703,0.7333 -0.447,1.6333 -0.6148,2 -0.3519,0.7688 -0.9754,3.2639 -1.999,8 -1.4498,6.7074 -7.8301,30.413 -12.3807,46 -2.5691,8.8 -5.1521,17.8 -5.7398,20 -0.5878,2.2 -4.6731,16.3304 -9.0784,31.4009 -7.2201,24.6998 -11.0939,37.554 -20.874,69.2657 -4.9768,16.1371 -21.5859,67.6672 -25.8929,80.3334 -2.182,6.4166 -3.6318,11.6666 -3.2218,11.6666 0.4099,0 0.084,0.7971 -0.7247,1.7713 -0.8085,0.9743 -1.6919,2.9243 -1.963,4.3334 -0.271,1.4091 -0.8805,3.462 -1.3543,4.562 -0.4738,1.1 -5.3032,14.9 -10.7319,30.6667 -21.4894,62.4108 -40.9426,114.2435 -74.311,197.9999 -0.8764,2.2 -1.4967,4.45 -1.3782,5 0.1184,0.55 -0.4847,1 -1.3403,1 -0.8555,0 -1.2054,0.3502 -0.7775,0.7781 1.6817,1.6817 -47.9055,116.2965 -83.3077,192.5553 -24.5019,52.7788 -77.1247,157.6751 -104.3464,208 -30.5956,56.5623 -79.9589,143.7335 -94.0128,166.0184 -1.1,1.7442 -6.855,11.1536 -12.7888,20.9098 -17.9165,29.4576 -44.9799,73.0417 -54.1053,87.1338 -4.7267,7.2992 -11.2591,17.4617 -14.5166,22.5832 -3.2575,5.1216 -10.8727,16.7367 -16.9227,25.8114 -6.05,9.0747 -11,16.7549 -11,17.0671 0,0.3122 -5.6127,8.7971 -12.4726,18.8553 -6.86,10.0582 -16.4783,24.2244 -21.3741,31.4805 -4.8958,7.2561 -10.6831,15.4425 -12.8607,18.1919 -2.1776,2.7494 -3.9592,5.6126 -3.9592,6.3626 0,0.7501 -0.4796,1.5637 -1.0658,1.8082 -0.5862,0.2444 -8.5114,10.9444 -17.6115,23.7778 -45.792,64.5776 -96.0009,132.0273 -127.0458,170.671 -0.8856,1.1024 -3.7102,4.7004 -6.2769,7.9956 -2.5667,3.2951 -5.6739,7.1932 -6.9049,8.6623 -1.2311,1.4691 -8.4061,10.471 -15.9446,20.0044 -7.5385,9.5333 -14.053,17.6333 -14.4765,18 -0.4236,0.3666 -4.6316,5.4666 -9.3512,11.3333 -4.7195,5.8667 -17.5885,21.4667 -28.5977,34.6667 -25.0478,30.0321 -24.7446,29.6754 -36.943,43.4642 -4.1532,4.6947 -11.8646,13.6358 -17.1364,19.8691 -5.2718,6.2333 -10.8738,12.5941 -12.4488,14.135 -1.5749,1.541 -4.9188,5.141 -7.4307,8 -4.6155,5.2533 -6.7325,7.6113 -26.2392,29.2248 -14.0421,15.5589 -40.678,44.8934 -42.4663,46.7689 -0.7667,0.8041 -9.494,10.0924 -19.394,20.6406 -49.1243,52.3406 -125.3448,128.7374 -176.1566,176.564 -22.4126,21.0958 -46.0042,43.0192 -54.5101,50.6555 -4.7667,4.2794 -11.0667,10.0174 -14,12.7512 -2.9333,2.7338 -10.7957,9.7942 -17.472,15.6898 -6.6763,5.8956 -13.9046,12.4108 -16.0629,14.4781 -5.4963,5.2646 -22.0446,19.8531 -26.4572,23.3241 -2.0241,1.5922 -4.9911,4.1413 -6.5933,5.6647 -8.4565,8.041 -67.1567,57.5078 -90.0813,75.9118 -9.1666,7.359 -16.9666,13.7177 -17.3333,14.1304 -0.3667,0.4127 -8.1667,6.7219 -17.3333,14.0205 -9.1667,7.2985 -17.2667,13.7588 -18,14.3562 -11.436,9.3154 -51.0515,39.6821 -82.0281,62.8773 -50.2815,37.6507 -58.0314,43.3155 -107.9719,78.9218 -7.7,5.4899 -15.0569,10.86 -16.3486,11.9335 -1.2917,1.0735 -2.9417,1.9518 -3.6667,1.9518 -0.7249,0 -1.318,0.4577 -1.318,1.0171 0,0.5595 -1.1547,1.6095 -2.566,2.3334 -1.4112,0.7239 -8.1612,5.2783 -15,10.1209 -19.9119,14.0998 -77.5611,52.2668 -118.7483,78.6179 -17.4755,11.1807 -25.0716,15.9135 -57.6857,35.9418 -14.6667,9.0068 -32.0522,19.7344 -38.6346,23.8391 -14.3876,8.972 -16.7666,10.4037 -19.3654,11.6541 -1.1,0.5292 -3.5,1.9857 -5.3334,3.2366 -5.2444,3.5782 -38.9397,23.0459 -75.3333,43.5243 -31.5027,17.7263 -48.967,27.2376 -84.6667,46.1106 -8.4333,4.4584 -15.6333,8.4941 -16,8.9682 -1.3561,1.7536 -96.4554,49.4759 -164,82.2977 -43.7109,21.2404 -155.1573,70.5654 -204,90.2882 -24.7953,10.0125 -25.6369,10.3463 -27.3333,10.8439 -0.7333,0.2151 -20.5333,7.9566 -44,17.2033 -45.5248,17.9384 -117.9558,44.5998 -157.3333,57.9135 -13.2,4.463 -24.9,8.4995 -26,8.97 -1.1,0.4705 -2.6636,0.9991 -3.4746,1.1746 -0.811,0.1755 -13.411,4.2421 -28,9.0368 -34.7241,11.4122 -89.2505,28.4694 -115.1921,36.0349 -70.5989,20.5891 -100.2158,28.9163 -115,32.3337 -1.2833,0.2966 -3.6833,0.8744 -5.3333,1.284 -1.65,0.4095 -3.6,0.8764 -4.3333,1.0375 -0.7334,0.1611 -2.0834,0.7614 -3,1.334 -0.9167,0.5727 -1.6667,0.7477 -1.6667,0.389 0,-0.3588 -1.95,-0.061 -4.3333,0.661 -4.8352,1.4655 -8.2109,2.3344 -12.6816,3.2643 -1.6582,0.3449 -22.0582,5.3802 -45.3333,11.1895 -61.429,15.3321 -178.6064,40.973 -216.6662,47.411 -2.3754,0.4018 -11.8189,2.174 -20.9856,3.9383 -9.1667,1.7642 -22.6667,4.1792 -30,5.3667 -7.3333,1.1875 -14.8333,2.4265 -16.6667,2.7532 -1.8333,0.3268 -11.9265,2.0637 -22.4294,3.8598 -10.5028,1.7961 -20.1028,3.5787 -21.3333,3.9613 -1.2305,0.3826 -5.5373,1.0278 -9.5706,1.4339 -8.9332,0.8995 -12.9419,1.4813 -28,4.0643 -1.8333,0.3144 -6.0333,0.9133 -9.3333,1.3308 -3.3,0.4175 -20.4,2.791 -38,5.2744 -17.6,2.4834 -39.5,5.4627 -48.6667,6.6207 -9.1666,1.158 -18.7666,2.3736 -21.3333,2.7015 -2.5667,0.3278 -7.6667,0.9429 -11.3333,1.367 -3.6667,0.424 -8.7667,1.024 -11.3334,1.3333 -2.5666,0.3093 -7.6666,0.9093 -11.3333,1.3333 -3.6667,0.4241 -8.7667,1.0244 -11.3333,1.334 -23.8158,2.8734 -39.7019,4.6119 -48.6667,5.3259 -5.8667,0.4672 -12.1667,1.0642 -14,1.3265 -1.8333,0.2624 -8.1333,0.84 -14,1.2835 -5.8667,0.4435 -12.7667,1.0648 -15.3333,1.3806 -6.137,0.7552 -15.9615,1.6954 -26.6667,2.5519 -4.7667,0.3814 -12.5667,1.0056 -17.3333,1.3871 -12.564,1.0056 -24.1945,1.8004 -39.3334,2.688 -7.3333,0.43 -16.0333,1.0603 -19.3333,1.4006 -11.0312,1.1377 -78.9024,4.5402 -117.3333,5.8823 -20.9,0.7298 -50,1.7942 -64.6667,2.3652 -30.1097,1.1723 -172.2021,1.3762 -186.9734,0.2683 -5.9585,-0.4469 -9.8116,-0.2085 -10.0892,0.6245 -0.2937,0.8811 -0.7503,0.8602 -1.3193,-0.06 z m 119.2892,-1588.7494 c 0.3477,-2.4119 2.0197,-3.3762 9.0927,-5.2437 4.7667,-1.2586 10.5738,-2.3287 12.9048,-2.378 2.3309,-0.049 5.2551,-1.1067 6.4982,-2.3498 1.431,-1.431 5.123,-2.4673 10.0631,-2.8246 4.3778,-0.3167 8.4739,-1.373 9.3316,-2.4065 0.8409,-1.0131 3.1219,-1.8421 5.0689,-1.8421 1.947,0 4.7236,-0.8217 6.1701,-1.8261 1.4465,-1.0043 4.73,-2.1816 7.2966,-2.6161 17.9665,-3.0414 22.6416,-4.1305 27.6264,-6.4359 3.0946,-1.4311 9.3946,-3.2714 14,-4.0894 4.6055,-0.818 9.2136,-2.135 10.2401,-2.9266 1.0266,-0.7915 5.5266,-2.1361 10,-2.988 14.4152,-2.7449 21.4189,-4.7058 23.5719,-6.5996 1.1577,-1.0184 3.8577,-1.8606 6,-1.8717 2.1422,-0.011 6.295,-0.8847 9.2283,-1.9414 2.9333,-1.0568 9.5903,-1.9478 14.7933,-1.98 7.5671,-0.047 9.9209,-0.5677 11.7631,-2.6033 1.2667,-1.3997 4.2097,-3.2529 6.54,-4.1184 2.3303,-0.8654 5.7369,-2.326 7.5703,-3.2458 1.8333,-0.9198 7.5333,-2.3714 12.6666,-3.2258 5.1334,-0.8544 12.8936,-2.1486 17.2449,-2.876 4.3514,-0.7274 10.0514,-1.3469 12.6667,-1.3767 3.2872,-0.038 6.1801,-1.2723 9.3714,-4 3.982,-3.4036 5.696,-3.9458 12.4742,-3.9458 6.3376,0 8.5898,-0.6159 11.6409,-3.1832 4.0508,-3.4085 16.1067,-6.1502 27.0445,-6.1502 3.4232,0 6.2241,-0.6 6.2241,-1.3333 0,-3.6311 5.4886,-6.6667 12.054,-6.6667 4.6076,0 7.8565,-0.8336 10.3333,-2.6513 4.3156,-3.1672 22.6032,-6.6228 35.2324,-6.6574 7.9146,-0.022 9.1364,-0.3726 10.533,-3.0246 2.0457,-3.8846 3.7462,-4.9545 7.914,-4.9796 1.87,-0.011 4.1007,-0.7211 4.9571,-1.5776 3.0425,-3.0424 11.8278,-5.1159 25.3248,-5.977 12.6418,-0.8065 13.9839,-1.1615 17.6545,-4.6693 2.6702,-2.5518 5.3691,-3.7965 8.2322,-3.7965 2.3427,0 5.4982,-1.1444 7.0121,-2.5432 1.8544,-1.7134 5.614,-2.8098 11.5212,-3.3601 4.8227,-0.4492 10.8187,-1.4047 13.3245,-2.1234 2.5058,-0.7186 6.3899,-1.3066 8.6314,-1.3066 2.2415,0 4.7762,-0.7007 5.6327,-1.5572 2.1065,-2.1065 10.336,-4.851 17.6428,-5.8838 3.3,-0.4664 7.2,-1.5953 8.6667,-2.5085 2.7529,-1.7142 3.5267,-1.9088 21.1857,-5.3286 5.7855,-1.1204 11.2002,-2.6024 12.0327,-3.2932 2.5276,-2.0978 13.0166,-5.223 20.7815,-6.1921 4.0334,-0.5033 8.2334,-1.634 9.3334,-2.5125 2.3107,-1.8456 11.7794,-4.7241 15.5394,-4.7241 1.4099,0 4.9171,-1.2 7.7939,-2.6667 2.8768,-1.4666 6.789,-2.6666 8.6938,-2.6666 1.9047,0 4.6279,-0.881 6.0514,-1.9576 1.4235,-1.0767 4.6881,-1.9804 7.2548,-2.0083 2.5667,-0.028 6.3858,-0.9471 8.4869,-2.043 5.9644,-3.1106 25.1032,-7.3245 33.2668,-7.3245 4.4039,0 8.1121,-0.7229 9.1786,-1.7894 2.7495,-2.7496 6.5536,-4.4334 12.401,-5.4893 2.9334,-0.5297 7.7334,-2.0426 10.6667,-3.3619 2.9333,-1.3193 8.6333,-2.8127 12.6667,-3.3186 7.6291,-0.9568 14.9865,-2.8497 19.0158,-4.8923 5.8935,-2.9876 15.5841,-5.4853 24.6363,-6.35 5.4271,-0.5184 10.2816,-1.6125 10.7877,-2.4314 0.5061,-0.819 2.7142,-1.8704 4.9069,-2.3366 10.3801,-2.207 16.2073,-3.9551 18.6166,-5.5848 1.4465,-0.9784 4.0158,-1.779 5.7095,-1.779 1.6937,0 5.1867,-0.8805 7.7621,-1.9565 2.5755,-1.0761 10.084,-2.3643 16.6855,-2.8627 9.5657,-0.7221 12.3587,-1.4141 13.7553,-3.4081 1.1647,-1.6628 4.9915,-3.1191 11.4098,-4.3421 5.3115,-1.012 10.3152,-2.498 11.1192,-3.302 0.8041,-0.8041 2.8717,-1.4619 4.5948,-1.4619 1.7231,0 4.7531,-0.8246 6.7334,-1.8325 1.9802,-1.0078 7.6133,-2.2516 12.5179,-2.764 5.0711,-0.5297 9.5986,-1.7522 10.4966,-2.8342 0.8685,-1.0465 3.4856,-1.9027 5.8158,-1.9027 2.3302,0 4.8874,-0.6506 5.6826,-1.4458 0.7951,-0.7951 5.2651,-1.7812 9.9333,-2.1911 6.6123,-0.5807 9.561,-1.5869 13.3461,-4.5542 3.621,-2.8387 6.3112,-3.8089 10.5617,-3.8089 3.2479,0 6.6735,-0.8782 7.9572,-2.0399 1.2397,-1.1219 5.487,-2.6314 9.4383,-3.3544 18.1766,-3.3256 23.8397,-4.7249 25.3857,-6.2723 0.9159,-0.9167 2.9252,-1.6667 4.4652,-1.6667 1.54,0 3.3963,-0.5963 4.125,-1.325 0.7288,-0.7288 5.1988,-1.7091 9.9334,-2.1785 4.7345,-0.4693 9.5083,-1.5919 10.6083,-2.4946 1.1,-0.9026 4.1,-2.005 6.6666,-2.4496 4.5287,-0.7846 17.7106,-4.3197 31.3334,-8.4028 3.6666,-1.099 10.5579,-2.6437 15.3139,-3.4327 4.756,-0.789 10.156,-2.4915 12,-3.7833 1.844,-1.2918 8.1318,-3.0208 13.9728,-3.8423 5.8411,-0.8215 11.97,-2.3781 13.6198,-3.4591 1.6498,-1.081 5.0853,-1.9654 7.6345,-1.9654 2.5492,0 4.963,-0.5308 5.3639,-1.1795 0.4009,-0.6487 3.3873,-1.5781 6.6363,-2.0654 3.2491,-0.4872 6.6299,-1.7564 7.513,-2.8205 0.9043,-1.0897 3.8926,-1.9346 6.8419,-1.9346 2.88,0 6.8946,-0.8576 8.9214,-1.9057 2.0269,-1.0481 7.4115,-2.3273 11.966,-2.8425 4.5544,-0.5153 8.7163,-1.6769 9.2486,-2.5815 0.5323,-0.9045 2.7679,-1.9818 4.9679,-2.394 10.0814,-1.8889 17.7623,-4.0443 22.7178,-6.3751 2.9615,-1.3929 12.8615,-3.5463 22,-4.7853 11.9453,-1.6196 17.2689,-2.9179 18.9401,-4.6193 3.1172,-3.1732 10.7174,-5.1468 19.8554,-5.1559 6.4218,-0.01 7.8131,-0.465 9.5772,-3.1573 1.7761,-2.7107 3.8891,-3.391 15.1533,-4.8785 7.1992,-0.9508 13.6895,-2.4474 14.4228,-3.3258 2.1121,-2.5299 12.2587,-5.9791 17.5887,-5.9791 2.6774,0 5.8892,-0.9242 7.1372,-2.0537 2.3529,-2.1293 10.8291,-4.1122 24.6075,-5.7566 4.4,-0.5251 9.2,-1.644 10.6666,-2.4865 5.8759,-3.3751 10.9236,-5.1205 15.9987,-5.5322 2.9326,-0.2379 6.5326,-1.1059 8,-1.9288 5.4325,-3.0467 12.2947,-4.9171 23.3347,-6.3603 6.2333,-0.8149 12.2333,-2.0345 13.3333,-2.7103 6.0394,-3.7102 13.1625,-6.4499 16.8367,-6.4757 2.2936,-0.016 4.854,-0.8534 5.69,-1.8606 0.8359,-1.0072 4.6593,-2.2232 8.4965,-2.7021 11.8476,-1.4787 21.5438,-3.8151 23.8077,-5.7368 1.1903,-1.0103 5.0903,-2.3935 8.6667,-3.0736 14.3291,-2.725 22.5957,-4.7163 24.3996,-5.8774 2.1018,-1.3528 8.6752,-2.9432 20.7694,-5.0249 4.4,-0.7573 11.2988,-2.9031 15.3306,-4.7684 4.1276,-1.9096 12.188,-4.0351 18.4478,-4.8647 6.9198,-0.917 11.7034,-2.2375 12.6695,-3.4973 1.6931,-2.2077 14.8344,-5.2901 22.5537,-5.2901 2.6626,0 5.2172,-0.6086 5.6769,-1.3524 1.5387,-2.4897 11.1686,-6.6476 15.396,-6.6476 2.2994,0 5.7733,-0.8701 7.7198,-1.9335 5.4533,-2.9794 26.9343,-7.3999 35.9588,-7.3999 4.4492,0 8.4514,-0.5854 8.8935,-1.3008 0.4422,-0.7155 4.5541,-3.3981 9.1375,-5.9613 6.32,-3.5343 10.8967,-4.977 18.9414,-5.9709 24.4411,-3.0197 30.3801,-4.2994 34.4943,-7.4326 2.8404,-2.1631 6.7959,-3.4225 12.7802,-4.069 4.7667,-0.515 9.5667,-1.6703 10.6667,-2.5674 2.3027,-1.878 18.9721,-6.04 24.1701,-6.0348 1.9269,0 4.2503,-0.8965 5.1632,-1.9965 0.913,-1.1 2.6529,-2 3.8666,-2 1.2137,0 3.3903,-0.8218 4.8368,-1.8263 1.4465,-1.0045 6.4463,-2.0976 11.1107,-2.4291 6.1059,-0.434 8.8313,-1.2293 9.7329,-2.8403 0.6988,-1.2487 2.8729,-2.2376 4.9193,-2.2376 2.0169,0 4.2408,-0.5738 4.9421,-1.2751 0.7013,-0.7012 6.2193,-1.6873 12.2622,-2.1913 6.6169,-0.5518 11.5842,-1.6357 12.4882,-2.725 0.8256,-0.9947 2.8542,-1.8086 4.5079,-1.8086 1.6538,0 3.7538,-0.9 4.6667,-2 0.9129,-1.1 2.6818,-2 3.9308,-2 1.2491,0 3.5056,-1.35 5.0146,-3 2.2361,-2.4451 2.9187,-5.574 3.6903,-16.9157 0.5206,-7.6536 1.1297,-14.8661 1.3534,-16.0278 0.2237,-1.1616 1.1372,-13.4995 2.0301,-27.4176 0.8929,-13.9181 2.1915,-26.3866 2.8859,-27.7079 0.6944,-1.3213 1.8114,-11.8213 2.4824,-23.3333 1.6554,-28.4056 5.0655,-73.0725 6.6483,-87.0822 0.7136,-6.3164 1.2975,-14.4464 1.2975,-18.0666 0,-3.6203 0.5746,-7.1569 1.2769,-7.8592 0.7023,-0.7023 1.6612,-6.9723 2.1308,-13.9333 0.4697,-6.961 1.4437,-18.9564 2.1645,-26.6564 0.7208,-7.7 1.7621,-21.5 2.3141,-30.6667 0.5519,-9.1667 1.802,-18.3218 2.7778,-20.3447 1.4813,-3.0707 1.4758,-4.2358 -0.033,-7.0559 -1.4691,-2.7449 -1.5101,-4.819 -0.2193,-11.0689 0.8738,-4.23 1.6099,-10.9549 1.6359,-14.9441 0.026,-3.9892 0.9047,-8.7531 1.9527,-10.5864 1.048,-1.8333 1.9268,-6.8022 1.9528,-11.0418 0.034,-5.59 0.5969,-7.9195 2.0472,-8.476 2.6378,-1.0123 2.6244,-8.9708 -0.019,-11.1645 -1.5914,-1.3207 -1.8522,-3.543 -1.2317,-10.4966 0.4329,-4.8516 1.3011,-10.0211 1.9293,-11.4878 0.6283,-1.4666 1.7966,-14.7099 2.5964,-29.4296 0.7998,-14.7196 2.0365,-30.3196 2.7484,-34.6666 0.7119,-4.3471 1.3168,-10.3038 1.3444,-13.2371 0.028,-2.9333 0.9311,-6.498 2.0077,-7.9215 1.5582,-2.0601 1.9576,-7.6444 1.9576,-27.37 0,-18.7161 0.4439,-25.4255 1.8133,-27.4118 1.2996,-1.8848 2.0233,-9.808 2.5542,-27.9633 0.8123,-27.7729 3.1634,-49.5528 5.6853,-52.6667 1.1017,-1.3603 1.9219,-12.0068 2.5643,-33.2869 0.6353,-21.0436 1.5032,-32.3934 2.6511,-34.6666 1.0872,-2.1531 2.0424,-12.4944 2.6316,-28.4905 0.5087,-13.8108 1.4593,-26.4108 2.1124,-28 1.0912,-2.6547 3.538,-33.7889 4.9426,-62.8893 0.3441,-7.1302 1.2817,-12.8117 2.3102,-14 1.1521,-1.3311 2.0358,-8.6899 2.6422,-22 0.5011,-11 2.0561,-35.3 3.4555,-54 1.3995,-18.7 2.9218,-39.4 3.383,-46 0.4612,-6.6 1.6737,-13.3162 2.6945,-14.9248 1.3447,-2.1189 2.2195,-11.8051 3.1754,-35.1576 0.7257,-17.728 1.8522,-32.9119 2.5034,-33.7419 0.6511,-0.83 1.5651,-11.6371 2.0309,-24.0158 0.4659,-12.3788 1.4575,-24.6788 2.2036,-27.3334 1.4138,-5.0304 3.1485,-24.7563 5.3238,-60.5404 0.7037,-11.576 1.8892,-22.1865 2.6344,-23.579 0.7453,-1.3925 1.3977,-7.8213 1.4499,-14.2861 0.052,-6.4649 0.667,-16.5544 1.3662,-22.421 1.1582,-9.7166 5.1225,-55.5827 7.3755,-85.3334 0.4999,-6.6 1.6543,-13.2 2.5653,-14.6666 1.1252,-1.8113 1.8455,-11.5576 2.2457,-30.3851 0.3941,-18.5364 1.1021,-28.2313 2.1375,-29.2667 0.9526,-0.9526 1.5645,-6.4467 1.5905,-14.2816 0.023,-7.0033 0.9116,-18.7333 1.9741,-26.0666 1.0625,-7.3334 1.9435,-17.1131 1.9577,-21.7329 0.014,-4.6197 0.8492,-10.0197 1.8554,-12 1.2442,-2.4487 2.1373,-11.9025 2.7918,-29.5538 0.6991,-18.8512 1.4754,-26.6857 2.8372,-28.63 1.3933,-1.9892 1.8925,-7.6518 1.9433,-22.0467 0.038,-10.6535 0.6819,-23.5699 1.4317,-28.7033 0.7497,-5.1333 1.6668,-13.3496 2.038,-18.2584 0.405,-5.3564 1.432,-9.5535 2.5683,-10.4966 1.4958,-1.2413 1.908,-6.3693 1.962,-24.4082 0.038,-12.5602 0.6844,-27.0368 1.4371,-32.1701 0.7527,-5.1333 1.615,-13.8333 1.9162,-19.3333 2.0542,-37.5155 3.6151,-56.8387 4.6797,-57.9334 0.6775,-0.6966 1.2319,-4.4861 1.2319,-8.421 0,-3.9348 0.7165,-8.4648 1.5923,-10.0666 0.9875,-1.8062 1.7534,-11.0156 2.0166,-24.2457 0.2957,-14.8673 1.0255,-22.857 2.4077,-26.3603 1.3648,-3.4592 2.0138,-10.3206 2.0807,-22 0.054,-9.3352 0.6904,-20.273 1.4152,-24.3064 0.7248,-4.0333 1.82,-14.7119 2.4338,-23.7301 0.6139,-9.0183 1.8501,-18.1688 2.7472,-20.3346 1.2726,-3.0724 1.2782,-4.3628 0.025,-5.8725 -0.8832,-1.0641 -1.2645,-3.0136 -0.8474,-4.3321 0.4171,-1.3185 1.3438,-10.1973 2.0594,-19.7307 3.9704,-52.8991 6.2173,-78.7323 7.8279,-90 0.6813,-4.7666 1.9444,-19.4666 2.807,-32.6666 1.0305,-15.7718 2.2434,-25.3159 3.5376,-27.838 1.4874,-2.8989 2.1549,-11.2137 2.7278,-33.9807 0.5122,-20.3555 1.309,-31.2313 2.4539,-33.4953 1.0816,-2.1388 2.0372,-12.7461 2.6394,-29.2954 0.5191,-14.2684 1.4985,-26.979 2.1764,-28.2456 0.6779,-1.2667 1.2362,-6.3925 1.2407,-11.3907 0,-4.9982 0.7879,-10.5877 1.7409,-12.421 1.2082,-2.3246 1.7707,-10.2719 1.8587,-26.2624 0.1,-18.1568 0.5701,-23.819 2.2592,-27.2049 1.3197,-2.6454 2.133,-7.6941 2.133,-13.2409 0,-6.3425 0.5851,-9.4509 2,-10.6251 2.4225,-2.0105 2.6306,-6.2343 0.3448,-6.9962 -2.1859,-0.7286 -1.4585,-19.3024 0.9008,-23.0038 1.1022,-1.7293 1.7898,-8.5127 1.9559,-19.297 0.1908,-12.3905 0.7502,-17.1763 2.194,-18.7717 2.3039,-2.5458 2.4926,-5.5099 0.479,-7.5235 -1.3939,-1.3939 -1.1784,-7.9412 0.7594,-23.0745 0.4226,-3.3 1.3464,-10.5 2.053,-16 0.7065,-5.5 1.5985,-21.4 1.9821,-35.3333 0.4828,-17.5327 1.2865,-26.7703 2.6104,-30 1.5705,-3.8315 4.3429,-30.0729 6.5858,-62.3366 0.2168,-3.1185 1.3858,-6.7657 2.5978,-8.105 1.9058,-2.1059 2.2037,-6.318 2.2037,-31.1624 0,-20.772 0.5013,-30.1585 1.8104,-33.895 1.1289,-3.2224 2.1704,-15.2057 2.7669,-31.8343 0.555,-15.4734 1.7046,-29.1852 2.7389,-32.6667 0.9926,-3.3417 2.4683,-19.8822 3.3307,-37.3333 1.1208,-22.6796 2.0738,-32.149 3.4508,-34.2865 1.2662,-1.9657 1.9199,-6.8696 1.9548,-14.6666 0.029,-6.4425 0.9942,-21.6136 2.1451,-33.7136 1.1508,-12.1 2.3788,-26.4724 2.7289,-31.9386 0.3501,-5.4662 1.4563,-11.109 2.4583,-12.5395 1.2801,-1.8276 1.434,-3.3252 0.5177,-5.0373 -0.7172,-1.3401 -1.0224,-4.6974 -0.6782,-7.4606 0.3441,-2.7632 1.0472,-10.724 1.5625,-17.6907 0.5152,-6.9666 1.749,-13.8501 2.7416,-15.2966 1.3053,-1.9021 1.8396,-8.1762 1.9302,-22.6667 0.069,-11.0202 0.6817,-25.7367 1.3618,-32.7033 0.6802,-6.9667 1.8086,-20.7667 2.5077,-30.6667 1.6298,-23.0807 2.2185,-29.2318 3.1903,-33.3333 0.4344,-1.8334 1.3642,-11.1334 2.0663,-20.6667 0.702,-9.5333 1.9591,-26.6333 2.7935,-38 0.8343,-11.3667 2.0273,-21.8667 2.651,-23.3333 0.6237,-1.4667 1.4733,-9.8667 1.8878,-18.6667 1.5822,-33.5834 2.443,-45.3777 3.406,-46.6667 1.418,-1.8979 2.6568,-14.6944 4.1822,-43.2033 0.7298,-13.6382 1.908,-29.2967 2.6183,-34.7967 0.7103,-5.5 1.723,-17.5607 2.2506,-26.8017 0.5276,-9.241 1.6291,-17.641 2.4479,-18.6667 0.8489,-1.0634 1.8836,-10.7464 2.4078,-22.5316 0.5055,-11.3666 1.8386,-29.3666 2.9625,-40 1.1238,-10.6333 2.5996,-24.7333 3.2795,-31.3333 0.6799,-6.6 1.6818,-21.6 2.2265,-33.3333 0.5447,-11.7334 1.6533,-22.5334 2.4635,-24 0.8103,-1.4667 1.8599,-12.4814 2.3326,-24.4773 0.4727,-11.9958 1.3048,-22.4958 1.8492,-23.3333 0.9066,-1.3948 3.5412,-29.522 4.8886,-52.1894 0.3051,-5.1333 1.1972,-15.0333 1.9824,-22 1.7513,-15.538 3.5884,-36.0331 5.4381,-60.6667 1.8864,-25.1231 4.4591,-46.9174 5.6806,-48.1236 0.55,-0.5431 1,-9.0173 1,-18.8315 0,-12.4001 0.5537,-18.9424 1.8149,-21.4444 1.2105,-2.4013 2.1026,-11.553 2.6786,-27.4782 0.4751,-13.1328 1.3891,-24.5328 2.0313,-25.3334 0.6421,-0.8005 1.6015,-10.4555 2.132,-21.4555 0.5304,-11 1.8354,-29.3 2.8999,-40.6667 2.1116,-22.5472 3.9932,-46.7884 5.4852,-70.6667 0.527,-8.4333 1.6306,-16.5333 2.4526,-18 1.5928,-2.842 2.4716,-13.2914 4.4296,-52.6666 0.6746,-13.5667 1.6042,-28.8667 2.0657,-34 0.4614,-5.1334 1.0381,-11.8363 1.2814,-14.8955 0.2432,-3.0592 0.7614,-6.0786 1.1514,-6.7096 0.39,-0.6311 0.8534,-6.2281 1.0296,-12.4378 0.1763,-6.2098 1.1217,-12.9107 2.1008,-14.8909 0.9792,-1.9803 1.7804,-6.0491 1.7804,-9.0419 0,-3.6068 0.6743,-5.7001 2,-6.2088 2.4808,-0.952 2.779,-12.5031 0.3846,-14.8975 -1.7141,-1.7142 -1.5443,-11.9789 0.2357,-14.2514 0.5744,-0.7333 1.3424,-11.1259 1.7067,-23.0946 0.4115,-13.5255 1.2319,-22.331 2.1676,-23.2666 1.7292,-1.7293 2.0229,-7.1615 0.44,-8.1398 -1.7619,-1.0889 1.9072,-34.4044 4.2767,-38.8323 1.4866,-2.778 1.8925,-5.6995 1.3287,-9.5633 -0.6729,-4.6115 -0.3323,-5.974 1.9907,-7.963 3.2741,-2.8034 3.6536,-7.4409 0.8026,-9.807 -2.7539,-2.2855 -2.7856,-19.7851 -0.042,-23.4118 1.3163,-1.7404 1.9586,-5.864 1.9608,-12.5882 0.01,-17.5663 4.2373,-67.1614 6.0865,-71.3334 1.2105,-2.7309 2.0049,-13.2135 2.504,-33.0412 0.5807,-23.0712 1.1517,-29.6419 2.7777,-31.9633 1.5145,-2.1623 2.0835,-6.7456 2.188,-17.6255 0.2515,-26.1705 2.8056,-49.7792 5.9176,-54.6979 1.1895,-1.8802 1.8409,-11.4201 2.1982,-32.1928 0.3148,-18.3099 1.0531,-30.2092 1.9439,-31.3334 0.8314,-1.0491 1.795,-12.2102 2.2878,-26.5002 0.4684,-13.5782 1.4701,-26.7782 2.226,-29.3333 0.7559,-2.5551 1.9685,-17.2457 2.6945,-32.6457 0.726,-15.4 1.9059,-29.7395 2.622,-31.8656 0.7161,-2.1261 1.3021,-6.4972 1.3021,-9.7136 0,-3.2164 0.8358,-7.1768 1.8574,-8.801 1.2919,-2.054 2.1023,-9.6509 2.6618,-24.9531 0.4424,-12.1 1.1868,-28.15 1.6542,-35.6667 l 0.8497,-13.6666 H 4666.6668 2358.3104 l 0.8497,13.6666 c 0.4674,7.5167 1.2118,23.5667 1.6542,35.6667 0.5595,15.3022 1.3699,22.8991 2.6618,24.9531 1.0216,1.6242 1.8575,5.5846 1.8575,8.801 0,3.2164 0.5772,7.5875 1.2826,9.7136 0.7055,2.1261 1.8865,16.4656 2.6244,31.8656 0.7379,15.4 1.9591,30.0906 2.7138,32.6457 0.7547,2.5551 1.7553,15.7551 2.2237,29.3333 0.4929,14.29 1.4564,25.4511 2.2878,26.5002 0.8908,1.1242 1.6291,13.0235 1.944,31.3334 0.3572,20.7727 1.0086,30.3126 2.1981,32.1928 3.173,5.0151 5.6699,28.6097 5.9258,55.9946 0.1103,11.8019 0.7041,17.0495 2.2631,20 1.6472,3.1173 2.2754,10.0317 2.8465,31.3333 0.5322,19.8515 1.2288,28.0533 2.5448,29.9634 0.9966,1.4465 1.8384,5.9465 1.8706,10 0.032,4.0535 0.5869,11.87 1.2327,17.37 0.7099,6.0461 0.6867,10.5008 -0.059,11.2666 -1.8578,1.909 -1.482,5.5333 0.7673,7.4 1.5855,1.3159 2,5.166 2,18.5751 0,12.8088 0.4753,17.5436 1.9576,19.5034 2.7509,3.637 2.7825,20.9808 0.042,23.2549 -2.851,2.3661 -2.4715,7.0036 0.8026,9.807 2.323,1.989 2.6636,3.3515 1.9907,7.963 -0.5638,3.8638 -0.1579,6.7853 1.3287,9.5633 2.3695,4.4279 6.0386,37.7434 4.2767,38.8323 -1.4795,0.9144 -1.3323,5.407 0.2682,8.1858 0.7334,1.2734 1.9564,9.8152 2.7179,18.9819 3.3421,40.237 3.3401,40.1842 1.6152,41.6128 -2.5141,2.0823 -2.235,17.8838 0.3333,18.8694 1.1,0.4221 2,2.213 2,3.9798 0,1.7668 0.7987,5.2356 1.7749,7.7085 0.9762,2.4729 1.9346,9.2962 2.1298,15.1628 0.1952,5.8667 0.6797,11.1939 1.0766,11.8383 0.3969,0.6445 0.9624,4.5445 1.2567,8.6667 0.2943,4.1223 1.1091,14.095 1.8107,22.1617 0.7016,8.0667 1.2676,19.1667 1.2578,24.6667 -0.025,14.1167 2.6074,46.5025 4.2002,51.6725 1.2982,4.2137 2.8498,20.0867 5.1801,52.9941 0.6232,8.8 2.0088,25.3 3.0792,36.6667 1.0704,11.3667 2.3802,29.6667 2.9106,40.6667 0.5305,11 1.484,20.6479 2.1191,21.4399 0.635,0.792 1.5169,11.892 1.9597,24.6667 0.5167,14.9029 1.4812,25.0282 2.6916,28.2537 1.4113,3.7608 1.8864,12.2253 1.8864,33.6074 0,28.2871 0.034,28.6309 3.3333,33.4924 1.8333,2.7016 3.3417,6.7783 3.3518,9.0593 0.064,14.2912 2.926,58.1265 4.0137,61.466 0.7192,2.208 1.9147,13.0146 2.6567,24.0146 3.3759,50.0422 4.1381,58.8574 5.3348,61.6938 0.7025,1.6649 1.6665,12.4649 2.1422,24 0.4757,11.535 1.528,22.1728 2.3385,23.6395 0.8105,1.4666 1.9135,12.2666 2.4511,24 0.5376,11.7333 1.5607,27.3333 2.2735,34.6666 0.7128,7.3334 1.7072,21.4334 2.2098,31.3334 0.5027,9.9 1.4422,18.6706 2.0878,19.4903 0.6457,0.8197 1.5373,10.1197 1.9813,20.6667 0.5177,12.2957 1.4411,20.1941 2.5735,22.0129 1.1225,1.803 1.9946,9.0901 2.3935,20 0.3451,9.4399 1.5645,27.0634 2.7097,39.1634 1.1453,12.1 2.75,31.6 3.5662,43.3333 1.8712,26.9021 2.0977,29.2094 3.6641,37.3334 0.7069,3.6666 1.7171,15.6278 2.2448,26.5803 0.5278,10.9524 1.4581,20.8524 2.0674,22 0.6094,1.1475 1.7387,11.6863 2.5096,23.4197 1.4312,21.7822 4.6444,60.0085 6.0521,72 0.4305,3.6666 1.341,13.8666 2.0235,22.6666 0.6825,8.8 1.8142,21.4 2.5149,28 0.7007,6.6 1.3262,21.0165 1.3901,32.0367 0.086,14.7755 0.6018,20.7302 1.966,22.6778 1.0367,1.4801 2.17,7.6184 2.5779,13.9634 0.4004,6.2272 0.9782,14.3221 1.2842,17.9888 0.3059,3.6667 -0.069,8.057 -0.8328,9.7564 -1.0576,2.3524 -0.8694,4.1023 0.7885,7.3333 1.1976,2.334 2.483,7.8436 2.8564,12.2436 3.3392,39.3517 4.7323,58.6561 4.7676,66.0667 0.023,4.8033 0.6159,9.3076 1.3179,10.0096 0.7019,0.7019 1.6298,9.3719 2.062,19.2666 0.4323,9.8948 1.339,20.0905 2.015,22.6571 0.676,2.5667 1.5228,10.3667 1.8818,17.3334 0.359,6.9666 1.2591,16.2666 2.0002,20.6666 0.7411,4.4 1.7562,17.9 2.2559,30 0.5202,12.5969 1.6779,24.2087 2.7087,27.1677 1.2957,3.7195 1.8001,13.2175 1.8001,33.895 0,24.8444 0.2979,29.0565 2.2037,31.1624 1.212,1.3393 2.3859,4.9865 2.6086,8.105 2.2809,31.9339 4.649,57.0591 5.6869,60.3366 1.7326,5.4707 2.9439,18.4168 4.3041,46 0.6329,12.8333 1.762,28.7333 2.5091,35.3333 0.7471,6.6 1.9444,20.7 2.6607,31.3333 0.7163,10.6334 1.8914,21.4334 2.6113,24 1.4647,5.2222 4.081,40.6196 4.139,56 0.023,6.1597 0.7695,11.2801 1.9433,13.3334 1.4443,2.5266 1.9169,8.9209 1.9527,26.421 0.026,12.6982 0.6298,24.1761 1.3418,25.5065 2.4013,4.4869 6.3829,45.0286 6.5936,67.1387 0.069,7.2567 0.826,13.1138 1.9837,15.3526 1.3687,2.6467 2.0769,11.7683 2.6347,33.9318 0.5799,23.0483 1.2223,31.0314 2.6805,33.314 1.3379,2.0944 2.5634,12.4759 4.0532,34.3354 1.1745,17.2333 2.7052,33.7333 3.4016,36.6666 0.6963,2.9334 2.2502,18.8334 3.4531,35.3334 1.2029,16.5 2.6924,36.6 3.3099,44.6666 1.4606,19.0802 1.5096,21.8172 0.4833,27.0025 -0.5501,2.7793 -0.1829,5.412 1.0229,7.3334 1.2444,1.983 2.0163,7.9613 2.2807,17.6641 0.2199,8.0667 0.9144,15.2953 1.5434,16.0636 0.629,0.7683 1.5211,11.8683 1.9823,24.6667 0.5361,14.8756 1.5199,25.0831 2.7273,28.2967 1.3121,3.4924 1.8947,11.0222 1.9087,24.6667 0.014,13.6995 0.6012,21.2528 1.9415,24.973 1.0567,2.9333 1.9477,8.3633 1.9799,12.0667 0.032,3.7033 0.6066,7.3033 1.2766,8 0.6699,0.6966 1.8769,12.3666 2.6821,25.9333 1.8757,31.6021 2.375,38.1943 3.938,52 0.7057,6.2333 1.3308,20.7099 1.3891,32.1701 0.082,16.0789 0.53,21.1885 1.9625,22.3775 1.1103,0.9214 2.1672,5.4087 2.6293,11.1632 0.4251,5.2924 1.3525,14.1225 2.0611,19.6225 0.7086,5.5 1.3254,18.2711 1.3707,28.3803 0.061,13.5147 0.585,19.1619 1.981,21.3333 1.3763,2.1408 2.1626,10.073 2.8584,28.8369 0.6471,17.4514 1.5463,27.0076 2.7599,29.3333 1.3562,2.599 1.8021,10.9122 1.8083,33.7166 0.01,24.0345 0.38,30.4867 1.8137,31.3334 3.6194,2.1374 5.9955,20.0975 6.112,46.198 0.059,13.1413 0.6389,19.6766 2.0123,22.6667 1.0614,2.3108 2.2221,8.4015 2.5794,13.5348 0.3573,5.1334 1.282,18.6334 2.055,30 0.773,11.3667 2.0511,26.0667 2.8402,32.6667 2.6694,22.3256 3.0088,29.5873 1.4284,30.564 -2.2558,1.3941 -1.8641,9.6774 0.5005,10.5848 1.4864,0.5704 2,2.9355 2,9.2094 0,4.643 0.6122,9.054 1.3605,9.8023 0.7482,0.7482 1.9306,11.2182 2.6274,23.2666 1.5663,27.0817 3.6016,51.1615 5.2888,62.5729 0.7048,4.7667 1.6542,18.2667 2.1099,30 0.4557,11.7333 1.3765,23.0625 2.0463,25.1759 0.6697,2.1134 1.8819,16.8134 2.6937,32.6666 0.9784,19.1074 2.0372,29.4984 3.1407,30.8242 1.0734,1.2896 2.4717,13.603 3.9366,34.6666 3.0894,44.422 3.4559,49.2853 4.1197,54.6667 0.3166,2.5667 0.9707,13.6667 1.4535,24.6667 0.4829,11 1.3318,20.6 1.8864,21.3333 1.0785,1.4261 4.525,32.8987 6.7164,61.3333 0.7347,9.5334 1.8862,23.9334 2.5589,32 0.6727,8.0667 1.3084,21.5667 1.4127,30 0.1251,10.1243 0.787,16.2653 1.9482,18.0766 1.2215,1.9053 2.0533,11.2729 2.7233,30.6667 0.5848,16.9307 1.5444,28.6444 2.4374,29.7548 1.8991,2.3613 3.0766,12.5115 4.8921,42.1686 0.808,13.2 2.067,25.4501 2.7977,27.2224 0.7308,1.7723 1.6772,16.7723 2.1033,33.3333 0.4654,18.0923 1.3656,31.1753 2.2551,32.7776 0.8143,1.4667 1.8959,8.3667 2.4035,15.3333 2.3875,32.763 4.0011,49.5741 5.7592,60 2.4969,14.8077 2.9487,31.0156 0.8837,31.7039 -2.2556,0.7519 -1.9095,6.5415 0.445,7.445 1.529,0.5867 2,3.0963 2,10.6569 0,6.1792 0.7473,11.3222 1.9918,13.7085 1.5166,2.908 1.9937,8.768 2,24.5642 0.01,16.1666 0.4403,21.3164 1.9658,23.3334 1.469,1.9421 1.9682,6.6868 2,19.0091 0.023,9.0316 0.6112,17.4837 1.3063,18.7826 0.6952,1.2989 1.6416,11.0095 2.1033,21.579 0.4617,10.5696 1.6575,22.2174 2.6575,25.8841 0.9999,3.6667 2.1871,12.0667 2.6381,18.6667 0.451,6.6 1.396,18.9 2.1,27.3333 0.7041,8.4333 1.8404,26.1333 2.5252,39.3333 1.5252,29.3989 3.5847,50.6402 5.2067,53.7018 0.6697,1.264 1.6295,10.0982 2.1329,19.6316 0.5035,9.5333 1.767,25.7333 2.8079,36 1.0409,10.2666 1.8937,21.1826 1.8952,24.2577 0,5.7756 3.2667,9.7423 8.0163,9.7423 1.1479,0 4.1644,1.7756 6.7034,3.9458 3.7208,3.1804 5.9095,3.9653 11.2829,4.0465 11.159,0.1686 27.7685,3.6421 29.6375,6.1981 1.1851,1.6208 4.1617,2.4813 10.0241,2.8978 4.5861,0.3259 9.5219,1.4143 10.9684,2.4188 1.4465,1.0045 3.6231,1.8263 4.8368,1.8263 1.2137,0 2.9536,0.9 3.8666,2 0.9129,1.1 3.2364,1.9984 5.1632,1.9965 5.4654,-0.01 21.9363,4.2038 24.2751,6.2036 1.1577,0.9899 4.1577,1.8036 6.6667,1.8081 2.5089,0 6.2802,0.9045 8.3807,2 2.1005,1.0955 4.7533,1.9918 5.895,1.9918 1.1418,0 3.2163,1.032 4.6101,2.2934 1.4057,1.2721 5.9056,2.6822 10.105,3.1664 18.2528,2.1049 30.4282,4.3431 32.8675,6.0419 1.4465,1.0074 3.7595,1.8316 5.14,1.8316 1.3804,0 5.0331,1.7029 8.1169,3.7841 4.7223,3.187 7.4556,3.9146 17.3229,4.6109 6.4437,0.4548 12.4076,1.3847 13.2531,2.0666 0.8454,0.6819 4.8371,1.6816 8.8704,2.2214 4.0334,0.5399 8.5169,1.8071 9.9634,2.816 1.4465,1.0089 4.5761,1.8344 6.9547,1.8344 2.3786,0 6.5951,0.9869 9.37,2.1931 2.7749,1.2063 6.8453,2.9536 9.0453,3.8831 2.2,0.9294 8.2,2.4027 13.3333,3.2741 5.1333,0.8713 11.7333,2.6707 14.6667,3.9988 2.9333,1.328 9.8333,3.3983 15.3333,4.6006 5.5,1.2024 12.2685,3.3556 15.041,4.7849 2.7726,1.4293 7.2726,2.6178 10,2.6411 2.7275,0.023 6.1237,0.9233 7.5472,2 1.4235,1.0767 5.04,1.9576 8.0366,1.9576 2.9967,0 6.632,0.8204 8.0785,1.8231 1.4465,1.0028 5.93,2.4831 9.9634,3.2897 16.6003,3.3197 22.8879,5.0878 23.8966,6.7199 0.587,0.9498 6.6107,2.5506 13.4328,3.5697 6.8027,1.0162 13.3365,2.6872 14.5196,3.7133 1.183,1.0262 5.7022,2.212 10.0426,2.6352 6.1921,0.6038 8.4892,1.479 10.6666,4.0641 2.2525,2.6742 4.4073,3.4394 11.4418,4.0634 12.589,1.1167 14.9157,1.5112 19.0868,3.236 2.0644,0.8538 5.0644,1.5713 6.6666,1.5947 1.6023,0.023 4.0779,0.9233 5.5014,2 1.4235,1.0766 3.9525,1.9576 5.6201,1.9576 3.5409,0 14.6062,3.3875 18.4584,5.6508 1.4667,0.8617 5.9667,2.0079 10,2.5471 12.8892,1.7231 23.3041,4.2465 24.3113,5.8905 0.5379,0.8779 4.8814,2.0142 9.6522,2.5251 6.9444,0.7437 9.1806,1.5728 11.2139,4.1577 1.8834,2.3944 3.8684,3.2423 7.6811,3.2813 7.7816,0.08 28.2587,4.6831 30.8527,6.9361 1.2588,1.0933 6.0309,2.3581 10.6045,2.8107 4.5737,0.4525 9.3737,1.3313 10.6667,1.9528 1.293,0.6215 4.2429,2.0703 6.5553,3.2196 2.3125,1.1493 10.7125,3.1658 18.6667,4.4811 9.7403,1.6107 15.241,3.1788 16.8475,4.8027 1.5602,1.5771 4.3547,2.4111 8.0785,2.4111 3.1313,0 6.8579,0.8809 8.2814,1.9576 1.4235,1.0767 4.4047,1.9767 6.6248,2 2.2202,0.023 5.2828,0.9153 6.8059,1.982 1.523,1.0668 6.4239,2.5282 10.8907,3.2476 4.4668,0.7194 9.3147,1.9465 10.7732,2.727 1.4584,0.7806 4.6575,1.4192 7.1092,1.4192 2.4518,0 5.6412,0.8274 7.0877,1.8386 1.4465,1.0113 6.0129,2.5399 10.1476,3.3969 4.1346,0.8571 8.5776,2.7297 9.8733,4.1614 1.5847,1.751 4.1429,2.6203 7.8158,2.6556 6.6854,0.064 28.1213,4.438 30.4405,6.211 0.9274,0.7089 5.2861,2.0383 9.6861,2.9543 15.1703,3.1581 20.0136,4.4109 24.2015,6.2602 2.3109,1.0204 5.4255,1.8553 6.9214,1.8553 1.4958,0 3.0798,0.5826 3.5199,1.2947 0.4401,0.712 3.765,1.688 7.3888,2.1687 3.6237,0.4807 7.2725,1.6981 8.1084,2.7053 0.9651,1.1628 4.3077,1.8313 9.1566,1.8313 6.3064,0 8.5642,0.6719 12.9614,3.8572 3.5653,2.5827 7.4865,4.0644 11.8668,4.4841 11.6952,1.1206 23.842,4.0155 25.3181,6.034 0.8096,1.1072 4.456,2.2627 8.3089,2.6329 3.7763,0.3628 7.5505,1.4844 8.3871,2.4924 0.8365,1.008 2.8741,1.8327 4.5278,1.8327 1.6538,0 3.6807,0.812 4.5044,1.8045 0.8812,1.0618 5.7247,2.1617 11.7693,2.6727 5.6494,0.4775 10.869,1.4655 11.599,2.1955 0.73,0.73 3.0261,1.3273 5.1025,1.3273 2.0763,0 4.0999,0.8462 4.4967,1.8803 0.4518,1.1774 3.8007,2.2325 8.9582,2.8223 4.5301,0.5181 9.8568,1.772 11.837,2.7864 1.9803,1.0144 5.533,1.8444 7.895,1.8444 2.362,0 5.2418,0.7937 6.3996,1.7638 1.1577,0.97 6.892,2.5322 12.7429,3.4714 7.591,1.2186 11.1451,2.4319 12.4089,4.2362 1.2483,1.7822 3.4214,2.5424 7.3621,2.5754 7.311,0.061 31.9015,5.7162 34.9244,8.0314 0.7333,0.5617 5.2333,1.7213 10,2.577 4.7667,0.8557 9.8667,2.6325 11.3333,3.9485 1.7154,1.5392 5.6944,2.6505 11.1542,3.1154 4.6682,0.3974 9.1382,1.3732 9.9334,2.1684 0.7952,0.7952 3.2758,1.4649 5.5124,1.4882 2.2367,0.023 5.2314,0.9233 6.6549,2 1.4235,1.0767 4.3129,1.9576 6.421,1.9576 2.108,0 5.1433,0.7018 6.7451,1.5596 1.6018,0.8577 5.6117,1.7459 8.911,1.9736 3.2992,0.2277 6.6013,1.2383 7.3379,2.2457 0.7367,1.0074 4.8695,2.2727 9.1842,2.8118 10.2361,1.2789 18.8444,3.9173 21.5241,6.597 1.186,1.186 4.3392,2.1527 7.0504,2.1614 4.8979,0.016 23.1178,4.0544 29.5201,6.5436 1.8616,0.7237 5.9322,1.9664 9.0459,2.7615 3.1137,0.7951 6.7137,2.5609 8,3.9239 1.7074,1.8092 6.4781,3.0667 17.6721,4.6582 8.4333,1.1989 18.3333,3.3601 22,4.8027 3.6667,1.4425 9.3667,3.1983 12.6667,3.9018 12.6134,2.6888 14.0566,3.1231 16.0164,4.8198 1.109,0.9602 5.7263,2.3432 10.2607,3.0734 4.5343,0.7303 9.4375,1.9664 10.8959,2.7469 1.4584,0.7805 4.7176,1.4191 7.2427,1.4191 2.5251,0 5.2825,0.8331 6.1276,1.8513 0.845,1.0183 4.809,2.2603 8.8089,2.76 3.9998,0.4998 7.6173,1.4667 8.0388,2.1487 0.4215,0.682 2.0337,1.24 3.5827,1.24 1.5489,0 3.7635,0.7937 4.9213,1.7638 1.1577,0.9701 6.905,2.4849 12.7716,3.3662 21.1736,3.1808 28.0259,4.6779 29.4941,6.4439 0.8218,0.9884 4.1218,3.5777 7.3334,5.754 5.2351,3.5476 6.9426,3.9643 16.5059,4.0284 6.6807,0.045 11.9122,0.7836 14,1.977 1.8333,1.048 6.1098,1.9268 9.5034,1.9528 3.8088,0.029 6.8052,0.8126 7.8299,2.0472 0.9129,1.1 3.0707,2 4.7951,2 4.0985,0 24.0798,5.0549 29.2049,7.3883 2.2,1.0016 6.283,2.1824 9.0733,2.6239 2.9792,0.4715 6.243,2.1481 7.9071,4.062 2.3557,2.7093 4.0868,3.2689 10.26,3.3172 10.5821,0.083 18.4422,1.86 21.8301,4.9361 1.8816,1.7083 5.7732,2.9762 10.8792,3.5444 9.672,1.0763 24.183,4.5174 28.7169,6.8099 1.8334,0.9271 6.4827,2.1091 10.3319,2.6268 3.8492,0.5177 7.3346,1.485 7.7453,2.1497 0.4108,0.6646 2.4817,1.2084 4.6019,1.2084 2.1203,0 4.3676,0.9158 4.994,2.0351 0.7385,1.3197 5.567,2.7808 13.733,4.1559 6.9267,1.1663 13.4939,2.8954 14.5939,3.8424 1.1,0.9471 5.6,2.1405 10,2.6521 4.4,0.5116 9.3289,1.7667 10.9531,2.789 1.6242,1.0223 3.9171,1.8588 5.0953,1.8588 1.1782,0 3.0421,0.9 4.1421,2 1.1737,1.1737 4.4318,2 7.8856,2 6.1746,0 14.5198,1.6739 24.5906,4.9324 3.3,1.0678 8.4,2.5606 11.3333,3.3174 13.0478,3.3662 20.1922,5.3627 22.6667,6.334 5.3785,2.1112 12.1494,3.8593 18.1096,4.6757 3.3602,0.4602 8.3081,2.0151 10.9951,3.4553 2.6871,1.4402 6.7176,2.6185 8.9567,2.6185 4.5405,0 12.0349,3.3882 13.6715,6.1807 0.7153,1.2205 3.7874,1.8298 9.3334,1.8512 4.5469,0.017 10.667,0.6553 13.6004,1.4174 2.9333,0.7621 8.0333,2.0171 11.3333,2.7888 3.3,0.7718 6.7986,2.0477 7.7747,2.8355 0.976,0.7877 4.576,1.8611 8,2.3853 10.0362,1.5365 16.8362,4.5764 17.318,7.742 0.4134,2.7158 1.0956,2.7991 22.9073,2.7991 22.1962,0 22.4866,-0.037 22.9073,-2.9553 z m -31.7745,-997.1259 c -5.977,-1.3788 -13.477,-3.4823 -16.6667,-4.6743 -3.1897,-1.192 -8.4994,-2.6229 -11.7994,-3.1798 -9.9778,-1.6838 -23.1859,-5.7346 -25.7271,-7.8901 -1.3165,-1.1167 -6.4559,-2.4645 -11.4208,-2.995 -9.0752,-0.9697 -22.4272,-4.582 -24.7855,-6.7056 -0.6966,-0.6273 -2.7966,-1.1669 -4.6666,-1.1991 -1.87,-0.032 -5.8,-0.9814 -8.7334,-2.1094 -7.9023,-3.0387 -19.043,-5.9431 -27.3333,-7.1259 -4.0333,-0.5755 -9.4333,-1.9375 -12,-3.0267 -7.4395,-3.1572 -18.1088,-6.3462 -21.2321,-6.3462 -1.5808,0 -5.1002,-1.128 -7.821,-2.5068 -2.7208,-1.3788 -7.6469,-2.9154 -10.9469,-3.4147 -3.3,-0.4993 -7.5,-1.4153 -9.3333,-2.0357 -1.8334,-0.6204 -8.4334,-2.6157 -14.6667,-4.4341 -29.6584,-8.652 -40.9844,-11.6087 -44.4684,-11.6087 -2.0828,0 -5.3794,-0.8531 -7.3259,-1.8959 -1.9464,-1.0428 -8.939,-3.4575 -15.539,-5.366 -6.6,-1.9086 -13.8,-4.1379 -16,-4.9541 -2.2,-0.8162 -9.4,-2.3473 -16,-3.4024 -6.6,-1.0551 -13.1084,-2.5141 -14.4632,-3.2423 -1.3547,-0.7282 -2.8009,-0.9863 -3.2137,-0.5734 -0.4128,0.4128 -1.5884,-0.4457 -2.6125,-1.9077 -1.024,-1.462 -3.2287,-2.6581 -4.8993,-2.6581 -1.6707,0 -6.5867,-1.131 -10.9244,-2.5132 -11.2645,-3.5893 -20.6519,-6.0842 -35.8869,-9.5374 -7.3333,-1.6622 -14.5333,-3.7389 -16,-4.6149 -1.4667,-0.876 -5.9105,-2.0178 -9.8752,-2.5373 -3.9647,-0.5194 -9.0647,-1.905 -11.3333,-3.0791 -2.2687,-1.1741 -8.6248,-3.1838 -14.1248,-4.466 -5.5,-1.2823 -12.7,-3.273 -16,-4.4238 -9.1029,-3.1745 -18.8058,-6.208 -24,-7.5033 -2.5667,-0.6401 -7.9667,-2.052 -12,-3.1377 -4.0334,-1.0857 -10.6334,-2.6915 -14.6667,-3.5686 -4.0333,-0.877 -10.7644,-2.725 -14.958,-4.1067 -4.1935,-1.3816 -9.4192,-2.512 -11.6127,-2.512 -2.4714,0 -5.1494,-1.2164 -7.042,-3.1985 -2.5825,-2.7046 -5.1872,-3.4395 -16.8716,-4.7602 -7.5997,-0.859 -15.6997,-2.346 -18,-3.3044 -2.3003,-0.9585 -9.5824,-3.3812 -16.1824,-5.3838 -16.364,-4.9654 -18.9815,-5.6852 -26.6666,-7.3328 -6.3143,-1.3536 -13.5774,-3.4736 -48,-14.0104 -8.0667,-2.4692 -17.6453,-4.8877 -21.2858,-5.3743 -3.6405,-0.4866 -7.824,-1.7287 -9.2967,-2.7602 -1.4726,-1.0315 -4.2105,-1.8754 -6.0842,-1.8754 -1.8737,0 -4.5902,-0.8115 -6.0367,-1.8032 -1.4465,-0.9917 -5.0652,-2.1804 -8.0416,-2.6416 -2.9764,-0.4612 -7.3479,-1.8045 -9.7145,-2.9851 -2.3665,-1.1805 -7.4313,-2.6674 -11.255,-3.304 -13.1351,-2.187 -18.9617,-3.5906 -23.9094,-5.7596 -2.7264,-1.1953 -7.003,-2.1732 -9.5034,-2.1732 -2.5004,0 -5.2932,-0.9 -6.2061,-2 -0.9129,-1.1 -2.4082,-2 -3.3229,-2 -0.9146,0 -5.4193,-1.2 -10.0104,-2.6667 -4.5911,-1.4666 -10.5192,-2.6703 -13.1737,-2.6749 -2.6545,0 -6.4759,-0.8687 -8.492,-1.9204 -2.0162,-1.0517 -9.5162,-3.5329 -16.6667,-5.5138 -7.1505,-1.9809 -16.4239,-4.714 -20.6076,-6.0735 -4.1836,-1.3596 -11.9836,-3.1831 -17.3333,-4.0523 -5.5625,-0.9037 -10.9052,-2.6188 -12.4793,-4.006 -1.5139,-1.3342 -3.7419,-2.4257 -4.9511,-2.4257 -3.6708,0 -25.4041,-5.4734 -28.963,-7.2941 -1.8333,-0.938 -6.3333,-2.1367 -10,-2.6638 -3.6666,-0.5271 -11.9256,-2.7023 -18.3531,-4.8336 -6.4276,-2.1314 -12.9268,-3.8752 -14.4427,-3.8752 -2.9175,0 -21.5999,-5.8992 -25.5194,-8.0581 -1.2734,-0.7014 -3.9734,-1.3016 -6,-1.3338 -2.0266,-0.032 -6.0848,-0.9687 -9.0181,-2.0811 -2.9333,-1.1125 -8.4745,-2.8053 -12.3136,-3.7619 -3.8392,-0.9565 -7.7392,-2.2927 -8.6667,-2.9692 -0.9275,-0.6765 -3.4864,-1.4197 -5.6864,-1.6516 -2.2,-0.2319 -5.587,-1.2421 -7.5267,-2.2448 -1.9396,-1.0028 -6.1396,-2.2146 -9.3333,-2.693 -7.9711,-1.194 -18.2064,-3.9053 -23.8436,-6.3163 -2.587,-1.1064 -9.187,-3.0287 -14.6666,-4.2717 -5.4797,-1.243 -13.5631,-3.3487 -17.9631,-4.6793 -4.4,-1.3307 -10.1,-2.8204 -12.6667,-3.3106 -2.5666,-0.4902 -9.5186,-2.5807 -15.4489,-4.6456 -5.9302,-2.0649 -13.7302,-4.1837 -17.3333,-4.7085 -3.6031,-0.5247 -8.0511,-1.7061 -9.8844,-2.6253 -1.8334,-0.9191 -6.9334,-2.4335 -11.3334,-3.3651 -4.4,-0.9317 -9.8708,-2.8018 -12.1573,-4.1557 -2.2866,-1.354 -5.0715,-2.4617 -6.1888,-2.4617 -2.4993,0 -3.2009,-3.1462 -3.5683,-16 -0.1572,-5.5 -0.815,-12.7958 -1.4617,-16.2129 -0.6467,-3.4171 -1.8118,-18.1171 -2.5892,-32.6667 -0.7774,-14.5496 -1.9592,-28.5538 -2.6262,-31.1204 -0.6671,-2.5667 -2.1933,-17.5667 -3.3917,-33.3334 -1.1985,-15.7666 -2.5159,-30.1666 -2.9276,-32 -0.8681,-3.8653 -2.6607,-28.0254 -3.8581,-52 -0.4579,-9.1666 -1.3333,-17.2813 -1.9455,-18.0327 -0.6122,-0.7513 -1.7937,-13.9513 -2.6256,-29.3333 -1.9773,-36.5597 -2.076,-37.6402 -3.6199,-39.6156 -0.7243,-0.9268 -2.0441,-12.485 -2.9329,-25.685 -0.8888,-13.2 -2.1524,-28.2 -2.8078,-33.3334 -1.191,-9.3276 -1.891,-20.8903 -3.3901,-55.9965 -0.4383,-10.2647 -1.3394,-19.3169 -2.0026,-20.1159 -1.1723,-1.4126 -2.8658,-17.8555 -5.2066,-50.5542 -0.6299,-8.8 -1.8066,-20.8 -2.6148,-26.6667 -2.0544,-14.9131 -6.9431,-73.4449 -9.076,-108.6667 -0.5551,-9.1666 -1.4472,-17.3398 -1.9825,-18.1626 -0.8672,-1.3331 -2.754,-26.3037 -4.2025,-55.6167 -0.2839,-5.7452 -1.1855,-11.1152 -2.0036,-11.9333 -0.818,-0.818 -1.4873,-4.695 -1.4873,-8.6154 0,-3.9204 -1.4961,-23.7504 -3.3245,-44.0666 -1.8285,-20.3163 -4.2185,-47.1387 -5.311,-59.6053 -1.0926,-12.4667 -2.9144,-31.9667 -4.0484,-43.3334 -2.6904,-26.9662 -3.3193,-41.174 -1.8623,-42.0745 1.9917,-1.2309 566.869,-2.1719 572.538,-0.9538 5.1533,1.1074 5.3558,1.3575 6.2746,7.753 1.7105,11.9064 2.5134,21.0435 3.2171,36.6087 0.3812,8.4333 1.2516,16.8333 1.9342,18.6666 0.6826,1.8334 1.8138,17.6369 2.5139,35.119 0.7,17.4822 1.8207,32.4822 2.4904,33.3334 1.1527,1.465 1.6114,6.6301 4.2823,48.2143 0.6123,9.5333 1.7112,22.1333 2.4419,28 2.2237,17.853 4.1871,41.1757 4.1871,49.7368 0,4.4582 0.509,8.4204 1.1311,8.8049 0.6222,0.3845 1.5149,7.1699 1.9838,15.0787 1.1664,19.6729 3.1435,43.7471 5.6156,68.3796 1.1407,11.3666 2.3717,27.2666 2.7355,35.3333 0.3638,8.0667 1.1972,16.1667 1.8519,18 0.6547,1.8333 1.5671,10.8333 2.0275,20 0.8029,15.9858 3.6433,37.2851 5.3378,40.0267 0.4441,0.7187 1.6932,1.3066 2.7757,1.3066 1.0825,0 3.4662,0.9815 5.297,2.1811 1.9994,1.3101 7.1719,2.4123 12.953,2.76 5.2935,0.3185 10.8244,1.0763 12.2911,1.684 5.141,2.1302 20.1228,6.6088 33.3333,9.9646 7.3334,1.8628 16.6141,4.2922 20.6239,5.3986 4.0098,1.1065 8.4626,2.0117 9.895,2.0117 1.4325,0 3.5517,0.7777 4.7095,1.7282 1.1577,0.9505 8.105,3.086 15.4383,4.7454 7.3333,1.6595 16.0333,3.964 19.3333,5.1213 6.0737,2.1299 18.2381,4.9833 26.5358,6.2245 2.4947,0.3732 4.9425,1.3365 5.4395,2.1407 0.497,0.8042 3.8559,1.9589 7.4642,2.5659 6.8362,1.1502 58.6455,15.1195 77.3066,20.8442 5.9103,1.8131 12.0249,3.2965 13.588,3.2965 1.563,0 3.1639,0.521 3.5574,1.1577 0.3935,0.6368 4.4789,1.5799 9.0787,2.0958 9.7668,1.0955 23.5587,4.5927 26.2151,6.6474 1.0186,0.7878 5.8186,2.5058 10.6667,3.8178 4.8481,1.3119 12.1147,3.3163 16.148,4.4542 4.0333,1.1379 10.9357,2.5735 15.3387,3.1903 4.4029,0.6167 9.8029,2.0586 12,3.2042 2.197,1.1455 5.5712,2.0865 7.4981,2.0911 1.9268,0 4.1814,0.8251 5.0101,1.8236 0.8287,0.9986 4.3521,2.1602 7.8299,2.5815 3.4778,0.4213 8.1581,1.6909 10.4008,2.8213 2.2426,1.1304 8.8426,2.7501 14.6666,3.5994 5.824,0.8493 12.6891,2.5839 15.2558,3.8547 2.5667,1.2708 7.6667,2.7362 11.3333,3.2564 3.6667,0.5201 7.9956,1.799 9.6198,2.8418 1.6242,1.0429 4.0988,1.8961 5.499,1.8961 1.4003,0 5.1714,0.9504 8.3803,2.1119 3.2088,1.1615 8.8343,2.6271 12.5009,3.2568 9.3827,1.6113 16.4737,3.4263 22.6667,5.8019 2.9333,1.1251 7.4005,2.0721 9.9271,2.1042 2.9003,0.037 5.8493,1.2111 8,3.1853 2.8194,2.5881 5.8977,3.404 17.8681,4.7356 7.9539,0.8849 15.4539,2.1347 16.6666,2.7775 5.3165,2.8178 29.0382,9.7648 52.0652,15.2474 7.6232,1.815 14.4932,3.9329 15.2667,4.7064 0.7735,0.7735 2.9382,1.4064 4.8105,1.4064 1.8724,0 7.6024,1.2217 12.7334,2.7148 11.7689,3.4249 19.8495,2.7411 40.6624,-3.4409 8.4333,-2.5049 21.519,-6.0529 29.0792,-7.8844 7.5601,-1.8315 14.4601,-3.7903 15.3333,-4.3529 0.8731,-0.5626 5.4875,-2.0103 10.2542,-3.2171 4.7666,-1.2067 10.4666,-2.8229 12.6666,-3.5914 7.4864,-2.6151 14.6483,-4.0539 28.3202,-5.6894 11.8817,-1.4214 13.9188,-2.0381 15.6974,-4.7527 1.5813,-2.4133 3.2561,-3.1194 7.3996,-3.1194 2.9457,0 7.5818,-1.0927 10.3026,-2.4284 2.7208,-1.3356 9.7469,-3.1954 15.6136,-4.1329 5.8666,-0.9374 12.7666,-2.6157 15.3333,-3.7294 4.7991,-2.0825 15.9181,-4.9867 26.9002,-7.0261 3.4285,-0.6367 7.6285,-2.029 9.3333,-3.0941 1.7049,-1.0652 5.9522,-2.2972 9.4383,-2.738 3.4862,-0.4408 11.7008,-2.6126 18.2548,-4.8263 6.5539,-2.2136 13.4827,-4.0248 15.3973,-4.0248 1.9146,0 5.7,-1.1426 8.4119,-2.5392 5.282,-2.7201 20.6908,-6.7843 25.8164,-6.8093 1.7129,-0.01 9.0621,-1.8084 16.3315,-4 7.2694,-2.1916 15.1961,-3.9848 17.6148,-3.9848 2.4562,0 5.4506,-1.0569 6.7829,-2.394 3.5929,-3.6062 8.5987,-5.3596 17.9421,-6.2847 4.6437,-0.4597 15.0432,-2.8566 23.1098,-5.3263 8.0667,-2.4697 17.0667,-4.8962 20,-5.3923 2.9334,-0.4961 6.6622,-1.7347 8.2864,-2.7523 1.6242,-1.0177 4.3242,-1.8624 6,-1.8771 2.9005,-0.025 14.1536,-2.8122 37.7136,-9.3396 5.8667,-1.6254 13.2144,-3.6606 16.3283,-4.5228 3.1139,-0.8621 6.3839,-2.2898 7.2667,-3.1725 0.8828,-0.8828 4.335,-1.5962 7.6717,-1.5854 3.3367,0.011 11.7667,-1.7417 18.7333,-3.8945 6.9667,-2.1529 15.9667,-4.7968 20,-5.8754 4.0334,-1.0786 9.1334,-2.5891 11.3334,-3.3566 4.1136,-1.4353 10.1765,-3.0096 20.6666,-5.3665 3.3,-0.7414 10.2,-2.6457 15.3334,-4.2317 5.1333,-1.5861 12.3333,-3.4702 16,-4.1869 3.6666,-0.7167 7.9954,-2.1591 9.6194,-3.2054 1.6241,-1.0462 9.6096,-2.8307 17.7458,-3.9655 16.6365,-2.3204 19.853,-3.2976 26.9681,-8.193 4.7513,-3.269 5.0041,-3.8125 5.0821,-10.9255 0.077,-7.0426 1.2756,-20.8171 5.8129,-66.8187 1.0488,-10.6333 1.9515,-25.5227 2.0059,-33.0876 0.055,-7.5649 0.6367,-14.7649 1.2937,-16 0.6571,-1.2351 2.1886,-16.3457 3.4034,-33.579 1.2148,-17.2334 2.5968,-32.2334 3.0712,-33.3334 0.4743,-1.1 1.3617,-9.8 1.9719,-19.3333 2.1587,-33.728 3.4103,-48.0808 4.7964,-55.0014 0.7712,-3.8508 1.8159,-18.8508 2.3215,-33.3333 0.5998,-17.1817 1.5162,-27.4903 2.6372,-29.6653 0.9449,-1.8333 2.3972,-12.3333 3.2273,-23.3333 0.8301,-11 2.043,-26.9 2.6952,-35.3333 0.6523,-8.4334 2.1598,-28.5334 3.3501,-44.6667 1.1903,-16.1333 2.6905,-30.5333 3.334,-32 0.6434,-1.4667 2.1667,-17.0667 3.3852,-34.6667 1.2184,-17.6 2.6885,-32.9 3.2668,-34 0.5784,-1.1 1.4137,-8.6 1.8564,-16.6666 0.4426,-8.0667 1.353,-21.5667 2.023,-30 5.4658,-68.7973 6.953,-85.2604 8.07,-89.3334 0.7039,-2.5666 1.6157,-10.3666 2.0261,-17.3333 0.4105,-6.9667 1.2869,-21.9667 1.9476,-33.3333 0.6608,-11.3667 1.5956,-22.2351 2.0774,-24.152 0.7264,-2.8899 0.3467,-3.627 -2.223,-4.3151 -1.7044,-0.4564 -451.1061,-0.838 -998.6704,-0.8481 -903.2716,-0.016 -995.7656,-0.2124 -997.6666,-2.1134 -1.1524,-1.1524 -2.1071,-2.8024 -2.1217,-3.6667 -0.015,-0.8643 -0.5931,-5.4878 -1.2858,-10.2744 -4.7098,-32.5458 -7.5873,-62.7336 -11.9435,-125.297 -0.7403,-10.6333 -1.9489,-25.9333 -2.6856,-34 -0.7368,-8.0667 -2.5811,-29.0667 -4.0986,-46.6667 -1.5174,-17.6 -3.2887,-33.8 -3.9362,-36 -0.6476,-2.2 -1.5568,-12.1 -2.0206,-22 -0.4637,-9.9 -1.4121,-22.5 -2.1076,-28 -1.5319,-12.116 -5.0411,-52.9818 -6.1254,-71.3333 -0.4332,-7.3333 -1.3952,-14.0989 -2.1376,-15.0345 -0.7424,-0.9357 -1.559,-6.0357 -1.8147,-11.3333 -1.402,-29.0504 -3.412,-55.3705 -4.4521,-58.2988 -0.6511,-1.8334 -1.5309,-11.1334 -1.9551,-20.6667 -1.4415,-32.3955 -2.351,-43.9977 -3.5487,-45.2667 -0.6574,-0.6966 -1.2273,-4.5966 -1.2664,-8.6666 -0.039,-4.07 -1.2678,-19.4 -2.7306,-34.0667 -3.5618,-35.7122 -3.6074,-36.2781 -5.2716,-65.3333 -0.798,-13.9334 -1.9604,-26.5334 -2.583,-28 -1.5918,-3.7496 -4.1845,-27.2874 -5.4342,-49.3334 -0.582,-10.2666 -1.3612,-20.7666 -1.7316,-23.3333 -0.3703,-2.5667 -1.3404,-17.5509 -2.1557,-33.2983 -0.975,-18.8335 -2.0501,-29.3281 -3.1413,-30.6667 -1.0346,-1.2689 -1.8122,-7.5544 -2.0657,-16.697 -0.2236,-8.0642 -0.9486,-15.6747 -1.611,-16.9124 -0.6623,-1.2377 -1.2043,-8.6292 -1.2043,-16.4256 0,-7.7964 -0.5427,-15.1893 -1.206,-16.4287 -1.1381,-2.1267 -1.9193,-12.9225 -3.6309,-50.181 -0.4832,-10.5193 -1.3726,-16.8572 -2.6144,-18.63 -1.3026,-1.8598 -1.9042,-6.803 -1.9541,-16.057 -0.04,-7.3535 -0.9605,-22.07 -2.0463,-32.7033 -3.7436,-36.6616 -5.7702,-59.3723 -6.4567,-72.3559 -0.3788,-7.1625 -1.1892,-14.0625 -1.8009,-15.3334 -0.6118,-1.2709 -1.2656,-7.7107 -1.453,-14.3107 -0.1874,-6.6 -1.2713,-22.2 -2.4087,-34.6667 -3.6297,-39.7845 -4.5438,-51.6478 -5.1884,-67.3333 -0.3465,-8.4333 -1.2014,-16.5333 -1.8997,-18 -1.7785,-3.735 -5.3409,-40.4484 -5.3409,-55.0413 0,-6.6741 -0.6,-12.5055 -1.3333,-12.9587 -0.751,-0.4641 -1.3333,-6.8963 -1.3333,-14.7262 0,-7.6462 -0.5822,-16.4608 -1.2937,-19.588 -1.9233,-8.4534 -4.4262,-36.521 -6.8086,-76.3525 -0.9457,-15.81 -2.0226,-24.6824 -3.1559,-26 -1.6178,-1.8807 -1.9894,-5.7871 -4.1222,-43.3333 -0.3749,-6.6 -1.2511,-19.5 -1.9472,-28.6666 -0.696,-9.1667 -1.9416,-26.5667 -2.7679,-38.6667 -0.9468,-13.864 -2.131,-22.7397 -3.2021,-24 -1.1102,-1.3065 -1.9885,-8.704 -2.5328,-21.3333 -1.2803,-29.7094 -2.293,-44.4724 -3.2014,-46.6667 -1.0033,-2.4238 -3.8054,-31.4045 -4.899,-50.6667 -0.4371,-7.7 -1.3619,-16.1 -2.0551,-18.6666 -0.6932,-2.5667 -1.5323,-11.8667 -1.8647,-20.6667 -0.6453,-17.0863 -1.7701,-31.5415 -2.8154,-36.1808 -0.3529,-1.5661 0.1651,-3.5169 1.151,-4.3352 1.3167,-1.0927 385.1437,-1.4911 1445.6538,-1.5004 1376.9543,-0.012 1443.9431,0.096 1445.6315,2.3352 1.253,1.6618 1.5515,4.8805 1.0214,11.0145 -0.412,4.7667 -1.1224,17.3667 -1.5787,28 -0.5561,12.9584 -1.4424,20.3071 -2.688,22.2864 -1.2417,1.973 -1.8585,7.0391 -1.8585,15.2637 0,15.838 -2.5515,48.9935 -4.0363,52.4499 -1.1009,2.5629 -3.4782,27.4357 -5.1612,54 -0.4414,6.9667 -1.3059,13.4458 -1.9212,14.3981 -1.1085,1.7157 -1.3564,5.5989 -2.9082,45.5624 -0.4405,11.345 -1.3281,21.2623 -1.9723,22.0386 -0.6443,0.7763 -1.5599,7.6941 -2.0346,15.3729 -0.4748,7.6787 -1.3869,15.7614 -2.027,17.9614 -0.6401,2.2 -1.277,10.3 -1.4154,18 -0.1384,7.7 -0.7062,14.9045 -1.2617,16.0102 -0.5555,1.1056 -1.9974,16.4056 -3.2042,34 -1.2068,17.5943 -2.5882,32.8897 -3.0699,33.9897 -0.4817,1.1 -1.3552,9.5 -1.9411,18.6667 -2.0352,31.8368 -3.4713,48.7186 -4.9341,58 -0.809,5.1333 -2.0472,20.4333 -2.7516,34 -2.017,38.8494 -5.3435,64.7076 -8.6166,66.9796 -0.7762,0.5388 -497.4801,0.9888 -1103.7864,1 -970.7844,0.018 -1102.4653,0.2554 -1103.1305,1.9888 -0.4154,1.0826 -0.01,16.2326 0.9036,33.6667 0.9124,17.434 1.9114,37.2082 2.2199,43.9425 0.3868,8.4418 1.1544,12.7367 2.4716,13.8299 1.443,1.1976 1.9106,5.114 1.9106,16.0023 0,7.9291 0.5492,15.861 1.2204,17.6263 0.6711,1.7653 1.3784,9.4544 1.5716,17.0868 0.1933,7.6324 0.7837,14.7771 1.312,15.8771 0.5283,1.1 1.9652,16.6272 3.1931,34.5048 1.228,17.8777 2.7885,33.9668 3.4678,35.7535 0.6793,1.7868 1.2351,8.7635 1.2351,15.504 0,6.7404 0.56,14.2079 1.2445,16.5945 0.6844,2.3865 1.3623,10.4826 1.5063,17.9912 0.1598,8.3329 0.9281,14.7331 1.972,16.4268 1.012,1.6419 1.9935,9.2634 2.4039,18.6667 1.345,30.8156 2.2846,43.9476 3.5221,49.2252 0.6877,2.9333 1.9234,14.9333 2.7458,26.6666 1.7351,24.7539 3.3332,41.388 4.3921,45.7167 0.4104,1.6774 1.421,15.4774 2.2459,30.6666 0.8249,15.1892 2.0081,29.7167 2.6294,32.2834 1.0213,4.2193 3.9458,38.4532 6.1828,72.3748 0.8274,12.5472 1.0114,13.1493 4.8561,15.8869 l 3.9962,2.8455 562.1514,-0.8979 c 927.0713,-1.4809 1532.1686,-1.1883 1534.4945,0.7421 1.6537,1.3724 1.8304,4.3161 1.0614,17.6809 -0.5075,8.8189 -1.2394,18.4344 -1.6264,21.3677 -1.7568,13.3149 -6.6193,67.7005 -8.4043,94 -0.672,9.9 -1.8428,23.4 -2.6019,30 -0.759,6.6 -2.2963,22.8 -3.4162,36 -1.1198,13.2 -2.6574,30 -3.4168,37.3333 -2.5677,24.7952 -5.0415,57.2771 -5.1572,67.7136 -0.078,7.0692 -0.7896,11.4098 -2.2299,13.608 -1.1632,1.7753 -1.8415,3.7042 -1.5073,4.2864 0.3342,0.5823 0.059,7.6587 -0.6117,15.7253 -3.6714,44.1645 -6.0801,76.8162 -7.0324,95.3334 -0.4337,8.4333 -1.3381,17.4333 -2.0097,20 -0.6716,2.5666 -2.19,17.5666 -3.3741,33.3333 -1.1842,15.7667 -2.701,30.7667 -3.3706,33.3333 -1.0855,4.1604 -2.1143,16.6636 -4.663,56.6667 -2.4117,37.8534 -6.1148,78.5496 -7.2787,79.991 -1.223,1.5147 -4.0376,40.1436 -4.0376,55.4147 0,6.2208 -0.6817,10.995 -1.8036,12.631 -1.2156,1.7725 -2.1353,9.803 -2.8207,24.63 -0.5594,12.1 -1.227,26.4135 -1.4836,31.8078 -0.2567,5.3944 -1.0084,10.4944 -1.6706,11.3334 -0.6622,0.839 -1.5544,7.5254 -1.9827,14.8588 -1.6243,27.8107 -3.8485,52.0493 -4.8939,53.3333 -0.5971,0.7333 -1.763,12.7333 -2.5908,26.6667 -0.8279,13.9333 -2.1006,30.1333 -2.8283,36 -0.7276,5.8666 -2.2251,23.8666 -3.3277,40 -1.1026,16.1333 -2.5695,31.1333 -3.2597,33.3333 -1.6357,5.2137 -4.0139,36.4962 -4.0089,52.7333 0,7.0891 -0.6143,13.3515 -1.3907,14.1279 -1.4851,1.4851 -1.5491,2.1447 -3.9919,41.1388 -0.8728,13.9333 -2.118,25.9033 -2.7669,26.6 -0.649,0.6966 -1.18,8.0861 -1.18,16.421 0,8.3348 -0.5482,16.1787 -1.2183,17.4307 -0.67,1.252 -1.3647,8.8626 -1.5437,16.9123 -0.1892,8.5067 -1.0019,15.7613 -1.9408,17.3231 -1.0216,1.6995 -1.9675,12.4804 -2.5736,29.3333 -1.1359,31.586 -1.5972,37.1917 -3.3164,40.3018 -2.4391,4.4126 -5.6427,40.0142 -7.4099,82.3444 -1.0802,25.8758 -3.4254,49.134 -5.2432,52 -1.1149,1.7578 -2.0504,11.7559 -2.7446,29.3334 -1.3474,34.1113 -1.4972,36.1082 -2.8677,38.2313 -0.628,0.9728 -1.5991,8.9687 -2.158,17.7687 -1.724,27.1424 -3.3942,48.7727 -4.7875,62 -0.7338,6.9666 -2.0046,22.2371 -2.8241,33.9342 -0.8194,11.6972 -1.9863,21.8972 -2.5931,22.6667 -0.6068,0.7695 -1.5038,10.3991 -1.9932,21.3991 -1.256,28.2303 -2.6201,45.0774 -3.7965,46.8896 -0.5557,0.8559 -1.901,15.2559 -2.9896,32 -1.0886,16.744 -2.9549,35.676 -4.1473,42.071 -1.1924,6.395 -1.803,12.5785 -1.3568,13.7412 0.4461,1.1626 0.01,4.0303 -0.9712,6.3727 -1.6719,3.9949 -2.5179,4.4168 -13.6534,6.8085 -6.5291,1.4023 -13.0546,3.3523 -14.5011,4.3333 -1.4465,0.981 -4.0124,1.7837 -5.702,1.7837 -3.3758,0 -23.4241,4.804 -27.668,6.6299 -1.4666,0.631 -5.6666,1.8408 -9.3333,2.6883 -5.8889,1.3612 -24.2947,7.0016 -42,12.8707 -8.7653,2.9056 -15.5696,4.485 -25.3333,5.8803 -4.7667,0.6812 -10.4062,1.8443 -12.5323,2.5846 -2.1261,0.7404 -5.1831,1.3462 -6.7934,1.3462 -1.6102,0 -4.0137,1.2 -5.341,2.6666 -1.3273,1.4667 -3.5353,2.6667 -4.9066,2.6667 -1.3714,0 -5.9284,1.2155 -10.1267,2.7012 -4.1984,1.4856 -12.6984,3.592 -18.8889,4.6808 -6.1906,1.0887 -12.6941,2.9221 -14.4522,4.074 -1.7581,1.152 -6.5931,2.4248 -10.7444,2.8286 -4.1513,0.4037 -8.4479,1.469 -9.5479,2.3673 -2.1479,1.754 -7.9692,3.5061 -24.3757,7.3363 -5.7066,1.3322 -11.2566,3.1534 -12.3333,4.047 -1.0767,0.8935 -1.9576,1.321 -1.9576,0.9499 0,-0.371 -4.9192,0.7555 -10.9315,2.5034 -6.0124,1.748 -12.2194,3.1782 -13.7934,3.1782 -1.574,0 -3.9478,1.2 -5.2751,2.6666 -1.3273,1.4667 -3.9703,2.659 -5.8733,2.6496 -4.5372,-0.022 -22.3647,3.8855 -27.4601,6.0195 -4.5395,1.9011 -20.5334,6.0502 -26.9165,6.9825 -2.3374,0.3414 -5.2804,1.7594 -6.54,3.1512 -1.7139,1.8939 -4.167,2.5448 -9.7501,2.5872 -4.4894,0.034 -11.1766,1.3958 -16.7934,3.4197 -5.1333,1.8498 -12.0333,3.918 -15.3333,4.5961 -3.3,0.6781 -8.4,2.0829 -11.3333,3.1217 -8.6114,3.0497 -19.5707,5.9249 -25.7606,6.7584 -3.1682,0.4266 -7.1096,1.6596 -8.7586,2.7401 -1.6489,1.0804 -5.6566,2.5385 -8.9061,3.2403 -3.2494,0.7017 -8.8667,1.906 -12.4828,2.6763 -3.6161,0.7702 -7.9001,2.2688 -9.52,3.3302 -1.6198,1.0614 -6.1612,2.339 -10.0919,2.8392 -3.9307,0.5003 -7.7467,1.3317 -8.48,1.8478 -0.7334,0.516 -7.3334,2.5885 -14.6667,4.6054 -7.3333,2.017 -18.2376,5.1369 -24.2318,6.9331 -5.9942,1.7962 -14.6942,3.9195 -19.3334,4.7184 -4.6391,0.7988 -9.0348,1.8913 -9.7681,2.4278 -0.7334,0.5364 -7.0334,2.6345 -14,4.6625 -6.9667,2.028 -16.0114,4.7763 -20.0994,6.1073 -4.088,1.3311 -12.788,3.1614 -19.3334,4.0675 -8.6868,1.2025 -12.371,2.305 -13.6428,4.0828 -0.9583,1.3395 -3.2575,2.4354 -5.1094,2.4354 -1.8519,0 -7.6679,1.4192 -12.9244,3.1537 -5.2565,1.7345 -11.9573,3.7663 -14.8906,4.5151 -14.8003,3.7782 -24.3903,6.0668 -28,6.6821 -2.2,0.375 -5.1835,1.4995 -6.63,2.4988 -1.4465,0.9993 -3.9192,1.817 -5.4947,1.817 -1.5756,0 -9.6921,2.0982 -18.0367,4.6626 -8.3446,2.5644 -16.6719,4.6666 -18.5053,4.6716 -1.8333,0.01 -5.1539,1.1193 -7.379,2.4762 -2.2251,1.357 -7.0251,2.9109 -10.6667,3.4532 -3.6415,0.5423 -7.3819,1.6124 -8.312,2.378 -0.9301,0.7656 -3.9301,1.8878 -6.6667,2.4938 -2.7365,0.606 -8.5756,1.9806 -12.9756,3.0548 -4.4,1.0741 -11.6,2.6959 -16,3.6039 -4.4,0.908 -9.5561,2.4177 -11.4581,3.3548 -1.902,0.9372 -6.702,2.1147 -10.6667,2.6167 -5.0118,0.6347 -8.0212,1.828 -9.8752,3.9157 -2.656,2.9908 -15.6896,5.9854 -26.0511,5.9854 -2.3122,0 -5.7967,0.886 -7.7432,1.9689 -4.1413,2.3039 -26.2262,8.6977 -30.043,8.6977 -1.4407,0 -3.5666,0.7884 -4.7244,1.7521 -1.1577,0.9636 -5.7905,2.4738 -10.2952,3.356 -4.5046,0.8822 -17.1046,4.2868 -28,7.5658 -10.8953,3.2791 -21.0097,5.9879 -22.4764,6.0197 -1.4667,0.032 -3.8313,0.9388 -5.2548,2.0155 -1.4235,1.0767 -4.4235,1.9839 -6.6667,2.0161 -2.2432,0.032 -6.4785,0.9687 -9.4118,2.0812 -5.287,2.005 -12.5616,4.0943 -26.653,7.6547 -4.0192,1.0155 -8.1075,2.5102 -9.0852,3.3216 -0.9777,0.8114 -7.8586,2.3886 -15.291,3.505 -7.4324,1.1163 -15.4914,2.887 -17.9088,3.9348 -2.4175,1.0479 -8.8954,3.2109 -14.3954,4.8067 -5.5,1.5959 -12.8112,4.0422 -16.2471,5.4362 -3.436,1.394 -8.7472,2.5346 -11.8026,2.5346 -4.6032,0 -23.4438,5.4364 -41.9503,12.1045 -8.0677,2.9069 -32.0775,9.2099 -34.6666,9.1006 -1.4667,-0.062 -7.5569,-1.2408 -13.5339,-2.6197 z"
     id="path1" />
</svg>
