<?xml version="1.0" encoding="UTF-8" standalone="no"?>
<!-- Created with Inkscape (http://www.inkscape.org/) -->

<svg
   version="1.1"
   id="svg1"
   width="7000"
   height="7000"
   viewBox="0 0 7000 7000"
   sodipodi:docname="javaScriptLogoBlanco.svg"
   inkscape:version="1.4.2 (f4327f4, 2025-05-13)"
   xmlns:inkscape="http://www.inkscape.org/namespaces/inkscape"
   xmlns:sodipodi="http://sodipodi.sourceforge.net/DTD/sodipodi-0.dtd"
   xmlns="http://www.w3.org/2000/svg"
   xmlns:svg="http://www.w3.org/2000/svg">
  <defs
     id="defs1" />
  <sodipodi:namedview
     id="namedview1"
     pagecolor="#505050"
     bordercolor="#ffffff"
     borderopacity="1"
     inkscape:showpageshadow="0"
     inkscape:pageopacity="0"
     inkscape:pagecheckerboard="1"
     inkscape:deskcolor="#505050"
     inkscape:zoom="0.11642857"
     inkscape:cx="3491.4111"
     inkscape:cy="3500"
     inkscape:window-width="1920"
     inkscape:window-height="1017"
     inkscape:window-x="-8"
     inkscape:window-y="-8"
     inkscape:window-maximized="1"
     inkscape:current-layer="svg1" />
  <path
     style="fill:#ffffff;stroke-width:1.00006"
     d="m 3389.9585,6757.6412 c -0.2991,-0.3074 -8.6234,-0.6508 -18.4998,-0.7633 -29.0897,-0.3313 -38.2366,-1.1584 -43.4559,-3.9311 -4.4967,-2.3844 -4.5711,-2.3891 -48.0017,-2.9418 l -43.5012,-0.5535 -6.0002,-2.9758 -6.0003,-2.9757 -32.4989,-0.5216 -32.499,-0.5216 -6.4999,-2.922 c -6.4409,-2.8945 -6.7348,-2.9287 -31.5014,-3.6427 -25.2657,-0.7284 -27.39,-1.014 -35.5003,-4.7658 -3.8644,-1.7884 -6.4775,-2.088 -18.5003,-2.1221 -17.8245,-0.051 -29.7916,-1.3355 -35.5009,-3.8121 -3.2997,-1.4327 -7.8251,-2.11 -16.9992,-2.545 -14.3335,-0.6797 -28.7893,-2.9701 -33.2266,-5.2643 -1.9322,-0.9993 -7.6596,-1.8897 -15.6582,-2.4345 -14.477,-0.9857 -20.4716,-2.0416 -27.8762,-4.9103 -3.4832,-1.3495 -7.6033,-2.038 -12.1995,-2.038 -8.4336,0 -16.1876,-1.5501 -21.5396,-4.3067 -3.0138,-1.5528 -6.8396,-2.229 -15.5309,-2.7451 -9.8401,-0.5844 -12.5798,-1.144 -18.6673,-3.8165 -5.8366,-2.561 -8.4734,-3.1362 -14.4698,-3.1561 -8.7854,-0.029 -14.4392,-1.184 -21.9129,-4.4777 -4.2642,-1.8776 -8.412,-2.6703 -17.5375,-3.3502 -9.138,-0.6807 -12.988,-1.417 -16.3312,-3.1228 -3.0841,-1.5738 -7.3518,-2.4925 -14.4614,-3.115 -5.5503,-0.4856 -13.2377,-1.8208 -17.0872,-2.9671 -9.4618,-2.8172 -12.5742,-3.5779 -22.4845,-5.4977 -4.6669,-0.9038 -10.1617,-2.4987 -12.2121,-3.5442 -2.048,-1.0455 -5.4291,-1.9076 -7.5157,-1.9157 -5.0532,-0.02 -15.4618,-2.5302 -20.0708,-4.8414 -2.0451,-1.0256 -7.5435,-2.3545 -12.2166,-2.9531 -4.6759,-0.5986 -11.2096,-2.1981 -14.5216,-3.5544 -3.3113,-1.3563 -9.5376,-2.955 -13.8324,-3.5527 -4.2984,-0.5976 -10.6098,-2.2053 -14.0267,-3.5725 -3.4188,-1.3672 -8.4429,-2.9115 -11.1686,-3.4317 -2.7226,-0.5202 -7.4278,-2.0524 -10.451,-3.4047 -3.1025,-1.3863 -8.5342,-2.7454 -12.456,-3.1157 -3.8613,-0.3646 -10.0901,-1.9102 -14.0032,-3.4743 -3.8719,-1.5497 -9.4356,-3.3299 -12.3621,-3.9561 -2.9285,-0.6262 -7.7054,-2.2645 -10.6119,-3.6405 -2.9096,-1.3761 -8.6344,-2.9261 -12.7233,-3.4445 -4.0891,-0.5183 -11.0133,-2.2528 -15.3876,-3.8543 -4.3773,-1.6015 -9.733,-3.2361 -11.9027,-3.6324 -2.1709,-0.3964 -6.153,-1.8399 -8.8528,-3.208 -2.6991,-1.3681 -7.3694,-2.8878 -10.3751,-3.3773 -3.0082,-0.4894 -8.0229,-2.0632 -11.1462,-3.4975 -3.1248,-1.4342 -7.8966,-3.031 -10.6059,-3.5485 -2.7117,-0.5175 -7.4378,-2.0925 -10.5022,-3.5 -3.0651,-1.4075 -7.7899,-2.9825 -10.4994,-3.5 -2.7087,-0.5175 -7.4343,-2.0925 -10.4985,-3.5 -3.0659,-1.4075 -7.7909,-2.9825 -10.5,-3.5 -2.7094,-0.5175 -7.4349,-2.0925 -10.4999,-3.5 -3.0657,-1.4075 -7.7901,-2.9825 -10.5022,-3.5 -2.7094,-0.5175 -7.4337,-2.1086 -10.4994,-3.5358 -3.0655,-1.4273 -8.3369,-3.1903 -11.718,-3.918 -3.3776,-0.7276 -8.1019,-2.3223 -10.4963,-3.5437 -2.3922,-1.2214 -6.9919,-2.8368 -10.2222,-3.5898 -3.227,-0.7531 -11.5529,-4.0212 -18.5034,-7.2626 -6.9475,-3.2414 -15.3332,-6.5498 -18.6319,-7.3522 -3.3003,-0.8024 -8.2507,-2.3869 -11.0011,-3.5213 -2.7496,-1.1344 -8.0628,-2.9991 -11.8055,-4.1437 -3.742,-1.1447 -10.9171,-4.1278 -15.9439,-6.6292 -5.0258,-2.5015 -11.9829,-5.2076 -15.459,-6.0138 -3.4751,-0.8061 -11.8246,-4.1122 -18.5551,-7.3469 -6.7311,-3.2346 -15.0023,-6.5774 -18.3859,-7.4282 -3.3794,-0.8509 -10.8071,-3.8306 -16.4984,-6.6217 -5.6946,-2.7911 -13.3486,-5.9685 -17.0075,-7.061 -7.4319,-2.218 -18.652,-7.2776 -42.3453,-19.0955 -8.8017,-4.3895 -18.2505,-8.4598 -20.9985,-9.0452 -6.9338,-1.476 -8.8373,-2.3973 -129.3026,-62.604 -77.85,-38.9072 -108.6533,-54.7792 -112.2167,-57.8214 -2.7018,-2.3062 -9.7647,-6.5886 -15.6981,-9.5165 -21.7234,-10.723 -42.9257,-22.3404 -48.4466,-26.5456 -3.1145,-2.3722 -6.8743,-4.7733 -8.3523,-5.3356 -5.3814,-2.0468 -23.0986,-12.3396 -27.4838,-15.9685 -2.4761,-2.0482 -8.6927,-5.8308 -13.8204,-8.4058 -10.7473,-5.3992 -16.0581,-8.623 -21.6791,-13.157 -2.2026,-1.7745 -6.4763,-4.4675 -9.5031,-5.9845 -3.0218,-1.517 -7.4644,-4.487 -9.8681,-6.6 -2.4044,-2.1131 -9.6828,-6.5494 -16.1742,-9.8586 -12.6361,-6.4442 -18.5274,-10.4556 -26.4565,-18.0237 -3.3325,-3.1806 -9.3724,-6.9787 -18.114,-11.3897 -7.2151,-3.6398 -15.0906,-8.3521 -17.4994,-10.4719 -2.4117,-2.1198 -6.6349,-4.9951 -9.3863,-6.3895 -2.7487,-1.3944 -7.7878,-4.7199 -11.1964,-7.39 -3.4059,-2.6701 -8.8051,-6.3354 -11.9972,-8.1451 -3.1927,-1.8096 -9.3156,-6.4274 -13.6074,-10.2616 -4.292,-3.8342 -10.3655,-8.2686 -13.5006,-9.8543 -3.1336,-1.5857 -7.7226,-4.6682 -10.196,-6.8501 -2.4773,-2.1818 -7.3044,-5.38 -10.7263,-7.1071 -3.6598,-1.8459 -9.7249,-6.4347 -14.7135,-11.1339 -5.0575,-4.7654 -10.6211,-8.9653 -13.7725,-10.3992 -2.9092,-1.323 -7.7454,-4.4623 -10.7494,-6.9763 -3.0005,-2.5139 -7.9868,-5.919 -11.0776,-7.5668 -3.0948,-1.6478 -9.411,-6.4022 -14.041,-10.5654 -4.6312,-4.1631 -10.9317,-8.9238 -13.9994,-10.5792 -3.067,-1.6554 -10.9389,-7.9883 -17.4999,-14.0731 -7.3988,-6.8657 -14.1675,-12.197 -17.8379,-14.0515 -3.2555,-1.6436 -9.3288,-6.2352 -13.5011,-10.2035 -4.1717,-3.9683 -10.3813,-8.7044 -13.8026,-10.5246 -3.7984,-2.0207 -10.6479,-7.4912 -17.5849,-14.0469 -6.2512,-5.9055 -13.5756,-12.0088 -16.279,-13.5629 -6.7021,-3.8517 -12.835,-8.9519 -26.6764,-22.1862 -6.6891,-6.3962 -13.9374,-12.347 -16.8133,-13.8037 -5.3542,-2.7128 -16.3408,-12.1548 -34.4141,-29.577 -6.059,-5.8376 -12.5036,-11.3761 -14.3246,-12.3079 -5.5602,-2.8435 -25.7499,-21.3112 -58.0044,-53.0595 -18.4999,-18.2064 -32.4146,-31.1063 -34.9506,-32.3997 -2.4015,-1.2249 -13.7869,-11.5296 -26.4726,-23.9604 -52.906,-51.839 -85.1547,-85.0244 -87.8302,-90.3859 -1.3178,-2.6414 -11.7457,-14.0097 -27.309,-29.7729 -38.2678,-38.7563 -53.3477,-55.0838 -57.6227,-62.3879 -1.3735,-2.35 -8.8614,-10.9866 -16.637,-19.1924 -18.166,-19.1729 -21.8209,-23.4881 -25.6699,-30.3161 -1.735,-3.082 -8.133,-10.7786 -14.21529,-17.1036 -13.43931,-13.9786 -18.49622,-20.0962 -21.49012,-26 -1.25519,-2.475 -6.39133,-8.775 -11.41356,-14 -10.61306,-11.0414 -14.58519,-16.0046 -17.09758,-21.3636 -0.9961,-2.125 -5.35513,-7.6889 -9.68663,-12.3643 -4.33148,-4.6754 -9.241,-11.2056 -10.90967,-14.5114 -1.84843,-3.6618 -6.44422,-9.5766 -11.76017,-15.1357 -9.98079,-10.4373 -13.98904,-15.4447 -16.90931,-21.125 -1.13122,-2.2 -5.43719,-7.7759 -9.569,-12.3909 -4.13174,-4.6149 -8.8724,-10.9428 -10.53476,-14.0619 -1.66252,-3.1192 -4.77916,-7.6683 -6.92594,-10.1092 -2.1468,-2.4409 -5.33197,-7.2698 -7.07777,-10.731 -1.81471,-3.5978 -6.5319,-9.908 -11.01375,-14.7336 -4.3113,-4.6424 -8.96802,-10.8252 -10.3479,-13.7396 -1.37997,-2.9145 -4.62491,-7.7593 -7.21099,-10.7664 -2.58622,-3.0071 -6.05505,-8.125 -7.70905,-11.3732 -1.65351,-3.2482 -6.31213,-9.621 -10.35205,-14.1618 -4.03999,-4.5408 -8.46208,-10.4598 -9.82709,-13.1534 -1.36505,-2.6936 -4.37711,-7.2953 -6.69375,-10.226 -2.31677,-2.9308 -5.70792,-7.9751 -7.53603,-11.2096 -1.82828,-3.2346 -5.092,-8.01 -7.25242,-10.6122 -2.16044,-2.6022 -6.96549,-10.5812 -10.67807,-17.7312 -4.42697,-8.5262 -8.58471,-14.9856 -12.08108,-18.7699 -7.03529,-7.6141 -10.19482,-12.32 -17.0269,-25.3618 -3.13131,-5.9776 -7.69508,-13.3413 -10.14092,-16.3639 -2.44623,-3.0225 -5.53288,-7.6378 -6.85967,-10.256 -1.32691,-2.6183 -4.60408,-7.7953 -7.28255,-11.5044 -2.67865,-3.7092 -7.47637,-11.694 -10.66141,-17.744 -3.18508,-6.05 -7.68115,-13.475 -9.99145,-16.5 -2.31013,-3.025 -7.02185,-10.9 -10.47038,-17.5 -3.44862,-6.6 -7.93026,-14.25 -9.95959,-17 -5.06119,-6.8583 -11.04924,-17.607 -22.35309,-40.1233 -5.2801,-10.5178 -11.1469,-20.9741 -13.03702,-23.2364 -1.89004,-2.2622 -6.13398,-9.1818 -9.43103,-15.3767 -6.30104,-11.8395 -101.18608,-201.345 -101.18608,-202.0903 0,-0.2374 -2.18866,-5.0985 -4.86416,-10.8025 -2.67491,-5.7039 -5.37367,-12.4781 -5.99726,-15.0536 -0.62343,-2.5755 -5.0964,-12.7116 -9.93978,-22.5245 -8.96894,-18.1714 -18.19134,-39.1973 -18.20811,-41.5119 -0.01,-0.7044 -2.75514,-7.1308 -6.11146,-14.2808 -3.35639,-7.15 -6.89717,-15.925 -7.86841,-19.5 -0.97134,-3.575 -4.46764,-12.35 -7.76924,-19.5 -3.3021,-7.15 -6.29835,-14.6661 -6.65884,-16.7025 -0.36066,-2.0363 -3.1348,-8.9787 -6.16489,-15.4275 -3.03008,-6.4488 -6.34021,-14.7239 -7.35601,-18.3891 -1.01558,-3.6652 -2.58666,-8.0953 -3.49143,-9.8448 -0.90476,-1.7494 -2.48027,-6.4332 -3.50126,-10.4084 -1.02115,-3.9752 -3.86126,-11.5027 -6.31153,-16.7277 -2.4503,-5.225 -5.25184,-11.975 -6.22605,-15 -0.97394,-3.025 -2.66179,-7.975 -3.7507,-11 -1.08895,-3.025 -2.56838,-7.3 -3.28785,-9.5 -0.71896,-2.2 -2.24937,-6.8125 -3.40028,-10.25 -1.15095,-3.4375 -3.03425,-9.0625 -4.18521,-12.5 -1.15069,-3.4375 -3.36233,-9.625 -4.91413,-13.75 -1.55205,-4.125 -3.1389,-9.3 -3.52643,-11.5 -0.38747,-2.2 -1.96375,-6.925 -3.50223,-10.5 -1.53879,-3.575 -3.12017,-8.3 -3.51394,-10.5 -0.39413,-2.2 -1.96056,-6.7727 -3.48088,-10.1615 -1.52038,-3.3888 -3.09276,-8.1138 -3.49393,-10.5 -0.4015,-2.3862 -1.80701,-6.7777 -3.12333,-9.759 -1.31638,-2.9813 -3.23642,-8.6063 -4.26675,-12.5 -1.03062,-3.8937 -2.77354,-9.5545 -3.87363,-12.5795 -2.78774,-7.6659 -8.19192,-24.3537 -8.79678,-27.1638 -0.27633,-1.2849 -0.95632,-5.0067 -1.51065,-8.2706 -0.55427,-3.264 -1.86449,-7.989 -2.91149,-10.5 -1.04676,-2.5111 -2.63865,-7.2656 -3.53768,-10.5656 -0.89902,-3.3 -2.70996,-8.7534 -4.02446,-12.1188 -1.31439,-3.3653 -2.7871,-9.6705 -3.27282,-14.0115 -0.5851,-5.2289 -1.80409,-9.7107 -3.61256,-13.2791 -1.9816,-3.9105 -2.95309,-7.7711 -3.54575,-14.0906 -0.56474,-6.0177 -1.58051,-10.2162 -3.29137,-13.6022 -1.36132,-2.6938 -3.02388,-7.5548 -3.69473,-10.8023 -0.67108,-3.2475 -2.24521,-8.6475 -3.49858,-12 -1.25312,-3.3525 -2.81101,-9.4705 -3.46164,-13.5955 -0.65063,-4.125 -2.27647,-10.65 -3.61315,-14.5 -1.33684,-3.85 -3.0805,-10.825 -3.87503,-15.5 -0.79482,-4.675 -2.16662,-10.22 -3.04885,-12.3221 -0.8821,-2.1022 -2.44072,-8.4022 -3.46334,-14 -1.02271,-5.5979 -2.40606,-11.5279 -3.07448,-13.1779 -2.09279,-5.1676 -2.98021,-9.6772 -3.9361,-20 -0.63938,-6.9056 -1.75349,-11.9927 -3.60094,-16.4396 -1.96714,-4.7361 -2.90155,-9.2623 -3.53221,-17.1097 -0.64995,-8.0848 -1.58023,-12.4742 -3.83974,-18.1169 -2.38418,-5.9547 -3.11865,-9.6397 -3.66439,-18.3903 -0.48274,-7.7422 -1.24872,-12.0715 -2.6185,-14.7995 -2.59772,-5.1744 -4.73876,-15.6901 -4.8134,-23.644 -0.0329,-3.575 -0.75843,-8.3 -1.6103,-10.5 -3.02039,-7.8017 -4.40341,-14.1245 -5.2781,-24.129 -0.487,-5.571 -1.32995,-10.971 -1.87316,-12 -1.57854,-2.9889 -3.1279,-11.9857 -4.18387,-24.2901 -0.53891,-6.2806 -2.08435,-15.2806 -3.43446,-20 -2.78339,-9.73 -3.33096,-13.6858 -4.23538,-30.5809 -0.44241,-8.2622 -1.25173,-13.5574 -2.59873,-17 -2.72227,-6.9579 -3.77766,-15.1427 -4.64318,-36 -0.59939,-14.4464 -1.10623,-18.6836 -2.56733,-21.4627 -2.85662,-5.4332 -4.53257,-19.9514 -4.56398,-39.5373 -0.0252,-15.9661 -0.26047,-18.5085 -2.07572,-22.5 -3.517,-7.7334 -4.1512,-13.6133 -4.85291,-45 -0.64244,-28.7426 -0.81077,-30.7747 -2.92364,-35.2671 -2.94509,-6.2632 -3.79637,-17.1805 -4.69506,-60.2329 -0.62024,-29.7002 -0.94546,-34.6053 -2.57367,-38.7863 -2.73347,-7.02 -3.36418,-38.9345 -3.36418,-170.2137 0,-132.2339 0.58714,-161.7494 3.38507,-170.1741 1.6886,-5.0843 2.01131,-9.8991 2.53563,-37.8259 0.62212,-33.1399 2.09591,-59.7959 3.59377,-65 0.47474,-1.65 1.54978,-4.8727 2.38895,-7.1615 1.17103,-3.1943 1.55667,-9.1206 1.65865,-25.5 0.14599,-23.464 1.62702,-36.9578 4.81127,-43.8385 1.8378,-3.971 2.08536,-6.4197 2.10462,-20.8296 0.0261,-20.4559 1.53996,-33.9438 4.64032,-41.3903 1.95353,-4.6916 2.38324,-7.478 2.39008,-15.5 0.0136,-16.1298 1.77763,-32.0992 4.44782,-40.2801 1.86894,-5.7265 2.70215,-11.3805 3.52387,-23.91 0.7711,-11.7534 1.76906,-18.8474 3.51723,-25 1.34245,-4.7245 2.91407,-13.54 3.49258,-19.59 1.18221,-12.3626 2.51405,-19.9805 4.59544,-26.2849 0.7781,-2.3568 1.41477,-6.2446 1.41477,-8.6396 0,-6.2489 2.73249,-19.7693 5.00886,-24.7853 1.28425,-2.8299 1.9546,-6.5253 1.9691,-10.8565 0.0281,-8.6626 1.57955,-16.6966 4.47084,-23.1667 1.74127,-3.8968 2.53116,-7.9985 3.0357,-15.767 0.53073,-8.17 1.33416,-12.1372 3.61991,-17.8779 2.24717,-5.644 3.15459,-10.0415 3.8612,-18.7116 0.6813,-8.3619 1.60592,-12.9825 3.52503,-17.6221 1.64969,-3.9883 2.93928,-9.6562 3.52549,-15.4957 1.05213,-10.4821 1.4361,-12.4649 4.02673,-20.7927 1.02667,-3.3 2.53645,-9.6 3.35521,-14 0.8188,-4.4 2.2122,-10.025 3.09639,-12.5 0.8845,-2.475 2.51042,-9.1606 3.6134,-14.8568 1.10272,-5.6963 2.82536,-12.4463 3.82768,-15 1.00206,-2.5538 2.14966,-7.1182 2.54996,-10.1432 0.40068,-3.025 2.01741,-9.5574 3.59362,-14.5165 1.57578,-4.9591 3.51671,-12.3841 4.31306,-16.5 0.79658,-4.1159 2.5596,-11.0835 3.91823,-15.4835 1.35834,-4.4 2.99098,-10.198 3.62788,-12.8844 0.63706,-2.6864 2.09109,-6.7132 3.23133,-8.9483 1.14025,-2.2352 2.48581,-7.3844 2.98942,-11.4427 0.50365,-4.0582 1.97783,-10.1991 3.27516,-13.6464 1.29765,-3.4472 3.31584,-9.7545 4.48483,-14.0161 1.1693,-4.2617 2.77327,-9 3.56402,-10.5297 0.79109,-1.5297 1.92947,-5.8547 2.52937,-9.6111 0.9823,-6.1489 4.43603,-18.0352 10.14662,-34.9213 1.11568,-3.3 3.14176,-9.7932 4.50197,-14.4294 1.36045,-4.6362 3.09071,-9.6237 3.84544,-11.0834 0.7548,-1.4597 2.07029,-5.6635 2.92361,-9.3419 0.85303,-3.6784 2.42957,-8.4102 3.50337,-10.5151 1.07379,-2.1049 2.649,-6.8299 3.50007,-10.5 0.85114,-3.6701 2.42606,-8.3951 3.49994,-10.5 1.07385,-2.1049 2.64905,-6.8299 3.49993,-10.5 0.8514,-3.6701 2.43322,-8.4085 3.51537,-10.5299 1.08223,-2.1214 2.72794,-6.9493 3.65707,-10.7287 0.92891,-3.7794 2.3713,-8.2216 3.20552,-9.8716 0.83394,-1.65 2.75753,-7.05 4.27455,-12 4.78932,-15.6253 13.20938,-38.1132 17.41097,-46.5 1.23983,-2.475 2.75868,-6.8774 3.37514,-9.783 0.61664,-2.9057 1.97214,-6.9557 3.01207,-9 1.04024,-2.0444 2.88821,-7.092 4.10716,-11.217 1.21859,-4.125 3.02392,-9.3 4.01191,-11.5 0.98763,-2.2 3.64113,-8.1094 5.89621,-13.1321 2.2554,-5.0226 4.10051,-9.8078 4.10051,-10.6337 0,-1.7073 6.96981,-18.7674 10.56888,-25.8698 1.31424,-2.5934 2.85907,-6.8121 3.43342,-9.3749 0.57424,-2.5628 3.56096,-10.1339 6.63685,-16.8246 3.07588,-6.6907 6.37975,-14.4149 7.34254,-17.1649 3.08553,-8.8152 10.0005,-24.5121 19.04277,-43.2283 4.84419,-10.0255 9.12383,-19.7005 9.51059,-21.5 1.27445,-5.9282 6.24204,-16.3686 49.09924,-103.194 4.05129,-8.2073 7.36581,-15.507 7.36581,-16.2215 0,-2.3489 4.9473,-12.5441 8.45947,-17.4328 1.8951,-2.6377 11.33752,-20.462 20.98328,-39.6096 22.83125,-45.3221 29.99901,-58.8285 34.13136,-64.3138 1.86439,-2.475 5.92429,-9.45 9.02222,-15.5 11.01017,-21.5025 21.79827,-41.099 26.42514,-48 2.58108,-3.85 6.82638,-11.05 9.43412,-16 2.60765,-4.95 8.07203,-13.9699 12.14292,-20.0442 4.0707,-6.0744 7.4015,-11.3857 7.4015,-11.803 0,-1.3992 11.12926,-20.0962 14.97209,-25.1528 2.09002,-2.75 4.81095,-7.025 6.04622,-9.5 1.23583,-2.475 4.42674,-7.2505 7.09072,-10.6122 2.66415,-3.3618 5.73622,-8.0868 6.82695,-10.5 4.85899,-10.7518 13.05197,-23.5207 19.92671,-31.0571 2.67449,-2.9319 6.10513,-7.8057 7.62325,-10.8307 4.68191,-9.3271 10.64405,-19.306 14.09921,-23.5977 1.81437,-2.2537 4.85905,-6.7537 6.76542,-10 1.90637,-3.2462 5.64493,-8.9089 8.30776,-12.5837 2.66308,-3.6747 6.61208,-9.5247 8.77562,-13 2.16367,-3.4752 6.7203,-9.4686 10.12578,-13.3186 3.40523,-3.85 7.56563,-9.7 9.24528,-13 1.67981,-3.3 4.85053,-8.1441 7.04663,-10.7646 2.19588,-2.6206 5.57852,-7.5706 7.51655,-11 1.93836,-3.4295 6.69987,-9.7406 10.58125,-14.0247 3.88115,-4.2841 8.22791,-10.1341 9.65935,-13 1.43152,-2.8659 4.28632,-7.2357 6.3445,-9.7107 2.05783,-2.475 5.76617,-7.6593 8.24066,-11.5207 2.47431,-3.8613 7.41191,-10.3863 10.9723,-14.5 3.55996,-4.1136 7.96363,-9.9543 9.78549,-12.9793 3.82608,-6.3537 8.70443,-12.4134 18.54838,-23.0405 3.84993,-4.1563 7.66106,-8.885 8.46944,-10.5082 2.79099,-5.6059 7.47297,-11.9747 13.63791,-18.5524 3.40305,-3.6306 6.96523,-8.1306 7.91637,-10 2.14702,-4.2204 10.95173,-15.2924 19.02329,-23.9222 3.35595,-3.5878 7.67904,-8.9878 9.60736,-12 4.17102,-6.5149 13.34494,-17.4564 23.87488,-28.4767 4.205,-4.4 9.2678,-10.553 11.246,-13.6732 3.8238,-6.0237 13.7698,-17.6215 29.8931,-34.8606 5.418,-5.7935 11.0463,-12.3185 12.5026,-14.5 5.6235,-8.4241 19.5783,-23.456 58.4512,-62.9662 12.4477,-12.65 24.2303,-25.5482 26.1837,-28.6627 6.8675,-10.9352 105.3099,-109.5107 116.1939,-116.3493 3.6043,-2.2645 16.3807,-14.011 32.0016,-29.4193 30.2896,-29.8812 51.7401,-49.7279 59.4979,-55.0509 3.0261,-2.075 10.2244,-8.2536 16.0023,-13.7302 17.5438,-16.638 25.178,-23.2273 32.4989,-28.0566 3.8495,-2.5391 10.599,-8.0433 14.9983,-12.23146 11.1816,-10.6421 22.0357,-19.7225 28.4983,-23.8457 3.0279,-1.9286 8.2042,-6.0439 11.5044,-9.145 8.3808,-7.8767 20.3574,-17.4452 24.3954,-19.4921 1.8703,-0.9472 6.3706,-4.5006 10.0026,-7.8965 8.1422,-7.6142 19.1182,-16.4314 25.0987,-20.1568 2.4781,-1.5417 8.6492,-6.3097 13.7204,-10.5957 5.0658,-4.2859 10.9682,-8.6868 13.1088,-9.7798 2.1426,-1.0929 8.1207,-5.6189 13.2838,-10.0577 5.1645,-4.4388 11.6378,-9.355 14.3891,-10.9248 2.7488,-1.5699 7.2163,-4.6908 9.9283,-6.9353 2.7106,-2.24446 7.5952,-5.50315 10.8578,-7.24151 3.2602,-1.73835 9.3674,-6.29777 13.5711,-10.13204 4.2039,-3.83426 10.4494,-8.5421 13.8762,-10.46187 3.4304,-1.91976 8.3811,-5.28717 11.003,-7.48312 2.6188,-2.19595 7.4347,-5.35932 10.6956,-7.02971 3.2667,-1.67038 9.3428,-6.03935 13.5082,-9.7088 4.1645,-3.66945 10.493,-8.42816 14.0652,-10.57491 3.5714,-2.14675 8.9675,-5.77243 11.9943,-8.05707 3.0254,-2.28464 7.751,-5.44687 10.4991,-7.02719 2.7525,-1.58032 8.0154,-5.14144 11.6999,-7.91361 3.6844,-2.77217 11.7835,-7.71556 18.0003,-10.98531 6.7311,-3.54175 14.1668,-8.43822 18.3891,-12.11258 3.8965,-3.39217 9.2962,-7.46692 11.9996,-9.055 8.8146,-5.18115 12.8312,-7.37914 17.9123,-9.79932 2.749,-1.31004 7.2415,-4.27289 9.9787,-6.5841 2.7363,-2.31121 7.2401,-5.33654 9.9989,-6.72296 2.7633,-1.38642 7.9456,-4.6419 11.5215,-7.2344 6.1993,-4.49489 20.6317,-13.04731 24.1673,-14.31913 0.914,-0.32953 5.8715,-3.47121 11.0104,-6.98151 5.1413,-3.51031 14.2932,-9.03376 20.3363,-12.27435 6.0413,-3.24058 13.6868,-7.75493 16.9865,-10.03189 5.8873,-4.06227 28.9615,-16.67518 47.2633,-25.83643 5.0951,-2.55013 11.248,-6.15185 13.6741,-8.00382 6.8535,-5.23024 33.8637,-19.28996 114.0632,-59.37004 100.5909,-50.27195 121.1619,-60.15405 128.5009,-61.73077 1.9242,-0.41369 8.8972,-3.45537 15.4985,-6.75931 14.586,-7.30202 37.9005,-17.70744 47.1765,-21.05725 3.7545,-1.35475 10.8755,-4.35442 15.8229,-6.66594 9.8885,-4.61702 14.6953,-6.51551 21.5022,-8.488 2.4734,-0.7175 9.451,-3.56119 15.4986,-6.31932 6.0492,-2.75812 13.4723,-5.77271 16.4996,-6.69908 5.214,-1.59654 10.8964,-3.93539 24.44,-10.05756 3.2686,-1.47697 9.0507,-3.54727 12.8533,-4.60067 3.8018,-1.05339 8.599,-2.77691 10.6662,-3.83003 2.0638,-1.05312 6.4053,-2.56922 9.6465,-3.3691 3.2396,-0.79989 10.1701,-3.35907 15.3958,-5.68708 8.9784,-4.00086 18.1171,-7.37368 36.4979,-13.46834 4.401,-1.45901 10.252,-3.57568 13.0003,-4.70371 2.7517,-1.12803 8.3338,-2.92068 12.4107,-3.98369 4.075,-1.063 9.0699,-2.77938 11.0982,-3.81419 2.0289,-1.0348 6.6886,-2.57785 10.3612,-3.429 3.6708,-0.85114 8.3951,-2.42614 10.4993,-3.5 2.1064,-1.07385 6.8315,-2.64885 10.5021,-3.5 3.668,-0.85114 8.4525,-2.45604 10.6295,-3.56643 2.1763,-1.11039 6.8178,-2.68242 10.3152,-3.49339 3.4967,-0.81097 8.3439,-2.35095 10.7712,-3.42217 2.4273,-1.07122 7.5628,-2.84672 11.4125,-3.94557 3.8484,-1.09884 9.6994,-2.91636 13.001,-4.03893 3.3003,-1.12257 9.1501,-2.98496 13.001,-4.13864 3.8483,-1.15369 7.6743,-2.35991 8.4972,-2.6805 2.1338,-0.82871 3.1118,-1.09664 6.5004,-1.78295 9.1886,-1.8596 15.755,-3.57792 21.9996,-5.75557 19.4839,-6.79374 27.211,-9.05357 33.3136,-9.74108 3.6784,-0.41437 9.1632,-1.88399 12.1887,-3.26584 3.0232,-1.38184 7.0745,-2.82919 8.9993,-3.21633 1.9246,-0.38714 7.7751,-2.00025 13.0004,-3.58469 5.2252,-1.58444 11.5251,-3.15937 13.9984,-3.49986 2.4763,-0.34048 8.4349,-1.91187 13.2449,-3.49198 4.8106,-1.5801 12.4607,-3.52986 17.0005,-4.33279 4.5412,-0.80294 9.8304,-2.11648 11.7547,-2.919 1.9255,-0.80251 7.3246,-2.21139 12.0006,-3.13084 4.6765,-0.91944 12.1002,-2.75958 16.4996,-4.08918 4.401,-1.32961 11.0821,-2.89495 14.8453,-3.47854 3.7664,-0.58359 9.3914,-1.90415 12.4996,-2.93457 7.9996,-2.64993 10.4924,-3.1453 20.6554,-4.10189 5.7186,-0.5382 11.2299,-1.77289 15.1096,-3.38522 4.4147,-1.83234 9.3254,-2.81968 17.6691,-3.55098 8.8346,-0.77448 13.3129,-1.71704 19.0244,-4.00368 5.8922,-2.3595 9.6558,-3.12418 17.8323,-3.623 6.99,-0.42636 11.831,-1.27717 14.8639,-2.61267 6.1152,-2.69124 16.2483,-4.77097 23.4994,-4.82403 3.3005,-0.0241 7.7997,-0.72811 10.0023,-1.56438 8.8374,-3.35931 14.5943,-4.46836 27.5003,-5.29772 10.1463,-0.65219 14.6328,-1.38314 18.0601,-2.94438 2.9441,-1.34043 8.4563,-2.44387 15.5399,-3.11199 6.0363,-0.56935 14.785,-2.11914 19.438,-3.444 9.5646,-2.72313 13.4891,-3.25558 30.462,-4.13426 8.7251,-0.45172 13.9102,-1.27025 18.9983,-2.99983 8.9698,-3.04725 11.4132,-3.35436 32.5012,-4.08495 14.3531,-0.49727 18.308,-0.96243 22.0003,-2.5877 6.8503,-3.01622 21.6439,-4.74593 40.7792,-4.76746 15.9475,-0.0179 17.7212,-0.20416 22.9983,-2.41471 7.9807,-3.34067 10.7671,-3.66168 36.2225,-4.17341 36.6619,-0.73699 38.0255,-0.84172 42.7571,-3.28207 5.5174,-2.84753 18.2824,-3.82199 61.2426,-4.67539 28.3226,-0.5626 33.2446,-0.89379 38.3028,-2.57627 8.6203,-2.86932 34.6178,-3.39759 167.1976,-3.39759 135.7149,0 166.0801,0.58633 173.1633,3.34387 4.2377,1.64928 8.9744,1.96745 38.3351,2.57472 41.1021,0.85011 55.6923,1.85398 60.1053,4.135 5.9491,3.07727 8.9426,3.38471 34.2834,3.52302 28.8566,0.1575 37.4702,0.99714 45.6802,4.45186 5.4531,2.29573 7.0661,2.47211 22.6519,2.47973 20.5214,0.01 32.3295,1.27834 40.5372,4.35367 5.3128,1.98989 8.8521,2.43393 23.7424,2.97874 21.1353,0.77321 23.5569,1.08 32.5013,4.11761 5.0775,1.72491 10.2913,2.54938 18.9983,3.00442 14.286,0.74655 18.0717,1.21071 26.0014,3.18774 14.3544,3.57933 18.315,4.30922 23.4996,4.33015 6.5264,0.0264 19.8797,2.35353 25.4988,4.44369 2.202,0.8184 6.0268,1.50836 8.5001,1.53325 6.6962,0.0673 20.4202,2.69047 24.1395,4.61426 2.0346,1.05141 7.2676,1.98323 13.8935,2.47356 11.4895,0.85018 16.4568,1.91312 23.1601,4.95568 2.5565,1.1603 6.5435,1.96711 9.808,1.98462 8.2101,0.0441 17.5571,1.80288 24.0065,4.51675 3.1549,1.32873 8.8339,2.6842 12.6141,3.01215 14.5895,1.26466 15.9525,1.52678 23.3791,4.48859 3.2595,1.3001 9.3702,2.53526 15.0007,3.03209 5.2258,0.46108 13.2256,2.01605 17.7826,3.45549 4.5557,1.43944 12.2485,3.25843 17.0934,4.04221 4.8467,0.78378 10.7923,2.32464 13.2164,3.42413 2.4234,1.09949 5.4386,2.00896 6.7,2.02104 3.924,0.0376 17.4939,3.11845 20.4345,4.63957 1.5414,0.79679 7.4079,2.2872 13.0369,3.31202 5.63,1.02482 12.6311,2.81612 15.559,3.98068 2.9273,1.16455 8.4985,2.56809 12.3842,3.11898 3.8832,0.55088 10.9377,2.30731 15.6759,3.90317 4.7387,1.59586 10.1918,3.168 12.1159,3.49365 1.9243,0.32565 5.9621,1.73798 8.9689,3.13853 3.1273,1.45546 8.9022,2.97675 13.4798,3.55081 4.4048,0.55241 10.7205,2.07405 14.033,3.38142 3.3103,1.30738 8.7594,3.07437 12.1125,3.92666 3.3503,0.85229 8.0765,2.42078 10.5,3.48554 2.4234,1.06477 7.3306,2.44576 10.9065,3.06888 6.5303,1.13833 24.7496,6.44405 35,10.19291 3.0255,1.10631 9.3254,3.06658 14.0008,4.35617 4.6736,1.28958 10.2982,3.22169 12.5007,4.29356 2.1997,1.07188 5.9501,2.27202 8.3369,2.66699 2.3846,0.39497 7.1101,1.96205 10.5,3.4824 3.3914,1.52034 7.9597,3.0877 10.1628,3.48302 2.1991,0.39531 7.3731,1.9847 11.4998,3.53197 9.0151,3.38197 20.5103,7.2077 31.9084,10.62082 4.6289,1.38506 10.0286,3.32953 12.0011,4.32105 1.9748,0.99151 5.391,2.12817 7.5901,2.52589 2.1996,0.39773 6.9246,1.96041 10.4999,3.47263 3.5746,1.51222 9.8615,3.76603 13.9715,5.00848 4.1104,1.24244 11.7599,4.28843 16.9997,6.76886 5.2397,2.48042 12.7797,5.34529 16.7575,6.36636 3.9748,1.02107 8.6569,2.59667 10.4071,3.50134 1.7497,0.90466 6.1788,2.47584 9.8442,3.49152 3.6661,1.01568 11.9422,4.32587 18.3891,7.35599 6.4509,3.03011 13.3923,5.80425 15.4284,6.16475 2.0366,0.3605 9.5526,3.34954 16.7025,6.64232 7.15,3.29277 15.9244,6.81251 19.4986,7.82163 3.5758,1.00913 12.3515,4.55733 19.5014,7.88489 7.1499,3.32757 13.6084,6.05426 14.3528,6.05931 2.4384,0.0165 25.0199,9.93458 42.178,18.52539 9.2457,4.62804 18.982,8.9401 21.6394,9.58236 6.6431,1.60605 23.442,9.48473 74.7055,35.03391 24.1285,12.02714 44.6789,21.86753 45.6657,21.86753 2.9897,0 11.1624,3.91957 16.4585,7.89339 2.7488,2.06401 20.9743,11.75472 40.5,21.53491 47.7061,23.89693 61.2435,31.09872 66.1326,35.18211 2.2649,1.8938 12.7253,7.76345 23.2449,13.04368 22.5149,11.30378 33.2642,17.29195 40.1232,22.35297 2.7489,2.02933 10.3991,6.51124 17.0004,9.9598 6.5973,3.44856 14.4734,8.16023 17.4987,10.47038 3.0234,2.31015 10.4517,6.81599 16.5003,10.01297 6.0487,3.19698 14.373,8.17034 18.5004,11.05192 4.1232,2.88157 9.3062,6.15212 11.5127,7.26788 2.206,1.11576 6.4826,4.02615 9.4989,6.46752 3.0187,2.44137 10.4378,7.04924 16.4872,10.2397 13.4726,7.1043 18.3991,10.40895 25.5011,17.10047 3.6583,3.44646 9.8551,7.44003 18.4998,11.91837 7.1499,3.70432 15.1278,8.50276 17.7326,10.6632 2.5999,2.16044 7.4627,5.4729 10.8029,7.36101 3.3395,1.88811 8.6374,5.42142 11.7686,7.85181 3.133,2.43038 7.6188,5.38029 9.9677,6.55536 2.3512,1.17506 7.9764,5.41895 12.5002,9.43087 4.5277,4.01191 11.0069,8.76797 14.4058,10.56903 3.3963,1.80106 8.5589,5.30635 11.4682,7.78953 2.9067,2.48319 7.7526,5.68215 10.7672,7.10881 3.1372,1.48663 8.977,5.89048 13.6765,10.31638 4.8219,4.54173 10.8169,9.04296 14.5545,10.9285 3.4931,1.76332 8.3513,4.96251 10.7923,7.10927 2.4439,2.1468 6.9903,5.2635 10.1118,6.926 3.1177,1.6625 9.444,6.3945 14.0611,10.5156 4.6146,4.1211 10.9627,8.8729 14.1097,10.5595 3.1484,1.6867 11.0086,8.0045 17.4719,14.0397 7.392,6.9032 13.9544,12.0864 17.695,13.9748 3.2707,1.651 9.3604,6.2486 13.53,10.2169 4.172,3.9684 10.3839,8.7045 13.8025,10.5247 3.7982,2.0206 10.6472,7.4911 17.5848,14.0468 6.2507,5.9055 13.5762,12.013 16.2791,13.5723 6.4744,3.7331 13.5349,9.6188 26.9169,22.4353 6.0488,5.79466 13.521,11.95886 16.6034,13.69806 6.8311,3.8545 11.1486,7.5122 30.3155,25.6735 8.2079,7.7754 16.8468,15.262 19.2053,16.637 7.2348,4.223 38.4554,33.2752 70.3767,65.4911 10.9802,11.081 18.1636,17.5085 21.4734,19.2107 5.1719,2.6611 28.7758,25.4503 79.0231,76.2982 32.0245,32.4064 33.2167,33.6929 35.7072,38.5 1.1423,2.2056 14.6895,16.7852 30.1957,32.5 32.6779,33.1131 50.6882,52.6543 54.3792,59 1.4387,2.475 7.9997,10.125 14.5748,17 17.9036,18.7143 25.3018,27.3884 28.1446,32.9997 1.5183,2.996 7.5581,10.2481 14.8023,17.78 13.2922,13.8168 16.8277,18.1022 21.1777,25.6757 1.5652,2.7255 7.6365,9.9897 13.4883,16.1426 6.6736,7.0168 11.9014,13.557 14.0219,17.5445 1.862,3.4966 6.6301,9.7699 10.5983,13.9406 4.0227,4.2262 8.5694,10.2703 10.2804,13.653 1.9635,3.8915 6.9955,10.2703 14.0167,17.774 6.0239,6.4372 12.308,14.2434 13.9646,17.347 1.6573,3.1036 6.4211,9.4107 10.589,14.0159 4.1656,4.6051 8.9685,10.9853 10.6695,14.1781 1.7036,3.1928 5.1453,8.1999 7.6487,11.127 2.5079,2.927 5.6425,7.7684 6.9714,10.7586 1.5251,3.4333 5.1146,8.224 9.7436,13 4.2364,4.3708 8.9303,10.518 11.1191,14.5633 2.083,3.85 5.5495,9.025 7.7034,11.5 2.1542,2.475 5.2651,7.2 6.9082,10.5 1.6466,3.3 5.1496,8.25 7.7786,11 6.051,6.3194 11.711,13.8502 13.4428,17.8804 0.7339,1.7158 3.6617,5.9873 6.5017,9.4923 2.8435,3.5051 6.3336,8.6801 7.7602,11.5 1.4265,2.82 4.329,7.1002 6.4498,9.5115 2.1186,2.4113 6.83,10.2863 10.4727,17.5 4.4094,8.7421 8.2081,14.7831 11.3895,18.1158 7.6389,8.0038 11.7943,14.1151 17.985,26.4437 3.1914,6.356 7.5864,13.5813 9.7689,16.0563 2.1818,2.475 5.2044,6.9398 6.7145,9.9219 1.5065,2.982 4.8721,8.1994 7.4729,11.5941 2.6009,3.3948 7.3473,11.3049 10.5441,17.5781 3.196,6.2733 7.4872,13.4309 9.5378,15.9059 3.5653,4.3024 13.9102,22.0582 15.8978,27.2823 0.5199,1.368 3.1681,5.5767 5.8831,9.3525 5.7713,8.0243 9.127,14.0742 22.208,40.0207 5.3929,10.6996 11.3849,21.1239 13.5729,23.6144 2.7828,3.1661 19.3402,35.3046 57.112,110.8445 58.3146,116.6299 61.6107,123.4423 63.1474,130.536 0.5797,2.6673 5.519,13.8496 10.9755,24.8496 11.5118,23.1944 15.5449,32.2367 17.1701,38.5 0.6415,2.475 3.639,9.659 6.6659,15.9645 3.022,6.3055 6.1809,14.1805 7.0168,17.5 0.8338,3.3195 4.1919,11.5964 7.4573,18.393 3.2679,6.7966 6.4202,14.6716 7.0093,17.5 0.5898,2.8284 3.5058,10.2266 6.4838,16.4406 2.9767,6.2139 6.3596,14.7639 7.5162,19 1.1566,4.236 2.9546,9.382 3.9953,11.4354 1.0402,2.0535 2.5065,6.5535 3.2626,10 0.7542,3.4466 3.8946,11.5089 6.9765,17.9163 3.0833,6.4074 6.2394,14.2824 7.0137,17.5 0.7738,3.2176 2.5737,8.439 3.9992,11.603 1.4243,3.1641 2.8885,7.6641 3.2488,10 0.357,2.336 1.9288,6.8005 3.4864,9.9212 1.5584,3.1207 3.1243,7.6207 3.481,10 0.3573,2.3793 1.9498,7.3449 3.542,11.0348 1.5911,3.6898 3.3072,8.8648 3.81,11.5 0.504,2.6351 2.0661,7.2991 3.4748,10.3644 1.4065,3.0652 2.9974,7.8949 3.5379,10.7326 0.5372,2.8377 1.8616,6.8951 2.9468,9.0164 1.0795,2.1212 2.8422,7.1915 3.9114,11.2673 1.0733,4.0758 3.1154,10.1105 4.5404,13.4105 1.4237,3.3 2.5992,7.35 2.6123,9 0.013,1.65 1.3245,5.7422 2.9092,9.0937 1.5877,3.3515 3.3827,8.4187 3.9894,11.2603 0.6102,2.8416 2.2176,7.7952 3.5673,11.0079 1.3535,3.2127 2.9256,9.5657 3.4978,14.1179 0.6049,4.8407 2.0781,10.4765 3.5432,13.5759 1.3788,2.9147 3.0194,7.6945 3.6458,10.6218 0.6271,2.9274 2.4078,8.4925 3.9569,12.3669 1.5487,3.8745 3.1189,10.1745 3.4877,14 0.4005,4.15 1.8342,9.645 3.5501,13.6232 1.5813,3.6672 2.898,7.7172 2.9213,9 0.023,1.2828 0.6598,3.9074 1.4141,5.8324 3.8535,9.8523 4.7153,12.9286 5.6114,20.0778 0.5359,4.2773 2.0993,10.2349 3.4747,13.2391 1.4962,3.2666 2.9372,9.0231 3.5848,14.321 0.5967,4.8723 1.9366,10.5328 2.9793,12.5789 2.301,4.5082 4.855,14.943 4.878,19.9124 0.01,1.996 1.1199,6.0483 2.4748,9.0051 1.3549,2.9567 2.9556,8.7486 3.5603,12.8708 0.6052,4.1222 2.1619,10.8699 3.461,14.9949 3.1687,10.0587 3.4895,11.719 4.4685,22.9772 0.5883,6.7568 1.5194,11.0233 3.0742,14.0718 1.7028,3.3399 2.4413,7.1919 3.1175,16.2806 0.736,9.8667 1.4084,13.0932 3.9317,18.8401 2.5531,5.8183 3.1348,8.6562 3.6057,17.6324 0.474,8.9571 1.0623,11.837 3.6132,17.6979 2.5873,5.9484 3.1393,8.7277 3.6788,18.5 0.4547,8.2181 1.1591,12.4822 2.4588,14.9416 3.1499,5.9602 3.7474,9.1766 4.4638,24.0584 0.6272,13.0382 0.9782,15.0842 3.4949,20.2947 2.3717,4.9097 2.9207,7.6749 3.6026,18.1057 0.514,7.8365 1.3809,13.4212 2.3874,15.3655 2.2972,4.4433 4.5877,18.8919 5.2674,33.2341 0.4239,8.9677 1.1261,13.7401 2.4791,16.8883 2.4775,5.7693 3.8512,18.3465 3.8878,35.6117 0.025,12.0366 0.3234,14.6311 2.1139,18.5 3.79,8.1936 4.0711,10.3086 4.7996,36 0.7245,25.4872 0.7262,25.503 3.6469,31.5 l 2.9238,6 0.4988,32.5 0.5019,32.5 2.9879,6 2.9852,6 0.5817,43.5 0.5783,43.5 2.6782,5.5783 c 2.633,5.4806 2.6919,6.0582 3.4346,33 0.797,28.9815 1.0521,235.1148 0.3314,267.4217 -0.6452,28.8636 -1.3832,36.2465 -4.146,41.5 -2.359,4.4932 -2.3634,4.5707 -2.9636,51.5 l -0.6019,47 -2.9206,6 -2.9152,6 -0.5452,29.5 -0.5425,29.5 -2.9528,6 -2.9532,6 -0.6667,25 c -0.6722,25.1222 -0.9469,27.1948 -4.7221,35.5428 -1.7708,3.9125 -2.0797,6.7571 -2.216,20.5 -0.1829,18.4641 -1.3205,28.3158 -3.8549,33.3722 -1.3483,2.6941 -1.9574,7.1217 -2.4483,17.8174 -0.7191,15.6346 -2.5953,27.3733 -5.1795,32.3661 -1.1029,2.1367 -1.9718,7.5122 -2.5573,15.819 -1.2296,17.5359 -2.087,22.5737 -4.6897,27.5825 -0.9771,1.8762 -1.8443,7.4084 -2.3147,14.7683 -0.6245,9.7272 -1.2268,12.7625 -3.4691,17.5 -2.2687,4.8033 -2.826,7.6755 -3.4191,17.7317 -0.6137,10.3773 -1.0917,12.7437 -3.5291,17.5 -2.4025,4.6874 -2.9301,7.2243 -3.5727,17.1706 -0.6383,9.8804 -1.2332,12.7595 -3.8689,18.7698 -2.6193,5.9635 -3.2485,8.9758 -3.9324,18.8294 -0.6167,8.8613 -1.3784,12.9531 -3.1137,16.7302 -1.6229,3.5272 -2.5411,8.0269 -3.1202,15.2759 -0.5316,6.6689 -1.8496,13.5139 -3.7579,19.5 -1.6193,5.0733 -3.4409,12.5724 -4.0521,16.6649 -0.6105,4.0924 -2.1915,9.9424 -3.5137,13 -1.4519,3.3526 -2.6604,8.5991 -3.0475,13.2178 -0.4485,5.3339 -1.5101,9.4929 -3.5017,13.7017 -1.8889,3.9997 -3.087,8.5109 -3.5338,13.3414 -0.392,4.2057 -1.889,10.369 -3.536,14.545 -1.5692,3.9856 -3.3036,10.8247 -3.8511,15.1979 -0.5476,4.3732 -2.098,10.5629 -3.4402,13.7548 -1.3443,3.1919 -2.7633,7.6028 -3.1539,9.802 -0.3913,2.1992 -2.0085,6.999 -3.5922,10.6662 -1.583,3.6672 -2.8793,8.2576 -2.8793,10.2008 0,5.1532 -1.936,13.3901 -4.5225,19.2594 -1.2441,2.8203 -2.7604,7.4654 -3.3744,10.3225 -0.6134,2.857 -2.2532,7.6009 -3.6445,10.5419 -1.5248,3.223 -2.8888,8.5086 -3.4375,13.3053 -0.4994,4.377 -2.0735,10.8256 -3.4984,14.3303 -1.424,3.5047 -3.2489,9.1943 -4.0497,12.6435 -0.7997,3.4492 -2.3769,8.0806 -3.5055,10.2919 -1.1298,2.2113 -2.5236,6.5711 -3.1012,9.6885 -0.5751,3.1173 -2.1498,7.8474 -3.5005,10.5112 -1.3491,2.6639 -2.9263,7.3889 -3.4997,10.5 -0.5765,3.1112 -2.0791,7.6998 -3.3374,10.1969 -1.2628,2.4971 -2.8521,7.2402 -3.5299,10.5402 -0.6776,3.3 -2.3244,8.1614 -3.6628,10.8031 -1.3326,2.6418 -2.8939,7.3487 -3.4708,10.4598 -0.5736,3.1112 -2.1503,7.8362 -3.4992,10.5 -1.3507,2.6639 -2.9251,7.3927 -3.5024,10.5085 -0.5743,3.1158 -1.9848,7.4794 -3.1317,9.6969 -1.1474,2.2174 -3.073,7.6317 -4.2813,12.0317 -1.2053,4.4 -3.0952,10.25 -4.1987,13 -1.0995,2.75 -3.0016,8.15 -4.2259,12 -1.2213,3.85 -4.2573,11.05 -6.7474,16 -2.4862,4.95 -5.1572,11.925 -5.9336,15.5 -0.7782,3.575 -2.2654,8.1365 -3.3054,10.1368 -1.0393,2.0002 -2.6611,6.7252 -3.6004,10.5 -0.9386,3.7747 -4.1518,11.7913 -7.1359,17.8145 -2.9832,6.0233 -6.0873,13.7921 -6.892,17.264 -0.8038,3.4719 -4.1525,11.8794 -7.4416,18.6834 -3.2886,6.8039 -6.3951,14.5602 -6.904,17.236 -0.5088,2.6759 -3.6091,10.551 -6.8913,17.5003 -3.2817,6.9492 -6.2888,14.1492 -6.685,16 -1.1275,5.2746 -4.8206,13.6588 -16.4564,37.365 -5.9395,12.1 -11.5459,24.925 -12.4575,28.5 -1.0558,4.14 -11.4462,26.154 -28.6183,60.6312 -14.8273,29.7722 -26.9593,54.553 -26.9593,55.0685 0,3.5862 -3.7583,12.1106 -7.6964,17.4541 -2.6279,3.5642 -15.3274,27.5821 -28.9746,54.7882 -16.5423,32.9834 -25.4038,49.5774 -27.7636,52 -2.1789,2.2363 -8.4986,13.5227 -17.0075,30.3828 -7.4506,14.7536 -15.5251,29.3786 -17.9489,32.5 -2.4239,3.1213 -7.4441,11.5252 -11.1573,18.6752 -3.7121,7.15 -8.6328,15.25 -10.9322,18 -2.2973,2.75 -6.7564,10.1434 -9.9066,16.4298 -5.9716,11.9082 -8.089,15.3565 -12.8073,20.8635 -1.5508,1.8113 -4.1347,5.8613 -5.743,9 -1.6057,3.1387 -4.7067,7.8382 -6.8888,10.4434 -2.186,2.6052 -6.8291,10.4154 -10.3216,17.356 -5.1183,10.173 -7.8182,14.198 -13.9256,20.7633 -6.1676,6.6276 -8.7719,10.5334 -14.0014,20.9772 -3.5342,7.0583 -8.3657,15.1171 -10.7405,17.9086 -2.3741,2.7914 -5.5899,7.5982 -7.1458,10.6817 -1.5559,3.0835 -4.6992,7.8497 -6.9839,10.5915 -2.2816,2.7417 -5.5569,7.5992 -7.2758,10.7944 -1.7154,3.1952 -6.5628,9.7202 -10.7698,14.5 -5.2078,5.9149 -9.4893,12.1906 -13.4107,19.6491 -6.617,12.5861 -8.8767,15.6655 -20.6043,28.0485 -5.4588,5.7641 -9.5391,11.1384 -11.3324,14.9271 -1.5422,3.2561 -4.6183,7.9779 -6.8353,10.493 -2.2219,2.5151 -5.3046,7.0775 -6.853,10.1386 -1.5484,3.0611 -6.4831,9.5797 -10.964,14.4857 -4.5477,4.9801 -9.7337,11.9385 -11.7392,15.7536 -2.4253,4.614 -7.0884,10.5117 -14.3618,18.1584 -6.8546,7.2056 -11.8491,13.4548 -13.7327,17.1807 -1.6254,3.2208 -6.3676,9.5574 -10.5371,14.0814 -4.1708,4.524 -8.7343,10.5091 -10.1527,13.3004 -1.4585,2.8802 -7.2939,10.0071 -13.4903,16.4797 -7.218,7.5356 -11.9535,13.4494 -13.9617,17.4312 -2.1733,4.3054 -7.181,10.3189 -17.5289,21.0579 -8.968,9.3063 -15.4594,16.9531 -17.0402,20.0764 -2.9972,5.9083 -11.3101,15.6454 -27.9644,32.7489 -6.9836,7.17 -13.6119,15.0494 -15.8517,18.8435 -4.5201,7.6531 -12.9395,16.664 -56.1013,60.0457 -26.014,26.1457 -32.586,33.2994 -34.916,38 -2.4024,4.8567 -10.874,13.7816 -52.5012,55.3295 -39.3406,39.2671 -50.8009,50.1532 -55.2812,52.5023 -4.3194,2.2648 -13.6363,10.8627 -39.5113,36.4613 -37.2197,36.8252 -44.1145,43.1508 -52.4652,48.137 -3.0997,1.8484 -12.7726,10.1862 -21.504,18.5284 -18.9465,18.1089 -23.2263,21.7207 -29.5447,24.9215 -2.8245,1.4316 -10.9364,8.3462 -19.7258,16.818 -10.2927,9.9169 -16.8769,15.4247 -21.1982,17.7272 -3.8767,2.0657 -10.5878,7.4421 -17.5915,14.0902 -6.2289,5.9124 -13.5797,11.8938 -16.3408,13.2919 -2.7577,1.3981 -8.7174,5.9527 -13.2427,10.1212 -4.5222,4.1686 -10.8859,8.9238 -14.1361,10.5672 -3.6499,1.8441 -9.6535,6.5662 -15.6802,12.334 -10.892,10.4241 -16.4141,14.7056 -22.3768,17.3483 -2.2153,0.9827 -7.6461,5.1898 -12.0653,9.3492 -4.4156,4.1594 -11.011,9.2001 -14.6512,11.2014 -3.6419,2.0013 -8.6103,5.3896 -11.0413,7.5296 -2.4308,2.1399 -7.0628,5.1421 -10.2914,6.6715 -3.565,1.6879 -9.0947,5.8156 -14.0701,10.5032 -4.5124,4.2473 -10.8418,9.056 -14.0723,10.6859 -3.2285,1.6299 -8.1131,4.8421 -10.8559,7.1383 -2.7413,2.2961 -7.4585,5.4715 -10.4847,7.0564 -3.0225,1.585 -7.748,4.9617 -10.4993,7.5038 -8.4237,7.7867 -12.7868,11.1283 -18.0002,13.786 -2.7495,1.4018 -7.2415,4.4269 -9.9852,6.7224 -2.7402,2.2955 -7.5092,5.4472 -10.5912,7.0037 -3.0834,1.5566 -7.8909,4.7721 -10.6799,7.1458 -2.792,2.3736 -10.8512,7.2069 -17.9112,10.7407 -10.4322,5.2242 -14.3557,7.8411 -20.9844,14 -6.5368,6.074 -10.6854,8.8603 -20.9295,14.0624 -7.0269,3.5682 -14.8326,8.2124 -17.3481,10.3206 -2.5126,2.1081 -7.1367,5.1478 -10.277,6.755 -3.1396,1.6071 -7.1879,4.1915 -8.9986,5.7432 -5.4462,4.6639 -8.7603,6.6946 -20.7939,12.7379 -6.3264,3.1763 -13.7512,7.6605 -16.4996,9.9648 -2.7512,2.3043 -10.8497,7.2279 -17.9996,10.9412 -7.1499,3.7133 -15.4756,8.6677 -18.5011,11.0097 -3.0272,2.342 -14.0497,8.6521 -24.5012,14.0223 -10.4504,5.3703 -21.7576,11.8715 -25.1311,14.4472 -8.3304,6.3638 -244.2753,124.3917 -253.1021,126.6105 -3.4271,0.8618 -17.1737,6.9167 -30.5497,13.4552 -13.3764,6.5386 -27.447,12.8615 -31.2684,14.0509 -3.8218,1.1894 -13.2492,4.9936 -20.9482,8.4537 -7.6987,3.4602 -15.684,6.5343 -17.7407,6.8313 -2.0567,0.2971 -9.416,3.2842 -16.357,6.6381 -6.9399,3.354 -14.932,6.5788 -17.7602,7.1664 -2.8288,0.5876 -10.709,3.7402 -17.512,7.0059 -6.8026,3.2657 -14.9263,6.534 -18.0493,7.2627 -3.1241,0.7288 -7.8692,2.2932 -10.5443,3.4765 -2.6753,1.1833 -7.6017,2.7899 -10.9486,3.5702 -3.3494,0.7803 -10.2935,3.5119 -15.4303,6.0702 -9.3621,4.6605 -19.2247,8.479 -21.8974,8.479 -0.7839,0 -4.5185,1.3581 -8.3023,3.0181 -3.781,1.6599 -9.1307,3.4458 -11.8886,3.9687 -2.7556,0.5228 -7.1807,2.0494 -9.8318,3.3924 -2.6485,1.3431 -7.3614,2.9124 -10.4755,3.4876 -3.1095,0.5751 -7.835,2.1501 -10.4987,3.5 -2.6655,1.3498 -7.3899,2.9248 -10.4999,3.5 -3.1107,0.5751 -7.8168,2.1377 -10.461,3.4725 -2.6412,1.3348 -7.5034,2.9821 -10.8009,3.6607 -3.3009,0.6786 -8.0434,2.266 -10.5416,3.5275 -2.4954,1.2614 -7.0843,2.7641 -10.1973,3.3393 -3.11,0.5751 -7.8355,2.1501 -10.4992,3.5 -2.665,1.3498 -7.3892,2.9248 -10.4995,3.5 -3.1133,0.5751 -7.8942,2.1791 -10.6257,3.5644 -2.7366,1.3853 -6.9234,2.8182 -9.3049,3.1842 -2.3836,0.3661 -7.6803,1.9819 -11.7734,3.5907 -4.1226,1.6198 -10.9616,3.3266 -15.3303,3.8249 -4.7305,0.5395 -10.0311,1.9122 -13.236,3.4288 -2.94,1.3909 -7.9653,3.1563 -11.1684,3.9231 -3.2025,0.7668 -7.8633,2.2857 -10.3527,3.3754 -5.2936,2.3149 -13.6572,4.2417 -18.4181,4.2417 -1.8388,0 -6.4294,1.2946 -10.1981,2.8769 -3.771,1.5823 -8.6547,3.1987 -10.8535,3.592 -2.2012,0.3932 -6.6099,1.8142 -9.8027,3.1576 -3.1917,1.3435 -9.4468,2.8995 -13.9004,3.4579 -4.4541,0.5583 -10.7429,2.1292 -13.9771,3.4909 -3.237,1.3616 -9.5812,2.9579 -14.103,3.5472 -4.5199,0.5893 -10.693,2.1433 -13.7185,3.4532 -6.4453,2.7903 -12.9899,4.3656 -18.28,4.3999 -2.0816,0.013 -6.451,1.1479 -9.7121,2.5211 -3.2641,1.3731 -9.2109,2.9843 -13.2214,3.5803 -4.0071,0.596 -11.4992,2.4272 -16.6442,4.0692 -5.979,1.9074 -13.0202,3.2899 -19.5008,3.8284 -6.9647,0.5789 -11.7065,1.5543 -15.142,3.1146 -3.7843,1.7191 -7.8401,2.4537 -16.6716,3.0202 -9.9133,0.636 -12.7483,1.2212 -18.8285,3.8906 -6.0774,2.6671 -8.9225,3.256 -18.8309,3.8962 -10.0056,0.6466 -12.4541,1.1607 -17.1702,3.6025 -4.8056,2.4885 -7.0153,2.9331 -17.4987,3.5196 -10.2072,0.571 -12.8775,1.087 -17.8654,3.4524 -4.8905,2.3191 -7.7979,2.9029 -17.5006,3.5152 -8.364,0.5278 -12.9003,1.3097 -16.1336,2.7825 -5.3762,2.4472 -8.489,2.9528 -25.5012,4.1466 -9.3599,0.6566 -14.2595,1.4793 -17.507,2.9374 -5.9888,2.6921 -14.5736,3.9948 -31.4921,4.7788 -10.5291,0.4878 -14.8978,1.0981 -17.6159,2.4608 -4.9572,2.4838 -17.5535,3.9038 -34.8582,3.93 -12.5827,0.019 -15.127,0.3008 -19.0272,2.1043 -8.2514,3.818 -10.36,4.1005 -35.4996,4.7508 l -25.0014,0.6468 -5.9991,2.9695 -6.0003,2.9695 -32.9997,0.5618 -32.9992,0.5617 -5.9997,2.9568 -6.0002,2.9568 -43.5008,0.5663 -43.499,0.5664 -5.4996,2.6073 c -4.2438,2.0119 -7.6692,2.7394 -15.0011,3.1861 -12.7064,0.7743 -264.3499,1.9279 -265.0414,1.2151 z m 116.6342,-1210.1046 c 1.5515,-0.8048 6.2145,-2.1978 10.3657,-3.0955 4.1465,-0.8977 10.242,-2.4916 13.5424,-3.5419 3.3009,-1.0504 11.3776,-3.5148 17.9491,-5.4765 6.5736,-1.9617 12.6932,-3.9634 13.5992,-4.4483 0.906,-0.4849 4.5271,-1.3431 8.0498,-1.9071 3.5186,-0.564 11.3539,-2.5861 17.4014,-4.4935 17.4931,-5.5152 21.6834,-6.7161 26.4843,-7.5925 6.3706,-1.162 17.8197,-4.4018 22.3576,-6.3271 2.115,-0.8964 7.7402,-2.2613 12.5008,-3.033 4.7607,-0.7716 11.1446,-2.5084 14.1855,-3.8594 3.0409,-1.351 7.3158,-2.7768 9.5018,-3.1684 2.1837,-0.3917 6.4446,-1.5603 9.4707,-2.5969 3.022,-1.0366 8.8731,-2.6015 12.9981,-3.4774 4.1268,-0.8759 10.199,-2.5132 13.5006,-3.6383 3.3016,-1.1251 9.5997,-2.7311 14.0014,-3.569 7.8077,-1.4869 9.6139,-1.994 21.9996,-6.1771 16.2136,-5.476 25.8772,-8.1951 32.4146,-9.1223 3.9461,-0.5599 8.8428,-1.8613 10.8806,-2.892 2.0371,-1.0307 5.9563,-2.3532 8.7052,-2.9388 2.7506,-0.5857 9.2753,-2.4899 14.5005,-4.2316 5.2228,-1.7417 10.8461,-3.5164 12.4979,-3.9437 1.6498,-0.4273 7.7753,-2.1785 13.6125,-3.8916 5.8372,-1.7131 11.9107,-3.1246 13.5006,-3.1367 1.5876,-0.012 4.9126,-0.9498 7.386,-2.0838 2.4774,-1.1341 9.4493,-3.1312 15.502,-4.438 6.0493,-1.3068 14.1959,-3.5071 18.0974,-4.8897 3.9073,-1.3825 9.7582,-2.8064 13.0009,-3.1642 3.2485,-0.3578 8.9019,-1.9447 12.5699,-3.5264 3.665,-1.5817 7.3902,-2.8759 8.2759,-2.8759 0.8873,0 5.5388,-1.2918 10.3342,-2.8706 4.7976,-1.5788 12.0969,-3.4301 16.2207,-4.1139 4.1262,-0.6838 9.9744,-2.2654 13.0004,-3.5147 3.0262,-1.2493 7.0739,-2.5812 9.0017,-2.9597 3.1956,-0.6283 11.5515,-3.1816 33.4999,-10.2352 4.3981,-1.4141 12.0459,-3.42 16.9936,-4.4576 4.9433,-1.0376 11.4416,-2.8036 14.4387,-3.9244 2.9942,-1.1208 8.9459,-2.7016 13.2216,-3.513 4.2787,-0.8113 10.6043,-2.5265 14.0598,-3.8113 3.456,-1.2849 9.2086,-2.6532 12.7839,-3.0406 3.5747,-0.3874 9.6505,-1.9621 13.5007,-3.4992 3.8502,-1.5372 8.5745,-3.1294 10.4999,-3.5383 1.9242,-0.4089 7.3063,-2.0504 11.9542,-3.6477 4.6488,-1.5974 10.951,-3.1871 14.002,-3.5327 3.0471,-0.3456 9.1441,-1.9535 13.5457,-3.5732 4.3982,-1.6197 11.1494,-3.8011 14.999,-4.8476 18.018,-4.8974 26.0852,-6.9203 27.5993,-6.9203 0.9045,0 3.6151,-0.8594 6.0231,-1.9097 2.4067,-1.0504 8.4266,-2.6671 13.3775,-3.5928 4.9515,-0.9258 11.2497,-2.5911 13.9985,-3.7008 2.7518,-1.1096 7.7014,-2.6581 11.0024,-3.441 3.2974,-0.7829 8.2484,-2.2555 10.9996,-3.2725 2.7489,-1.0169 6.8002,-2.3222 8.9986,-2.9007 2.1996,-0.5784 8.5013,-2.4359 14.0014,-4.1279 5.4994,-1.6919 12.3746,-3.5119 15.274,-4.0443 2.9018,-0.5325 9.4265,-2.2847 14.5011,-3.8939 15.614,-4.9527 25.7823,-7.9145 36.7222,-10.6984 5.7785,-1.4693 14.5518,-3.728 19.5014,-5.0194 4.9516,-1.2915 9.7536,-2.3594 10.6763,-2.3733 0.9205,-0.014 4.9695,-1.322 8.9991,-2.9067 4.0639,-1.5986 10.4423,-3.1773 14.3254,-3.5459 4.3423,-0.4122 9.4667,-1.7637 13.5006,-3.5605 3.5746,-1.5928 8.8655,-3.3684 11.7592,-3.9458 2.8951,-0.5773 7.9006,-2.1601 11.123,-3.5172 3.2236,-1.3571 8.9572,-2.7659 12.7409,-3.1307 4.0729,-0.3927 9.5965,-1.8369 13.5445,-3.5409 3.6658,-1.5827 7.3776,-2.8776 8.2472,-2.8776 0.872,0 5.7457,-1.3847 10.8338,-3.077 9.8777,-3.2859 20.2852,-6.2318 38.7489,-10.9696 6.327,-1.6228 13.3035,-3.668 15.5019,-4.5449 2.2003,-0.8769 7.7976,-2.2575 12.4373,-3.0681 4.6404,-0.8106 11.1003,-2.5937 14.3519,-3.9624 3.2529,-1.3688 9.5069,-2.8985 13.8974,-3.3994 4.5949,-0.5241 10.2568,-1.9506 13.3381,-3.3608 2.9431,-1.3476 7.9269,-2.9847 11.0718,-3.6381 3.1483,-0.6533 7.605,-1.9942 9.904,-2.9797 2.2983,-0.9855 6.7981,-2.3355 9.9991,-3 3.2005,-0.6645 7.6608,-1.9865 9.9113,-2.9378 2.2464,-0.9512 7.2377,-2.4664 11.0902,-3.3671 3.8495,-0.9006 8.797,-2.0586 10.9994,-2.5732 2.1997,-0.5146 6.551,-1.8691 9.6696,-3.01 3.1214,-1.1408 9.5362,-2.7481 14.2596,-3.5717 4.7227,-0.8236 9.8406,-2.1457 11.3725,-2.9381 1.5326,-0.7924 5.6926,-2.1826 9.2413,-3.0893 3.5512,-0.9067 10.7128,-2.968 15.9169,-4.5807 5.204,-1.6126 10.5364,-2.9321 11.8553,-2.9321 1.3165,0 7.1841,-1.57 13.0394,-3.4888 19.9718,-6.5455 32.6398,-10.2799 37.1461,-10.9496 2.474,-0.3679 8.5474,-1.9717 13.4982,-3.5641 12.0004,-3.8603 23.2112,-6.9808 27.5021,-7.6553 1.9248,-0.3026 4.8943,-1.1276 6.6002,-1.8333 1.7071,-0.7057 5.0812,-1.6121 7.501,-2.0142 2.4185,-0.4022 5.5391,-1.3153 6.9352,-2.0292 1.396,-0.7139 4.7741,-1.742 7.5008,-2.2846 2.7273,-0.5426 7.6607,-1.5238 10.9612,-2.1803 3.2976,-0.6565 7.7984,-2.0893 9.9985,-3.1839 2.1994,-1.0946 8.4058,-2.6267 13.7872,-3.4048 5.8465,-0.845 11.6832,-2.3707 14.4987,-3.7889 2.595,-1.3058 7.1913,-2.8922 10.2144,-3.5252 3.0268,-0.6329 7.751,-2.0114 10.5023,-3.0632 7.8256,-2.9933 29.1347,-9.1027 38.4992,-11.0383 4.6759,-0.9663 10.2963,-2.5077 12.4889,-3.4254 2.1938,-0.9177 7.1447,-2.5221 11.0001,-3.5653 3.8554,-1.0432 9.7112,-2.8012 13.0117,-3.9066 3.3003,-1.1054 8.5088,-2.6951 11.5773,-3.5328 4.0555,-1.1067 5.8757,-2.1723 6.6618,-3.898 0.5964,-1.3062 1.4152,-8.6069 1.8181,-16.2237 0.567,-10.7276 1.1985,-14.8738 2.8014,-18.3967 1.8683,-4.1126 2.1335,-7.2753 2.7788,-33.0478 0.7483,-29.8238 1.6178,-39.0344 4.2689,-45.2179 1.2354,-2.8886 1.5947,-7.3496 1.6055,-20 0.021,-24.7917 2.5124,-56.1207 4.9719,-62.5428 1.6362,-4.2718 2.0168,-7.6556 2.0256,-18 0.018,-23.1263 2.6956,-59.8233 4.8619,-66.6178 1.5586,-4.8937 2.0668,-10.2332 2.5353,-26.6215 0.7745,-27.1989 2.2428,-42.7799 4.7346,-50.3099 1.7312,-5.226 2.1788,-10.1617 2.8817,-31.6901 1.0051,-30.8134 2.6341,-49.896 4.7361,-55.4028 1.1356,-2.9748 1.7756,-10.124 2.3366,-26.0972 1.135,-32.2254 1.8233,-39.3344 4.2666,-44 1.9506,-3.7201 2.1439,-6.204 2.779,-35.5 0.6558,-30.3237 1.3284,-37.0783 4.2565,-42.855 0.9802,-1.936 1.5295,-10.8205 2.0532,-33.145 0.7386,-31.7723 2.3466,-50.4716 4.965,-57.8159 1.9341,-5.4144 2.4202,-11.4197 3.0651,-37.6841 0.7217,-29.3347 2.1521,-46.7953 4.5087,-54.9968 1.606,-5.595 2.0027,-9.9027 1.9819,-21.5 -0.031,-17.1354 2.4165,-48.2048 4.6888,-59.5032 0.8862,-4.4 1.9917,-16.775 2.4551,-27.5 1.2342,-28.4167 2.4939,-40.9272 4.6867,-46.5582 1.6726,-4.2955 2.0172,-8.7927 2.6293,-34.3874 0.7471,-31.1145 1.3857,-37.1306 4.7539,-44.7381 1.9013,-4.2981 2.1636,-7.4963 2.9004,-35.2715 0.8363,-31.384 1.7532,-41.9117 4.3958,-50.4537 1.0786,-3.4908 1.5187,-9.3617 1.5187,-20.3224 0,-20.8108 2.6355,-50.7229 4.8239,-54.7195 1.3591,-2.4828 1.7876,-7.3216 2.3147,-26.0492 1.021,-36.5266 2.4669,-54.4114 4.8125,-59.5849 1.7686,-3.898 2.0072,-6.5818 2.033,-22.9151 0.016,-10.175 0.4974,-22.55 1.0661,-27.5 0.5708,-4.95 1.4374,-15.525 1.9255,-23.5 0.537,-8.7899 1.4814,-15.9132 2.3994,-18.0887 1.0929,-2.5868 1.6772,-9.0083 2.0989,-23 0.742,-24.6921 2.3023,-39.9393 4.7974,-46.9113 1.6702,-4.6631 2.0952,-9.5325 2.7812,-32 1.0499,-34.4045 1.6097,-40.5141 4.2002,-46 1.967,-4.1658 2.1808,-6.8394 2.8802,-36 0.8847,-37.2573 1.9431,-50.2653 4.7731,-58.8391 1.7376,-5.2646 2.0936,-8.824 2.1008,-21 0.014,-23.4536 1.7033,-46.2867 3.9094,-52.8967 1.4863,-4.4474 2.0617,-9.8761 2.5245,-23.7642 1.477,-44.4439 2.9309,-59.438 6.2818,-64.8602 0.3739,-0.6057 1.0057,-11.2349 1.4029,-23.6205 1.1398,-35.473 2.5517,-52.7706 4.8571,-59.47 1.7097,-4.974 2.0201,-8.4528 2.0361,-22.9559 0.022,-20.0557 2.0563,-39.7625 4.9334,-47.8184 1.7667,-4.9441 2.0469,-8.1496 2.0625,-23.5 0.024,-30.1606 1.6242,-51.4008 4.5069,-59.7463 2.135,-6.1836 2.4769,-8.9543 2.4769,-19.981 0,-21.1545 2.0328,-51.6192 3.7064,-55.5477 3.1605,-7.4145 3.4665,-10.4701 4.3291,-43.0536 0.8486,-32.0606 1.8177,-41.721 4.639,-46.2084 0.4294,-0.6809 1.1038,-10.688 1.4993,-22.238 1.1567,-33.6905 2.4443,-48.8749 4.4661,-52.6774 1.5179,-2.8549 1.8709,-7.4755 2.5021,-32.8226 0.9111,-36.5725 2.4442,-57.5465 4.8256,-66 1.3694,-4.8675 1.9863,-11.6896 2.4535,-27.1631 0.7282,-24.2549 2.8346,-46.64 4.9307,-52.4875 1.0018,-2.7938 1.7016,-10.3124 2.1352,-23 1.0296,-30.0274 2.1645,-41.3243 4.7153,-46.9437 2.0608,-4.5372 2.2823,-6.9712 2.9508,-32.4057 0.9981,-37.9584 2.2876,-55.5695 4.4321,-60.5 1.4051,-3.2299 1.897,-8.7169 2.5538,-28.5 0.9825,-29.6525 2.1268,-43.1869 4.0998,-48.5 1.0674,-2.8758 1.6752,-10.6044 2.1603,-27.5 0.8065,-28.0707 2.0608,-41.5823 4.5456,-49 1.4758,-4.3967 1.9701,-10.0133 2.4698,-28 0.9745,-35.1603 2.2104,-50.0315 4.6643,-56.1982 1.8754,-4.7067 2.2063,-8.3888 2.9656,-32.8018 0.8984,-28.9196 2.152,-41.2024 4.7967,-47 1.2594,-2.7615 1.7409,-8.8805 2.2784,-29 0.8503,-31.8281 1.4545,-38.488 4.3956,-48.5 2.1475,-7.3057 2.4032,-10.5169 2.9472,-37 0.8145,-39.4991 1.3164,-46.6022 3.7688,-53.3261 1.731,-4.7501 2.1978,-9.2558 2.8613,-27.6739 1.2893,-35.7751 2.5648,-52.5676 4.3657,-57.5 1.2281,-3.358 1.8798,-10.5908 2.5703,-28.5 0.9926,-25.6813 2.9249,-44.6795 5.3194,-52.2925 1.0349,-3.2934 1.6436,-11.4662 2.0236,-27.2075 0.6742,-27.9329 2.2674,-47.6506 4.3412,-53.7982 1.1215,-3.3203 1.8063,-10.8719 2.3355,-25.7018 1.2282,-34.3485 2.7587,-53.3363 4.9175,-61 1.5529,-5.5132 2.1647,-12.2039 2.8758,-31.5 0.84,-22.6939 1.0936,-24.9792 3.4471,-31 2.3979,-6.1277 2.5768,-7.908 3.1665,-31.0786 0.9493,-37.4627 1.9575,-49.4829 4.644,-55.4214 2.0986,-4.63 2.3195,-6.9981 3.0221,-32 1.0536,-37.589 1.7596,-47.3664 3.7124,-51.5 2.4316,-5.1447 3.5336,-45.8941 1.291,-47.7517 -1.2082,-1.0013 -362.5585,-1.2013 -1807.234,-1 -993.1457,0.1385 -1806.0387,0.5662 -1806.4229,0.9505 -0.3842,0.3843 -0.1361,8.4843 0.5494,18 0.6897,9.5157 1.5333,28.7762 1.8796,42.8012 0.5045,20.4604 0.944,26.0929 2.2144,28.5 0.8729,1.65 2.1021,5.7 2.7306,9 1.2457,6.5385 3.1593,47.6957 3.1593,67.9311 0,10.7791 0.3027,13.2427 2.0515,16.668 2.7559,5.407 3.9285,16.7959 3.9373,38.2303 0.01,16.4781 0.1934,18.2972 2.4271,24 3.081,7.8577 3.5917,13.6247 4.499,50.7669 0.6784,27.7534 0.9259,30.8083 2.8322,35.0449 2.8254,6.2804 4.244,23.8726 4.2838,53.1633 0.028,20.6084 0.255,23.8089 2.0259,28.6955 3.3059,9.1271 4.046,16.2142 4.8558,46.5 0.711,26.5634 0.9572,29.4057 2.9287,33.8284 2.5728,5.7698 4.0217,22.6803 5.019,58.6716 0.5234,18.7583 0.9783,24.1053 2.2619,26.5 2.83,5.2797 3.9412,18.1801 4.5646,53 0.6019,33.577 0.64,34.0684 3.1229,39.5 2.449,5.3495 2.5342,6.3071 3.1782,35 0.5735,25.4847 0.91,30.0444 2.4857,33.5 2.491,5.47 3.4772,16.9688 4.3726,51 0.6973,26.5923 0.9411,29.4151 2.9328,34 3.6311,8.366 4.0749,12.7543 4.7875,47.5 0.6649,32.2804 0.7736,33.7106 3.0894,39.2847 3.0065,7.2529 4.2802,22.1194 4.3434,50.7153 0.04,18.7214 0.2258,20.8904 2.1549,25 2.742,5.839 3.7087,16.0587 4.6466,49 0.6586,23.1837 0.9904,26.938 2.642,30 2.2641,4.1904 3.2588,16.3971 4.4394,54.5 0.7173,23.143 1.0466,26.6421 3.0039,31.8432 1.9772,5.2624 2.3222,9.1386 3.4658,39 1.0635,27.7688 1.5495,33.6878 2.9925,36.4244 2.2337,4.2323 4.6218,32.613 4.6426,55.1114 0.012,14.8102 0.2463,17.0242 2.4431,23.1148 2.9736,8.2476 3.5563,15.6464 4.4421,56.5062 0.5621,26.0111 0.9404,31.5633 2.3494,34.5 2.778,5.7899 3.8009,16.9846 4.4311,48.5 0.4488,22.5391 0.96,30.9948 2.0557,34 3.7669,10.346 4.3275,15.2683 5.159,45.5 0.7854,28.5002 0.992,30.8606 3.1379,36 1.9158,4.5842 2.5105,8.8302 3.5921,25.5 0.711,11 1.3183,27.7761 1.3475,37.2801 0.049,16.4993 0.1773,17.5612 2.7488,23.5 l 2.6953,6.2199 0.6174,36 0.6174,36 2.8274,6 2.8285,6 0.6493,29 c 0.5947,26.5137 0.8305,29.4287 2.7788,34 2.7688,6.5053 3.3128,12.8369 4.2293,49.5 0.7081,28.3248 0.9202,30.8529 2.9617,35.4488 2.5265,5.6831 3.7478,18.6803 5.0378,53.5512 0.662,17.8302 1.1466,22.469 2.8557,27.1767 2.4281,6.7013 4.1946,31.649 4.2286,59.7497 0.019,15.5993 0.2536,18.0792 2.0838,22.0736 2.8023,6.1172 3.7899,17.2413 4.5251,51 0.529,24.3482 0.8882,29.1555 2.4489,33 2.6937,6.629 2.9859,9.4128 3.4785,33 0.8874,42.5514 1.1033,46.282 2.9225,50.5 3.5569,8.2462 4.3908,15.0451 5.1092,41.5289 0.6268,23.2038 0.9566,27.0265 2.6913,30.9711 2.3858,5.4273 3.4366,18.6928 4.3222,54.5 0.5369,21.7432 0.873,25.5862 2.5737,29.5 2.8654,6.5952 3.6982,16.0076 4.4185,50 0.5684,26.9173 0.8679,31.0227 2.5581,34.9501 2.9743,6.9202 4.8218,27.6296 4.8711,54.5499 0.037,21.7128 0.2383,24.5241 2.098,29.5 3.0822,8.2411 3.8411,16.4424 4.7157,51 0.7654,30.2706 0.8879,31.6756 3.1359,36 2.7294,5.2539 3.9005,18.7496 3.9794,45.8237 0.042,14.7835 0.2876,17.0422 2.6025,23.9396 2.904,8.6479 4.3565,26.6668 4.4134,54.6772 0.027,13.986 0.3296,16.9285 2.474,24 2.9927,9.8694 4.5746,29.7048 4.5646,57.2867 -0.01,17.8819 0.16,19.6745 2.3995,25.6208 3.2101,8.5291 3.6091,13.3061 4.4884,53.652 l 0.7513,34.5 2.7426,6.5 c 2.5702,6.0888 2.8004,7.8602 3.6395,28 0.4892,11.825 0.9107,28.0803 0.9315,36.1229 0.033,12.7278 0.3163,15.2516 2.1855,19.4744 3.3714,7.6252 4.7838,23.0587 4.8216,52.6828 0.031,26.6621 0.043,26.8076 2.6701,33 2.5756,6.0782 2.6502,6.8805 3.3272,35.2199 0.589,24.8029 0.9511,29.5789 2.4918,33 3.1008,6.8836 3.5854,12.0615 4.3989,47 0.7472,32.2421 0.9068,34.2585 3.0449,39 2.9249,6.4767 5.0216,28.9105 5.0914,54.5 0.043,16.0578 0.3067,19.0601 1.9788,22.7432 3.2721,7.216 3.9502,14.1999 4.6318,48.0321 0.6424,31.8284 0.7292,32.889 3.147,38.7232 2.9602,7.1438 4.1394,21.4116 4.2083,50.8803 0.038,17.1384 0.2661,19.5813 2.4631,26.5 3.0597,9.6289 4.5847,26.6298 4.6306,51.6212 0.026,14.4878 0.3959,19.9499 1.5518,23 3.077,8.1145 3.3359,10.6073 4.2731,41.0782 0.9738,31.7856 1.5604,36.0533 5.3826,39.2225 1.4479,1.2014 5.1381,2.3655 27.2406,8.5923 4.4027,1.2397 9.855,3.2137 12.1246,4.3867 2.3973,1.2393 7.8419,2.5943 13.0004,3.2344 4.8809,0.6058 11.3508,2.1715 14.3746,3.4793 3.0249,1.3079 9.3247,3.1171 14.0008,4.0206 9.925,1.9179 24.5854,6.3236 40.233,12.089 2.0538,0.7566 6.3274,1.6333 9.4991,1.9483 3.172,0.315 8.6915,1.6429 12.2674,2.9508 3.574,1.308 9.1998,3.1126 12.4995,4.0103 3.301,0.8977 8.3636,2.5424 11.2481,3.6549 2.8882,1.1124 7.1612,2.2599 9.4996,2.55 2.3399,0.2901 8.0792,1.6543 12.7524,3.0314 14.2697,4.2034 18.3512,5.2513 20.4549,5.2513 1.8515,0 16.1968,4.2302 31.0446,9.1539 3.3003,1.0943 9.6026,3.023 14.0009,4.2861 4.3986,1.2631 10.0659,3.245 12.5926,4.4043 2.5213,1.1593 8.1736,2.5089 12.554,2.999 4.3792,0.4902 10.191,1.8915 12.9103,3.1141 2.7175,1.2226 9.5473,3.0669 15.1738,4.0985 5.6271,1.0317 12.2396,2.7911 14.695,3.9099 2.455,1.1188 5.4357,2.0342 6.6258,2.0342 3.9102,0 17.8078,3.8852 39.447,11.029 4.9509,1.634 12.8269,3.8355 17.5001,4.8922 10.7039,2.4195 34.9194,9.4291 37.683,10.9089 1.1463,0.6136 5.3302,1.6191 9.2961,2.2344 3.9659,0.6154 10.4318,2.2165 14.3677,3.5581 3.9336,1.3416 9.9782,3.0961 13.4264,3.8989 3.4495,0.8028 7.9599,2.321 10.0229,3.3738 2.0631,1.0528 5.9917,2.2282 8.7291,2.6119 6.3461,0.8899 18.7783,4.048 21.3482,5.424 1.0858,0.5813 4.3717,1.5578 7.3028,2.17 2.9291,0.6121 8.2494,2.3597 11.8241,3.8835 3.7284,1.5879 9.4366,3.0537 13.3777,3.4338 3.7843,0.3648 9.6342,1.8231 13.001,3.2407 3.3669,1.4176 10.0833,3.2151 14.9252,3.9945 4.8422,0.7795 11.1525,2.4575 14.0289,3.729 2.874,1.2715 7.0128,2.6424 9.1988,3.0465 2.1837,0.4041 8.5326,2.2729 14.1102,4.1528 5.5796,1.8799 11.0234,3.418 12.1025,3.418 1.0775,0 4.11,1.1435 6.7366,2.541 2.7764,1.4758 7.7652,2.9333 11.9009,3.4767 8.565,1.1255 13.7001,2.4645 19.358,5.0474 2.3311,1.0642 5.5312,1.9349 7.1132,1.9349 3.6446,0 19.2673,3.8568 20.814,5.1391 0.6422,0.5313 5.4054,1.8191 10.5904,2.8617 5.1816,1.0426 10.508,2.341 11.8319,2.8854 1.3275,0.5444 5.7889,1.9185 9.9121,3.0537 4.1244,1.1352 10.2008,3.0076 13.5023,4.1608 6.3356,2.2154 8.2262,2.7093 20.9976,5.4899 4.3975,0.9579 9.4221,2.3308 11.1578,3.0509 1.7392,0.72 5.338,1.7814 8.0013,2.3585 2.663,0.5771 6.9516,1.9396 9.5345,3.0279 2.5814,1.0882 9.2337,2.8737 14.7822,3.9677 5.5531,1.0941 11.316,2.6033 12.8102,3.3538 1.4911,0.7506 6.3138,2.1539 10.712,3.1185 7.8871,1.7287 18.3809,4.6938 38.0025,10.7368 5.4994,1.694 12.6026,3.689 15.7797,4.4334 3.1801,0.7443 7.5771,2.2684 9.7687,3.3868 2.1916,1.1184 6.3016,2.4727 9.1317,3.0097 2.8351,0.5369 7.6115,2.1411 10.6232,3.5648 3.4638,1.6393 8.9948,3.0484 15.0836,3.8423 5.7151,0.7455 11.342,2.1386 13.8815,3.4366 2.3673,1.2089 7.8658,2.6336 12.3276,3.1931 4.4325,0.5556 11.4087,2.3418 15.5062,3.9694 4.0962,1.6276 8.5349,2.9592 9.8602,2.9592 3.9945,0 15.5824,2.9831 19.6478,5.057 2.0966,1.0686 4.764,1.943 5.9337,1.943 2.8658,0 17.4988,3.6984 22.4531,5.6765 2.2038,0.8778 6.4763,2.1802 9.503,2.8942 3.023,0.7139 8.1243,2.2175 11.3392,3.3412 3.209,1.1238 9.2824,2.7475 13.4972,3.6083 4.2139,0.8609 10.3618,2.4006 13.6622,3.4216 3.3009,1.021 11.8507,3.6733 19.0012,5.8939 7.15,2.2206 14.5748,4.3465 16.4996,4.7241 1.9254,0.3776 5.5242,1.6921 8.0005,2.921 2.4746,1.2289 7.2747,2.5126 10.6636,2.8525 3.3926,0.34 9.4655,1.7984 13.5006,3.241 4.0335,1.4426 10.0349,3.0729 13.334,3.6229 3.3016,0.55 10.0516,2.3262 15.0035,3.9469 4.9469,1.6208 11.7631,3.568 15.1413,4.327 3.3805,0.759 8.0033,2.3281 10.275,3.4869 2.2693,1.1588 8.0565,2.7088 12.8546,3.4446 4.8005,0.7357 10.9766,2.2438 13.7272,3.3514 2.7489,1.1075 9.6086,2.9524 15.2412,4.0997 5.6321,1.1473 11.4975,2.736 13.0345,3.5304 1.5357,0.7944 4.5783,1.777 6.7584,2.1834 2.1806,0.4064 7.7907,2.0369 12.4672,3.6233 4.6719,1.5864 12.098,3.7221 16.499,4.7459 16.3583,3.8065 48.4957,12.7339 61.95,17.208 4.9203,1.6371 11.86,3.6515 15.4149,4.4764 3.5573,0.8249 7.8195,2.1983 9.4679,3.0519 1.6517,0.8536 6.1894,2.1608 10.0838,2.9048 12.1089,2.3129 15.007,3.0315 17.3885,4.3115 1.2649,0.6816 5.0905,1.6645 8.4984,2.1841 3.4086,0.5196 11.3709,2.5522 17.6974,4.5169 22.9154,7.1188 30.6693,9.3994 39.9992,11.7675 16.7199,4.2434 28.107,7.6105 32.3594,9.5681 5.0781,2.337 9.5088,2.5416 13.2324,0.6107 z m -163.5922,-799.6858 c -3.5758,-1.1037 -10.4648,-3.101 -15.3085,-4.4383 -4.8455,-1.3374 -10.6094,-3.35 -12.8094,-4.4726 -2.1995,-1.1225 -7.4632,-2.451 -11.692,-2.9522 -8.1204,-0.9622 -11.3228,-1.7717 -17.4785,-4.418 -2.0848,-0.8959 -7.5895,-2.2915 -12.2328,-3.1014 -4.6456,-0.8099 -11.4318,-2.5966 -15.0802,-3.9704 -3.6513,-1.3739 -7.4934,-2.4979 -8.5382,-2.4979 -1.047,0 -5.8319,-1.5307 -10.6313,-3.4016 -5.1007,-1.9878 -11.6372,-3.6948 -15.7278,-4.1069 -3.8525,-0.3878 -9.0187,-1.5781 -11.4821,-2.6449 -2.4681,-1.0669 -9.667,-3.0507 -16.0029,-4.4084 -6.3335,-1.3578 -13.2537,-3.1532 -15.3777,-3.9899 -2.1246,-0.8366 -8.3707,-2.4099 -13.8829,-3.4962 -5.511,-1.0863 -12.0426,-2.8699 -14.514,-3.9636 -2.4739,-1.0937 -5.1975,-1.9885 -6.0558,-1.9885 -2.2159,0 -13.2321,-2.6815 -23.1862,-5.6433 -17.6545,-5.2538 -31.6855,-9.6425 -37.0003,-11.5734 -3.0254,-1.0991 -8.1999,-2.6884 -11.5002,-3.5317 -3.3004,-0.8432 -9.0663,-2.8681 -12.8113,-4.4997 -5.2695,-2.2945 -9.1378,-3.1525 -17.073,-3.7876 -6.0111,-0.4812 -12.7111,-1.7069 -16.1877,-2.9607 -3.2597,-1.1768 -10.9579,-3.2063 -17.1061,-4.51 -6.1524,-1.3037 -12.5494,-3.0768 -14.219,-3.9403 -1.6692,-0.8635 -5.8643,-2.1993 -9.3197,-2.9683 -3.4558,-0.7691 -8.7573,-2.3517 -11.7828,-3.5169 -3.0267,-1.1652 -8.8742,-2.6258 -13.0004,-3.2459 -4.1244,-0.6201 -11.0556,-2.4088 -15.4026,-3.9748 -4.3471,-1.5661 -8.8496,-2.8581 -10.0019,-2.8711 -1.1544,-0.013 -4.7944,-1.18 -8.0955,-2.5931 -3.3003,-1.4132 -9.1507,-3.3515 -13.0003,-4.3075 -3.8495,-0.9559 -8.9439,-2.7392 -11.3174,-3.963 -2.6984,-1.3894 -7.7679,-2.6272 -13.5017,-3.2962 -6.0078,-0.7011 -10.8593,-1.9162 -14.0415,-3.5168 -3.1958,-1.6081 -7.7454,-2.7431 -13.2832,-3.3146 -5.556,-0.5734 -10.3658,-1.7761 -14.1397,-3.5362 -3.5411,-1.6532 -8.6181,-2.9757 -13.3509,-3.4787 -4.3589,-0.4633 -10.7958,-2.0682 -15.0018,-3.7406 -4.0484,-1.611 -9.3202,-3.2344 -11.7141,-3.6075 -2.3938,-0.373 -7.1194,-1.9546 -10.4981,-3.5146 -3.3845,-1.5599 -8.1227,-3.137 -10.5321,-3.5046 -2.4094,-0.3676 -7.1343,-1.9845 -10.4999,-3.593 -4.4407,-2.1222 -8.3133,-3.1033 -14.1208,-3.5759 -5.1239,-0.4173 -9.8354,-1.4977 -13.1091,-3.0066 -6.2204,-2.8656 -12.448,-4.3704 -18.2225,-4.403 -2.58,-0.015 -7.0928,-1.2367 -11.1657,-3.0244 -4.1105,-1.8044 -8.5619,-3.0047 -11.1687,-3.0119 -5.1508,-0.014 -12.9877,-1.9817 -17.7911,-4.4661 -1.9028,-0.9843 -6.6666,-2.1493 -10.5876,-2.589 -3.9227,-0.4397 -9.7887,-1.7664 -13.0405,-2.9482 -3.2514,-1.1817 -9.5113,-3.1573 -13.9136,-4.3902 -4.3975,-1.2328 -9.9739,-3.2618 -12.3885,-4.5089 -2.887,-1.4928 -7.3289,-2.5499 -13.0004,-3.0944 -5.7479,-0.5521 -10.4736,-1.6873 -14.2142,-3.415 -3.0801,-1.4234 -8.9452,-3.0119 -13.0322,-3.53 -7.9958,-1.0141 -8.2682,-1.0859 -17.5332,-4.6639 -3.3959,-1.3103 -7.1435,-2.3824 -8.3327,-2.3824 -1.191,0 -5.2374,-1.35 -8.9988,-3 -3.7584,-1.65 -8.0168,-3 -9.4606,-3 -4.6416,0 -17.6864,-3.0759 -21.3355,-5.0309 -1.9456,-1.0433 -5.6014,-2.1674 -8.1197,-2.4981 -7.8737,-1.0329 -18.2204,-3.4904 -21.2126,-5.0385 -1.5811,-0.8165 -5.1958,-1.9252 -8.0356,-2.4639 -2.8422,-0.5387 -7.678,-2.1689 -10.7517,-3.6227 -3.6944,-1.7499 -8.3931,-2.9285 -13.8967,-3.4871 -5.4253,-0.5503 -10.6432,-1.8463 -15.0037,-3.7263 -3.6764,-1.5854 -9.4888,-3.1562 -12.9188,-3.4907 -3.4298,-0.3345 -8.8296,-1.5541 -12.0004,-2.7102 -3.171,-1.1562 -8.4639,-2.7798 -11.7643,-3.608 -3.3004,-0.8283 -8.9261,-2.7666 -12.5001,-4.3074 -4.2211,-1.819 -9.0195,-2.9923 -13.6872,-3.3455 -4.9085,-0.3715 -9.4029,-1.5149 -14.1683,-3.6073 -3.8388,-1.6849 -8.5694,-3.0634 -10.5118,-3.0634 -5.1376,0 -13.559,-1.9568 -17.9239,-4.1649 -2.0864,-1.0552 -6.3603,-2.3814 -9.5004,-2.9471 -3.1382,-0.5657 -8.4417,-2.3461 -11.7824,-3.9563 -4.4686,-2.1532 -8.1715,-3.0867 -14.0007,-3.5293 -5.7551,-0.4368 -9.632,-1.4022 -14.1568,-3.5245 -3.5915,-1.6826 -9.3171,-3.3277 -13.5013,-3.8771 -14.5498,-1.9106 -18.3861,-4.5025 -20.7227,-14.0008 -0.7975,-3.2339 -1.0286,-60.3476 -0.8266,-203 0.2983,-210.503 0.1049,-201.7586 4.5244,-203.4539 1.2745,-0.4892 9.5025,1.8452 26.758,7.5907 4.9515,1.6482 11.4762,3.6032 14.5016,4.3444 3.0232,0.7411 8.1994,2.4677 11.4997,3.8368 3.2981,1.3691 9.9242,2.9978 14.7226,3.6193 5.0175,0.6501 10.9652,2.1735 13.9985,3.5866 3.0338,1.412 7.1259,2.4607 9.6245,2.4663 4.7033,0.011 13.8836,2.3588 18.576,4.7504 1.6092,0.8196 5.9547,1.8707 9.6581,2.3357 3.7036,0.465 10.0369,2.0111 14.0765,3.4357 4.0394,1.4247 11.4324,3.4424 16.4357,4.4839 5.0009,1.0416 10.852,2.5769 12.998,3.4119 2.1496,0.835 9.0827,2.8558 15.4085,4.4905 6.3271,1.6347 16,4.1802 21.4995,5.6566 5.5,1.4764 11.9561,3.0749 14.347,3.5521 4.858,0.9706 15.3294,4.6488 22.1535,7.7829 2.4747,1.1364 5.9121,2.0761 7.6405,2.0881 4.0643,0.029 21.8726,3.6906 24.3199,5.0012 1.0367,0.5548 7.9186,2.5686 15.2928,4.475 7.3755,1.9064 14.7217,3.9673 16.3287,4.5798 1.6031,0.6124 4.9424,1.5403 7.4192,2.0618 5.1279,1.0807 7.501,1.6829 7.501,1.9042 0,0.084 0.6736,0.313 1.4976,0.5085 0.8277,0.1955 3.9752,1.0537 7.0014,1.907 3.0249,0.8534 7.5251,2.0543 9.9984,2.6686 2.4763,0.6143 6.5174,2.0231 8.9834,3.1305 2.4648,1.1074 7.6382,2.4413 11.5002,2.9642 3.8594,0.5229 10.8444,2.2207 15.5176,3.773 4.6753,1.5522 10.6978,3.3448 13.3846,3.9835 2.686,0.6386 6.6292,2.0511 8.7614,3.1389 2.1305,1.0877 7.1318,2.4055 11.1162,2.9284 8.4158,1.1058 13.0597,2.3333 18.977,5.0194 2.3426,1.0637 6.1415,1.944 8.441,1.956 2.2993,0.012 9.6448,1.822 16.3198,4.022 6.6755,2.2 12.895,4.0044 13.8194,4.0098 0.9233,0.01 4.1566,1.166 7.1799,2.5791 3.0584,1.4289 9.5861,3.1863 14.7055,3.9593 5.0649,0.7644 11.8155,2.4857 15.0017,3.825 3.1877,1.3393 8.0433,2.748 10.7928,3.1304 5.4458,0.7571 12.7874,2.6526 21.7172,5.6055 3.147,1.04 6.6723,1.8909 7.8353,1.8909 1.162,0 5.187,1.35 8.949,3 3.7578,1.65 8.2402,3 9.9618,3 5.1149,0 34.7729,7.621 49.2677,12.6601 3.7018,1.2869 7.7525,2.3403 9.001,2.3407 1.2483,4e-4 5.1895,1.3831 8.7613,3.0725 4.426,2.0938 9.1024,3.3681 14.6813,4.0023 4.8313,0.5489 11.258,2.1595 15.6739,3.9274 4.1168,1.6484 8.592,2.997 9.9462,2.997 3.3191,0 16.7774,2.8829 18.9415,4.0576 2.9573,1.6052 6.7641,1.1509 6.7663,-0.8076 0,-0.9625 0.01,-451.3 0.01,-1000.75 0,-549.45 0.2929,-1000.7081 0.6362,-1002.7958 1.2017,-7.2552 -15.1845,-6.7042 199.3525,-6.7042 171.1319,0 193.4345,0.1736 196.0485,1.5257 l 2.9526,1.5257 -0.015,1264.2243 c -0.01,695.3234 -0.353,1264.7586 -0.7706,1265.4117 -1.0861,1.7109 -5.8283,3.3241 -9.528,3.2414 -1.7518,-0.039 -6.1107,-0.9743 -9.6848,-2.078 z m 305.0894,1.2359 c -1.3241,-0.3489 -3.3498,-1.8941 -4.4997,-3.4338 l -2.0891,-2.7994 -0.2954,-198.6768 c -0.2027,-138.0207 0.029,-199.7991 0.7683,-202.353 1.6014,-5.5413 5.3925,-8.0303 17.0842,-11.2191 5.7424,-1.5661 12.0736,-3.4414 14.0645,-4.1672 1.9938,-0.7258 10.7695,-3.1813 19.5015,-5.4566 8.7308,-2.2754 21.8409,-5.6888 29.131,-7.5854 7.2896,-1.8966 14.4885,-3.9188 15.9982,-4.4938 1.5116,-0.5749 4.996,-1.4614 7.7477,-1.9699 5.6731,-1.0492 25.9967,-6.9011 35,-10.0774 3.3004,-1.1644 10.6357,-3.138 16.3021,-4.3857 5.668,-1.2477 12.4186,-3.1681 15.0012,-4.2677 2.582,-1.0995 8.7444,-2.6908 13.6957,-3.5361 4.9511,-0.8453 10.8014,-2.3132 13.001,-3.2622 5.9913,-2.5841 27.5017,-8.5454 39.1816,-10.8579 3.947,-0.782 8.4815,-2.0953 10.0726,-2.9183 1.5927,-0.823 7.1355,-2.2514 12.3202,-3.1741 5.1815,-0.9228 12.5882,-2.9401 16.4575,-4.483 4.0409,-1.6126 10.2084,-3.1136 14.4988,-3.5307 5.0553,-0.491 9.945,-1.8104 15.1313,-4.0821 4.2143,-1.8461 8.7139,-3.3763 9.9997,-3.4004 1.2859,-0.024 4.1372,-0.7163 6.3367,-1.5381 5.6915,-2.126 17.1784,-5.0343 22.7548,-5.7611 2.6135,-0.3407 6.4382,-1.4563 8.4991,-2.479 6.6175,-3.2837 28.0133,-9.7934 50.7461,-15.4387 2.2014,-0.5464 8.7267,-2.3346 14.5017,-3.9739 5.7737,-1.6392 13.6504,-3.6099 17.4987,-4.3794 6.4972,-1.2983 19.8598,-5.2575 37.1818,-11.0156 3.9508,-1.3131 11.375,-3.2663 16.5001,-4.3406 5.1251,-1.0742 11.5707,-2.8225 14.3179,-3.885 2.7512,-1.0625 8.6022,-2.5014 13.001,-3.1975 4.3986,-0.6962 10.7705,-2.2996 14.1587,-3.5633 3.3858,-1.2637 9.0102,-2.9891 12.5001,-3.8342 3.4875,-0.8451 9.4908,-2.461 13.3405,-3.5909 3.85,-1.1299 10.7724,-2.4826 15.3865,-3.0061 13.9396,-1.5823 20.4493,-6.8028 21.5121,-17.2532 0.2905,-2.8597 0.7963,-13.9745 1.1251,-24.6995 0.6596,-21.6583 1.6643,-30.8156 4.081,-37.2079 1.0998,-2.9136 1.8592,-9.5915 2.3629,-20.7921 0.721,-16.0072 2.9913,-40.2024 5.1135,-54.5 0.5731,-3.85 1.639,-14.425 2.3716,-23.5 1.6771,-20.784 2.3898,-25.4496 4.6709,-30.4671 1.4562,-3.2026 1.8408,-6.6065 1.8697,-16.5329 0.032,-11.1415 1.2762,-33.3819 2.4907,-44.5838 0.2441,-2.246 1.4003,-6.296 2.5715,-9 1.8782,-4.3489 2.2342,-7.8974 3.0743,-30.753 0.9083,-24.7442 1.8216,-32.4237 5.3074,-44.6311 1.0774,-3.764 1.5619,-9.7534 1.5619,-19.2198 0,-13.9623 1.8499,-30.8349 4.4705,-40.8123 0.7975,-3.025 1.6876,-12.025 1.9801,-20 0.8439,-22.9356 2.2038,-36.2659 4.144,-40.581 1.3555,-3.0126 1.9355,-8.0823 2.5005,-21.919 0.4059,-9.9 0.8879,-18.9 1.0716,-20 0.3809,-2.2806 1.6237,-2.2303 -18.6895,-0.7566 -7.1635,0.5197 -14.0321,1.4829 -15.2585,2.1405 -1.2292,0.6576 -5.2705,1.6203 -8.9771,2.1394 -3.7073,0.5191 -7.8643,1.184 -9.2394,1.4776 -1.3774,0.2936 -8.3499,0.9003 -15.5003,1.3483 -9.0426,0.5665 -14.0066,1.3387 -16.3051,2.5365 -3.7289,1.9436 -23.021,4.6021 -33.6565,4.6382 -7.4737,0.025 -10.6116,0.6491 -19.7632,3.9307 -4.4899,1.6099 -9.5567,2.2214 -23.5002,2.8368 -16.6973,0.737 -18.1394,0.9592 -23.7749,3.6609 -5.175,2.4799 -7.6539,2.9688 -18.0003,3.5473 -9.0748,0.5075 -12.9764,1.1644 -15.9993,2.6944 -4.8313,2.4433 -10.3587,3.2258 -30.0008,4.246 -13.2521,0.6883 -15.6621,1.0913 -20.6736,3.4577 -4.6166,2.1797 -7.8763,2.8335 -17.5006,3.5106 -6.5051,0.4576 -13.4437,1.5135 -15.4222,2.3463 -4.2636,1.7957 -20.0451,4.3882 -31.7627,5.2184 -4.5979,0.3257 -9.9916,1.2729 -11.9813,2.1049 -5.0683,2.1175 -30.7535,5.4063 -42.2885,5.4149 -8.3662,0.01 -10.4013,0.3643 -15.5015,2.7278 -5.5224,2.5593 -6.9675,2.7546 -24.368,3.2931 -17.6233,0.5454 -18.7858,0.7066 -24.502,3.3986 -4.9503,2.3315 -8.0124,2.9658 -17.5,3.6249 -8.0247,0.5575 -13.6295,1.5485 -18.5427,3.2791 -5.7926,2.0382 -10.247,2.666 -25.002,3.5238 -15.8194,0.9195 -18.652,1.3524 -23.8149,3.638 -6.4133,2.8383 -18.5888,4.4511 -33.9441,4.4961 -7.6071,0.022 -9.7874,0.4489 -16,3.132 -6.1714,2.6629 -8.9081,3.2065 -19.1983,3.8092 -7.6599,0.4488 -13.083,1.2655 -14.9977,2.2585 -1.6499,0.8555 -6.4677,1.8582 -10.7028,2.2282 -7.6089,0.6646 -7.7229,0.6399 -9.4988,-2.0707 -1.7271,-2.6335 -1.8077,-33.3775 -2.0506,-767.5633 -0.2178,-659.7924 -0.055,-765.2879 1.1708,-768.2276 0.793,-1.8993 2.7682,-4.1022 4.4584,-4.9767 2.7466,-1.4209 55.7652,-1.5453 561.1659,-1.3165 l 558.1307,0.2527 2.4466,2.8444 c 2.4314,2.827 2.4454,2.9698 2.3378,23.2905 -0.1339,25.3718 -1.4286,39.3599 -4.1987,45.3651 -1.8808,4.0837 -2.1504,7.2473 -2.8721,34.1965 l -0.798,29.6965 -2.7832,5.3035 -2.7819,5.3035 -0.5323,29.5 c -0.5262,29.1864 -0.5624,29.5638 -3.183,35.5 -2.6329,5.9611 -2.6536,6.2024 -3.2131,37.2018 -0.6229,34.3647 -1.8302,48.2409 -4.8497,55.7982 -1.75,4.3752 -2.1033,8.5614 -2.8243,33.5 -0.4551,15.675 -1.3383,31.5305 -1.9631,35.2344 -1.2477,7.4152 -5.9181,17.0378 -9.3613,19.2936 -1.9136,1.2541 -48.0427,1.4818 -346.2472,1.7094 -275.0551,0.2099 -344.3479,0.5155 -345.5613,1.5236 -0.8366,0.6935 -2.0513,3.8435 -2.6991,7 -1.4951,7.2952 -1.0236,674.4355 0.4838,680.739 l 0.9566,4 9.1798,0.2868 c 6.6874,0.2089 10.2097,-0.1469 12.9838,-1.3114 6.1543,-2.5848 18.4583,-4.529 34.203,-5.4057 9.7142,-0.5408 15.7191,-1.3324 17.6601,-2.3278 4.4036,-2.256 12.5158,-3.6856 26.4429,-4.6583 8.7009,-0.6077 13.883,-1.4759 17.0519,-2.8569 5.529,-2.4118 10.0722,-3.0517 29.4478,-4.1465 12.0389,-0.6804 15.9465,-1.2783 19.7935,-3.0299 5.4506,-2.4809 17.4884,-4.0061 31.8304,-4.0325 6.3386,-0.012 11.1184,-0.5685 14.0008,-1.6303 8.0339,-2.96 16.2671,-4.4835 28.876,-5.3423 7.2314,-0.4925 14.0259,-1.5071 16.1169,-2.4065 4.0972,-1.761 19.3134,-4.2095 31.6807,-5.0976 4.5652,-0.3278 9.9637,-1.2189 12.0005,-1.9803 2.0362,-0.7614 5.2759,-1.6679 7.2,-2.0145 6.8792,-1.2383 27.5844,-3.5071 32.1852,-3.5265 2.5794,-0.011 5.953,-0.5104 7.501,-1.11 4.2257,-1.6363 23.8696,-4.9098 29.4636,-4.9098 2.6975,0 8.3794,-0.886 12.6298,-1.969 10.1316,-2.5831 21.4593,-4.0152 39.2233,-4.9589 11.4613,-0.609 15.3374,-1.1925 18.4974,-2.786 5.4267,-2.7339 8.642,-3.2123 28.3881,-4.2234 15.4051,-0.789 17.5553,-1.1269 22.7201,-3.5706 4.4759,-2.1163 8.533,-2.9875 18.8011,-4.0352 7.1996,-0.7349 15.1168,-1.9985 17.5908,-2.8081 5.5753,-1.8231 27.4056,-4.6898 35.5361,-4.6663 3.604,0.01 8.4368,-0.826 11.9901,-2.0762 6.152,-2.1612 26.5617,-4.8787 36.779,-4.8963 3.1913,-0.01 9.8048,-1.135 14.6951,-2.51 11.6198,-3.267 16.4352,-3.2934 18.5257,-0.1014 2.2568,3.4432 0.6065,31.7533 -2.2764,39.1014 -1.6418,4.1798 -2.0706,8.5267 -2.6043,26.5 -0.7173,24.1792 -1.7603,32.3787 -4.8713,38.3708 -1.9975,3.848 -2.1931,6.2065 -2.8901,34.6292 -0.7587,31.0285 -1.2086,35.2687 -4.792,45 -1.7802,4.8351 -2.0318,7.9783 -2.0788,26 -0.075,28.3076 -1.3383,43.2503 -4.1762,49.5293 -2.1043,4.6527 -2.289,6.826 -2.9078,33.9707 -0.6367,27.9582 -0.7496,29.1976 -3.1276,34.5 -2.3809,5.3042 -2.4924,6.5324 -3.1217,34.5 -0.7412,32.916 -1.8598,44.8277 -4.8922,52 -1.9233,4.5518 -2.1907,7.8235 -2.981,36.5 -0.861,31.2398 -2.103,43.6049 -5.1661,51.5 -1.1778,3.0373 -1.5611,8.1134 -1.5934,21.091 -0.05,20.3901 -1.3653,31.735 -4.6311,40.0796 -2.322,5.9328 -2.4135,7.1269 -2.4234,31 -0.01,29.3973 -0.9042,38.7983 -4.4099,46.3294 -2.4608,5.2839 -2.5636,6.2467 -2.5958,24.5 -0.018,10.45 -0.4511,26.65 -0.9592,36 -0.7796,14.3719 -1.3327,18.1594 -3.5862,24.5 -2.5246,7.103 -2.7091,8.929 -3.5102,34.5 -0.8286,26.4345 -1.2177,29.8618 -4.3177,38 -1.167,3.0636 -1.5344,8.5041 -1.571,23.2409 -0.049,22.4943 -2.4284,48.248 -4.8675,52.7263 -1.3288,2.4395 -1.7851,7.4345 -2.3306,25.5328 -0.9314,30.9441 -1.6934,38.4832 -4.4922,44.4954 -2.2113,4.7489 -2.3311,6.1001 -2.34,26.446 -0.012,27.1395 -1.405,42.5255 -4.5993,50.8191 -2.0827,5.4035 -2.4171,8.0046 -2.4598,19 -0.025,7.0067 -0.4295,21.5145 -0.8994,32.2395 -0.7594,17.3756 -1.1364,20.2505 -3.4612,26.3894 -3.19,8.4277 -3.4033,10.6633 -4.1056,42.6106 -0.5806,26.5752 -1.0459,30.8665 -4.0638,37.5 -1.5529,3.4165 -1.9233,8.0843 -2.5375,32 -0.9342,36.4669 -1.7266,47.3809 -3.6579,50.4572 -0.8496,1.3514 -1.8849,6.195 -2.3007,10.7636 -1.0644,11.6585 -2.6384,13.9663 -12.3871,18.157 -4.6909,2.0161 -11.3825,3.9043 -16.6015,4.6838 -5.0828,0.7594 -10.8277,2.3628 -13.7257,3.8307 -3.4454,1.7457 -7.7167,2.8002 -13.8467,3.4178 -6.2567,0.6303 -10.3847,1.6651 -14.033,3.5165 -2.8408,1.4428 -7.118,2.9193 -9.4989,3.2811 -2.3836,0.3618 -6.9297,1.733 -10.1043,3.0472 -3.1747,1.3142 -7.0006,2.5772 -8.5019,2.8068 -13.9962,2.1422 -17.2438,2.8476 -20.7243,4.5049 -3.9406,1.8749 -17.433,5.0334 -21.4996,5.0334 -1.1449,0 -3.8661,0.9095 -6.0448,2.0211 -2.1792,1.1115 -6.7738,2.7219 -10.2105,3.5785 -3.4369,0.8566 -9.0798,2.669 -12.5401,4.0275 -3.4605,1.3585 -9.9102,2.8829 -14.3357,3.3875 -4.992,0.5694 -10.1931,1.9248 -13.7073,3.5731 -3.9364,1.8454 -8.276,2.8879 -14.2265,3.4168 -5.7754,0.5137 -10.002,1.5068 -12.9975,3.0549 -2.4438,1.2615 -8.0397,3.2913 -12.442,4.5107 -4.3975,1.2194 -10.4739,3.1124 -13.4972,4.2068 -19.4269,7.0272 -28.4856,9.419 -38.3503,10.123 -8.2027,0.5855 -11.169,1.2456 -15.1731,3.3764 -6.066,3.2276 -15.0967,6.7733 -18.4602,7.2482 -4.8375,0.6829 -16.5937,3.721 -22.0162,5.6901 -3.0267,1.0981 -9.9482,2.8432 -15.3836,3.878 -5.4329,1.0348 -12.3855,3.0275 -15.4458,4.4283 -3.4979,1.6021 -8.5901,2.8538 -13.7237,3.3742 -5.1431,0.5214 -10.2266,1.7722 -13.7444,3.3823 -3.0692,1.4052 -8.1958,3.094 -11.3928,3.7529 -3.1957,0.6589 -6.9358,1.7736 -8.3114,2.4771 -2.8141,1.4393 -13.2089,4.0234 -19.9837,4.9668 -2.469,0.3435 -6.9679,1.7074 -10.0021,3.0309 -3.0311,1.3235 -9.1292,2.8173 -13.5489,3.3196 -5.0163,0.5703 -10.6477,2.0423 -14.9989,3.92 -3.8316,1.6538 -8.813,3.2826 -11.0709,3.6195 -2.2544,0.337 -6.6301,1.7691 -9.7162,3.1823 -3.5843,1.6407 -8.6586,2.8838 -14.0364,3.4386 -5.7981,0.5985 -10.0451,1.6925 -13.6438,3.5139 -3.6727,1.863 -7.8518,2.9175 -14.1287,3.567 -6.0769,0.6285 -10.4731,1.7128 -13.8118,3.4048 -2.6935,1.3654 -7.7486,3.1234 -11.2295,3.9065 -3.4797,0.7831 -9.3437,2.5783 -13.031,3.9893 -3.6855,1.411 -10.0109,2.976 -14.0508,3.4779 -4.0433,0.5019 -9.2848,1.8991 -11.647,3.105 -2.7309,1.3922 -7.554,2.5294 -13.2208,3.1155 -6.1703,0.6385 -10.4746,1.7094 -13.9539,3.4728 -2.7686,1.4024 -7.5968,3.0235 -10.7267,3.6025 -3.1334,0.5791 -7.4963,1.9259 -9.697,2.993 -2.2001,1.0671 -7.5806,2.8568 -11.9596,3.9771 -4.373,1.1203 -10.5463,3.1288 -13.718,4.4633 -3.1704,1.3345 -6.6607,2.4263 -7.7581,2.4263 -1.0939,0 -4.3711,0.8675 -7.2794,1.9279 -2.9059,1.0603 -9.3369,2.8742 -14.2842,4.0309 -4.9521,1.1567 -12.6023,3.1946 -17.0033,4.5285 -10.9134,3.3092 -15.7977,4.5047 -18.6145,4.5566 -1.3132,0.024 -3.9585,0.6602 -5.884,1.4135 -9.4947,3.7149 -12.1181,4.4526 -19.4905,5.4778 -4.3765,0.6089 -10.7241,2.2133 -14.1025,3.5652 -3.3806,1.352 -9.7009,2.8561 -14.0483,3.3424 -4.3829,0.4902 -9.7096,1.8058 -11.9575,2.952 -2.2279,1.1373 -7.8,3.0003 -12.3801,4.1401 -4.5794,1.1398 -8.8203,2.4621 -9.4247,2.9384 -1.9479,1.5371 -7.9161,3.0914 -15.6059,4.0655 -4.2167,0.534 -10.1192,2.146 -13.4622,3.6767 -4.2164,1.9304 -8.459,2.9334 -14.5419,3.4371 -6.2566,0.5183 -9.9922,1.4237 -13.7666,3.3353 -2.8472,1.4432 -7.5496,3.1234 -10.45,3.7338 -2.8975,0.6105 -7.7448,2.1215 -10.7709,3.3578 -6.6014,2.6975 -10.6678,3.4602 -13.91,2.6072 z"
     id="path1" />
</svg>
