<?xml version="1.0" encoding="UTF-8" standalone="no"?>
<!-- Created with Inkscape (http://www.inkscape.org/) -->

<svg
   version="1.1"
   id="svg1"
   width="1600"
   height="1600"
   viewBox="0 0 1600 1600"
   sodipodi:docname="linkedinLogoBlanco.svg"
   inkscape:version="1.4.2 (f4327f4, 2025-05-13)"
   xmlns:inkscape="http://www.inkscape.org/namespaces/inkscape"
   xmlns:sodipodi="http://sodipodi.sourceforge.net/DTD/sodipodi-0.dtd"
   xmlns="http://www.w3.org/2000/svg"
   xmlns:svg="http://www.w3.org/2000/svg">
  <defs
     id="defs1" />
  <sodipodi:namedview
     id="namedview1"
     pagecolor="#505050"
     bordercolor="#ffffff"
     borderopacity="1"
     inkscape:showpageshadow="0"
     inkscape:pageopacity="0"
     inkscape:pagecheckerboard="1"
     inkscape:deskcolor="#505050"
     inkscape:zoom="0.509375"
     inkscape:cx="680.2454"
     inkscape:cy="752.88344"
     inkscape:window-width="1920"
     inkscape:window-height="1017"
     inkscape:window-x="-8"
     inkscape:window-y="-8"
     inkscape:window-maximized="1"
     inkscape:current-layer="svg1" />
  <path
     style="fill:#ffffff;stroke-width:1.96319"
     d="m 743.06748,1494.7591 c -12.41717,-0.887 -26.55214,-2.4987 -31.41104,-3.5816 -4.85889,-1.0829 -20.31902,-3.8155 -34.35583,-6.0724 -59.43481,-9.5566 -119.58784,-28.8812 -177.32478,-56.967 -99.37604,-48.3408 -172.59643,-106.3147 -242.88526,-192.3099 -34.93717,-42.744 -68.53,-97.2528 -93.16075,-151.1656 -21.9405,-48.0243 -45.17099,-126.25414 -51.9656,-174.99681 -1.55949,-11.18736 -3.86776,-26.52469 -5.12949,-34.08297 -3.02405,-18.11532 -3.07456,-132.60774 -0.0667,-151.16564 1.22505,-7.55828 3.5581,-23.01841 5.18456,-34.35583 4.34712,-30.30215 20.98268,-95.17793 32.38428,-126.2931 C 205.2433,397.55351 321.82493,263.9396 477.0552,182.44061 c 84.71516,-44.47714 183.71519,-72.06094 278.77301,-77.67289 34.04494,-2.00992 100.36142,-0.71758 120.41451,2.34657 6.11557,0.93447 20.84611,3.06012 32.73451,4.72367 29.22992,4.09014 84.92054,18.376 111.88167,28.70008 2.1595,0.82693 11.7143,3.8486 21.2329,6.71483 19.645,5.91548 61.5723,24.73564 90.6689,40.69918 100.698,55.24671 184.4601,132.09071 247.7225,227.26267 53.8955,81.08025 90.7733,174.34566 105.9594,267.97546 2.627,16.19632 5.7237,35.19019 6.8817,42.20859 2.7304,16.54885 2.7512,132.47735 0.027,149.20246 -13.7377,84.33445 -18.7187,106.15055 -34.639,151.71527 -22.4843,64.351 -49.614,117.9672 -86.1455,170.2479 -34.7863,49.7832 -81.4998,101.8763 -117.5091,131.0415 -7.6665,6.2094 -19.6877,15.9466 -26.7138,21.6382 -14.6366,11.8568 -51.3798,36.983 -73.0062,49.9241 -106.3013,63.6101 -234.85421,98.3767 -360.24539,97.4267 -16.19631,-0.1227 -39.60736,-0.9488 -52.02454,-1.8358 z M 580.89425,1158.1216 c 2.03222,-5.2958 1.31481,-547.27927 -0.72867,-550.51424 -2.76327,-4.37436 -150.2519,-5.51273 -156.14251,-1.20516 -3.85946,2.82224 -3.90037,5.72757 -3.90037,276.94702 0,241.50378 0.35015,274.31618 2.94478,275.95628 1.72416,1.0898 34.79763,1.8738 79.78996,1.8914 68.27952,0.027 76.97801,-0.3161 78.03681,-3.0753 z m 269.19631,-1.6918 c 13.2523,-10.108 12.73153,-3.8033 12.73153,-154.1304 0,-155.56297 -0.48892,-150.18989 16.92008,-185.94923 11.8372,-24.3144 18.36632,-31.49979 35.99647,-39.6146 9.49556,-4.37061 13.52189,-5.00808 31.50062,-4.98727 30.12427,0.0349 34.61537,1.83664 55.16204,22.13057 31.6941,31.30429 31.05,27.0836 31.1929,204.40334 0.1061,131.50429 0.2971,138.81329 3.8304,146.59539 7.1831,15.8207 4.4205,15.3678 93.7461,15.3678 h 79.0716 l 7.3942,-7.395 7.3942,-7.3951 V 975.18166 804.90798 l -5.3493,-19.63191 c -5.659,-20.76823 -21.4063,-54.58126 -35.0198,-75.19515 -11.3885,-17.24456 -37.1746,-44.01504 -55.8272,-57.9583 -19.9769,-14.9331 -56.4033,-32.35675 -85.3988,-40.84829 -22.3391,-6.54218 -22.9795,-6.61028 -60.85891,-6.47166 l -38.28221,0.14009 -22.57669,7.95377 c -12.41718,4.37458 -29.3885,10.82432 -37.71406,14.33276 -8.32556,3.50844 -16.32993,5.92136 -17.78752,5.36202 -1.45759,-0.55933 -3.71695,-4.57755 -5.0208,-8.92939 -2.7682,-9.23942 -11.54621,-17.37661 -20.51701,-19.01921 -3.47742,-0.63674 -39.00969,-0.89274 -78.96061,-0.56891 -71.53095,0.5798 -72.73158,0.65551 -78.77636,4.9673 -3.3761,2.40817 -7.79328,7.70878 -9.81595,11.77914 -3.53767,7.11898 -3.67763,17.07546 -3.67763,261.63375 0,250.31541 0.0605,254.35371 3.92638,262.06001 2.15951,4.3047 6.9282,9.8262 10.59707,12.2699 6.64412,4.4254 6.97588,4.4431 83.25028,4.4431 h 76.57959 z M 525.28785,563.21484 c 60.23928,-17.88307 90.62451,-81.36983 64.54438,-134.8587 -10.22116,-20.96296 -24.87158,-35.60267 -45.93771,-45.90406 l -17.75955,-8.68446 -25.52147,0.60085 c -24.73198,0.58226 -25.98392,0.82169 -40.47064,7.73994 -39.96044,19.0834 -61.80068,63.99799 -52.56569,108.10171 6.84792,32.70376 37.17149,64.05654 70.66505,73.06346 14.22881,3.82634 34.04205,3.8016 47.04563,-0.0587 z"
     id="path2" />
</svg>
