<?xml version="1.0" encoding="UTF-8" standalone="no"?>
<!-- Created with Inkscape (http://www.inkscape.org/) -->

<svg
   version="1.1"
   id="svg1"
   width="1600"
   height="1600"
   viewBox="0 0 1600 1600"
   sodipodi:docname="linkedinLogoNegro.svg"
   inkscape:version="1.4.2 (f4327f4, 2025-05-13)"
   xmlns:inkscape="http://www.inkscape.org/namespaces/inkscape"
   xmlns:sodipodi="http://sodipodi.sourceforge.net/DTD/sodipodi-0.dtd"
   xmlns="http://www.w3.org/2000/svg"
   xmlns:svg="http://www.w3.org/2000/svg">
  <defs
     id="defs1" />
  <sodipodi:namedview
     id="namedview1"
     pagecolor="#505050"
     bordercolor="#ffffff"
     borderopacity="1"
     inkscape:showpageshadow="0"
     inkscape:pageopacity="0"
     inkscape:pagecheckerboard="1"
     inkscape:deskcolor="#505050"
     inkscape:zoom="0.509375"
     inkscape:cx="680.2454"
     inkscape:cy="752.88344"
     inkscape:window-width="1920"
     inkscape:window-height="1017"
     inkscape:window-x="-8"
     inkscape:window-y="-8"
     inkscape:window-maximized="1"
     inkscape:current-layer="svg1" />
  <path
     style="fill:#000000"
     d="m 765.50045,1496.9122 c -25.19999,-0.9439 -50.33174,-3.1814 -53.20023,-4.7365 -1.21012,-0.656 -5.71012,-1.4664 -10,-1.8009 -4.28987,-0.3344 -10.94977,-1.4064 -14.79977,-2.3821 -3.85,-0.9757 -10.375,-2.0667 -14.5,-2.4244 -9.00197,-0.7805 -17.70789,-2.5892 -45.49999,-9.453 -20.8985,-5.1613 -34.82551,-9.0222 -40.5,-11.2275 -5.61452,-2.182 -17.21028,-6.3274 -38.39128,-13.7246 -6.5402,-2.284 -12.3902,-4.5297 -13,-4.9904 -0.60979,-0.4607 -2.68372,-1.4343 -4.60872,-2.1636 -17.62782,-6.6784 -70.59387,-33.1642 -81,-40.5042 -2.475,-1.7458 -8.1,-5.0802 -12.5,-7.4099 -7.52678,-3.9852 -35.16564,-22.2147 -47.64812,-31.4268 -16.02397,-11.8257 -22.76505,-17.13 -31.21727,-24.5636 -3.37403,-2.9674 -7.93461,-6.7096 -10.13461,-8.3159 -2.2,-1.6064 -10.59934,-9.191 -18.6652,-16.8547 C 321.7694,1307.2703 314.71262,1301 314.15352,1301 c -1.40772,0 -12.89819,-11.5107 -14.96357,-14.9899 -0.92922,-1.5653 -8.43949,-10.0546 -16.68949,-18.865 -14.41502,-15.3942 -19.71998,-21.5248 -29.5,-34.0911 -2.475,-3.1802 -6.525,-8.3575 -9,-11.5053 -12.18023,-15.491 -36.10477,-50.8114 -41.01315,-60.5487 -1.2476,-2.475 -4.00255,-7.0592 -6.12211,-10.187 -8.16053,-12.0427 -39.86474,-75.1044 -39.86474,-79.2936 0,-0.4009 -1.16397,-3.0443 -2.5866,-5.8742 -1.42263,-2.8298 -4.10292,-9.6452 -5.95619,-15.1452 -1.85328,-5.5 -5.45584,-15.625 -8.00568,-22.5 -2.54985,-6.875 -4.85712,-13.4 -5.12728,-14.5 -0.27015,-1.1 -0.9147,-2.9 -1.43233,-4 -1.84423,-3.9191 -13.4542,-50.0633 -17.48633,-69.5 -0.85573,-4.125 -2.04283,-9.3 -2.63799,-11.5 -0.59516,-2.2 -1.43072,-7.375 -1.8568,-11.5 -1.9927,-19.29193 -2.82297,-25.01796 -4.28945,-29.58248 -6.39328,-19.89942 -6.40599,-153.8104 -0.0166,-174.91752 1.43692,-4.7468 2.59358,-12.65536 4.31451,-29.5 0.42143,-4.125 1.25786,-9.3 1.85873,-11.5 0.60088,-2.2 1.81149,-7.6 2.69025,-12 5.54491,-27.76352 17.22111,-71.57191 21.58885,-81 0.96128,-2.07501 8.58225,-23.512 12.08717,-34 1.10281,-3.3 2.59832,-6.92312 3.32334,-8.05138 0.72503,-1.12826 2.01497,-4.05326 2.86653,-6.5 4.52014,-12.98741 29.16173,-63.90097 31.6809,-65.4579 0.54174,-0.33481 0.98498,-1.37484 0.98498,-2.31117 0,-0.93634 1.54013,-3.94728 3.42251,-6.69099 1.88238,-2.74371 4.8784,-7.46356 6.65782,-10.48856 8.21567,-13.96656 20.55093,-33.31162 26.46223,-41.5 3.57348,-4.95 8.01761,-11.26951 9.87587,-14.04335 1.85825,-2.77384 4.13219,-5.66873 5.05319,-6.4331 0.92101,-0.76436 2.49402,-2.99486 3.4956,-4.95665 1.00157,-1.9618 3.44368,-5.28644 5.42691,-7.3881 1.98323,-2.10166 3.60967,-4.12666 3.61431,-4.5 0.005,-0.37334 2.9476,-3.77372 6.5399,-7.5564 3.5923,-3.78269 7.15269,-8.28269 7.91198,-10 0.75929,-1.71732 8.16634,-10.02914 16.46011,-18.47071 8.29375,-8.44157 15.07956,-15.74437 15.07956,-16.22845 0,-1.28655 12.90858,-14.15513 17,-16.94732 1.925,-1.31372 9.35,-8.17834 16.5,-15.2547 7.15,-7.07637 14.35,-13.43903 16,-14.13923 1.65,-0.70021 6.12929,-4.26761 9.95397,-7.92755 3.82469,-3.65994 7.23044,-6.65444 7.56835,-6.65444 0.3379,0 2.38362,-1.6019 4.54603,-3.55977 2.16241,-1.95787 5.28165,-4.26925 6.93165,-5.1364 1.65,-0.86714 4.575,-2.88709 6.5,-4.48877 C 394.72299,230.89346 437.83165,202 440.42002,202 c 0.33846,0 4.95938,-2.925 10.26871,-6.5 5.30933,-3.575 10.2945,-6.5 11.07816,-6.5 0.78365,0 2.6193,-0.83542 4.0792,-1.85649 4.0426,-2.82743 45.97066,-23.70084 51.65437,-25.71555 2.75,-0.97479 5.45,-2.06738 6,-2.42796 0.55,-0.36058 3.25,-1.48078 6,-2.48933 2.75,-1.00855 5.9,-2.39861 7,-3.08902 1.1,-0.69042 7.85,-3.26763 15,-5.72713 7.15,-2.45951 16.15,-5.68994 20,-7.17873 16.68236,-6.45105 33.92155,-11.48367 63,-18.39152 24.80701,-5.89313 30.6748,-7.1298 33.81573,-7.12688 1.54866,0.001 3.79866,-0.53031 5,-1.18165 1.20134,-0.65134 5.55926,-1.51692 9.68426,-1.92349 16.16703,-1.5935 24.70759,-2.83713 29.5,-4.29562 11.48823,-3.49625 72.90508,-5.96354 114,-4.5797 36.039,1.21359 54.77007,2.62937 60.91753,4.60442 4.56452,1.46648 10.29055,2.29675 29.58248,4.28945 4.125,0.42608 9.3,1.26164 11.5,1.8568 2.2,0.59516 7.375,1.78226 11.5,2.63799 10.42326,2.1623 44.23925,10.28102 51.51723,12.36852 3.30947,0.94924 7.42899,2.73839 9.15441,3.97589 1.7254,1.2375 4.2786,2.25 5.6738,2.25 1.3951,0 2.8147,0.45 3.1546,1 0.3399,0.55 2.4211,1 4.6248,1 4.2673,0 7.8662,1.43017 9.1749,3.64598 0.4546,0.76971 2.4789,1.35402 4.691,1.35402 2.1402,0 4.1694,0.45 4.5093,1 0.3399,0.55 1.8864,1 3.4366,1 1.5502,0 3.3787,0.675 4.0634,1.5 0.6847,0.825 2.431,1.5 3.8807,1.5 2.7089,0 18.3508,5.18236 20.4469,6.77433 0.6448,0.48976 2.7474,1.47979 4.6724,2.20007 18.4544,6.90504 67.0094,31.16335 82.6955,41.31501 3.7425,2.42203 9.7295,6.08003 13.3045,8.12888 10.4547,5.99163 17.0426,10.1287 24.311,15.26689 3.7461,2.64815 10.9991,7.73982 16.1177,11.31482 5.1187,3.575 10.6511,7.625 12.2942,9 1.6431,1.375 6.2554,4.975 10.2495,8 3.9942,3.025 10.0218,7.92658 13.3949,10.8924 3.373,2.96582 7.3862,6.16566 8.9183,7.11075 1.5321,0.9451 9.3438,7.96851 17.3594,15.6076 8.0156,7.63909 15.757,14.52243 17.2032,15.29632 3.0025,1.60669 18.1518,16.78961 18.1518,18.19206 0,0.50888 5.8327,7.12829 12.9615,14.70981 7.1288,7.58152 14.2634,15.56353 15.8547,17.73782 1.5913,2.17428 5.3211,6.71382 8.2885,10.08785 7.4336,8.45222 12.7379,15.1933 24.5636,31.21727 8.3839,11.36026 27.2663,39.83659 30.9319,46.64812 2.0719,3.85 5.4057,9.475 7.4084,12.5 3.411,5.15218 18.9914,33.4114 18.9914,34.44608 0,0.25993 3.2625,7.14184 7.25,15.29313 7.9062,16.16191 11.6476,24.32511 14.3277,31.26079 0.9564,2.475 2.1098,4.98663 2.5631,5.58139 0.9852,1.29255 10.5308,27.93407 12.4027,34.6154 0.7237,2.58323 2.2797,6.85823 3.4578,9.5 4.649,10.42468 11.27,34.02889 18.4581,65.80321 0.9954,4.4 2.4246,10.62529 3.176,13.83398 0.7514,3.20869 1.6211,9.05869 1.9327,13 0.3115,3.94131 1.4071,10.76602 2.4346,15.16602 1.0275,4.4 2.0712,10.72113 2.3195,14.04695 0.2482,3.32583 1.168,8.27583 2.0438,11 6.3924,19.88148 6.4494,153.61379 0.074,173.67121 -0.8249,2.59498 -1.9196,8.66998 -2.4328,13.5 -0.5131,4.83001 -1.4147,10.80684 -2.0036,13.28184 -0.5888,2.475 -1.6804,9 -2.4258,14.5 -1.4598,10.77169 -2.9582,18.79019 -5.1387,27.5 -0.7574,3.025 -2.541,10.45 -3.9635,16.5 -5.3597,22.79374 -10.4301,39.7292 -14.9035,49.7785 -1.4147,3.1782 -2.574,6.3282 -2.5762,7 -0.01,1.8887 -11.5619,33.5995 -14.2927,39.2215 -1.3358,2.75 -4.1053,9.275 -6.1545,14.5 -2.0492,5.225 -4.5354,10.85 -5.5248,12.5 -0.9895,1.65 -7.325,14.025 -14.0789,27.5 -6.754,13.475 -13.6845,26.3 -15.4012,28.5 -1.7168,2.2 -3.9113,5.7445 -4.8769,7.8767 -2.4866,5.4912 -17.4124,28.271 -30.9492,47.2347 -15.1023,21.1568 -18.5012,25.5495 -28.0416,36.2413 -3.7531,4.206 -8.2992,9.8973 -10.1025,12.6473 -1.8034,2.75 -7.9902,9.725 -13.7486,15.5 -5.7584,5.775 -11.5413,12.075 -12.8508,14 -3.0476,4.48 -14.4272,15.8739 -18.9743,18.9982 -1.925,1.3226 -8.6109,7.4608 -14.8575,13.6403 -6.2466,6.1796 -12.7716,11.925 -14.5,12.7677 -1.7284,0.8426 -6.0675,4.293 -9.6425,7.6674 -3.575,3.3744 -8.975,7.9613 -12,10.193 -3.025,2.2317 -6.175,4.6726 -7,5.4241 -7.6209,6.9423 -60.6611,43.0894 -66.4646,45.2959 -1.4153,0.538 -4.9273,2.7069 -7.8043,4.8196 -2.8771,2.1127 -14.6811,8.6072 -26.2311,14.4323 -11.55,5.8251 -25.95,13.1046 -32,16.1767 -6.05,3.0721 -13.25,6.3244 -16,7.2272 -2.75,0.9029 -7.25,2.7324 -10,4.0656 -5.6351,2.7318 -37.3396,14.2818 -39.2204,14.288 -0.6712,0 -3.5962,1.0907 -6.5,2.4189 -9.5132,4.3514 -24.18042,8.7618 -48.27964,14.5178 -7.15,1.7077 -15.475,3.7324 -18.5,4.4992 -8.67441,2.199 -15.82783,3.5391 -25,4.6831 -4.675,0.5832 -12.325,1.883 -17,2.8885 -4.675,1.0056 -11.70149,2.0886 -15.61443,2.4068 -3.91294,0.3181 -8.63794,1.2008 -10.5,1.9614 -1.86206,0.7607 -9.1954,1.7018 -16.2963,2.0915 -7.10091,0.3897 -13.85091,1.0589 -15,1.4872 -3.07969,1.1478 -66.9251,1.8294 -90.08928,0.9618 z M 580.01142,1156.75 c 1.96252,-3.2188 1.98156,-5.849 1.98156,-273.75 0,-261.98369 -0.0586,-270.59606 -1.86058,-273.55106 C 576.82722,604.02896 576.41315,604 502.21073,604 c -75.10009,0 -77.10222,0.1359 -80.34513,5.45374 -1.7981,2.94858 -1.85778,11.71342 -1.8614,273.34592 -0.004,290.55304 -0.26672,275.20454 4.73267,276.50844 0.96997,0.2529 35.8577,0.5121 77.52829,0.5759 l 75.7647,0.116 z m 267.48903,0.4766 c 5.86884,-3.2004 12.81794,-12.6641 13.83197,-18.8371 0.80347,-4.8913 0.86772,-262.10896 0.0662,-265.05926 -0.51887,-1.9099 1.24121,-11.19566 6.05156,-31.92649 1.76738,-7.61681 16.29899,-37.86569 22.05222,-45.90375 5.44415,-7.60623 8.14316,-10.01953 17.85644,-15.96616 11.57633,-7.08722 17.39149,-8.61949 35.14161,-9.25966 16.61678,-0.5993 32.9835,1.38886 39.5,4.7983 6.94316,3.63268 24.37525,18.84674 30.13615,26.30175 2.6036,3.36917 5.9054,7.55732 7.3373,9.307 5.7423,7.01667 8.7857,14.49618 11.3192,27.81877 1.3597,7.15 2.6212,14.8 2.8032,17 0.1821,2.2 0.3431,65.653 0.3578,141.00666 0.027,136.41194 0.036,137.03254 2.1185,142.95804 4.0041,11.3926 6.9318,14.7937 15.8113,18.3682 5.3536,2.1551 5.7936,2.1671 79.7898,2.1671 84.5056,0 77.5308,0.6998 86.3997,-8.6692 8.7501,-9.2436 8.0077,7.3936 7.6676,-171.8308 -0.2344,-123.4873 -0.5877,-160.67513 -1.582,-166.5 -3.311,-19.39725 -4.4962,-24.34703 -10.4221,-43.52333 -4.2644,-13.7997 -13.7052,-33.04027 -24.4044,-49.7369 -2.3826,-3.71812 -4.332,-7.15696 -4.332,-7.64186 0,-1.02525 -4.0576,-6.30997 -12.5,-16.28017 -3.3,-3.8972 -7.401,-8.93801 -9.1134,-11.20178 -4.6952,-6.20723 -25.2535,-24.90278 -33.4919,-30.45734 -2.5329,-1.70776 -5.1755,-3.79208 -5.8725,-4.63182 -0.6969,-0.83974 -1.7127,-1.5268 -2.2574,-1.5268 -0.5447,0 -3.6302,-1.98442 -6.8567,-4.40981 C 1106.1093,636.97564 1066.2644,618 1061.1744,618 c -0.7544,0 -2.7896,-0.60582 -4.5228,-1.34627 -4.9073,-2.09656 -10.774,-3.93709 -15.1511,-4.75326 -2.2,-0.41022 -6.5785,-1.65463 -9.73,-2.76537 -19.4506,-6.85522 -92.20481,-5.41218 -100.22004,1.98782 -0.5225,0.48239 -1.69894,0.87708 -2.6143,0.87708 -1.56496,0 -13.21938,3.88341 -27.9357,9.30855 -8.86256,3.26717 -10.17793,3.82472 -21.44957,9.09199 -5.41342,2.5297 -10.89147,4.59946 -12.17345,4.59946 -2.93656,0 -5.1095,-3.2449 -6.24574,-9.32691 -1.73472,-9.2855 -9.41034,-17.15877 -19.62215,-20.12742 C 836.94103,604.21756 826.4533,604 767.00045,604 c -76.06414,0 -75.50232,-0.0407 -83.9611,6.08678 -3.97791,2.88158 -10.0389,11.02901 -10.0389,13.49469 0,0.65446 -0.67223,2.47885 -1.49384,4.05422 -1.3135,2.51852 -1.49458,33.17023 -1.5,253.89897 l -0.006,251.03464 2.07608,5.9654 c 3.9608,11.3808 6.99341,15.267 14.94642,19.1533 l 4.4775,2.1879 75.5,0.039 75.5,0.039 z M 516.36477,564.49384 C 517.94014,563.67223 520.31683,563 521.64631,563 c 5.68515,0 23.92355,-7.88865 35.59494,-15.39586 5.35653,-3.44541 16.29967,-14.39869 22.935,-22.95627 5.42135,-6.99192 12.66274,-22.2687 15.948,-33.64469 2.53638,-8.7828 2.6958,-36.05636 0.25799,-44.13835 -3.6379,-12.06066 -11.41137,-27.98039 -16.25538,-33.29034 -1.04085,-1.14097 -2.57489,-3.42449 -3.40897,-5.07449 -1.46659,-2.90122 -11.53659,-12.81158 -17.36752,-17.09218 -5.17125,-3.79632 -27.73222,-14.25564 -34.18068,-15.84624 -4.49124,-1.10783 -11.17432,-1.55314 -23,-1.53255 -15.21007,0.0265 -17.54459,0.27613 -26.66923,2.85174 -34.59186,9.76423 -60.41399,38.26281 -67.74749,74.76948 -1.50071,7.47068 -1.49158,27.915 0.0162,36.34975 3.63938,20.35867 18.8412,44.35014 36.23125,57.18003 C 456.67276,554.5293 474.97571,563 482.50471,563 c 1.79637,0 4.78029,0.65739 6.63094,1.46086 4.70663,2.04342 23.33102,2.06598 27.22912,0.033 z"
     id="path1" />
</svg>
