<?xml version="1.0" encoding="UTF-8" standalone="no"?>
<!-- Created with Inkscape (http://www.inkscape.org/) -->

<svg
   version="1.1"
   id="svg1"
   width="960"
   height="855"
   viewBox="0 0 960 855"
   sodipodi:docname="reactLogoBlanco.svg"
   inkscape:version="1.4.2 (f4327f4, 2025-05-13)"
   xmlns:inkscape="http://www.inkscape.org/namespaces/inkscape"
   xmlns:sodipodi="http://sodipodi.sourceforge.net/DTD/sodipodi-0.dtd"
   xmlns="http://www.w3.org/2000/svg"
   xmlns:svg="http://www.w3.org/2000/svg">
  <defs
     id="defs1" />
  <sodipodi:namedview
     id="namedview1"
     pagecolor="#505050"
     bordercolor="#ffffff"
     borderopacity="1"
     inkscape:showpageshadow="0"
     inkscape:pageopacity="0"
     inkscape:pagecheckerboard="1"
     inkscape:deskcolor="#505050"
     inkscape:zoom="0.67402576"
     inkscape:cx="356.06948"
     inkscape:cy="414.67258"
     inkscape:window-width="1920"
     inkscape:window-height="1017"
     inkscape:window-x="-8"
     inkscape:window-y="-8"
     inkscape:window-maximized="1"
     inkscape:current-layer="svg1" />
  <path
     style="fill:#ffffff;stroke:none;fill-opacity:1"
     d="M 271,0.43902588 C 182.43686,14.271606 178.69443,124.95728 187.28473,194 c 2.17235,17.45978 5.36648,34.8219 9.13965,52 0.96547,4.39551 5.70236,15.58325 2.79861,19.48688 -3.04565,4.09436 -13.53489,5.08178 -18.22299,6.53863 -15.21974,4.72968 -30.22527,10.21271 -45,16.17511 C 83.397423,309.42859 17.11203,345.05139 2.8842592,405 -16.418316,486.33124 70.578804,538.8208 134,564.9892 c 15.4341,6.36834 31.1523,11.77935 47,17.01007 4.70526,1.55298 15.0916,2.50238 18.22299,6.56396 3.02738,3.92676 -1.83026,15.05249 -2.79861,19.43677 -3.85219,17.44092 -7.34917,35.22998 -9.25849,53 -5.61035,52.21552 -7.87895,113.81665 25.73304,158 56.34179,74.06201 157.52258,19.02771 214.10107,-23.47528 13.59518,-10.21301 26.26163,-21.57568 39,-32.81024 3.35629,-2.96002 9.19913,-11.65894 14,-11.65894 4.97931,0 11.44736,9.4353 15,12.52008 13.45389,11.68219 26.82483,23.36975 41,34.18982 42.57776,32.50006 99.198,65.5694 155,55.61957 C 777.9256,837.88574 781.23993,728.51233 772.71527,660 c -2.21014,-17.76306 -5.36786,-35.55096 -9.36652,-53 -0.96325,-4.20331 -5.49194,-14.64935 -2.57171,-18.43677 2.92914,-3.79883 12.79962,-4.75683 17.22296,-6.22986 15.43793,-5.14105 30.94995,-10.13433 46,-16.34417 C 878.90131,543.33618 943.95178,507.79446 958.11188,445 976.00378,365.65665 885.0365,312.81226 824,288.20062 c -15.12781,-6.09997 -30.49274,-11.47644 -46,-16.53088 -4.50354,-1.4679 -14.21576,-2.33209 -17.22296,-6.23303 -2.9176,-3.78473 1.85235,-15.12891 2.79858,-19.43671 3.83271,-17.44916 7.34864,-35.22546 9.25849,-53 C 778.41492,141.05981 780.54034,80.313171 747.84412,36 693.18597,-38.078247 590.93872,14.776123 535,57.129639 c -14.24786,10.787597 -27.521,22.590759 -41,34.294738 -3.35471,2.912903 -9.27216,11.520083 -14,11.520083 -4.87357,0 -11.48911,-9.324587 -15,-12.368837 C 451.53168,78.897339 438.25735,67.113159 424,56.374207 381.46921,24.339172 326.70255,-8.2611084 271,0.43902588 M 451,134 c -4.62845,9.92523 -15.52628,18.68915 -22.71759,27 -13.43771,15.52972 -25.90137,31.79285 -38.4892,48 -5.60901,7.22174 -12.58288,22.56134 -20.96682,26.43591 -11.87861,5.48957 -30.8335,3.8841 -43.82639,5.69446 C 296.84225,245.05365 269.07883,252.21899 241,256 234.26442,203.84436 217.69682,153.18964 229.42438,100 236.75435,66.755371 254.53035,40.997559 291,41 c 10.25681,6.71e-4 20.21933,1.928772 30,5.028564 15.09357,4.783631 29.38602,11.985657 43,19.982239 20.61234,12.1073 39.88181,26.547974 58,42.119567 9.6777,8.31751 18.61984,18.55768 29,25.86963 m 267,122 c -29.06647,-7.5202 -59.27148,-11.8092 -89,-15.71838 -10.64996,-1.40039 -29.52271,0.32098 -38.69983,-5.29474 C 580.26788,228.84784 571.97369,211.38171 564.87036,202 547.56952,179.14978 529.27771,156.27979 509,136 c 8.50555,-12.07452 21.73151,-21.82318 33,-31.24615 30.33246,-25.36469 64.44641,-49.612737 103,-60.329473 18.68195,-5.192993 41.4342,-6.36267 57.99921,5.360352 C 717.89709,60.327942 725.1189,77.902283 729.37347,95 c 9.30744,37.40332 4.9253,78.45624 -1.29321,116 -2.41308,14.5686 -4.29053,31.36841 -10.08026,45 M 481,165 c 15.79687,22.42877 43.17438,41.39252 54,67 H 425 c 10.82556,-25.60754 38.20312,-44.57123 54,-67 h 2 m -48,108.28552 c 31.57138,-3.72516 67.35406,-1.54217 99,0.625 9.7832,0.66999 25.94055,-2.31982 34.67517,2.52313 10.73438,5.95173 19.53345,27.29041 25.90045,37.56635 16.14759,26.06134 31.9549,52.5672 45.67127,80 4.89489,9.78983 11.44317,19.52551 14.77166,30 3.10749,9.77911 -9.02404,24.66272 -13.26239,33 -15.63525,30.7562 -32.76348,60.97583 -51.4483,90 -5.14429,7.99084 -14.38537,29.91223 -24.32251,31.77161 -9.65857,1.80725 -20.19256,0.64727 -29.98535,1.31787 -32.61957,2.23388 -65.31223,1.29553 -98,0.90667 -10.31445,-0.12274 -20.69565,-1.50488 -31,-1.95678 -4.53247,-0.19879 -9.79358,0.72271 -13.48224,-2.55329 -9.44214,-8.38568 -16.2858,-23.8009 -22.94137,-34.48608 -15.42826,-24.76935 -30.59186,-49.97833 -43.82023,-76 -5.53762,-10.89313 -17.36962,-25.65027 -18.32254,-38 -0.86764,-11.24478 11.92618,-27.23206 16.8133,-37 14.10049,-28.18292 30.67993,-55.2699 47.32947,-82 5.75698,-9.24261 12.72045,-25.93219 21.88812,-32.0116 9.38891,-6.22607 29.54199,-2.40576 40.53549,-3.70288 M 339,281 284,378 h -1 c -10.88184,-26.52402 -23.51761,-53.97968 -30,-82 l 86,-15 m 368,15 c -6.47852,28.00269 -19.12402,55.4903 -30,82 h -1 l -55,-97 86,15 m -494,10 c 6.80283,29.4054 19.9191,58.10648 31.20062,86 3.99369,9.87436 14.36045,24.34686 14.37345,35 0.0136,11.0965 -10.85134,26.75665 -15.14969,37 C 232.10944,490.96448 219.60707,519.44049 213,548 165.27478,538.12317 112.56017,514.78442 75,483.75 55.709755,467.81128 39.346882,446.30829 42.173611,420 44.540947,397.96725 63.297653,378.98154 80,366.37424 118.11411,337.60486 166.47528,316.76349 213,306 m 534,242 c -6.60724,-28.55945 -19.10938,-57.03552 -30.42438,-84 -4.30334,-10.25516 -15.14972,-25.89056 -15.14972,-37 0,-10.73615 10.35785,-25.07141 14.37348,-35 11.27905,-27.88736 24.39941,-56.60248 31.20062,-86 46.58429,10.67981 97.68512,31.6449 135,61.80478 C 897.73505,380.52267 915.53931,398.71533 917.82642,420 920.67273,446.48904 904.16846,467.51743 885,483.72531 847.95526,515.04846 794.43604,538.18292 747,548 M 468,342.42822 c -12.04352,1.72541 -23.7269,5.66574 -34,12.27008 -9.46106,6.08231 -17.82687,14.08557 -24.27853,23.3017 -42.31571,60.44754 10.23144,143.09631 82.27853,133.71063 11.69617,-1.52368 22.97028,-5.58493 33,-11.77545 C 534.57349,494.02625 543.0022,486.14755 549.57172,477 592.52374,417.19244 541.04535,331.96338 468,342.42822 M 284,476 l 55,97 c -28.57617,-3.61145 -58.21448,-7.18884 -86,-15 L 272.18906,503 284,476 m 393,0 c 10.41284,26.83963 23.48621,53.8446 30,82 -27.34692,7.68799 -57.68219,12.76501 -86,15 L 653.57562,518 677,476 M 242,598 c 26.6911,6.90857 54.63577,11.55994 82,14.84491 13.18781,1.58319 32.72864,0.3429 44.81558,5.74384 7.47394,3.33966 13.72986,16.97186 18.55942,23.41125 13.8475,18.46332 28.21878,36.67456 43.46991,54 3.75098,4.26117 20.12061,18.12903 18.69366,23.83026 -0.92111,3.6803 -6.91165,7.59674 -9.53857,10.15509 -8.83093,8.60034 -18.42896,16.63751 -28,24.40357 -28.77032,23.34436 -60.96008,45.22723 -97,55.31707 -17.7467,4.96845 -39.83951,6.26868 -56,-3.94903 C 221.26781,781.90015 224.08578,720.5459 226.91127,682 228.86,655.41498 231.50031,622.72113 242,598 m 476,0 c 10.07593,26.70746 12.47791,57.82959 15.16974,86 3.62427,37.92865 4.4107,99.82263 -33.16974,122.37036 -15.98682,9.59192 -37.66125,8.18988 -55,3.33563 -35.94824,-10.06421 -68.38171,-31.89672 -97,-55.32019 -9.53662,-7.80548 -19.16998,-15.80102 -28,-24.40045 -2.62689,-2.55835 -8.61746,-6.47479 -9.53857,-10.15509 -1.42695,-5.70123 14.94268,-19.56909 18.69366,-23.83026 15.25116,-17.32544 29.62244,-35.53668 43.46991,-54 4.84277,-6.45703 11.02643,-20.09747 18.54858,-23.41125 10.70539,-4.71607 27.21076,-3.34302 38.82642,-4.87037 29.24908,-3.84607 59.55353,-7.72131 88,-15.71838 m -182,24 -55,67 h -2 l -55,-67 z"
     id="path1" />
</svg>
