<?xml version="1.0" encoding="UTF-8" standalone="no"?>
<!-- Created with Inkscape (http://www.inkscape.org/) -->

<svg
   version="1.1"
   id="svg1"
   width="840"
   height="880"
   viewBox="0 0 840 880"
   sodipodi:docname="springBootLogoNegro.svg"
   inkscape:version="1.4.2 (f4327f4, 2025-05-13)"
   xmlns:inkscape="http://www.inkscape.org/namespaces/inkscape"
   xmlns:sodipodi="http://sodipodi.sourceforge.net/DTD/sodipodi-0.dtd"
   xmlns="http://www.w3.org/2000/svg"
   xmlns:svg="http://www.w3.org/2000/svg">
  <defs
     id="defs1" />
  <sodipodi:namedview
     id="namedview1"
     pagecolor="#505050"
     bordercolor="#ffffff"
     borderopacity="1"
     inkscape:showpageshadow="0"
     inkscape:pageopacity="0"
     inkscape:pagecheckerboard="1"
     inkscape:deskcolor="#505050"
     inkscape:zoom="0.6548773"
     inkscape:cx="465.7361"
     inkscape:cy="475.66162"
     inkscape:window-width="1920"
     inkscape:window-height="1017"
     inkscape:window-x="-8"
     inkscape:window-y="-8"
     inkscape:window-maximized="1"
     inkscape:current-layer="svg1" />
  <path
     style="fill:#000000"
     d="m 394.5,837.9961 c -25.01087,-1.65714 -53.30945,-6.05952 -73.75,-11.47321 -3.1625,-0.83759 -8.1125,-2.145 -11,-2.90536 -2.8875,-0.76036 -10.65,-3.18495 -17.25,-5.38799 -43.0351,-14.36483 -79.13024,-33.37908 -116.75,-61.50174 -5.9125,-4.41989 -10.75019,-8.07928 -10.75043,-8.13198 -2.4e-4,-0.0527 4.16226,-0.0958 9.25,-0.0958 7.90519,0 10.06772,-0.38322 14.87044,-2.63517 11.13617,-5.22163 18.61474,-14.75282 20.93728,-26.68385 3.50049,-17.98227 -8.71171,-36.20748 -27.55729,-41.12589 -5.96766,-1.55747 -10.75511,-1.28602 -17.729,1.00522 -11.76882,3.8666 -20.74154,12.91546 -24.23406,24.43969 -1.86857,6.16572 -1.90185,10.31642 -0.14263,17.7929 0.74969,3.18609 1.01836,5.66109 0.59705,5.5 -1.216,-0.46496 -19.24151,-20.01463 -26.79299,-29.05849 C 82.363063,659.60754 57.487269,614.84263 41.827301,567.5 26.561033,521.34759 19.148896,467.31895 21.920272,422.39342 24.453923,381.32155 30.338622,350.52337 42.607707,314.1236 54.1153,279.983 74.00703,240.84296 94.310348,212.39068 120.38604,175.84922 155.56677,140.60973 191.8696,114.66848 250.12851,73.037883 326.14289,46.043815 395,42.533247 c 6.325,-0.32247 14.53025,-0.818782 18.2339,-1.102916 8.40167,-0.644553 41.44275,1.183015 56.7661,3.139845 66.30292,8.467053 126.0789,31.413485 180.5,69.289224 15.51317,10.79678 25.38635,18.81632 44.18407,35.88876 l 10.18406,9.24936 3.45209,-4.24876 c 8.19678,-10.08845 21.73705,-32.80147 31.89305,-53.49876 3.8458,-7.8375 7.13498,-14.25 7.30929,-14.25 0.17431,0 3.30874,9.3375 6.96538,20.75 3.65665,11.4125 7.03871,21.875 7.51568,23.25 0.93846,2.70533 5.90814,19.22459 9.17568,30.5 1.1157,3.85 2.41175,8.125 2.88011,9.5 0.99461,2.91996 5.71003,19.8077 8.93508,32 1.23661,4.675 3.05131,11.425 4.03268,15 1.64046,5.97602 5.597,21.97863 9.39523,38 2.82591,11.91996 7.51167,34.48124 9.6576,46.5 0.58921,3.3 1.4712,8.025 1.95997,10.5 7.4983,37.9691 12.06758,97.42011 10.03822,130.60736 -1.05982,17.33181 -3.3504,42.65913 -4.51389,49.91088 -2.22966,13.89694 -2.90975,17.86511 -4.11012,23.98176 -4.34247,22.12747 -15.48367,58.38784 -23.19781,75.5 -1.11573,2.475 -3.02344,6.75 -4.23936,9.5 C 757.34416,658.30168 715.23344,712.09912 664.77252,752.28261 655.1783,759.92276 624.94332,781 623.57785,781 c -0.29646,0 -2.91025,1.5108 -5.80843,3.35734 -2.89818,1.84654 -11.34442,6.46299 -18.76942,10.25879 -12.76841,6.52744 -15.93383,8.00878 -25.5,11.9334 -2.2,0.90257 -5.35,2.22291 -7,2.93408 -24.61375,10.6089 -61.12986,20.56776 -91.5,24.95435 -24.64963,3.56033 -58.13113,5.04023 -80.5,3.55814 z M 261.67371,714.05904 c 24.57115,-4.79055 64.03339,-5.61392 150.82629,-3.14694 49.12512,1.39632 109.51877,0.95465 127.20092,-0.93025 25.37233,-2.70466 30.72689,-3.39116 43.79908,-5.6154 7.7,-1.31017 15.8,-2.78236 18,-3.27154 2.2,-0.48919 5.575,-1.21044 7.5,-1.60279 4.07861,-0.8313 22.67777,-6.03373 28.5,-7.97183 5.7469,-1.91303 12.80537,-4.5763 19.75,-7.45199 4.3721,-1.81043 25.29735,-12.22604 28.75,-14.31039 10.71504,-6.46865 20.86255,-13.6813 30.5,-21.67879 5.88424,-4.88295 21.12923,-20.69552 26.58919,-27.57912 20.91945,-26.37405 36.6579,-57.86307 46.732,-93.5 1.63252,-5.775 3.18499,-11.625 3.44992,-13 0.26494,-1.375 1.21428,-6.1 2.10965,-10.5 5.88806,-28.93492 7.6142,-48.29863 7.61701,-85.44705 0.002,-27.75431 -0.53194,-38.69335 -3.05384,-62.55295 -1.71996,-16.27249 -5.96806,-46.17721 -7.95506,-56 -0.55629,-2.75 -2.18464,-10.85 -3.61857,-18 -1.43393,-7.15 -2.95847,-14.575 -3.38787,-16.5 -0.42939,-1.925 -1.26157,-5.75 -1.84927,-8.5 -1.00667,-4.71046 -10.30326,-41.50175 -12.12886,-48 -0.46355,-1.65 -2.25539,-7.95 -3.98188,-14 -1.72648,-6.05 -3.51677,-12.35 -3.97842,-14 -1.2641,-4.51813 -10.44981,-33.7003 -14.00732,-44.5 -2.79579,-8.48735 -5.30318,-13.19448 -6.36042,-11.94048 -0.20425,0.24227 -2.5359,4.49048 -5.18145,9.44048 -6.20813,11.61583 -16.21254,26.51929 -26.58425,39.60225 -9.44013,11.90786 -31.6576,34.35301 -43.41676,43.86168 -4.39659,3.55516 -8.2188,6.71334 -8.4938,7.01818 -1.1701,1.29706 -20.11102,15.1335 -27,19.72363 -17.39276,11.5888 -51.03101,29.56079 -68,36.33053 -43.42332,17.32362 -77.15773,24.48486 -131.5,27.91524 -8.8,0.55551 -24.775,1.48887 -35.5,2.07415 -70.48007,3.84621 -102.41519,10.79604 -143.13223,31.1489 -21.67563,10.83481 -39.88074,23.87552 -56.98331,40.81837 C 179.96711,398.7523 170.3536,411.2762 160.41742,429.5 143.06591,461.32415 135,492.77539 135,528.60964 c 0,15.69 0.46703,21.02031 3.14463,35.89036 4.42876,24.59512 15.34113,48.4249 30.22337,66 2.79437,3.3 6.66722,7.49901 8.60634,9.33114 10.44121,9.86515 28.7694,20.71742 33.27035,19.69965 1.24042,-0.28048 3.38031,-0.70982 4.75531,-0.95409 1.375,-0.24426 6.775,-1.38114 12,-2.52639 5.225,-1.14525 14,-3.0235 19.5,-4.17387 11.41594,-2.38775 12.80292,-2.69543 28.5,-6.32223 6.325,-1.46138 13.98415,-3.3032 17.02033,-4.09293 3.03618,-0.78973 7.53618,-1.85561 10,-2.36862 2.46382,-0.51301 13.47967,-3.26124 24.47967,-6.10717 11,-2.84593 21.575,-5.55199 23.5,-6.01347 3.30313,-0.79185 6.70787,-1.72717 14.25,-3.91462 1.7875,-0.51844 6.4,-1.84254 10.25,-2.94245 30.59797,-8.74161 57.45168,-17.91754 72.26233,-24.69208 2.91332,-1.33258 5.54578,-2.42287 5.84992,-2.42287 0.30414,0 7.91383,-3.60499 16.91041,-8.0111 54.99072,-26.93187 104.39153,-62.60632 147.00109,-106.1558 20.28847,-20.73602 26.3821,-27.71542 40.36153,-46.22844 9.25417,-12.25534 15.62357,-21.49793 22.12447,-32.10466 6.7246,-10.97171 7.85597,-13.02516 16.25339,-29.5 4.34529,-8.525 7.63678,-14.67069 7.31443,-13.6571 -0.32236,1.0136 -0.85364,3.0386 -1.18064,4.5 -1.51644,6.7773 -10.86502,33.42643 -15.1396,43.1571 C 654.62126,477.0164 603.7768,540.47932 535,593.79603 c -11.01924,8.54227 -31.64844,22.39022 -43.5,29.20064 -1.65,0.94817 -5.25,3.04179 -8,4.65251 -11.16754,6.541 -36.82708,18.63572 -51.5,24.27472 -4.675,1.79666 -9.4,3.65446 -10.5,4.12845 -3.13253,1.34978 -30.87829,10.44244 -42.5,13.92782 -5.775,1.73194 -11.625,3.53923 -13,4.0162 -1.375,0.47697 -5.875,1.84468 -10,3.03935 -4.125,1.19467 -8.625,2.54489 -10,3.00049 -1.375,0.45561 -8.575,2.71558 -16,5.02217 -40.53366,12.59186 -78,25.98126 -78,27.87497 0,2.26482 2.3991,2.54399 9.67371,1.12569 z"
     id="path1" />
</svg>
