<?xml version="1.0" encoding="UTF-8" standalone="no"?>
<!-- Created with Inkscape (http://www.inkscape.org/) -->

<svg
   version="1.1"
   id="svg1"
   width="320"
   height="394"
   viewBox="0 0 320 394"
   sodipodi:docname="sqlLogoBlanco.svg"
   inkscape:version="1.4.2 (f4327f4, 2025-05-13)"
   xmlns:inkscape="http://www.inkscape.org/namespaces/inkscape"
   xmlns:sodipodi="http://sodipodi.sourceforge.net/DTD/sodipodi-0.dtd"
   xmlns="http://www.w3.org/2000/svg"
   xmlns:svg="http://www.w3.org/2000/svg">
  <defs
     id="defs1" />
  <sodipodi:namedview
     id="namedview1"
     pagecolor="#505050"
     bordercolor="#ffffff"
     borderopacity="1"
     inkscape:showpageshadow="0"
     inkscape:pageopacity="0"
     inkscape:pagecheckerboard="1"
     inkscape:deskcolor="#505050"
     showgrid="false"
     inkscape:zoom="2.0685279"
     inkscape:cx="159.77546"
     inkscape:cy="197"
     inkscape:window-width="1920"
     inkscape:window-height="1017"
     inkscape:window-x="-8"
     inkscape:window-y="-8"
     inkscape:window-maximized="1"
     inkscape:current-layer="svg1" />
  <path
     style="fill-opacity:1;fill:#ffffff"
     d="M 143.5,392.91099 C 63.217701,389.54501 6.3247216,362.98072 1.0358614,326.39208 -0.28920963,317.22516 -0.315205,76.953212 1.0078846,67.805476 14.045294,-22.33414 307.16035,-21.285352 319.09434,68.943613 c 2.30172,17.402516 0.6818,258.825827 -1.78039,265.339777 -12.0602,31.90634 -68.31649,55.88468 -136.70808,58.26962 -8.30823,0.28972 -16.45587,0.63973 -18.10587,0.77779 -1.65,0.13806 -10.2,-0.0509 -19,-0.41981 z M 185,365.01607 c 50.88595,-4.25201 89.51484,-17.08575 103.41031,-34.35619 3.01284,-3.74461 5.75529,-47.78658 2.89562,-46.50173 -0.44326,0.19916 -5.46859,2.74933 -11.16741,5.66704 C 217.12379,322.08785 66.894351,319.1201 30.55,284.89462 28.205441,282.68674 27.907921,285.26843 28.194889,305.33076 28.5,326.66152 28.5,326.66152 31.311732,330.34497 49.418179,354.06496 121.48686,370.32319 185,365.01607 Z m 16,-81.53542 c 44.72766,-5.54676 82.10916,-20.54685 89.37797,-35.86473 C 291.88637,244.43721 293.0068,199 291.57678,199 c -0.23276,0 -3.72026,1.76868 -7.75,3.93041 -61.51433,32.999 -184.480932,33.23516 -246.689665,0.47379 C 32.537528,200.98189 28.577296,199 28.336599,199 c -2.56367,0 0.471714,48.20235 3.253091,51.65956 C 52.511218,276.66472 131.91441,292.04808 201,283.48065 Z m -8,-84.54322 c 40.15334,-4.12282 72.3942,-13.99669 89.11755,-27.29254 16.50298,-13.12066 15.20613,-61.07435 -1.42631,-52.74071 -62.62782,31.37948 -178.6834,31.41519 -241.234358,0.0742 -16.755987,-8.39554 -18.186568,39.45905 -1.574429,52.66649 C 64.751081,193.00672 133.29821,205.06742 193,198.93743 Z m -5.63767,-84.95187 c 70.4771,-5.83898 118.3603,-30.978189 99.59996,-52.291065 C 247.42395,16.776573 66.190457,17.929579 31.57003,63.319299 10.264324,91.25252 101.92962,121.0636 187.36233,113.98556 Z"
     id="path2" />
</svg>
