<?xml version="1.0" encoding="UTF-8" standalone="no"?>
<svg
   width="64"
   height="64"
   version="1.1"
   id="svg1"
   sodipodi:docname="unityLogoBlanco.svg"
   inkscape:version="1.4.2 (f4327f4, 2025-05-13)"
   xmlns:inkscape="http://www.inkscape.org/namespaces/inkscape"
   xmlns:sodipodi="http://sodipodi.sourceforge.net/DTD/sodipodi-0.dtd"
   xmlns="http://www.w3.org/2000/svg"
   xmlns:svg="http://www.w3.org/2000/svg">
  <defs
     id="defs1" />
  <sodipodi:namedview
     id="namedview1"
     pagecolor="#505050"
     bordercolor="#ffffff"
     borderopacity="1"
     inkscape:showpageshadow="0"
     inkscape:pageopacity="0"
     inkscape:pagecheckerboard="1"
     inkscape:deskcolor="#505050"
     inkscape:zoom="12.734375"
     inkscape:cx="32"
     inkscape:cy="32"
     inkscape:window-width="1920"
     inkscape:window-height="1017"
     inkscape:window-x="-8"
     inkscape:window-y="-8"
     inkscape:window-maximized="1"
     inkscape:current-layer="svg1" />
  <path
     style="fill:#ffffff;stroke-width:0.0785276"
     d="M 43.700613,60.57835 C 36.768589,58.727406 31.045824,57.182572 30.983359,57.145386 30.920893,57.1082 30.034887,55.613926 29.014456,53.824777 l -1.85533,-3.252998 -3.879188,-0.01746 -3.879188,-0.01746 -9.26839,-9.26839 -9.26839004,-9.26839 9.26532704,-9.265577 9.265328,-9.265576 3.877289,-0.02036 3.87729,-0.02035 1.875441,-3.29816 C 30.056138,8.3160736 30.951199,6.8208639 31.01367,6.8073731 31.076141,6.7938823 36.792088,5.2691976 43.715774,3.4191848 50.639461,1.569172 56.325976,0.07836943 56.352476,0.10629019 c 0.0265,0.0279208 1.574298,5.73374381 3.439551,12.67960681 l 3.39137,12.628841 -1.905458,3.228749 c -1.048002,1.775811 -1.905459,3.286672 -1.905459,3.357469 0,0.0708 0.857399,1.581428 1.905331,3.356958 l 1.90533,3.228235 -3.390918,12.628398 C 57.927218,58.160166 56.379478,63.865616 56.3528,63.893323 56.32612,63.921033 50.632638,62.429294 43.700613,60.57835 Z m 3.312949,-6.537245 C 46.317511,52.807772 36.140223,35.249918 36.092289,35.199731 c -0.03108,-0.03254 -5.10216,-0.05021 -11.269068,-0.03926 l -11.212559,0.0199 6.02115,6.125153 c 3.311633,3.368835 6.486289,6.591937 7.054792,7.162449 l 1.033641,1.037294 9.737424,2.504287 c 5.355583,1.377358 9.750539,2.493534 9.766569,2.480391 0.01603,-0.01314 -0.07878,-0.21512 -0.210676,-0.448837 z m 8.453346,-12.460737 2.68211,-9.619632 -2.697567,-9.619632 c -1.483661,-5.290797 -2.728235,-9.61538 -2.765718,-9.610185 -0.07131,0.0099 -11.183893,19.159331 -11.183893,19.272333 0,0.05377 10.684241,18.568288 11.048799,19.146247 0.06421,0.101795 0.143162,0.154801 0.175452,0.117791 0.03229,-0.03701 1.265657,-4.396124 2.740817,-9.686922 z M 41.677772,19.177259 C 44.74487,13.873955 47.240989,9.5239107 47.224703,9.5104958 47.20201,9.4918023 30.580631,13.735696 28.182934,14.372381 l -0.479643,0.127364 -5.375333,5.4716 c -2.956434,3.00938 -6.128589,6.240309 -7.049234,7.179843 l -1.6739,1.708243 11.248203,-0.0199 11.248202,-0.0199 z"
     id="path2"
     inkscape:label="path2" />
</svg>
