<?xml version="1.0" encoding="UTF-8" standalone="no"?>
<!-- Created with Inkscape (http://www.inkscape.org/) -->

<svg
   version="1.1"
   id="svg1"
   width="900"
   height="626"
   viewBox="0 0 900 626"
   sodipodi:docname="flechaAnterior.svg"
   inkscape:version="1.4.2 (f4327f4, 2025-05-13)"
   xmlns:inkscape="http://www.inkscape.org/namespaces/inkscape"
   xmlns:sodipodi="http://sodipodi.sourceforge.net/DTD/sodipodi-0.dtd"
   xmlns="http://www.w3.org/2000/svg"
   xmlns:svg="http://www.w3.org/2000/svg">
  <defs
     id="defs1" />
  <sodipodi:namedview
     id="namedview1"
     pagecolor="#505050"
     bordercolor="#ffffff"
     borderopacity="1"
     inkscape:showpageshadow="0"
     inkscape:pageopacity="0"
     inkscape:pagecheckerboard="1"
     inkscape:deskcolor="#505050"
     showgrid="false"
     inkscape:zoom="1.3019169"
     inkscape:cx="449.72147"
     inkscape:cy="313"
     inkscape:window-width="1920"
     inkscape:window-height="1017"
     inkscape:window-x="-8"
     inkscape:window-y="-8"
     inkscape:window-maximized="1"
     inkscape:current-layer="svg1" />
  <path
     style="fill:#ffffff"
     d="m 477.56682,624.37003 c 6.05,-0.76392 14.375,-1.80792 18.5,-2.32 11.3815,-1.4129 30.16879,-5.46263 39.5,-8.51449 2.19999,-0.71954 6.69999,-2.08046 10,-3.02428 3.3,-0.94382 7.35,-2.27844 9,-2.96584 1.64999,-0.68739 7.49717,-3.00382 12.99374,-5.14761 8.70028,-3.39333 23.49937,-10.51264 38.47776,-18.51027 7.67925,-4.10029 28.08498,-18.07531 38.5285,-26.38653 12.33705,-9.81815 40.16962,-37.72094 50.37395,-50.50101 7.69161,-9.63313 22.95796,-31.78149 25.97565,-37.6854 14.98969,-29.32622 22.55656,-46.58262 26.667,-60.8146 0.95309,-3.3 2.1095,-6.9 2.56978,-8 2.32224,-5.54975 7.81527,-31.9514 9.36254,-45 0.26087,-2.2 1.16207,-9.625 2.0027,-16.5 1.94877,-15.93806 1.94877,-36.06194 0,-52 -0.84063,-6.875 -1.74183,-14.3 -2.0027,-16.5 -1.58554,-13.3713 -7.15177,-39.94617 -9.42546,-45 -0.49487,-1.1 -1.64454,-4.7 -2.5548,-8 -3.6094,-13.08523 -14.5267,-37.91891 -26.82682,-61.02318 -3.95003,-7.41964 -18.02936,-27.88238 -26.0385,-37.84407 C 684.3835,105.83829 657.25909,78.706209 644.53944,68.487851 635.14874,60.943803 611.80308,44.873142 605.86769,41.867032 576.69182,27.090263 558.97745,19.3429 545.56682,15.494502 c -3.30001,-0.946988 -7.80001,-2.310505 -10,-3.030037 -6.38899,-2.089581 -24.37966,-6.2254158 -32,-7.3564078 -28.56646,-4.23975795 -37.52419,-5.09197483 -53.5,-5.08986286 -7.42501,9.8157e-4 -19.125,0.6895636 -26,1.53018226 -6.875,0.8406187 -14.30001,1.7418364 -16.5,2.0027059 -14.92021,1.7691949 -35.85372,6.3471503 -51,11.1532085 -18.32755,5.815504 -39.25128,14.996519 -63.02319,27.653611 -7.37783,3.928249 -27.85859,18.010481 -37.69177,25.916247 -12.17994,9.792524 -42.38728,39.861361 -50.56715,50.335281 -7.04569,9.02167 -22.67871,31.93578 -25.84934,37.88873 -7.88846,14.81072 -18.18387,36.21655 -18.75846,39.00184 -0.11344,0.55 -0.69002,1.9 -1.28125,3 -0.59123,1.1 -3.13368,8.075 -5.64989,15.5 -6.37063,18.79884 -11.04066,38.89779 -13.12788,56.5 -0.26086,2.2 -1.16207,9.625 -2.0027,16.5 -0.84061,6.875 -1.5284,18.575 -1.5284,26 0,7.425 0.68778,19.125 1.5284,26 0.84062,6.875 1.74184,14.3 2.0027,16.5 1.77161,14.94056 6.3582,35.90351 11.15856,51 11.50379,36.17788 30.39279,71.66285 53.76332,101 9.60072,12.05183 39.15288,41.69975 50.12109,50.2835 8.39771,6.57207 29.89941,21.24373 37.40595,25.52392 6.59963,3.76307 29.39033,15.01323 37.64935,18.58483 16.83076,7.27842 50.42453,16.86468 66.85065,19.07638 4.4,0.59244 10.7,1.51105 14,2.04136 20.26454,3.25648 46.67125,3.80064 66.00001,1.36004 z m 15.98852,-157.23631 c -5.69935,-2.58913 -143.00891,-139.86753 -145.59546,-145.56241 -2.30822,-5.08207 -2.41076,-12.67811 -0.23307,-17.26722 2.52184,-5.3144 140.59559,-143.06181 145.74479,-145.40032 17.81577,-8.09106 35.87454,10.99046 26.92624,28.4512 -0.88647,1.72977 -28.88609,30.46544 -62.2214,63.85705 -33.3353,33.39161 -60.60962,61.19681 -60.60962,61.78933 0,0.59253 27.27884,28.39712 60.61964,61.78799 33.3408,33.39086 61.34042,62.12592 62.2214,63.85569 8.8847,17.44501 -9.11837,36.54506 -26.85252,28.48869 z"
     id="path1" />
</svg>
